<?xml version="1.0" encoding="utf-8"?>
<!-- Generator: Adobe Illustrator 19.2.1, SVG Export Plug-In . SVG Version: 6.00 Build 0)  -->
<svg version="1.1" id="Layer_1" xmlns="http://www.w3.org/2000/svg"  x="0px" y="0px"
	 viewBox="0 0 28 34" style="enable-background:new 0 0 28 34;" xml:space="preserve">
<style type="text/css">
	.st0{fill:#cccccc;}
</style>
<g>
	<g>
		<path class="st0" d="M14,33.7c1.7,0,3-1.7,3.4-2.7h-6.8C11,32,12.3,33.7,14,33.7z"/>
		<path class="st0" d="M16.2,3c0.5,0,0.9-0.1,1.4,0c-0.2-1.6-1.7-3-3.4-3h-0.1c-1.7,0-3.1,1.3-3.4,3c0.4,0,0.7,0,1.1,0H16.2z"/>
		<path class="st0" d="M25,13.8C25,9.2,20.8,5,16.2,5h-4.3C7.2,5,3,9.2,3,13.8V24H0v5h28v-5h-3V13.8z"/>
	</g>
</g>
</svg>
