<?xml version="1.0" encoding="utf-8"?>
<!-- Generator: Adobe Illustrator 19.2.1, SVG Export Plug-In . SVG Version: 6.00 Build 0)  -->
<svg version="1.1" id="Layer_1" xmlns="http://www.w3.org/2000/svg"  x="0px" y="0px"
	 viewBox="0 0 28 31.2" style="enable-background:new 0 0 28 31.2;" xml:space="preserve">
<style type="text/css">
	.st0{fill:none;}
	.st1{fill:#E6E6E6;}
	.st2{fill:#B3B3B3;}
</style>
<g>
	<path class="st0" d="M14,29.5c1.3,0,2.5-1,2.9-2.3h-5.8C11.5,28.5,12.7,29.5,14,29.5z"/>
	<path class="st1" d="M24.7,25.5c-0.7-0.9-1.2-1.9-1.5-3H4.9c-0.3,1.1-0.8,2.1-1.5,3H24.7z"/>
	<path class="st2" d="M27.5,25.5C24.2,24,24,17.6,24,17.4v-4.3c0-4.2-2.5-7.7-6.1-9.2C17.9,1.7,16.1,0,14,0c-2.1,0-3.9,1.7-3.9,3.9
		C6.5,5.4,4,9,4,13.1v4.3c0,0.2-0.1,6.6-3.4,8.1c-0.4,0.2-0.6,0.6-0.5,1c0.1,0.4,0.4,0.7,0.9,0.7h8.4c0.2,0.9,0.6,1.8,1.3,2.5
		c0.9,0.9,2.1,1.5,3.4,1.5c1.3,0,2.5-0.5,3.4-1.5c0.7-0.7,1.1-1.6,1.3-2.5h8.4c0.4,0,0.8-0.3,0.9-0.7C28.1,26.1,27.9,25.7,27.5,25.5
		z M23.1,22.5c0.3,1.1,0.8,2.1,1.5,3H3.3c0.7-0.9,1.2-1.9,1.5-3H23.1z M14,1.8c1,0,1.8,0.6,2,1.5c-0.7-0.1-1.3-0.2-2-0.2
		s-1.4,0.1-2,0.2C12.2,2.4,13,1.8,14,1.8z M5.7,17.4v-4.3c0-4.6,3.7-8.3,8.3-8.3s8.3,3.7,8.3,8.3v4.3c0,0.1,0,1.5,0.4,3.2H5.4
		C5.7,19,5.7,17.6,5.7,17.4z M14,29.5c-1.3,0-2.5-1-2.9-2.3h5.8C16.5,28.5,15.3,29.5,14,29.5z"/>
	<path class="st2" d="M14,6.1c-3.8,0-6.9,3.1-6.9,6.9c0,0.5,0.4,0.9,0.9,0.9s0.9-0.4,0.9-0.9c0-2.8,2.3-5.1,5.1-5.1
		c0.5,0,0.9-0.4,0.9-0.9C14.9,6.5,14.5,6.1,14,6.1z"/>
</g>
</svg>
