<?xml version="1.0" encoding="UTF-8"?>
<svg width="51px" height="50px" viewBox="0 0 51 50" version="1.1" xmlns="http://www.w3.org/2000/svg" xmlns:xlink="http://www.w3.org/1999/xlink">
    <!-- Generator: sketchtool 53.2 (72643) - https://sketchapp.com -->
    <title>58650A65-2598-43EC-8928-D695DC0BD10B</title>
    <desc>Created with sketchtool.</desc>
    <g id="UI_2" stroke="none" stroke-width="1" fill="none" fill-rule="evenodd">
        <g id="Home" transform="translate(-969.000000, -5832.000000)">
            <g id="aim" transform="translate(969.000000, 5832.000000)">
                <g id="Shape-2" transform="translate(16.238095, 16.000000)" fill="#FFFFFF" fill-rule="nonzero">
                    <path d="M17.8863493,7.33333339 L16.1221589,7.33333339 C15.8386033,7.33333339 15.6049842,7.17723815 15.4963811,6.91533339 C15.3877779,6.65342862 15.4429525,6.3775556 15.6430477,6.17711116 L16.8904128,4.93009528 C17.0737462,4.74676194 17.1746668,4.5026667 17.1746668,4.24355559 C17.1746668,3.98409527 17.0737462,3.74034923 16.8904128,3.55666669 L15.3004763,1.96673017 C14.9338096,1.6000635 14.2944128,1.59936509 13.9270477,1.96673017 L12.6800318,3.21374606 C12.5141588,3.37961907 12.3318731,3.4141905 12.2079049,3.4141905 C12.0333017,3.4141905 11.8597461,3.34574606 11.7315874,3.22596828 C11.6369525,3.13726987 11.5238096,2.98012701 11.5238096,2.73498415 L11.5238096,0.970793658 C11.5238096,0.435460321 11.0883493,0 10.553016,0 L8.30412705,0 C7.76879371,0 7.33333339,0.435460321 7.33333339,0.970793658 L7.33333339,2.73498415 C7.33333339,3.16031748 6.98517466,3.4141905 6.64853973,3.4141905 C6.52492068,3.4141905 6.34263497,3.37926987 6.17676195,3.21374606 L4.92974607,1.96673017 C4.56238099,1.59936509 3.92298416,1.6000635 3.55631749,1.96673017 L1.96638097,3.55666669 C1.78304763,3.74000003 1.682127,3.98409527 1.682127,4.24355559 C1.682127,4.5026667 1.78304763,4.74641273 1.96638097,4.93009528 L3.21374606,6.17711116 C3.4138413,6.3775556 3.46866669,6.65342862 3.36041272,6.91533339 C3.25215875,7.17723815 3.01853971,7.33333339 2.73498415,7.33333339 L0.970793658,7.33333339 C0.435460321,7.33333339 0,7.76879371 0,8.30412705 L0,10.5523175 C0,11.0880001 0.435460321,11.5238096 0.970793658,11.5238096 L2.73498415,11.5238096 C3.01853971,11.5238096 3.25215875,11.6799049 3.36076193,11.9418096 C3.46936511,12.2037144 3.4141905,12.4795874 3.21409526,12.6800318 L1.96673017,13.9270477 C1.78339684,14.1103811 1.6824762,14.3544763 1.6824762,14.6135874 C1.6824762,14.8730477 1.78339684,15.1167938 1.96673017,15.3004763 L3.55666669,16.8904128 C3.92368257,17.2574287 4.56273019,17.2581271 4.93009528,16.8904128 L6.17711116,15.6433969 C6.34298418,15.4775239 6.52526989,15.4429525 6.64923815,15.4429525 C6.98552386,15.4429525 7.3336826,15.6971747 7.3336826,16.1221589 L7.3336826,17.8860001 C7.33333339,18.4213335 7.76879371,18.857143 8.30412705,18.857143 L10.5526667,18.857143 C11.0880001,18.857143 11.5234604,18.4213335 11.5234604,17.8860001 L11.5234604,16.1221589 C11.5234604,15.6968255 11.8716191,15.4429525 12.2079049,15.4429525 C12.3315239,15.4429525 12.5141588,15.4778731 12.6800318,15.6433969 L13.9270477,16.8904128 C14.2944128,17.2577779 14.9338096,17.2570795 15.3004763,16.8904128 L16.8904128,15.3004763 C17.0737462,15.117143 17.1746668,14.8730477 17.1746668,14.6135874 C17.1746668,14.3544763 17.0737462,14.1107303 16.8904128,13.9270477 L15.6430477,12.6800318 C15.4429525,12.4795874 15.3881271,12.2037144 15.4963811,11.9418096 C15.604635,11.6799049 15.8386033,11.5238096 16.1221589,11.5238096 L17.8863493,11.5238096 C18.4216827,11.5238096 18.857143,11.0880001 18.857143,10.5526667 L18.857143,8.30412705 C18.857143,7.76879371 18.4216827,7.33333339 17.8863493,7.33333339 Z M11.873016,9.4285715 C11.873016,10.7761588 10.7761588,11.873016 9.4285715,11.873016 C8.08098419,11.873016 6.98412704,10.7761588 6.98412704,9.4285715 C6.98412704,8.08098419 8.08098419,6.98412704 9.4285715,6.98412704 C10.7761588,6.98412704 11.873016,8.08098419 11.873016,9.4285715 Z" id="Shape"></path>
                </g>
                <circle id="Oval" stroke="#FFFFFF" stroke-width="2" cx="25.8809524" cy="25.6428571" r="19.6428571"></circle>
                <rect id="Rectangle" fill="#FFFFFF" x="24.6428571" y="0" width="2.38095238" height="11.9047619" rx="1.19047619"></rect>
                <rect id="Rectangle-Copy-24" fill="#FFFFFF" x="24.6428571" y="38.0952381" width="2.38095238" height="11.9047619" rx="1.19047619"></rect>
                <path d="M44.8809524,18.6428571 L44.8809524,18.6428571 C45.5384342,18.6428571 46.0714286,19.1758515 46.0714286,19.8333333 L46.0714286,29.3571429 C46.0714286,30.0146247 45.5384342,30.547619 44.8809524,30.547619 L44.8809524,30.547619 C44.2234705,30.547619 43.6904762,30.0146247 43.6904762,29.3571429 L43.6904762,19.8333333 C43.6904762,19.1758515 44.2234705,18.6428571 44.8809524,18.6428571 Z" id="Rectangle" fill="#FFFFFF" transform="translate(44.880952, 24.595238) rotate(-270.000000) translate(-44.880952, -24.595238) "></path>
                <path d="M6.19047619,18.6428571 L6.19047619,18.6428571 C6.84795804,18.6428571 7.38095238,19.1758515 7.38095238,19.8333333 L7.38095238,29.3571429 C7.38095238,30.0146247 6.84795804,30.547619 6.19047619,30.547619 L6.19047619,30.547619 C5.53299435,30.547619 5,30.0146247 5,29.3571429 L5,19.8333333 C5,19.1758515 5.53299435,18.6428571 6.19047619,18.6428571 Z" id="Rectangle-Copy-24" fill="#FFFFFF" transform="translate(6.190476, 24.595238) rotate(-270.000000) translate(-6.190476, -24.595238) "></path>
            </g>
        </g>
    </g>
</svg>