<?xml version="1.0" encoding="UTF-8"?>
<svg width="148px" height="143px" viewBox="0 0 148 143" version="1.1" xmlns="http://www.w3.org/2000/svg" xmlns:xlink="http://www.w3.org/1999/xlink">
    <!-- Generator: sketchtool 53.2 (72643) - https://sketchapp.com -->
    <title>69790C5B-8C37-4179-94A5-0423C4CD37F1</title>
    <desc>Created with sketchtool.</desc>
    <g id="UI_2" stroke="none" stroke-width="1" fill="none" fill-rule="evenodd">
        <g id="Homepage" transform="translate(-850.000000, -3457.000000)">
            <g id="building-icon" transform="translate(850.000000, 3457.000000)">
                <g id="Group-13">
                    <ellipse id="Oval-Copy" fill="#D8D8D8" opacity="0.36828032" cx="85.443299" cy="62.3723404" rx="62.556701" ry="62.3723404"></ellipse>
                    <path d="M66.1980204,59.5431833 L73.1870627,59.5431833 L73.1870627,42.2066977 L66.1980204,42.2066977 L66.1980204,59.5431833 Z M66.1980204,81.0080753 L73.1870627,81.0080753 L73.1870627,63.6715897 L66.1980204,63.6715897 L66.1980204,81.0080753 Z M66.1980204,103.178276 L73.1870627,103.178276 L73.1870627,85.8417903 L66.1980204,85.8417903 L66.1980204,103.178276 Z M55.2477469,59.5431833 L62.2367892,59.5431833 L62.2367892,42.2066977 L55.2477469,42.2066977 L55.2477469,59.5431833 Z M55.2477469,81.0080753 L62.2367892,81.0080753 L62.2367892,63.6715897 L55.2477469,63.6715897 L55.2477469,81.0080753 Z M55.2477469,103.178276 L62.2367892,103.178276 L62.2367892,85.8417903 L55.2477469,85.8417903 L55.2477469,103.178276 Z M44.2974734,59.5431833 L51.2865157,59.5431833 L51.2865157,42.2066977 L44.2974734,42.2066977 L44.2974734,59.5431833 Z M44.2974734,81.0080753 L51.2865157,81.0080753 L51.2865157,63.6715897 L44.2974734,63.6715897 L44.2974734,81.0080753 Z M44.2974734,103.178276 L51.2865157,103.178276 L51.2865157,85.8417903 L44.2974734,85.8417903 L44.2974734,103.178276 Z M38.1443299,143 L52.2988819,143 L52.2988819,120.749864 L64.1779318,120.749864 L64.1779318,143 L79.3402062,143 L79.3402062,31.9468085 L38.1443299,31.9468085 L38.1443299,143 Z" id="Fill-21" fill="#3C3C3C"></path>
                    <path d="M7.1554613,68.4777757 L18.3092784,68.4777757 L18.3092784,57.4155686 L7.1554613,57.4155686 L7.1554613,68.4777757 Z M7.1554613,87.6880556 L18.3092784,87.6880556 L18.3092784,76.6258485 L7.1554613,76.6258485 L7.1554613,87.6880556 Z M7.1554613,107.401599 L18.3092784,107.401599 L18.3092784,96.3441847 L7.1554613,96.3441847 L7.1554613,107.401599 Z M7.1554613,126.156545 L18.3092784,126.156545 L18.3092784,115.094338 L7.1554613,115.094338 L7.1554613,126.156545 Z M27.4034829,126.156545 L27.4034829,115.094338 L36.6185567,115.094338 L36.6185567,107.401599 L27.4034829,107.401599 L27.4034829,96.3441847 L36.6185567,96.3441847 L36.6185567,87.6880556 L27.4034829,87.6880556 L27.4034829,76.6258485 L36.6185567,76.6258485 L36.6185567,68.4777757 L27.4034829,68.4777757 L27.4034829,57.4155686 L36.6185567,57.4155686 L36.6185567,50.2021277 L0,50.2021277 L0,138.43617 L36.6185567,138.43617 L36.6185567,126.156545 L27.4034829,126.156545 L27.4034829,126.156545 Z" id="Fill-22" fill="#3C3C3C"></path>
                    <path d="M86.2882516,132.594263 L99.9357151,132.594263 L99.9357151,123.016143 L86.2882516,123.016143 L86.2882516,132.594263 Z M112.611483,132.90639 L112.611483,63.893617 L82.3917526,63.893617 L82.3917526,70.4343173 L105.299474,70.4343173 L105.299474,74.1751879 L82.3917526,74.1751879 L82.3917526,80.7158881 L105.299474,80.7158881 L105.299474,84.4381242 L82.3917526,84.4381242 L82.3917526,90.9788245 L105.299474,90.9788245 L105.299474,94.1560022 L82.3917526,94.1560022 L82.3917526,100.696702 L105.299474,100.696702 L105.299474,104.204642 L82.3917526,104.204642 L82.3917526,110.750001 L105.299474,110.750001 L105.299474,116.820181 L82.3917526,116.820181 L82.3917526,138.43617 L117.484536,138.43617 L117.484536,132.90639 L112.611483,132.90639 L112.611483,132.90639 Z" id="Fill-23" fill="#3C3C3C"></path>
                </g>
            </g>
        </g>
    </g>
</svg>