<?xml version="1.0" encoding="UTF-8"?>
<svg width="17px" height="17px" viewBox="0 0 17 17" version="1.1" xmlns="http://www.w3.org/2000/svg" xmlns:xlink="http://www.w3.org/1999/xlink">
    <!-- Generator: sketchtool 53.2 (72643) - https://sketchapp.com -->
    <title>73E49228-DF63-40C4-A365-DA6F84F2A4C6</title>
    <desc>Created with sketchtool.</desc>
    <g id="UI_2" stroke="none" stroke-width="1" fill="none" fill-rule="evenodd">
        <g id="Homepage" transform="translate(-1242.000000, -78.000000)" fill="#000000" fill-rule="nonzero">
            <path d="M1258.61889,91.4461808 L1255.99351,88.8145536 C1255.47058,88.2925456 1254.6046,88.3084055 1254.06345,88.8509727 L1252.74077,90.1763562 C1252.65721,90.1301959 1252.57071,90.0819796 1252.47977,90.0308264 C1251.64452,89.5669715 1250.50132,88.9312026 1249.29835,87.724622 C1248.09181,86.515496 1247.45689,85.3679497 1246.99267,84.53026 C1246.94368,84.4415127 1246.89675,84.3559473 1246.8504,84.2746895 L1247.73811,83.3862871 L1248.17454,82.948327 C1248.71652,82.4049766 1248.73146,81.5372802 1248.20976,81.0137548 L1245.58437,78.3818338 C1245.06266,77.8590426 1244.1963,77.8749026 1243.65432,78.418253 L1242.9144,79.1641116 L1242.93462,79.1842303 C1242.68651,79.5015273 1242.47918,79.8674812 1242.3249,80.26212 C1242.18268,80.6377661 1242.09413,80.9962305 1242.05364,81.3554292 C1241.70698,84.2358717 1243.02028,86.8683801 1246.58442,90.4406399 C1251.51113,95.3781778 1255.48142,95.005175 1255.6527,94.9869654 C1256.02574,94.9422737 1256.38325,94.852939 1256.74657,94.711521 C1257.1369,94.5586976 1257.50178,94.3511965 1257.81816,94.1030665 L1257.83433,94.1174579 L1258.58392,93.381781 C1259.12477,92.8385285 1259.14035,91.9705384 1258.61889,91.4461808 Z" id="landingpage-contact"></path>
        </g>
    </g>
</svg>