<?xml version="1.0" encoding="UTF-8"?>
<svg width="624px" height="513px" viewBox="0 0 624 513" version="1.1" xmlns="http://www.w3.org/2000/svg" xmlns:xlink="http://www.w3.org/1999/xlink">
    <!-- Generator: Sketch 53.2 (72643) - https://sketchapp.com -->
    <title>Combined Shape</title>
    <desc>Created with Sketch.</desc>
    <g id="UI_2" stroke="none" stroke-width="1" fill="none" fill-rule="evenodd" opacity="0.0597098214">
        <g id="Pop-over-3" transform="translate(-683.000000, -310.000000)" fill="#3C3C3C" fill-rule="nonzero">
            <g id="Group-33" transform="translate(58.000000, 310.000000)">
                <g id="Group-32">
                    <g id="Combined-Shape">
                        <path d="M722.264264,25 C742.101181,-155.667002 889.936836,-297.760219 1073,-308.364551 L1073,-402 C1073,-403.104569 1073.89543,-404 1075,-404 L1115,-404 C1116.10457,-404 1117,-403.104569 1117,-402 L1117,-308.364551 C1300.06316,-297.760219 1447.89882,-155.667002 1467.73574,25 L1551,25 C1552.10457,25 1553,25.8954305 1553,27 L1553,67 C1553,68.1045695 1552.10457,69 1551,69 L1469.99186,69 C1468.69711,267.844419 1313.05008,430.007924 1117,441.364551 L1117,511 C1117,512.104569 1116.10457,513 1115,513 L1075,513 C1073.89543,513 1073,512.104569 1073,511 L1073,441.364551 C876.949923,430.007924 721.302885,267.844419 720.008137,69 L627,69 C625.895431,69 625,68.1045695 625,67 L625,27 C625,25.8954305 625.895431,25 627,25 L722.264264,25 Z M752.463213,25 L841,25 C842.104569,25 843,25.8954305 843,27 L843,67 C843,68.1045695 842.104569,69 841,69 L750.008843,69 C751.298682,251.279611 893.536524,399.998623 1073,411.308859 L1073,297 C1073,295.895431 1073.89543,295 1075,295 L1115,295 C1116.10457,295 1117,295.895431 1117,297 L1117,411.308859 C1296.46348,399.998623 1438.70132,251.279611 1439.99116,69 L1337,69 C1335.89543,69 1335,68.1045695 1335,67 L1335,27 C1335,25.8954305 1335.89543,25 1337,25 L1437.53679,25 C1417.92325,-139.081322 1283.47843,-267.816973 1117,-278.308859 L1117,-188 C1117,-186.895431 1116.10457,-186 1115,-186 L1075,-186 C1073.89543,-186 1073,-186.895431 1073,-188 L1073,-278.308859 C906.521573,-267.816973 772.076755,-139.081322 752.463213,25 Z M1247.18741,23.5555556 C1257.00996,23.5555556 1265,31.5455926 1265,41.3681481 L1265,82.6254444 C1265,92.448 1257.00996,100.444444 1247.18741,100.444444 L1214.81719,100.444444 C1209.61437,100.444444 1205.32141,103.308556 1203.33511,108.114111 C1201.34881,112.919667 1202.35478,117.981519 1206.02622,121.65937 L1228.91348,144.540222 C1232.27737,147.910519 1234.12911,152.382889 1234.12911,157.137185 C1234.12911,161.897889 1232.27737,166.376667 1228.91348,169.740556 L1199.74056,198.913481 C1193.01278,205.641259 1181.28081,205.654074 1174.54022,198.913481 L1151.65937,176.03263 C1148.61585,172.995519 1145.26478,172.354778 1142.99656,172.354778 C1136.82622,172.354778 1130.43804,177.012963 1130.43804,184.817185 L1130.43804,217.181 C1130.43804,227.003556 1122.448,235 1112.62544,235 L1071.36815,235 C1061.54559,235 1053.55556,227.003556 1053.56196,217.181 L1053.56196,184.817185 C1053.56196,177.01937 1047.17378,172.354778 1041.00344,172.354778 C1038.72881,172.354778 1035.38415,172.989111 1032.34063,176.03263 L1009.45978,198.913481 C1002.71919,205.660481 990.99363,205.647667 984.259444,198.913481 L955.086519,169.740556 C951.72263,166.370259 949.870889,161.897889 949.870889,157.137185 C949.870889,152.382889 951.72263,147.904111 955.086519,144.540222 L977.973778,121.65937 C981.645222,117.981519 982.657593,112.919667 980.664889,108.114111 C978.672185,103.308556 974.38563,100.444444 969.182815,100.444444 L936.812593,100.444444 C926.990037,100.444444 919,92.448 919,82.619037 L919,41.3681481 C919,31.5455926 926.990037,23.5555556 936.812593,23.5555556 L969.182815,23.5555556 C974.38563,23.5555556 978.672185,20.6914444 980.658481,15.8858889 C982.644778,11.0803333 981.638815,6.01848148 977.96737,2.34062963 L955.080111,-20.5402222 C951.716222,-23.9105185 949.864481,-28.3828889 949.864481,-33.1371852 C949.864481,-37.8978889 951.716222,-42.3766667 955.080111,-45.7405556 L984.253037,-74.9134815 C990.980815,-81.6412593 1002.71278,-81.6540741 1009.45337,-74.9134815 L1032.33422,-52.0326296 C1035.37774,-48.9955185 1038.72241,-48.3547778 1040.99063,-48.3547778 C1047.16737,-48.3547778 1053.55556,-53.012963 1053.55556,-60.8171852 L1053.55556,-93.1874074 C1053.55556,-103.009963 1061.54559,-111 1071.36815,-111 L1112.63185,-111 C1122.45441,-111 1130.44444,-103.009963 1130.44444,-93.1874074 L1130.44444,-60.8171852 C1130.44444,-56.3191852 1132.52044,-53.4358519 1134.25685,-51.8083704 C1136.60837,-49.6106296 1139.79285,-48.3547778 1142.99656,-48.3547778 C1145.27119,-48.3547778 1148.61585,-48.9891111 1151.65937,-52.0326296 L1174.54022,-74.9134815 C1181.28081,-81.6540741 1193.01278,-81.6412593 1199.74056,-74.9134815 L1228.91348,-45.7405556 C1232.27737,-42.3702593 1234.12911,-37.8978889 1234.12911,-33.1371852 C1234.12911,-28.3828889 1232.27737,-23.9041111 1228.91348,-20.5402222 L1206.02622,2.34062963 C1202.35478,6.01848148 1201.34241,11.0803333 1203.33511,15.8858889 C1205.32781,20.6914444 1209.61437,23.5555556 1214.81719,23.5555556 L1247.18741,23.5555556 Z M1136.85185,62 C1136.85185,37.2738148 1116.72619,17.1481481 1092,17.1481481 C1067.27381,17.1481481 1047.14815,37.2738148 1047.14815,62 C1047.14815,86.7261852 1067.27381,106.851852 1092,106.851852 C1116.72619,106.851852 1136.85185,86.7261852 1136.85185,62 Z"></path>
                    </g>
                </g>
            </g>
        </g>
    </g>
</svg>