<?xml version="1.0" encoding="UTF-8"?>
<svg width="17px" height="22px" viewBox="0 0 17 22" version="1.1" xmlns="http://www.w3.org/2000/svg" xmlns:xlink="http://www.w3.org/1999/xlink">
    <!-- Generator: sketchtool 53.2 (72643) - https://sketchapp.com -->
    <title>FF017C4C-B5D3-4ECE-8FAD-3222C1D59759</title>
    <desc>Created with sketchtool.</desc>
    <g id="UI_2" stroke="none" stroke-width="1" fill="none" fill-rule="evenodd">
        <g id="Homepage" transform="translate(-774.000000, -7489.000000)">
            <g id="contactform-sales-" transform="translate(774.000000, 7489.000000)">
                <rect id="Rectangle" stroke="#565656" x="5.46774194" y="0.5" width="4.67741935" height="11.7741935" rx="2"></rect>
                <path d="M10.4354839,4.75806452 L10.4354839,10.6451613 C10.4354839,10.9805698 10.5076395,11.2766495 10.6424942,11.5210404 C10.7709567,11.7538469 10.9558305,11.9387207 11.188637,12.0671832 C11.4330279,12.202038 11.7291076,12.2741935 12.0645161,12.2741935 C12.3999247,12.2741935 12.6960044,12.202038 12.9403953,12.0671832 C13.1732018,11.9387207 13.3580756,11.7538469 13.486538,11.5210404 C13.6213928,11.2766495 13.6935484,10.9805698 13.6935484,10.6451613 L13.6935484,6.82194972 C13.6935484,6.08461544 13.6395684,5.80508411 13.4855091,5.51701824 C13.3578019,5.27822655 13.1733864,5.09381101 12.9345947,4.96610382 C12.6465288,4.81204451 12.3669975,4.75806452 11.6296632,4.75806452 L10.4354839,4.75806452 Z" id="Rectangle-Copy-27" stroke="#565656"></path>
                <rect id="Rectangle" stroke="#565656" fill="#565656" x="6.88709677" y="2.51051351" width="1" height="1"></rect>
                <rect id="Rectangle-Copy-31" stroke="#565656" fill="#565656" x="6.88709677" y="4.63954576" width="1" height="1"></rect>
                <rect id="Rectangle-Copy-33" stroke="#565656" fill="#565656" x="6.88709677" y="6.76857802" width="1" height="1"></rect>
                <rect id="Rectangle-Copy-35" stroke="#565656" fill="#565656" x="6.88709677" y="8.89761028" width="1" height="1"></rect>
                <rect id="Rectangle-Copy-30" stroke="#565656" fill="#565656" x="9.01612903" y="2.51051351" width="1" height="1"></rect>
                <rect id="Rectangle-Copy-32" stroke="#565656" fill="#565656" x="9.01612903" y="4.63954576" width="1" height="1"></rect>
                <rect id="Rectangle-Copy-34" stroke="#565656" fill="#565656" x="9.01612903" y="6.76857802" width="1" height="1"></rect>
                <rect id="Rectangle-Copy-39" stroke="#565656" fill="#565656" x="12.5645161" y="6.76857802" width="1" height="1"></rect>
                <rect id="Rectangle-Copy-36" stroke="#565656" fill="#565656" x="9.01612903" y="8.89761028" width="1" height="1"></rect>
                <rect id="Rectangle-Copy-40" stroke="#565656" fill="#565656" x="12.5645161" y="8.89761028" width="1" height="1"></rect>
                <g id="Group-22" transform="translate(0.000000, 7.687933)" fill="#565656" fill-rule="nonzero">
                    <path d="M5.20306901,9.46248879 C4.94273073,9.46310485 4.7311828,9.67502242 4.7311828,9.93548387 C4.7311828,10.196315 4.94346999,10.4086022 5.20430108,10.4086022 L13.7835125,10.4086022 C14.0448365,10.4086022 14.2566308,10.6203965 14.2566308,10.8817204 C14.2566308,11.1430443 14.0448365,11.3548387 13.7835125,11.3548387 L5.20430108,11.3548387 C4.42168459,11.3548387 3.78494624,10.7181004 3.78494624,9.93548387 C3.78494624,9.35308019 4.13769042,8.85174731 4.64050179,8.63317654 C4.55080645,8.22967071 2.99222672,1.21593861 2.93234767,0.946236559 L0.47311828,0.946236559 C0.211794363,0.946236559 9.23705556e-14,0.734442196 9.23705556e-14,0.47311828 C9.23705556e-14,0.211794363 0.211794363,0 0.47311828,0 L3.31182796,0 C3.53360215,0 3.72556005,0.154009841 3.77373431,0.370486119 L4.11193998,1.89247312 L15.6759857,1.89247312 C15.8244512,1.89247312 15.9642921,1.9622088 16.053741,2.08073477 C16.1430668,2.19926074 16.171651,2.35277778 16.1308692,2.49557572 L14.2383961,9.11923164 C14.1803651,9.32227823 13.9946908,9.46236559 13.7835125,9.46236559 L5.20565637,9.46236559 C5.20504034,9.46236559 5.20442428,9.46248879 5.20380824,9.46248879 L5.20306901,9.46248879 Z" id="Combined-Shape"></path>
                    <path d="M4.7311828,12.7741935 C4.7311828,13.55681 5.36792115,14.1935484 6.15053763,14.1935484 C6.93315412,14.1935484 7.56989247,13.55681 7.56989247,12.7741935 C7.56989247,11.9915771 6.93315412,11.3548387 6.15053763,11.3548387 C5.36792115,11.3548387 4.7311828,11.9915771 4.7311828,12.7741935 Z M6.15053763,12.3010753 C6.41136872,12.3010753 6.62365591,12.5133625 6.62365591,12.7741935 C6.62365591,13.0350246 6.41136872,13.2473118 6.15053763,13.2473118 C5.88970655,13.2473118 5.67741935,13.0350246 5.67741935,12.7741935 C5.67741935,12.5133625 5.88970655,12.3010753 6.15053763,12.3010753 Z" id="Shape"></path>
                    <path d="M11.4179211,12.7741935 C11.4179211,13.55681 12.0546595,14.1935484 12.837276,14.1935484 C13.6198925,14.1935484 14.2566308,13.55681 14.2566308,12.7741935 C14.2566308,11.9915771 13.6198925,11.3548387 12.837276,11.3548387 C12.0546595,11.3548387 11.4179211,11.9915771 11.4179211,12.7741935 Z M12.837276,12.3010753 C13.0981071,12.3010753 13.3103943,12.5133625 13.3103943,12.7741935 C13.3103943,13.0350246 13.0981071,13.2473118 12.837276,13.2473118 C12.5764449,13.2473118 12.3641577,13.0350246 12.3641577,12.7741935 C12.3641577,12.5133625 12.5764449,12.3010753 12.837276,12.3010753 Z" id="Shape"></path>
                </g>
            </g>
        </g>
    </g>
</svg>