<?xml version="1.0" encoding="UTF-8"?>
<svg width="16px" height="19px" viewBox="0 0 16 19" version="1.1" xmlns="http://www.w3.org/2000/svg" xmlns:xlink="http://www.w3.org/1999/xlink">
    <!-- Generator: sketchtool 53.2 (72643) - https://sketchapp.com -->
    <title>13B12DC8-5412-4758-8CA8-F87C95EE9B4D</title>
    <desc>Created with sketchtool.</desc>
    <g id="UI_2" stroke="none" stroke-width="1" fill="none" fill-rule="evenodd">
        <g id="Homepage" transform="translate(-624.000000, -7490.000000)" fill="#565656" fill-rule="nonzero">
            <g id="contactform-support" transform="translate(624.000000, 7490.000000)">
                <path d="M9.99781897,13 L5.98473282,13 C2.6870229,13 0,15.6938776 0,19 L16,19 C15.9825518,15.7113703 13.2955289,13 9.99781897,13 Z" id="Path-Copy-5"></path>
                <path d="M8.68907563,9.9058296 C8.99159664,9.9058296 9.27731092,10.0134529 9.49579832,10.2107623 L10.8907563,10.2107623 C11.5798319,9.43946188 12,8.41704036 12,7.2690583 C12,4.90134529 10.2016807,3 8,3 C5.79831933,3 4,4.90134529 4,7.2690583 C4,8.86547085 4.82352941,10.264574 6.05042017,11 C6.18487395,10.3721973 6.70588235,9.9058296 7.31092437,9.9058296 L8.68907563,9.9058296 Z" id="Path-Copy-6"></path>
                <path d="M2.11682893,7.9715505 C2.16689847,8.39829303 2.36717663,8.79089616 2.65090403,9.08108108 C2.86787204,9.3029872 3.15159944,9.47368421 3.46870654,9.57610242 C3.45201669,9.50782361 3.45201669,9.43954481 3.45201669,9.3883357 L3.45201669,6.07681366 C3.45201669,6.00853485 3.45201669,5.94025605 3.46870654,5.87197724 C3.15159944,5.95732575 2.88456189,6.12802276 2.65090403,6.36699858 C2.63421419,6.38406828 2.60083449,6.41820768 2.58414465,6.43527738 L2.58414465,6.29871977 C2.58414465,5.97439545 2.61752434,5.65007112 2.66759388,5.3428165 C2.71766342,5.01849218 2.80111266,4.71123755 2.91794159,4.42105263 C3.01808067,4.11379801 3.15159944,3.82361309 3.31849791,3.55049787 C3.46870654,3.27738265 3.65229485,3.00426743 3.85257302,2.76529161 C3.86926287,2.74822191 3.88595271,2.7140825 3.88595271,2.6970128 C4.03616134,2.7140825 4.18636996,2.6628734 4.28650904,2.56045519 C5.30458971,1.51920341 6.63977747,1.00711238 7.95827538,1.00711238 C9.2767733,1.00711238 10.6286509,1.51920341 11.6300417,2.56045519 C11.7468707,2.6799431 11.8970793,2.7140825 12.0305981,2.6970128 C12.0472879,2.7140825 12.0472879,2.74822191 12.0639777,2.76529161 C12.2642559,3.00426743 12.4478442,3.27738265 12.5980529,3.55049787 C12.7482615,3.82361309 12.8817803,4.11379801 12.9986092,4.42105263 C13.0987483,4.72830725 13.1821975,5.03556188 13.2489569,5.3598862 C13.2990264,5.66714083 13.3324061,5.99146515 13.3324061,6.31578947 L13.3324061,6.45234708 C13.3157163,6.41820768 13.2823366,6.40113798 13.2656467,6.38406828 C13.0486787,6.16216216 12.7649513,5.99146515 12.4478442,5.88904694 C12.4645341,5.95732575 12.4645341,6.02560455 12.4645341,6.09388336 L12.4645341,9.3883357 C12.4645341,9.45661451 12.4645341,9.52489331 12.4478442,9.57610242 C12.5312935,9.55903272 12.6147427,9.52489331 12.6981919,9.49075391 L12.6981919,10.5661451 C12.6981919,10.685633 12.6815021,10.8051209 12.6648122,10.8904694 C12.6481224,10.9758179 12.6147427,11.027027 12.581363,11.0782361 C12.5479833,11.1123755 12.4979138,11.1465149 12.4478442,11.1635846 C12.3810848,11.1806543 12.3143255,11.197724 12.2308762,11.197724 L12.2141864,11.197724 L9.14325452,11.197724 C9.04311544,11.027027 8.87621697,10.9075391 8.65924896,10.9075391 L7.2906815,10.9075391 C6.99026426,10.9075391 6.7566064,11.1635846 6.7566064,11.4537696 C6.77329624,11.7610242 7.0069541,12 7.30737135,12 L8.6759388,12 C8.87621697,12 9.05980529,11.8805121 9.15994437,11.7098151 L12.2642559,11.7098151 L12.3810848,11.7098151 C12.4979138,11.7098151 12.5980529,11.6756757 12.6981919,11.6415363 C12.8317107,11.5903272 12.9318498,11.5220484 13.0319889,11.4196302 C13.1154381,11.3172119 13.1821975,11.197724 13.232267,11.0440967 C13.2656467,10.9075391 13.2990264,10.7368421 13.2990264,10.5490754 L13.2990264,9.18349929 L13.2990264,9.13229018 C13.3157163,9.11522048 13.3324061,9.09815078 13.349096,9.08108108 C13.6328234,8.79089616 13.8331015,8.39829303 13.8831711,7.9715505 C13.8998609,7.9544808 13.9165508,7.9544808 13.9165508,7.9374111 C13.9666203,7.88620199 14,7.80085349 14,7.73257468 L14,6.31578947 C14,5.95732575 13.9666203,5.59886202 13.9165508,5.25746799 C13.8164117,4.89900427 13.7329624,4.55761024 13.6161335,4.21621622 C13.4993046,3.87482219 13.349096,3.55049787 13.1655076,3.24324324 C12.9986092,2.93598862 12.798331,2.6458037 12.5646732,2.37268848 C12.5479833,2.33854908 12.5146036,2.32147937 12.4812239,2.30440967 C12.5146036,2.15078236 12.4645341,1.96301565 12.3477051,1.84352774 C11.1460362,0.614509246 9.57719054,0 7.99165508,0 C6.40611961,0 4.83727399,0.614509246 3.61891516,1.84352774 C3.50208623,1.96301565 3.45201669,2.15078236 3.48539638,2.30440967 C3.45201669,2.32147937 3.43532684,2.33854908 3.40194715,2.37268848 C3.16828929,2.6458037 2.96801113,2.93598862 2.80111266,3.24324324 C2.63421419,3.55049787 2.48400556,3.87482219 2.35048679,4.21621622 C2.23365786,4.55761024 2.13351878,4.89900427 2.08344924,5.25746799 C2.01668985,5.59886202 2,5.95732575 2,6.31578947 L2,7.73257468 C2,7.81792319 2.03337969,7.88620199 2.08344924,7.9374111 C2.10013908,7.9544808 2.11682893,7.9544808 2.11682893,7.9715505 Z" id="Path-Copy-7"></path>
            </g>
        </g>
    </g>
</svg>