<?xml version="1.0" encoding="UTF-8"?>
<svg width="10px" height="17px" viewBox="0 0 10 17" version="1.1" xmlns="http://www.w3.org/2000/svg" xmlns:xlink="http://www.w3.org/1999/xlink">
    <!-- Generator: sketchtool 53.2 (72643) - https://sketchapp.com -->
    <title>C7732D6D-DA7D-4E0B-AF64-54C71E980432</title>
    <desc>Created with sketchtool.</desc>
    <g id="UI_2" stroke="none" stroke-width="1" fill="none" fill-rule="evenodd">
        <g id="Homepage" transform="translate(-872.000000, -7491.000000)" fill="#565656" fill-rule="nonzero">
            <path d="M881.899644,7494.85153 C881.832909,7494.77909 881.747491,7494.74293 881.643664,7494.74293 L879.739511,7494.74293 C879.613218,7494.07506 879.375647,7493.49532 879.02676,7493.00434 L881.621276,7493.00434 C881.725376,7493.00434 881.81056,7492.96814 881.877529,7492.89587 C881.943991,7492.82347 881.977378,7492.73081 881.977378,7492.61815 L881.977378,7491.38635 C881.977378,7491.27361 881.94403,7491.18112 881.877529,7491.10864 C881.810482,7491.03633 881.725298,7491 881.621198,7491 L872.356297,7491 C872.252314,7491 872.167013,7491.03633 872.100161,7491.1086 C872.033504,7491.18108 872,7491.27357 872,7491.38631 L872,7492.99212 C872,7493.09674 872.035259,7493.18728 872.105778,7493.26374 C872.176296,7493.3402 872.259803,7493.37843 872.356297,7493.37843 L873.971005,7493.37843 C875.537348,7493.37843 876.532172,7493.83308 876.955282,7494.74272 L872.356297,7494.74272 C872.252314,7494.74272 872.166896,7494.77888 872.100161,7494.85132 C872.033504,7494.92384 872,7495.01629 872,7495.12903 L872,7496.36066 C872,7496.47332 872.033348,7496.56593 872.100161,7496.63821 C872.167013,7496.71073 872.25247,7496.7468 872.356297,7496.7468 L877.111414,7496.7468 C876.948067,7497.40702 876.567548,7497.91001 875.969858,7498.25615 C875.372129,7498.60233 874.583516,7498.77542 873.603513,7498.77542 L872.356297,7498.77542 C872.259803,7498.77542 872.176296,7498.81369 872.105778,7498.89011 C872.03522,7498.96661 872,7499.05719 872,7499.16173 L872,7500.69526 C872,7500.80005 872.033348,7500.88857 872.100161,7500.96092 C873.525467,7502.60293 875.374079,7504.90079 877.645762,7507.85512 C877.712653,7507.95179 877.805404,7508 877.924208,7508 L880.095613,7508 C880.251666,7508 880.359394,7507.92777 880.418602,7507.78259 C880.492825,7507.63771 880.478277,7507.50086 880.374021,7507.37205 C878.206516,7504.49034 876.502607,7502.33316 875.262802,7500.90045 C876.524878,7500.7395 877.549384,7500.29669 878.336359,7499.5724 C879.123216,7498.84803 879.601984,7497.90608 879.772859,7496.74702 L881.643664,7496.74702 C881.747491,7496.74702 881.832948,7496.7109 881.899644,7496.63842 C881.966535,7496.56615 882,7496.47353 882,7496.36087 L882,7495.12937 C882,7495.0165 881.966535,7494.92401 881.899644,7494.85153 Z" id="contactform-estimate"></path>
        </g>
    </g>
</svg>