<?xml version="1.0" encoding="UTF-8"?>
<svg width="69px" height="66px" viewBox="0 0 69 66" version="1.1" xmlns="http://www.w3.org/2000/svg" xmlns:xlink="http://www.w3.org/1999/xlink">
    <!-- Generator: sketchtool 53.2 (72643) - https://sketchapp.com -->
    <title>900EE065-6F7B-4A35-9706-AA9D5C9A418B</title>
    <desc>Created with sketchtool.</desc>
    <g id="UI_2" stroke="none" stroke-width="1" fill="none" fill-rule="evenodd">
        <g id="Artboard" transform="translate(-546.000000, -200.000000)" fill-rule="nonzero">
            <g id="done" transform="translate(546.000000, 200.000000)">
                <path d="M63.2119229,27.4194641 C61.6720232,27.4194641 60.4238458,28.6677764 60.4238458,30.2075414 L60.4238458,33.015705 C60.4196668,40.3408451 57.5631077,47.2259753 52.3804549,52.4025621 C47.2015767,57.5753744 40.3196825,60.4235757 33.0004745,60.4235757 C32.9950823,60.4235757 32.98969,60.4235757 32.9842977,60.4235757 C17.8627337,60.414948 5.56753203,48.1058602 5.57615967,32.9841602 C5.58033868,25.6591549 8.43689773,18.7740247 13.6196853,13.5971682 C18.7985635,8.42435594 25.6805925,5.57615469 32.9996657,5.57615469 C33.005058,5.57615469 33.0104503,5.57615469 33.0158425,5.57615469 C36.8810271,5.5783116 40.6310865,6.37717759 44.1616803,7.9502399 C45.5685255,8.57709221 47.2162707,7.94471281 47.843123,6.5382719 C48.4697056,5.13183098 47.8377307,3.48368121 46.4311551,2.85682889 C42.1825796,0.963734888 37.6701869,0.00256133206 33.0189431,0 C33.0119331,0 33.0065409,0 32.9995309,0 C24.1927284,0 15.9104596,3.42787113 9.67887406,9.65217764 C3.44243544,15.8813372 0.00512809978,24.1664376 5.436091e-06,32.9811944 C-0.00498242066,41.7956817 3.42261882,50.0846914 9.65204748,56.3211306 C15.8814761,62.5575697 24.166441,65.9948773 32.9810623,66 C32.9879375,66 32.9934646,66 33.0004745,66 C41.8072771,66 50.0895458,62.5722637 56.3211314,56.3478224 C62.55757,50.118528 65.9948773,41.8334276 66,33.0173227 L66,30.2076762 C66,28.6677764 64.7518225,27.4194641 63.2119229,27.4194641 Z" id="Path-Copy" fill="#FFD15E"></path>
                <path d="M68.1812019,3.8205407 C67.089471,2.72648643 65.3194803,2.72648643 64.2277495,3.8205407 L32.8830313,35.235721 L25.7721154,28.1087892 C24.6805197,27.0145995 22.9103938,27.0145995 21.8187981,28.1087892 C20.7270673,29.2029789 20.7270673,30.9769562 21.8187981,32.071146 L30.9065078,41.1793238 C31.4523056,41.7264864 32.1678712,42 32.8833016,42 C33.598732,42 34.3141624,41.7264864 34.8600954,41.1793238 L68.1812019,7.78289746 C69.2729327,6.68870772 69.2729327,4.91473043 68.1812019,3.8205407 Z" id="Path-Copy-2" fill="#3C3C3C"></path>
            </g>
        </g>
    </g>
</svg>