<?xml version="1.0" encoding="UTF-8"?>
<svg width="55px" height="48px" viewBox="0 0 55 48" version="1.1" xmlns="http://www.w3.org/2000/svg" xmlns:xlink="http://www.w3.org/1999/xlink">
    <!-- Generator: sketchtool 53.2 (72643) - https://sketchapp.com -->
    <title>8AABA47F-0C80-4140-855E-2603F60B0FB7</title>
    <desc>Created with sketchtool.</desc>
    <g id="UI_2" stroke="none" stroke-width="1" fill="none" fill-rule="evenodd">
        <g id="Homepage" transform="translate(-204.000000, -5683.000000)" fill="#FFFFFF" fill-rule="nonzero">
            <path d="M229.398089,5731 L204,5731 L204,5711.29412 C204,5704.03918 205.49857,5698.31375 208.495754,5694.11765 C211.492938,5689.92155 216.630891,5686.2157 223.909766,5683 L229.398089,5693.47059 C224.921775,5695.58825 221.827326,5697.69607 220.11465,5699.79412 C218.401973,5701.89217 217.448338,5704.37253 217.253715,5707.23529 L229.398089,5707.23529 L229.398089,5731 Z M259,5731 L233.601911,5731 L233.601911,5711.29412 C233.601911,5704.03918 235.10048,5698.31375 238.097665,5694.11765 C241.094849,5689.92155 246.232802,5686.2157 253.511677,5683 L259,5693.47059 C254.523686,5695.58825 251.429237,5697.69607 249.716561,5699.79412 C248.003884,5701.89217 247.050249,5704.37253 246.855626,5707.23529 L259,5707.23529 L259,5731 Z" id="“"></path>
        </g>
    </g>
</svg>