<?xml version="1.0" encoding="UTF-8"?>
<svg width="42px" height="42px" viewBox="0 0 42 42" version="1.1" xmlns="http://www.w3.org/2000/svg" xmlns:xlink="http://www.w3.org/1999/xlink">
    <!-- Generator: sketchtool 53.2 (72643) - https://sketchapp.com -->
    <title>5AD30D1A-D457-47DA-B23C-2EB47775EF6D</title>
    <desc>Created with sketchtool.</desc>
    <g id="UI_2" stroke="none" stroke-width="1" fill="none" fill-rule="evenodd">
        <g id="Homepage" transform="translate(-1300.000000, -7814.000000)">
            <g id="facebook-footer" transform="translate(1301.000000, 7815.000000)">
                <circle id="Oval-Copy-9" stroke="#3C3C3C" cx="20" cy="20" r="20"></circle>
                <path d="M28,15.5001667 C28,14.1865 26.814,13 25.5,13 L15.5,13 C14.186,13 13,14.1865 13,15.5001667 L13,25.4998333 C13,26.8135 14.186,28 15.5001667,28 L20.5,28 L20.5,22.3333333 L18.6666667,22.3333333 L18.6666667,19.8333333 L20.5,19.8333333 L20.5,18.8593333 C20.5,17.1795 21.7613333,15.6666667 23.3125,15.6666667 L25.3333333,15.6666667 L25.3333333,18.1666667 L23.3125,18.1666667 C23.0913333,18.1666667 22.8333333,18.4351667 22.8333333,18.8373333 L22.8333333,19.8333333 L25.3333333,19.8333333 L25.3333333,22.3333333 L22.8333333,22.3333333 L22.8333333,28 L25.5,28 C26.814,28 28,26.8135 28,25.4998333 L28,15.5001667 Z" id="Facebook__x28_alt_x29_" fill="#3C3C3C" fill-rule="nonzero"></path>
            </g>
        </g>
    </g>
</svg>