<?xml version="1.0" encoding="UTF-8"?>
<svg width="624px" height="417px" viewBox="0 0 624 417" version="1.1" xmlns="http://www.w3.org/2000/svg" xmlns:xlink="http://www.w3.org/1999/xlink">
    <!-- Generator: Sketch 53.2 (72643) - https://sketchapp.com -->
    <title>Group 27</title>
    <desc>Created with Sketch.</desc>
    <g id="UI_2" stroke="none" stroke-width="1" fill="none" fill-rule="evenodd" opacity="0.0417596726">
        <g id="Pop-over-2" transform="translate(-684.000000, -310.000000)" fill="#3C3C3C" fill-rule="nonzero">
            <g id="Group-31" transform="translate(59.000000, 310.000000)">
                <g id="Group-26">
                    <g id="Group-27" transform="translate(625.000000, -98.000000)">
                        <path d="M270,122.5 C270,190.154981 324.84502,245 392.5,245 C460.15498,245 515,190.154981 515,122.5 C515,54.8450189 460.15498,0 392.5,0 C324.878181,0.0757985927 270.075799,54.8781811 270,122.5 Z" id="Shape"></path>
                        <path d="M749.199857,308.527318 C749.095869,308.583185 748.983885,308.639055 748.8639,308.694925 L615.801094,371.420093 C617.232909,378.770885 617.85683,386.249378 617.656854,393.735854 C617.448882,401.47773 611.097704,407.647289 603.338705,407.647289 C603.202723,407.647289 603.066739,407.647289 602.930757,407.647289 L408.187923,402.299806 C400.268946,402.08431 394.029752,395.507705 394.245724,387.606203 C394.461697,379.704698 401.060844,373.479271 408.971821,373.694767 L587.98069,378.611258 C582.045458,343.996289 552.465279,318.3603 517.285826,317.338691 L398.821133,314.090295 C375.424157,313.419864 352.483122,307.505709 331.693808,296.7868 L319.639365,290.561373 C260.439015,259.785417 189.104232,263.792038 133.743387,301.008916 L129,472.966384 L149.357369,462.087849 C169.586754,451.233259 193.255696,448.647312 215.364839,454.88072 L416.410861,511.188909 C455.157854,519.106375 495.424649,514.620874 531.467993,498.354952 L810,318.583777 C794.106053,302.349778 769.493234,298.271326 749.199857,308.527318 L749.199857,308.527318 Z" id="Path"></path>
                        <polygon id="Path" points="0 499.361283 6.71656503 257 103 259.638717 96.2834369 502"></polygon>
                    </g>
                </g>
            </g>
        </g>
    </g>
</svg>