<?xml version="1.0" encoding="UTF-8"?>
<svg width="63px" height="40px" viewBox="0 0 63 40" version="1.1" xmlns="http://www.w3.org/2000/svg" xmlns:xlink="http://www.w3.org/1999/xlink">
    <!-- Generator: sketchtool 53.2 (72643) - https://sketchapp.com -->
    <title>78DD9051-D322-4B4D-B221-A5CD4F745343</title>
    <desc>Created with sketchtool.</desc>
    <g id="UI_2" stroke="none" stroke-width="1" fill="none" fill-rule="evenodd">
        <g id="Home" transform="translate(-545.000000, -5842.000000)" fill="#FFFFFF" fill-rule="nonzero">
            <g id="hand" transform="translate(545.000000, 5842.000000)">
                <path d="M21,9.5 C21,14.7467128 25.2532872,19 30.5,19 C35.7467128,19 40,14.7467128 40,9.5 C40,4.25328718 35.7467128,0 30.5,0 C25.2558589,0.00587825821 21.0058783,4.25585894 21,9.5 Z" id="Shape"></path>
                <path d="M58.268124,23.9878328 C58.2600309,23.9921654 58.2513155,23.9964981 58.2419775,24.0008309 L47.886135,28.8652317 C47.9975686,29.4352931 48.0461262,30.0152579 48.0305628,30.5958417 C48.014377,31.1962321 47.5200856,31.6746877 46.9162282,31.6746877 C46.9056451,31.6746877 46.8950619,31.6746877 46.8844789,31.6746877 L31.7282818,31.259985 C31.1119737,31.243273 30.6263977,30.7332506 30.6432062,30.120481 C30.6600146,29.5077113 31.1736046,29.0249231 31.78929,29.041635 L45.7209641,29.4229139 C45.2590444,26.7384877 42.956916,24.7503906 40.2190144,24.6711638 L30.9992952,24.4192473 C29.1783852,24.3672548 27.3929595,23.908606 25.7749953,23.0773437 L24.8368375,22.5945555 C20.2294681,20.2078486 14.6777156,20.5185662 10.3691622,23.4047731 L10,36.7402502 L11.5843474,35.8966087 C13.1587342,35.0548241 15.0008104,34.8542813 16.7214926,35.3376885 L32.3682461,39.704446 C35.3837977,40.3184536 38.5176306,39.9705984 41.322766,38.7091595 L63,24.7677214 C61.7630262,23.5087583 59.8474911,23.1924702 58.268124,23.9878328 L58.268124,23.9878328 Z" id="Path"></path>
                <polygon id="Path" points="0 38.7953648 0.521674954 20 8 20.2046352 7.4783252 39"></polygon>
            </g>
        </g>
    </g>
</svg>