<?xml version="1.0" encoding="UTF-8"?>
<svg width="663px" height="571px" viewBox="0 0 663 571" version="1.1" xmlns="http://www.w3.org/2000/svg" xmlns:xlink="http://www.w3.org/1999/xlink">
    <!-- Generator: Sketch 53.2 (72643) - https://sketchapp.com -->
    <title>Group 24</title>
    <desc>Created with Sketch.</desc>
    <g id="UI_2" stroke="none" stroke-width="1" fill="none" fill-rule="evenodd">
        <g id="Group-24">
            <rect id="Combined-Shape" fill="#FFD15E" x="0" y="0" width="663" height="571" rx="30"></rect>
            <g id="Group-23" transform="translate(64.000000, 32.000000)">
                <g id="Group-7">
                    <polygon id="Fill-35" fill="#EAEAEA" points="186 452 397 452 397 69 186 69"></polygon>
                    <polygon id="Fill-36" fill="#B1B1B1" points="342 304 373 304 373 219 342 219"></polygon>
                    <polygon id="Fill-37" fill="#B1B1B1" points="342 177 373 177 373 92 342 92"></polygon>
                    <polygon id="Fill-38" fill="#B1B1B1" points="342 430 373 430 373 345 342 345"></polygon>
                    <polyline id="Fill-39" fill="#DCDCDC" points="143.444466 134.993701 143.444466 103 108.988639 103 108.988639 113.616148 60.4445985 113.616148 60.4445985 134.993701 43 134.993701 43 451 217 451 217 134.993701 143.444466 134.993701"></polyline>
                    <polygon id="Fill-40" fill="#A2A2A2" points="66 190 95 190 95 161 66 161"></polygon>
                    <polygon id="Fill-41" fill="#A2A2A2" points="116 190 145 190 145 161 116 161"></polygon>
                    <polygon id="Fill-42" fill="#A2A2A2" points="171 190 200 190 200 161 171 161"></polygon>
                    <polygon id="Fill-43" fill="#A2A2A2" points="66 253 95 253 95 224 66 224"></polygon>
                    <polygon id="Fill-44" fill="#A2A2A2" points="116 253 145 253 145 224 116 224"></polygon>
                    <polygon id="Fill-45" fill="#A2A2A2" points="171 253 200 253 200 224 171 224"></polygon>
                    <polygon id="Fill-46" fill="#A2A2A2" points="66 313 95 313 95 284 66 284"></polygon>
                    <polygon id="Fill-47" fill="#A2A2A2" points="116 313 145 313 145 284 116 284"></polygon>
                    <polygon id="Fill-48" fill="#A2A2A2" points="171 313 200 313 200 284 171 284"></polygon>
                    <polygon id="Fill-49" fill="#A2A2A2" points="66 374 95 374 95 345 66 345"></polygon>
                    <polygon id="Fill-50" fill="#A2A2A2" points="116 374 145 374 145 345 116 345"></polygon>
                    <polygon id="Fill-51" fill="#A2A2A2" points="171 374 200 374 200 345 171 345"></polygon>
                    <polygon id="Fill-52" fill="#6E7370" points="493 451 519 451 519 413 493 413"></polygon>
                    <path d="M520.230402,418 L492.769598,418 C492.34401,418 492,417.654942 492,417.229782 L492,415.770218 C492,415.345058 492.34401,415 492.769598,415 L520.230402,415 C520.65522,415 521,415.345058 521,415.770218 L521,417.229782 C521,417.654942 520.65522,418 520.230402,418" id="Fill-53" fill="#565A57"></path>
                    <path d="M520.230402,433 L492.769598,433 C492.34401,433 492,432.654942 492,432.229782 L492,430.770218 C492,430.345058 492.34401,430 492.769598,430 L520.230402,430 C520.65522,430 521,430.345058 521,430.770218 L521,432.229782 C521,432.654942 520.65522,433 520.230402,433" id="Fill-54" fill="#565A57"></path>
                    <path d="M520.230402,450 L492.769598,450 C492.34401,450 492,449.655624 492,449.229584 L492,447.770416 C492,447.345146 492.34401,447 492.769598,447 L520.230402,447 C520.65522,447 521,447.345146 521,447.770416 L521,449.229584 C521,449.655624 520.65522,450 520.230402,450" id="Fill-55" fill="#565A57"></path>
                    <path d="M39,368 L40.1891572,363.664831 C47.7485882,336.121224 85.226268,336.108131 92.802708,363.647118 L94,368 L39,368" id="Fill-56" fill="#49301C"></path>
                    <path d="M28.4643594,441 L118.535641,441 C119.343967,441 120,440.239389 120,439.302207 L120,434 L27,434 L27,439.302207 C27,440.239389 27.656033,441 28.4643594,441" id="Fill-57" fill="#333635"></path>
                    <path d="M134,428 L189,428 L189,423.688355 C189,408.606152 184.590659,393.865459 176.334638,381.350155 L176.334638,381.349411 C171.653818,374.254355 163.817422,370 155.43077,370 L139.038413,370 C136.255755,370 134,372.299048 134,375.136029 L134,428" id="Fill-58" fill="#404341"></path>
                    <path d="M21,431 L133,431 L133,419 L21.7402169,419 C21.330877,419 21,419.38934 21,419.869061 L21,431" id="Fill-59" fill="#6E7370"></path>
                    <path d="M121.136766,364.394286 L122.912364,360.771629 C124.342932,357.851941 127.321306,356 130.585347,356 L144.585333,356 C146.470746,356 148,357.52187 148,359.398918 L148,363.858936 C148,365.735984 146.470746,367.257854 144.585333,367.257854 L137.654346,367.257854 C134.390304,367.257854 131.411931,369.109795 129.98062,372.029483 L112.284751,408.13717 C111.426261,409.888688 109.638792,411 107.680664,411 L27.4322816,411 C26.566372,411 25.8369896,410.354626 25.7368201,409.498067 L21.0117878,369.153362 C20.8930684,368.14395 21.6862624,367.257854 22.7072493,367.257854 L116.53268,367.257854 C118.490808,367.257854 120.278277,366.146542 121.136766,364.394286" id="Fill-60" fill="#FFD15E"></path>
                    <polygon id="Fill-61" fill="#565A57" points="31 418 99 418 99 411 31 411"></polygon>
                    <path d="M17.3784842,435 L190.621516,435 C191.382999,435 192,434.321011 192,433.483022 L192,429.516978 C192,428.678989 191.382999,428 190.621516,428 L17.3784842,428 C16.6177378,428 16,428.678989 16,429.516978 L16,433.483022 C16,434.321011 16.6177378,435 17.3784842,435" id="Fill-62" fill="#565A57"></path>
                    <path d="M158.757382,380 L173.624892,380 C174.662373,381.055598 175.618933,382.199846 176.470904,383.434978 C182.049179,391.529637 185.938016,400.555487 188,410 L158.757382,410 C157.787081,410 157,409.232698 157,408.285863 L157,381.714137 C157,380.767302 157.787081,380 158.757382,380" id="Fill-63" fill="#4F7783"></path>
                    <path d="M139.792876,410 L151.207124,410 C151.644791,410 152,409.667006 152,409.255047 L152,380.744953 C152,380.332994 151.644791,380 151.207124,380 L139.792876,380 C139.355209,380 139,380.332994 139,380.744953 L139,409.255047 C139,409.667006 139.355209,410 139.792876,410" id="Fill-64" fill="#4F7783"></path>
                    <polyline id="Fill-65" fill="#D9B235" points="91 404 98.9450449 404 114 373 106.054955 373 91 404"></polyline>
                    <polyline id="Fill-66" fill="#D9B235" points="73 404 80.9445691 404 96 373 88.054704 373 73 404"></polyline>
                    <polyline id="Fill-67" fill="#D9B235" points="54 404 61.945296 404 77 373 69.054704 373 54 404"></polyline>
                    <polyline id="Fill-68" fill="#D9B235" points="36 404 43.9450449 404 59 373 51.0549551 373 36 404"></polyline>
                    <polyline id="Fill-69" fill="#D9B235" points="29.0713386 391 39 372 29.8258498 372 27 377.457356 29.0713386 391"></polyline>
                    <path d="M183.877413,426 L189.122587,426 C189.607796,426 190,425.708001 190,425.348216 L190,422.651784 C190,422.291999 189.607796,422 189.122587,422 L183.877413,422 C183.393081,422 183,422.291999 183,422.651784 L183,425.348216 C183,425.708001 183.393081,426 183.877413,426" id="Fill-70" fill="#E15E37"></path>
                    <path d="M21.8774129,426 L27.1225871,426 C27.606919,426 28,425.708605 28,425.34811 L28,422.65189 C28,422.292047 27.606919,422 27.1225871,422 L21.8774129,422 C21.3922036,422 21,422.292047 21,422.65189 L21,425.34811 C21,425.708605 21.3922036,426 21.8774129,426" id="Fill-71" fill="#A0343B"></path>
                    <path d="M143.199073,415 L137.800073,415 C137.358624,415 137,414.707995 137,414.347856 L137,412.652144 C137,412.292005 137.358624,412 137.800073,412 L143.199073,412 C143.641376,412 144,412.292005 144,412.652144 L144,414.347856 C144,414.707995 143.641376,415 143.199073,415" id="Fill-72" fill="#565A57"></path>
                    <path d="M176,423.999628 C176,425.104666 176.895334,426 178.000372,426 C179.104666,426 180,425.104666 180,423.999628 C180,422.895334 179.104666,422 178.000372,422 C176.895334,422 176,422.895334 176,423.999628" id="Fill-73" fill="#EDECE7"></path>
                    <path d="M68,437.50035 C68,446.060882 74.9391183,453 83.4996501,453 C92.0601819,453 99,446.060882 99,437.50035 C99,428.939818 92.0601819,422 83.4996501,422 C74.9391183,422 68,428.939818 68,437.50035" id="Fill-74" fill="#272A29"></path>
                    <path d="M72,438.5 C72,443.746818 76.2531817,448 81.5,448 C86.7468183,448 91,443.746818 91,438.5 C91,433.253182 86.7468183,429 81.5,429 C76.2531817,429 72,433.253182 72,438.5" id="Fill-75" fill="#404341"></path>
                    <path d="M143,437.50035 C143,446.060882 149.939275,453 158.5,453 C167.060725,453 174,446.060882 174,437.50035 C174,428.939818 167.060725,422 158.5,422 C149.939275,422 143,428.939818 143,437.50035" id="Fill-76" fill="#272A29"></path>
                    <path d="M149,438.5 C149,443.746818 153.253182,448 158.5,448 C163.746818,448 168,443.746818 168,438.5 C168,433.253182 163.746818,429 158.5,429 C153.253182,429 149,433.253182 149,438.5" id="Fill-77" fill="#404341"></path>
                    <path d="M32,437.50035 C32,446.060882 38.9398181,453 47.5003499,453 C56.0608817,453 63,446.060882 63,437.50035 C63,428.939818 56.0608817,422 47.5003499,422 C38.9398181,422 32,428.939818 32,437.50035" id="Fill-78" fill="#272A29"></path>
                    <path d="M36,438.5 C36,443.746818 40.2531817,448 45.5,448 C50.7468183,448 55,443.746818 55,438.5 C55,433.253182 50.7468183,429 45.5,429 C40.2531817,429 36,433.253182 36,438.5" id="Fill-79" fill="#404341"></path>
                    <path d="M116,368 L116,368 C100.597495,342.666667 63.4025051,342.666667 48,368 L116,368" id="Fill-80" fill="#5D4129"></path>
                    <path d="M81,366 L81,366 C66.2497549,348.666667 40.7502451,348.666667 26,366 L81,366" id="Fill-81" fill="#906F4F"></path>
                    <polyline id="Fill-82" fill="#5F8794" points="162.363356 410 160 410 170.636644 380 173 380 162.363356 410"></polyline>
                    <path d="M168.284445,411 L163,411 L173.773591,381 C173.773591,381 175.815881,383.545891 177,385.674256 L168.284445,411" id="Fill-83" fill="#5F8794"></path>
                    <path d="M177,434 C175.909595,425.056156 167.787285,418 157.989457,418 C148.234553,418 140.14613,425.112135 139,434 L177,434" id="Fill-84" fill="#333635"></path>
                    <path d="M44,360.500435 C44,361.328501 43.328501,362 42.4995651,362 C41.671499,362 41,361.328501 41,360.500435 C41,359.671499 41.671499,359 42.4995651,359 C43.328501,359 44,359.671499 44,360.500435" id="Fill-85" fill="#B38E67"></path>
                    <path d="M50,358.5 C50,359.328278 49.3287977,360 48.5003346,360 C47.6718715,360 47,359.328278 47,358.5 C47,357.671722 47.6718715,357 48.5003346,357 C49.3287977,357 50,357.671722 50,358.5" id="Fill-86" fill="#B38E67"></path>
                    <path d="M46,361.5 C46,361.776093 45.7760928,362 45.5,362 C45.2239072,362 45,361.776093 45,361.5 C45,361.223907 45.2239072,361 45.5,361 C45.7760928,361 46,361.223907 46,361.5" id="Fill-87" fill="#B38E67"></path>
                    <path d="M57,364 C57,365.104925 56.1049251,366 55,366 C53.8950749,366 53,365.104925 53,364 C53,362.895075 53.8950749,362 55,362 C56.1049251,362 57,362.895075 57,364" id="Fill-88" fill="#B38E67"></path>
                    <path d="M35,364.5 C35,364.776 34.776,365 34.5,365 C34.2236,365 34,364.776 34,364.5 C34,364.2236 34.2236,364 34.5,364 C34.776,364 35,364.2236 35,364.5" id="Fill-89" fill="#B38E67"></path>
                    <path d="M39,360.5 C39,360.776262 38.7762619,361 38.5,361 C38.2237381,361 38,360.776262 38,360.5 C38,360.223738 38.2237381,360 38.5,360 C38.7762619,360 39,360.223738 39,360.5" id="Fill-90" fill="#B38E67"></path>
                    <path d="M57,359.5 C57,359.776262 56.7762619,360 56.5,360 C56.2237381,360 56,359.776262 56,359.5 C56,359.22442 56.2237381,359 56.5,359 C56.7762619,359 57,359.22442 57,359.5" id="Fill-91" fill="#B38E67"></path>
                    <path d="M94,356 C94,357.104723 93.1047228,358 92,358 C90.8952772,358 90,357.104723 90,356 C90,354.895277 90.8952772,354 92,354 C93.1047228,354 94,354.895277 94,356" id="Fill-92" fill="#75553A"></path>
                    <path d="M92,361.5 C92,361.776097 91.7760973,362 91.5,362 C91.2239027,362 91,361.776097 91,361.5 C91,361.223903 91.2239027,361 91.5,361 C91.7760973,361 92,361.223903 92,361.5" id="Fill-93" fill="#75553A"></path>
                    <path d="M99,359.499666 C99,360.32792 98.3279199,361 97.4996663,361 C96.6714127,361 96,360.32792 96,359.499666 C96,358.671413 96.6714127,358 97.4996663,358 C98.3279199,358 99,358.671413 99,359.499666" id="Fill-94" fill="#75553A"></path>
                    <path d="M81,352.499567 C81,354.433197 79.432526,356 77.5,356 C75.567474,356 74,354.433197 74,352.499567 C74,350.566803 75.567474,349 77.5,349 C79.432526,349 81,350.566803 81,352.499567" id="Fill-95" fill="#75553A"></path>
                    <path d="M82,359.500159 C82,359.776295 81.7759771,360 81.4998411,360 C81.2237051,360 81,359.776295 81,359.500159 C81,359.224023 81.2237051,359 81.4998411,359 C81.7759771,359 82,359.224023 82,359.500159" id="Fill-96" fill="#75553A"></path>
                    <path d="M77,359 C77,360.104836 76.1040619,361 75,361 C73.8951644,361 73,360.104836 73,359 C73,357.895938 73.8951644,357 75,357 C76.1040619,357 77,357.895938 77,359" id="Fill-97" fill="#75553A"></path>
                    <path d="M100,356.499777 C100,356.776146 99.776146,357 99.5002225,357 C99.223854,357 99,356.776146 99,356.499777 C99,356.223854 99.223854,356 99.5002225,356 C99.776146,356 100,356.223854 100,356.499777" id="Fill-98" fill="#75553A"></path>
                    <path d="M56,352.5 C56,353.328 55.328,354 54.5,354 C53.6713333,354 53,353.328 53,352.5 C53,351.671333 53.6713333,351 54.5,351 C55.328,351 56,351.671333 56,352.5" id="Fill-99" fill="#5D4129"></path>
                    <path d="M57,347.5 C57,347.775926 56.7759259,348 56.5,348 C56.2236111,348 56,347.775926 56,347.5 C56,347.223611 56.2236111,347 56.5,347 C56.7759259,347 57,347.223611 57,347.5" id="Fill-100" fill="#5D4129"></path>
                    <path d="M65,348.5 C65,350.433037 63.433037,352 61.5,352 C59.566963,352 58,350.433037 58,348.5 C58,346.566963 59.566963,345 61.5,345 C63.433037,345 65,346.566963 65,348.5" id="Fill-101" fill="#5D4129"></path>
                    <path d="M527.113378,451 L8.17067161,451 C3.81575923,451 0.0695029668,454.455372 0.000973888822,458.872688 C-0.0675551892,463.34905 3.48932502,467.000249 7.88697596,467.000249 L78.3577112,467.000249 C82.7619939,467.000997 86.3225585,470.664154 86.2415026,475.150234 C86.1619205,479.554095 82.4421916,482.999751 78.099806,482.999751 L71.829027,482.999751 C66.7018729,482.999751 63.1715201,486.581439 63.1715201,490.999502 L63.1715201,491.000249 C63.1715201,495.418312 66.7026098,499 71.058259,499 L412.557076,499 C416.912726,499 420.443815,495.418312 420.443815,491.000249 L420.443815,490.999502 C420.443815,486.581439 416.912726,482.999751 412.557076,482.999751 L344.14295,482.999751 C339.800565,482.999751 336.075678,479.554095 335.996096,475.150234 C335.91504,470.664154 339.475604,467.000997 343.879887,467.000249 L526.851789,467.000249 C531.194174,467.000249 534.919061,463.553846 534.998643,459.149984 C535.079699,454.663158 531.518398,451 527.113378,451" id="Fill-102" fill="#333635"></path>
                    <path d="M530.587336,97 L424.570866,97 C422.134242,97 420.038513,98.943726 420.000555,101.427914 C419.961867,103.946345 421.951751,105.999504 424.412463,105.999504 L449.604286,105.999504 C452.067918,106.000248 454.059993,108.060851 454.014735,110.584494 C453.970207,113.061237 451.889077,114.999752 449.459753,114.999752 L445.951541,114.999752 C443.082779,114.999752 441.108223,117.014199 441.108223,119.499876 C441.108223,121.984808 443.083509,124 445.520132,124 L506.644483,124 C509.081836,124 511.057121,121.984808 511.057121,119.499876 C511.057121,117.014199 509.081836,114.999752 506.644483,114.999752 L482.968797,114.999752 C480.539474,114.999752 478.455424,113.061237 478.410896,110.584494 C478.364908,108.060851 480.357712,106.000248 482.821344,105.999504 L530.441342,105.999504 C532.870666,105.999504 534.954716,104.061733 534.999244,101.584245 C535.044502,99.0606027 533.051697,97 530.587336,97" id="Fill-103" fill="#E9E9E9"></path>
                    <path d="M51.6529529,43 L122.351388,43 C124.828714,43 126.960832,44.9437796 126.999436,47.4280357 C127.038782,49.9465369 125.014309,51.9997518 122.512485,51.9997518 L106.543868,51.9997518 C104.037589,52.0004963 102.011631,54.0611558 102.057659,56.5848682 C102.103686,59.0616797 104.219473,61.0002482 106.690117,61.0002482 L108.030857,61.0002482 C110.948415,61.0002482 112.957298,63.0147513 112.957298,65.5004963 C112.957298,67.9854969 110.947672,70 108.469604,70 L28.4869513,70 C26.0088832,70 24,67.9854969 24,65.5004963 C24,63.0147513 26.0088832,61.0002482 28.4869513,61.0002482 L72.6118556,61.0002482 C75.0824998,61.0002482 77.2019978,59.0616797 77.2472831,56.5848682 C77.2933107,54.0611558 75.2673527,52.0004963 72.7610742,51.9997518 L51.8014291,51.9997518 C49.3307849,51.9997518 47.2112869,50.0611834 47.1660017,47.5843719 C47.119974,45.0599151 49.1466744,43 51.6529529,43" id="Fill-104" fill="#E9E9E9"></path>
                    <path d="M381.685401,0 L151.599557,0 C149.147639,0 147.038755,1.94377964 147.000558,4.42803573 C146.961627,6.94579243 148.964002,8.99975185 151.440161,8.99975185 L235.553143,8.99975185 C238.032974,9.00049631 240.037553,11.0604114 239.992011,13.5848682 C239.946469,16.0616797 237.85301,18.0002482 235.408437,18.0002482 L223.797452,18.0002482 C220.910682,18.0002482 218.923732,20.0147513 218.923732,22.4997518 C218.923732,24.9854969 220.911417,27 223.363335,27 L418.559663,27 C421.011581,27 423,24.9854969 423,22.4997518 C423,20.0147513 421.011581,18.0002482 418.559663,18.0002482 L343.316336,18.0002482 C340.871764,18.0002482 338.774632,16.0616797 338.729825,13.5848682 C338.684283,11.0604114 340.688862,9.00049631 343.168692,8.99975185 L381.537757,8.99975185 C383.983065,8.99975185 386.080196,7.06118341 386.125004,4.5843719 C386.170546,2.05991508 384.165232,0 381.685401,0" id="Fill-105" fill="#E9E9E9"></path>
                    <path d="M240.480668,245 C243.810412,245 247.035203,243.94645 249.642712,241.954786 C253.047089,239.353057 255,235.497589 255,231.376906 C255,230.108554 253.906152,229.080576 252.556529,229.080576 C251.206906,229.080576 250.113058,230.108554 250.113058,231.376906 C250.113058,234.108685 248.818633,236.665116 246.559414,238.390834 C244.270652,240.139932 241.378603,240.783606 238.4057,240.204227 C234.793748,239.496989 231.861272,236.7411 231.107163,233.34592 C230.196012,229.238389 232.216559,225.211956 236.130155,223.329155 C240.333733,221.306806 242.943575,217.455721 242.943575,213.279511 L242.417253,150 L238.446127,150 L238.056633,213.279511 C238.056633,215.723427 236.464451,218.007337 233.903588,219.239889 C228.004429,222.077607 224.95767,228.123467 226.322842,234.283303 C227.468,239.440001 231.921912,243.625709 237.409032,244.700447 C238.432133,244.901367 239.461454,245 240.480668,245" id="Fill-106" fill="#272A29"></path>
                    <path d="M413.129611,219 C413.160076,219 413.191284,218.998518 413.222493,218.997777 C414.253854,218.94664 415.048924,218.072862 414.997653,217.044192 L413.751548,191.777284 C413.724055,191.229598 413.455812,190.721192 413.018152,190.387689 C412.580492,190.054927 412.016513,189.931161 411.481512,190.048998 L390.568202,194.659488 L390.568202,173.516156 C390.568202,172.96106 390.320022,172.434866 389.891278,172.080612 C389.462535,171.726358 388.898555,171.581841 388.349437,171.685597 L366.780752,175.795092 L366.022091,154.02181 C366.003515,153.489688 365.75682,152.990916 365.346654,152.650002 C364.935744,152.31057 364.397771,152.165311 363.870201,152.244611 L341.595613,155.675242 L341.595613,134.749799 C341.595613,134.201372 341.352633,133.680367 340.93355,133.325372 C340.513723,132.9726 339.95866,132.816965 339.414743,132.912569 L317.736828,136.578876 L317.736828,115.86391 C317.736828,114.834498 316.901634,114 315.868786,114 C314.835938,114 314,114.834498 314,115.86391 L314,138.784441 C314,139.333609 314.242979,139.853873 314.662063,140.208868 C315.081889,140.563122 315.636952,140.715792 316.180869,140.622411 L337.858784,136.955364 L337.858784,157.848198 C337.858784,158.392178 338.097305,158.909478 338.509701,159.262991 C338.924326,159.616504 339.473445,159.774362 340.01216,159.689874 L362.361055,156.248126 L363.121944,178.098484 C363.14052,178.642464 363.396132,179.150129 363.822646,179.490302 C364.249903,179.829734 364.80125,179.963876 365.339223,179.864566 L386.831374,175.769894 L386.831374,196.979926 C386.831374,197.544658 387.088471,198.079003 387.529846,198.433257 C387.971965,198.78677 388.557493,198.917948 389.102896,198.80011 L410.127664,194.165163 L411.26454,217.227989 C411.313582,218.224791 412.140603,219 413.129611,219" id="Fill-107" fill="#272A29"></path>
                    <path d="M456.589733,388 C457.449136,388 458.280965,387.553478 458.715263,386.768548 C459.341815,385.635582 458.899858,384.224189 457.727944,383.6192 L430.230097,369.400112 L453.411012,346.923705 C453.94182,346.409057 454.19382,345.684848 454.091948,344.965822 C453.990075,344.245315 453.548118,343.613668 452.893991,343.255266 L427.5661,329.380511 L448.121315,308.740545 C448.599272,308.260701 448.84208,307.606839 448.787697,306.943351 C448.733314,306.280603 448.388634,305.671171 447.839443,305.269079 L424.479294,288.193141 L442.42949,266.801567 C443.25749,265.81448 443.114256,264.368283 442.107788,263.551511 L421.53802,246.860633 L436.179283,223.536353 C436.86941,222.43745 436.506347,221.006063 435.370433,220.339613 C434.239881,219.670201 432.756223,220.021198 432.063798,221.121581 L416.350195,246.152715 C415.732834,247.134618 415.9496,248.404576 416.859556,249.142855 L437.198772,265.645646 L419.171214,287.129783 C418.759895,287.619994 418.57147,288.2509 418.650363,288.877363 C418.729257,289.503827 419.06781,290.072531 419.58866,290.453148 L442.771873,307.400239 L421.945509,328.311969 C421.430786,328.830319 421.18951,329.550086 421.296744,330.261707 C421.403978,330.973327 421.845935,331.596829 422.493168,331.951528 L447.772039,345.799625 L424.532145,368.33083 C423.994443,368.852882 423.742444,369.58968 423.855039,370.317592 C423.967635,371.046244 424.428741,371.680113 425.100485,372.027407 L455.455351,387.723053 C455.816882,387.910399 456.205988,387.998519 456.589733,388" id="Fill-108" fill="#272A29"></path>
                    <polyline id="Fill-109" fill="#272A29" points="242.386601 126 302 93.3598011 300.613399 91 241 123.640199 242.386601 126"></polyline>
                    <polygon id="Fill-110" fill="#404341" points="239 133 242 133 242 126 239 126"></polygon>
                    <polyline id="Fill-111" fill="#6E7370" points="305 128.642838 297.180169 108 242 132.286643 247.194831 146 305 128.642838"></polyline>
                    <polygon id="Fill-112" fill="#404341" points="298 108 301 108 301 89 298 89"></polygon>
                    <polyline id="Fill-113" fill="#272A29" points="457.28465 216 459 213.792508 301.71535 89 300 91.2082361 457.28465 216"></polyline>
                    <polyline id="Fill-114" fill="#272A29" points="471.414569 392 474 391.756458 459.584743 212 457 212.242797 471.414569 392"></polyline>
                    <polygon id="Fill-115" fill="#404341" points="435 216 454 216 454 209 435 209"></polygon>
                    <polyline id="Fill-116" fill="#404341" points="452.248283 391 459 390.131471 434.751717 218 428 218.867789 452.248283 391"></polyline>
                    <polyline id="Fill-117" fill="#404341" points="423.546786 390 430 389.599528 419.45248 218 413 218.400472 423.546786 390"></polyline>
                    <polyline id="Fill-118" fill="#404341" points="420.137704 206 423 202.301111 310.863028 111 308 114.698889 420.137704 206"></polyline>
                    <polyline id="Fill-119" fill="#404341" points="408.107904 218 411 214.421176 300.892096 127 298 130.578094 408.107904 218"></polyline>
                    <path d="M407,215 C407,223.836841 414.163159,231 423,231 C431.836841,231 439,223.836841 439,215 C439,206.163871 431.836841,199 423,199 C414.163159,199 407,206.163871 407,215" id="Fill-120" fill="#565A57"></path>
                    <path d="M419,213 C419,216.866478 422.134206,220 426,220 C429.865794,220 433,216.866478 433,213 C433,209.134206 429.865794,206 426,206 C422.134206,206 419,209.134206 419,213" id="Fill-121" fill="#404341"></path>
                    <path d="M286,119 C286,127.284417 292.715583,134 301,134 C309.283629,134 316,127.284417 316,119 C316,110.715583 309.283629,104 301,104 C292.715583,104 286,110.715583 286,119" id="Fill-122" fill="#565A57"></path>
                    <path d="M293,119 C293,122.865491 296.133702,126 300,126 C303.865491,126 307,122.865491 307,119 C307,115.133702 303.865491,112 300,112 C296.133702,112 293,115.133702 293,119" id="Fill-123" fill="#404341"></path>
                    <path d="M231,140.500349 C231,145.747164 235.253534,150 240.500349,150 C245.747164,150 250,145.747164 250,140.500349 C250,135.253534 245.747164,131 240.500349,131 C235.253534,131 231,135.253534 231,140.500349" id="Fill-124" fill="#565A57"></path>
                    <path d="M238,141 C238,143.208897 239.790458,145 242,145 C244.208897,145 246,143.208897 246,141 C246,138.790458 244.208897,137 242,137 C239.790458,137 238,138.790458 238,141" id="Fill-125" fill="#404341"></path>
                    <path d="M294,90 C294,93.3134199 296.685714,96 300,96 C303.31342,96 306,93.3134199 306,90 C306,86.6865801 303.31342,84 300,84 C296.685714,84 294,86.6865801 294,90" id="Fill-126" fill="#565A57"></path>
                    <path d="M239,122.5 C239,124.432901 240.567099,126 242.5,126 C244.432901,126 246,124.432901 246,122.5 C246,120.567099 244.432901,119 242.5,119 C240.567099,119 239,120.567099 239,122.5" id="Fill-127" fill="#565A57"></path>
                    <path d="M447,215.5 C447,220.746761 451.253808,225 456.500366,225 C461.746925,225 466,220.746761 466,215.5 C466,210.253239 461.746925,206 456.500366,206 C451.253808,206 447,210.253239 447,215.5" id="Fill-128" fill="#565A57"></path>
                    <path d="M452,213 C452,216.866554 455.133446,220 459,220 C462.865766,220 466,216.866554 466,213 C466,209.134234 462.865766,206 459,206 C455.133446,206 452,209.134234 452,213" id="Fill-129" fill="#404341"></path>
                    <path d="M241.057385,204.768848 L254.768848,191.057385 C255.077051,190.749183 255.077051,190.250226 254.768848,189.942812 L241.057385,176.230561 C240.749183,175.923146 240.250226,175.923146 239.942812,176.230561 L226.230561,189.942812 C225.923146,190.250226 225.923146,190.749183 226.230561,191.057385 L239.942812,204.768848 C240.250226,205.077051 240.749183,205.077051 241.057385,204.768848" id="Fill-130" fill="#FFD15E"></path>
                    <path d="M242.492215,196.796469 L248.796469,190.492215 C249.067844,190.220144 249.067844,189.779682 248.796469,189.508307 L242.492215,183.204053 C242.220144,182.931982 241.779682,182.931982 241.508307,183.204053 L235.204053,189.508307 C234.931982,189.779682 234.931982,190.220144 235.204053,190.492215 L241.508307,196.796469 C241.779682,197.067844 242.220144,197.067844 242.492215,196.796469" id="Fill-131" fill="#EDECE7"></path>
                    <path d="M406.594729,356 L372.125092,356 C369.126158,356 366.641887,358.268887 366.444172,361.18708 L363,412 L414,412 L412.283951,361.370387 C412.18283,358.376369 409.665355,356 406.594729,356" id="Fill-132" fill="#4F7783"></path>
                    <polygon id="Fill-133" fill="#272A29" points="379 426 422 426 422 419 379 419"></polygon>
                    <path d="M457.663462,450 L338.336538,450 C330.97044,450 325,443.955629 325,436.5 C325,429.043618 330.97044,423 338.336538,423 L457.663462,423 C465.028816,423 471,429.043618 471,436.5 C471,443.955629 465.028816,450 457.663462,450" id="Fill-134" fill="#272A29"></path>
                    <path d="M339.552424,423.857143 C333.057474,423.857143 327.773571,429.300258 327.773571,435.99091 C327.773571,442.7005 333.057474,448.142857 339.552424,448.142857 L457.447576,448.142857 C463.942526,448.142857 469.226429,442.7005 469.226429,436.009847 C469.226429,429.300258 463.942526,423.857143 457.447576,423.857143 L339.552424,423.857143 Z M457.447576,451 L339.552424,451 C331.528039,451 325,444.276019 325,436.009847 C325,427.724739 331.528039,421 339.552424,421 L457.447576,421 C465.471961,421 472,427.724739 472,435.99091 C472,444.276019 465.471961,451 457.447576,451 L457.447576,451 Z" id="Fill-135" fill="#191B1B"></path>
                    <path d="M360.314196,447 L354.685804,447 C354.30724,447 354,446.600842 354,446.107029 L354,440 L361,440 L361,446.107029 C361,446.600842 360.69276,447 360.314196,447" id="Fill-136" fill="#6E7370"></path>
                    <path d="M369.314196,447 L363.685804,447 C363.30724,447 363,446.600842 363,446.107029 L363,440 L370,440 L370,446.107029 C370,446.600842 369.69276,447 369.314196,447" id="Fill-137" fill="#6E7370"></path>
                    <path d="M383.314129,447 L377.685871,447 C377.30727,447 377,446.600842 377,446.107029 L377,440 L384,440 L384,446.107029 C384,446.600842 383.693416,447 383.314129,447" id="Fill-138" fill="#6E7370"></path>
                    <path d="M397.314129,447 L391.685871,447 C391.306584,447 391,446.600842 391,446.107029 L391,440 L398,440 L398,446.107029 C398,446.600842 397.69273,447 397.314129,447" id="Fill-139" fill="#6E7370"></path>
                    <path d="M408.314196,447 L402.685804,447 C402.30724,447 402,446.600842 402,446.107029 L402,440 L409,440 L409,446.107029 C409,446.600842 408.69276,447 408.314196,447" id="Fill-140" fill="#6E7370"></path>
                    <path d="M420.314196,447 L414.685804,447 C414.30724,447 414,446.600842 414,446.107029 L414,440 L421,440 L421,446.107029 C421,446.600842 420.69276,447 420.314196,447" id="Fill-141" fill="#6E7370"></path>
                    <path d="M430.314129,447 L424.685871,447 C424.306584,447 424,446.600842 424,446.107029 L424,440 L431,440 L431,446.107029 C431,446.600842 430.693416,447 430.314129,447" id="Fill-142" fill="#6E7370"></path>
                    <path d="M443.314196,447 L437.685804,447 C437.30724,447 437,446.600842 437,446.107029 L437,440 L444,440 L444,446.107029 C444,446.600842 443.69276,447 443.314196,447" id="Fill-143" fill="#6E7370"></path>
                    <path d="M383.314129,426 L377.685871,426 C377.30727,426 377,426.302849 377,426.676002 L377,433 L384,433 L384,426.676002 C384,426.302849 383.693416,426 383.314129,426" id="Fill-144" fill="#6E7370"></path>
                    <path d="M420.314196,426 L414.685804,426 C414.30724,426 414,426.302849 414,426.676002 L414,433 L421,433 L421,426.676002 C421,426.302849 420.69276,426 420.314196,426" id="Fill-145" fill="#6E7370"></path>
                    <polygon id="Fill-146" fill="#565A57" points="348 442 452 442 452 430 348 430"></polygon>
                    <path d="M464,438.000356 C464,442.418495 460.418495,446 456.000356,446 C451.582217,446 448,442.418495 448,438.000356 C448,433.582217 451.582217,430 456.000356,430 C460.418495,430 464,433.582217 464,438.000356" id="Fill-147" fill="#404341"></path>
                    <path d="M463,436 C463,439.31354 460.31354,442 457,442 C453.68646,442 451,439.31354 451,436 C451,432.68556 453.68646,430 457,430 C460.31354,430 463,432.68556 463,436" id="Fill-148" fill="#565A57"></path>
                    <path d="M349,438.000356 C349,442.418495 345.418336,446 341,446 C336.581664,446 333,442.418495 333,438.000356 C333,433.582217 336.581664,430 341,430 C345.418336,430 349,433.582217 349,438.000356" id="Fill-149" fill="#404341"></path>
                    <path d="M348,436 C348,439.31354 345.31354,442 342,442 C338.68646,442 336,439.31354 336,436 C336,432.68556 338.68646,430 342,430 C345.31354,430 348,432.68556 348,436" id="Fill-150" fill="#565A57"></path>
                    <polyline id="Fill-151" fill="#404341" points="414 412 413.087642 383 364.030082 395.630797 363 412 414 412"></polyline>
                    <polygon id="Fill-152" fill="#272A29" points="399 357 406 357 406 349 399 349"></polygon>
                    <polygon id="Fill-153" fill="#272A29" points="392 355 399 355 399 347 392 347"></polygon>
                    <path d="M404.392625,342 L398.607375,342 C398.271497,342 398,342.453441 398,343.012146 L398,349 L405,349 L405,343.012146 C405,342.453441 404.728503,342 404.392625,342" id="Fill-154" fill="#404341"></path>
                    <path d="M483,412 L396,412 L396,384.260284 C396,383.011854 396.999222,382 398.232067,382 L480.767933,382 C482.000778,382 483,383.011854 483,384.260284 L483,412" id="Fill-155" fill="#FFD15E"></path>
                    <polygon id="Fill-156" fill="#404341" points="439 404 470 404 470 388 439 388"></polygon>
                    <path d="M408.65886,355 L376.353871,355 C373.543973,355 371.215004,357.807652 371.029704,361.418792 L371,362 L414,362 L413.990806,361.645627 C413.896034,357.940656 411.536654,355 408.65886,355" id="Fill-157" fill="#404341"></path>
                    <polyline id="Fill-158" fill="#5F8794" points="370 395 379.965523 362 383 362 373.251715 394.281689 370 395"></polyline>
                    <polyline id="Fill-159" fill="#5F8794" points="384.221688 390.347949 377 392 386.272549 361 393 361 384.221688 390.347949"></polyline>
                    <path d="M446.90195,397.298277 C445.581709,397.246175 444.555619,396.17519 444.609805,394.90572 C444.663991,393.637078 445.77781,392.649621 447.09805,392.701723 C448.418291,392.753825 449.444381,393.825637 449.390195,395.09428 C449.336009,396.363749 448.22219,397.350379 446.90195,397.298277 Z M451.351204,395.172019 C451.367546,394.78663 451.31164,394.418608 451.225631,394.06051 L453,393.166506 L451.983372,391.300758 L450.222764,392.188146 C449.703268,391.638181 449.028096,391.232943 448.266915,391.009649 L448.348624,389.086837 L446.15969,389 L446.077982,390.922812 C445.299599,391.085734 444.592603,391.436389 444.028383,391.943349 L442.348624,390.920331 L441.176319,392.700069 L442.868979,393.731358 C442.752007,394.081185 442.665138,394.443418 442.648796,394.828808 C442.632454,395.21337 442.68836,395.582219 442.774369,395.93949 L441,396.834321 L442.016628,398.700069 L443.777236,397.812681 C444.296732,398.362646 444.971904,398.767884 445.733945,398.991178 L445.651376,400.91399 L447.84031,401 L447.922018,399.077188 C448.700401,398.915093 449.407397,398.564438 449.971617,398.056651 L451.651376,399.080496 L452.823681,397.300758 L451.131021,396.269469 C451.247993,395.919642 451.334862,395.556582 451.351204,395.172019 L451.351204,395.172019 Z" id="Fill-160" fill="#6E7370"></path>
                    <path d="M455.194865,398.964245 C454.65372,399.612684 453.679394,399.707167 453.019092,399.174567 C452.359447,398.642614 452.263331,397.684841 452.804477,397.035755 C453.34628,396.386669 454.320606,396.292833 454.980908,396.824786 C455.640553,397.357386 455.736669,398.315159 455.194865,398.964245 Z M455.785385,395.861188 C455.585253,395.699401 455.36603,395.580974 455.140224,395.482608 L455.350889,394.226501 L453.953917,394 L453.744569,395.2464 C453.247531,395.291053 452.76761,395.472254 452.351547,395.76994 L451.351547,394.962951 L450.45293,396.039152 L451.45293,396.845494 C451.237656,397.304967 451.150099,397.803268 451.202765,398.291215 L450,398.73645 L450.499013,400.039152 L451.710994,399.590681 C451.853851,399.788707 452.014483,399.977026 452.214615,400.138812 C452.414747,400.299951 452.634628,400.418379 452.859776,400.516745 L452.649111,401.772852 L454.046083,402 L454.255431,400.752953 C454.752469,400.708947 455.23239,400.527746 455.649111,400.23006 L456.649111,401.036402 L457.54707,399.960848 L456.54707,399.153859 C456.762344,398.694386 456.849901,398.196732 456.797235,397.708138 L458,397.26355 L457.500987,395.960848 L456.289006,396.409319 C456.146149,396.210646 455.985517,396.022326 455.785385,395.861188 L455.785385,395.861188 Z" id="Fill-161" fill="#6E7370"></path>
                    <path d="M455,397.50015 C455,397.776241 454.776173,398 454.5,398 C454.223827,398 454,397.776241 454,397.50015 C454,397.22406 454.223827,397 454.5,397 C454.776173,397 455,397.22406 455,397.50015" id="Fill-162" fill="#565A57"></path>
                    <path d="M448,394.499625 C448,395.328168 447.328336,396 446.5,396 C445.671664,396 445,395.328168 445,394.499625 C445,393.671082 445.671664,393 446.5,393 C447.328336,393 448,393.671082 448,394.499625" id="Fill-163" fill="#565A57"></path>
                    <path d="M479.538481,419 L366.461519,419 C365.65476,419 365,418.445741 365,417.762814 L365,412 L481,412 L481,417.762814 C481,418.445741 480.34524,419 479.538481,419" id="Fill-164" fill="#D9B235"></path>
                    <path d="M368.133342,417 L363.733317,417 C362.776526,417 362,416.389957 362,415.638298 L362,414.361702 C362,413.610043 362.776526,413 363.733317,413 L368.133342,413 C368.611737,413 369,413.305021 369,413.680851 L369,416.319149 C369,416.694979 368.611737,417 368.133342,417" id="Fill-165" fill="#A0343B"></path>
                    <path d="M479.866658,417 L484.266683,417 C485.223474,417 486,416.389957 486,415.638298 L486,414.361702 C486,413.610043 485.223474,413 484.266683,413 L479.866658,413 C479.388263,413 479,413.305021 479,413.680851 L479,416.319149 C479,416.694979 479.388263,417 479.866658,417" id="Fill-166" fill="#E15E37"></path>
                    <path d="M214.230622,283 L212,281.652384 L238.852721,251.910946 C239.648895,250.714399 241.012177,250 242.5,250 C243.987823,250 245.351105,250.714399 246.14802,251.910946 L273,281.652384 L270.768636,283 L243.916657,253.25715 C243.607527,252.79265 243.078227,252.51522 242.5,252.51522 C241.922514,252.51522 241.392473,252.79265 241.084085,253.25715 L214.230622,283" id="Fill-167" fill="#565A57"></path>
                    <path d="M244.063802,258 L240.936198,258 C239.866771,258 239,256.993713 239,255.75215 L239,237.24785 C239,236.006287 239.866771,235 240.936198,235 L244.063802,235 C245.133229,235 246,236.006287 246,237.24785 L246,255.75215 C246,256.993713 245.133229,258 244.063802,258" id="Fill-173" fill="#D9B235"></path>
                    <path d="M288,452 L286.615183,446.971599 C277.819681,415.020237 234.20956,415.005448 225.393814,446.951361 L224,452 L288,452" id="Fill-174" fill="#49301C"></path>
                    <path d="M199,450 L199,450 C216.441312,422 258.558688,422 276,450 L199,450" id="Fill-175" fill="#5D4129"></path>
                    <path d="M242,451 L242,451 C258.359464,432.333333 286.640536,432.333333 303,451 L242,451" id="Fill-176" fill="#906F4F"></path>
                    <path d="M280,444.5 C280,445.328449 280.671551,446 281.5,446 C282.328449,446 283,445.328449 283,444.5 C283,443.671551 282.328449,443 281.5,443 C280.671551,443 280,443.671551 280,444.5" id="Fill-177" fill="#B38E67"></path>
                    <path d="M262,444 C262,445.104547 262.895453,446 264,446 C265.104547,446 266,445.104547 266,444 C266,442.895453 265.104547,442 264,442 C262.895453,442 262,442.895453 262,444" id="Fill-178" fill="#B38E67"></path>
                    <path d="M286,448.499806 C286,448.776137 286.223863,449 286.500194,449 C286.776137,449 287,448.776137 287,448.499806 C287,448.223863 286.776137,448 286.500194,448 C286.223863,448 286,448.223863 286,448.499806" id="Fill-179" fill="#B38E67"></path>
                    <path d="M266,447.5 C266,449.432836 267.567164,451 269.5,451 C271.433924,451 273,449.432836 273,447.5 C273,445.567164 271.433924,444 269.5,444 C267.567164,444 266,445.567164 266,447.5" id="Fill-180" fill="#B38E67"></path>
                    <path d="M291,448.5 C291,448.776307 291.223693,449 291.5,449 C291.775958,449 292,448.776307 292,448.5 C292,448.224042 291.775958,448 291.5,448 C291.223693,448 291,448.224042 291,448.5" id="Fill-181" fill="#B38E67"></path>
                    <path d="M289,444.5 C289,444.776457 289.224005,445 289.499703,445 C289.775995,445 290,444.776457 290,444.5 C290,444.224138 289.775995,444 289.499703,444 C289.224005,444 289,444.224138 289,444.5" id="Fill-182" fill="#B38E67"></path>
                    <path d="M269,443.5 C269,443.775862 269.223543,444 269.5,444 C269.776457,444 270,443.775862 270,443.5 C270,443.223543 269.776457,443 269.5,443 C269.223543,443 269,443.223543 269,443.5" id="Fill-183" fill="#B38E67"></path>
                    <path d="M221,437.499478 C221,439.432384 222.566572,441 224.500522,441 C226.433428,441 228,439.432384 228,437.499478 C228,435.566572 226.433428,434 224.500522,434 C222.566572,434 221,435.566572 221,437.499478" id="Fill-184" fill="#75553A"></path>
                    <path d="M224,445.500388 C224,446.328509 224.671491,447 225.499612,447 C226.328509,447 227,446.328509 227,445.500388 C227,444.671491 226.328509,444 225.499612,444 C224.671491,444 224,444.671491 224,445.500388" id="Fill-185" fill="#75553A"></path>
                    <path d="M217,443.999612 C217,445.104478 217.895522,446 219.000388,446 C220.104478,446 221,445.104478 221,443.999612 C221,442.895522 220.104478,442 219.000388,442 C217.895522,442 217,442.895522 217,443.999612" id="Fill-186" fill="#75553A"></path>
                    <path d="M239,434.500377 C239,436.432971 240.567198,438 242.5,438 C244.433556,438 246,436.432971 246,434.500377 C246,432.567029 244.433556,431 242.5,431 C240.567198,431 239,432.567029 239,434.500377" id="Fill-187" fill="#75553A"></path>
                    <path d="M237,443.499585 C237,444.328718 237.671927,445 238.5,445 C239.328073,445 240,444.328718 240,443.499585 C240,442.671282 239.328073,442 238.5,442 C237.671927,442 237,442.671282 237,443.499585" id="Fill-188" fill="#75553A"></path>
                    <path d="M242,443.999663 C242,445.104669 242.895331,446 244.000337,446 C245.104669,446 246,445.104669 246,443.999663 C246,442.895331 245.104669,442 244.000337,442 C242.895331,442 242,442.895331 242,443.999663" id="Fill-189" fill="#75553A"></path>
                    <path d="M216,438.5 C216,438.776357 216.224031,439 216.5,439 C216.775969,439 217,438.776357 217,438.5 C217,438.224031 216.775969,438 216.5,438 C216.224031,438 216,438.224031 216,438.5" id="Fill-190" fill="#75553A"></path>
                    <path d="M261,433 C261,434.10457 261.89543,435 263,435 C264.10457,435 265,434.10457 265,433 C265,431.89543 264.10457,431 263,431 C261.89543,431 261,431.89543 261,433" id="Fill-191" fill="#5D4129"></path>
                    <path d="M263,429.5 C263,429.77621 263.22379,430 263.5,430 C263.77621,430 264,429.77621 264,429.5 C264,429.22379 263.77621,429 263.5,429 C263.22379,429 263,429.22379 263,429.5" id="Fill-192" fill="#5D4129"></path>
                    <path d="M254,429.500452 C254,431.4332 255.567704,433 257.500452,433 C259.4332,433 261,431.4332 261,429.500452 C261,427.567704 259.4332,426 257.500452,426 C255.567704,426 254,427.567704 254,429.500452" id="Fill-193" fill="#5D4129"></path>
                    <polygon id="Fill-194" fill="#404341" points="273 452 277 452 277 409 273 409"></polygon>
                    <polygon id="Fill-195" fill="#404341" points="310 452 314 452 314 409 310 409"></polygon>
                    <polygon id="Fill-196" fill="#EDECE7" points="272 439 318 439 318 412 272 412"></polygon>
                    <polyline id="Fill-197" fill="#A0343B" points="316 439 308.714458 439 302 412 309.285542 412 316 439"></polyline>
                    <polyline id="Fill-198" fill="#A0343B" points="300 439 292.714458 439 286 412 293.286218 412 300 439"></polyline>
                    <polyline id="Fill-199" fill="#A0343B" points="285 439 277.714134 439 271 412 278.285866 412 285 439"></polyline>
                    <path d="M276.5,405 L276.5,405 C274.566505,405 273,406.221046 273,407.726671 L273,409 L280,409 L280,407.726671 C280,406.221046 278.433495,405 276.5,405" id="Fill-200" fill="#D9B235"></path>
                    <path d="M311.500425,405 L311.499575,405 C309.567164,405 308,406.221046 308,407.726671 L308,409 L315,409 L315,407.726671 C315,406.221046 313.432836,405 311.500425,405" id="Fill-201" fill="#D9B235"></path>
                    <g id="Group-4" transform="translate(182.000000, 269.000000)">
                        <path d="M57.2558265,3.30609024 C25.499706,3.44199338 -0.134555267,29.4506697 0.000531462766,61.3987113 C0.135618192,93.3467528 25.9886182,119.135368 57.7447387,118.999465 C89.500294,118.864131 115.134555,92.8548858 114.999469,60.9068443 C114.864382,28.9588027 89.0113818,3.1701871 57.2558265,3.30609024" id="Fill-4" fill="#EE9E40"></path>
                        <path d="M113.79212,46.0086666 C112.869674,41.5118885 111.417614,37.2095841 109.515635,33.1591857 C106.702516,27.161207 102.892907,21.7358454 98.3032887,17.0900845 C95.2680363,14.013192 91.8970408,11.2865796 88.2411725,8.94948323 C87.4040759,8.41610212 86.5500226,7.90660374 85.6846648,7.41359583 C81.6698793,5.13961813 77.365134,3.33476562 72.8320382,2.08035332 C71.3115858,1.65615043 69.7628723,1.29563484 68.1966369,1.00335564 C66.6253144,0.699703702 65.0251655,0.464856794 63.4080598,0.304501277 C61.3862539,0.0923998323 59.336752,-0.0105233891 57.2578584,0.000849342587 C55.088529,0.0122220742 52.9531131,0.138459395 50.8459583,0.384679035 C49.2627662,0.567780015 47.6970959,0.814568291 46.1540346,1.12959296 C23.4845991,5.68948971 5.64952366,23.6549939 1.12264532,46.4328694 C0.808946051,47.9852473 0.564204096,49.5546843 0.387854234,51.1474353 C0.119938099,53.4219817 -0.0106286256,55.7420189 0.000675852654,58.0910567 C0.011980331,60.0158915 0.10863362,61.9174122 0.302505423,63.7967561 C0.467550806,65.4236254 0.700988283,67.0277492 0.997165615,68.6085589 C1.29334295,70.1842508 1.65226013,71.7366287 2.07335195,73.2662611 L2.07335195,73.2719475 C3.3202359,77.8324129 5.11425661,82.1631491 7.37515227,86.1964884 C7.86463618,87.067071 8.37164203,87.9262808 8.90125684,88.7684316 C11.2186749,92.446373 13.9345758,95.843408 16.9930024,98.8913 C21.6108818,103.508629 27.0093354,107.346926 32.965665,110.171344 C36.9861027,112.090492 41.2620216,113.545633 45.7323776,114.479335 C49.6103789,115.293054 53.6308166,115.711002 57.7479076,115.693942 C60.1393699,115.68257 62.4912667,115.527901 64.8030325,115.229935 C67.7698928,114.851792 70.668361,114.250174 73.470176,113.430769 C92.392177,107.937171 107.294871,92.9331259 112.749847,73.9139382 C113.564334,71.0895203 114.162341,68.1735519 114.538215,65.1944648 C114.851349,62.7083857 115.010742,60.1705606 114.999438,57.5980487 C114.981916,53.6278281 114.566476,49.7497266 113.79212,46.0086666" id="Fill-5" fill="#FAD042"></path>
                        <path d="M97.6258993,17.0531731 L16.9847446,98.3402778 C13.2569375,94.6170792 10.0381303,90.3700674 7.44604317,85.7252515 L85.1111186,7.4375 C89.719585,10.0565659 93.9266815,13.2955057 97.6258993,17.0531731" id="Fill-6" fill="#F0AA3D"></path>
                        <path d="M88.5251799,9.28937132 L9.30004166,88.4236111 C8.77119302,87.5886845 8.26492063,86.7368452 7.77614483,85.8737307 C5.51851991,81.8749905 3.72709453,77.5814045 2.48201439,73.06006 L2.48201439,73.0544224 L73.1383372,2.47916667 C77.6648752,3.72281828 81.963393,5.51218827 85.9723705,7.76665917 C86.8364764,8.25543793 87.6892942,8.76056569 88.5251799,9.28937132" id="Fill-7" fill="#F6E892"></path>
                        <path d="M113.345324,46.5480651 L45.0728113,114.041667 C40.58848,113.121289 36.2991936,111.686913 32.2661871,109.79515 L109.05547,33.8819444 C110.963395,37.8745442 112.419995,42.1154553 113.345324,46.5480651" id="Fill-8" fill="#F6E892"></path>
                        <path d="M68.6690647,0.693327612 L0.702588937,67.7638889 C0.403031083,66.1955807 0.166929186,64.6041428 0,62.9901393 L63.8258316,0 C65.4613947,0.159087377 67.0798074,0.392077047 68.6690647,0.693327612" id="Fill-9" fill="#F6E892"></path>
                        <path d="M100.107914,57.8514739 C100.107914,80.6177636 82.5596598,99.2395229 60.3556664,100.721373 C59.4141761,100.78373 58.4546992,100.819444 57.4952223,100.819444 C33.963025,100.819444 14.8920863,81.5854443 14.8920863,57.8514739 C14.8920863,34.1175035 33.963025,14.875 57.4952223,14.875 C58.4546992,14.875 59.4141761,14.9101472 60.3556664,14.972505 C82.5596598,16.4549216 100.107914,35.0851842 100.107914,57.8514739" id="Fill-10" fill="#C96B2D"></path>
                        <path d="M98.4532374,57.4365692 C98.4532374,58.1651067 98.4362752,58.8930794 98.3904773,59.6159693 C97.3082893,80.2866672 80.8685314,96.87812 60.242504,98.2437042 C60.0547891,98.2549994 59.8727282,98.2662945 59.6844478,98.2775897 C58.9607276,98.3171227 58.2319187,98.3402778 57.4968903,98.3402778 C53.0024744,98.3402778 48.6737226,97.6173879 44.6293702,96.2806063 C35.0197222,93.1055383 26.9881235,86.4769768 22.0040657,77.862727 C19.0871338,72.8104043 17.2133768,67.0696419 16.7005531,60.9414557 C16.5976492,59.7865261 16.5467626,58.6203014 16.5467626,57.4365692 C16.5467626,56.3499753 16.586341,55.2803241 16.6717174,54.2163206 C16.8430356,51.9860923 17.1958492,49.8066922 17.7143269,47.6961925 C21.3255779,32.9255187 32.9633389,21.3016749 47.7509793,17.6940025 C49.8639032,17.1761197 52.0458067,16.8237108 54.2785967,16.6525892 C55.3381684,16.5673108 56.4147023,16.5277778 57.4968903,16.5277778 C58.4196336,16.5277778 59.3423769,16.5616632 60.242504,16.6187038 C60.4991985,16.6356465 60.7553276,16.6525892 61.0114568,16.6813919 C67.1466822,17.1992747 72.8883847,19.0652343 77.9465108,21.9839023 C86.5706554,26.9571589 93.212485,34.9795425 96.3912001,44.578165 C97.7295172,48.6235247 98.4532374,52.9478747 98.4532374,57.4365692" id="Fill-11" fill="#EE9D3C"></path>
                        <path d="M54.6043165,16.5277778 L16.5467626,54.5416667 C16.7201338,52.2847117 17.0771755,50.079194 17.6018665,47.9434025 L47.9984732,17.5816712 C50.136718,17.0575821 52.3447691,16.7009501 54.6043165,16.5277778" id="Fill-12" fill="#F4B53D"></path>
                        <path d="M77.7697842,22.654202 L21.848289,78.5069444 C18.9324495,73.45698 17.0593942,67.7188972 16.5467626,61.5935714 L60.8410722,17.3541667 C66.974,17.8718078 72.7135523,19.7368964 77.7697842,22.654202" id="Fill-13" fill="#F4B53D"></path>
                        <path d="M98.4532374,57.4722025 C98.4532374,58.2001053 98.43629,58.9274439 98.390532,59.649704 L59.7182213,98.2776443 C58.9951315,98.3171429 58.2669575,98.3402778 57.5325695,98.3402778 C53.0420689,98.3402778 48.7170881,97.6180176 44.676259,96.2824006 L96.3929964,44.625 C97.7301476,48.6668355 98.4532374,52.9874184 98.4532374,57.4722025" id="Fill-14" fill="#F4B53D"></path>
                        <path d="M71.9390406,53.6701991 C71.0488396,62.3428405 64.3509221,67.7623893 56.3143226,69.5908693 L73.2968788,91.7291667 L59.6469422,91.7291667 L57.0687398,89.6183771 L39.8810992,67.7021784 L42.4598651,60.939813 L50.0947473,60.939813 C55.9266907,60.939813 60.1681042,58.9085472 61.3349436,53.6701991 L39.8089817,53.6701991 L37.2302158,51.5594095 L37.2302158,43.1139791 L60.5923582,45.2247687 C58.7899829,41.5893938 54.6544921,40.306788 49.3521619,40.306788 L39.8089817,40.306788 L37.2302158,38.1959985 L37.2302158,29.75 L79.3282724,29.75 L81.9064748,31.8607896 L81.9064748,40.306788 L69.1816711,40.306788 L68.9698258,40.5203663 C69.6059251,41.1622372 70.4544332,42.8725675 71.1964552,45.2247687 L79.3282724,43.1139791 L81.9064748,45.2247687 L81.9064748,53.6701991 L71.9390406,53.6701991" id="Fill-15" fill="#C96B2D"></path>
                        <path d="M78.5971223,38.1451513 L78.5971223,29.75 L36.4028777,29.75 L36.4028777,38.1451513 L45.9656567,38.1451513 C50.1414317,38.1451513 53.5887754,38.9299032 55.7503531,41.0171174 C56.3477797,41.5862036 56.8486469,42.257477 57.2354495,43.0309375 L36.4028777,43.0309375 L36.4028777,51.4260888 L57.9802565,51.4260888 C56.8085549,56.6302922 52.5588074,58.649758 46.7110283,58.649758 L39.0591111,58.649758 L39.0591111,67.4711595 L54.7491835,87.3050574 L56.2851007,89.25 L69.0394254,89.25 L51.8648212,67.4711595 C60.3925501,65.9016558 67.6746048,60.4298463 68.6074487,51.4260888 L78.5971223,51.4260888 L78.5971223,43.0309375 L67.8620771,43.0309375 C67.1167055,40.6930544 66.2691276,38.9925705 65.6321737,38.3551713 L65.8427976,38.1451513 L78.5971223,38.1451513" id="Fill-16" fill="#FAD042"></path>
                        <polyline id="Fill-17" fill="#F6E892" points="36.4028777 42.9722222 54.6043165 42.9722222 45.7873183 51.2361111 36.4028777 51.2361111 36.4028777 42.9722222"></polyline>
                        <path d="M67.8417266,29.75 L56.5719745,41.3194444 C54.4104046,39.1762247 50.9630734,38.3704158 46.7873135,38.3704158 L37.2302158,38.3704158 L45.6269096,29.75 L67.8417266,29.75" id="Fill-18" fill="#F6E892"></path>
                        <polyline id="Fill-19" fill="#F6E892" points="68.6690647 88.4236111 56.1159977 88.4236111 54.6043165 86.4759771 61.6258532 79.3333333 68.6690647 88.4236111"></polyline>
                        <polyline id="Fill-20" fill="#F6E892" points="39.7122302 29.75 36.4028777 33.0555556 36.4028777 29.75 39.7122302 29.75"></polyline>
                    </g>
                </g>
                <rect id="Rectangle" fill="#FFD15E" opacity="0.297572545" x="93" y="97" width="305" height="305" rx="152.5"></rect>
                <ellipse id="Oval-Copy-11" fill-opacity="0.820858829" fill="#FFFFFF" cx="251" cy="247.5" rx="53" ry="53.5"></ellipse>
                <circle id="Oval-Copy-11" fill-opacity="0.820858829" fill="#FFFFFF" opacity="0.598260789" cx="251" cy="247" r="65"></circle>
                <path d="M266.693419,246.931373 L246.112774,233.121514 C245.894903,232.97582 245.612452,232.960629 245.379677,233.078703 C245.146194,233.198158 245,233.432926 245,233.689789 L245,261.309507 C245,261.56637 245.146194,261.801829 245.379677,261.921284 C245.48329,261.973761 245.596839,262 245.709677,262 C245.850903,262 245.991419,261.95857 246.112774,261.877783 L266.693419,248.067924 C266.885742,247.938802 267,247.72682 267,247.499648 C267,247.272476 266.885032,247.060495 266.693419,246.931373 Z" id="Path-Copy-11" fill="#3C3C3C" fill-rule="nonzero"></path>
            </g>
        </g>
    </g>
</svg>