<?xml version="1.0" encoding="UTF-8"?>
<svg width="30px" height="41px" viewBox="0 0 30 41" version="1.1" xmlns="http://www.w3.org/2000/svg" xmlns:xlink="http://www.w3.org/1999/xlink">
    <!-- Generator: sketchtool 53.2 (72643) - https://sketchapp.com -->
    <title>039CCA4F-CB35-4E7E-88AC-1B2382F19F7B</title>
    <desc>Created with sketchtool.</desc>
    <g id="UI_2" stroke="none" stroke-width="1" fill="none" fill-rule="evenodd">
        <g id="Homepage" transform="translate(-338.000000, -7439.000000)" fill="#FFFFFF" fill-rule="nonzero">
            <g id="Group-25" transform="translate(185.000000, 7439.000000)">
                <path d="M168,0 C159.728955,0 153,6.66106671 153,14.8485845 C153,25.00955 166.423531,39.9264412 166.995049,40.5564967 C167.531864,41.1483548 168.469106,41.1473138 169.004951,40.5564967 C169.576469,39.9264412 183,25.00955 183,14.8485845 C182.999838,6.66106671 176.270964,0 168,0 Z M167.50004,22 C163.364454,22 160,18.6355012 160,14.4999598 C160,10.3644184 163.364535,7 167.50004,7 C171.635546,7 175,10.3644988 175,14.5000402 C175,18.6355816 171.635546,22 167.50004,22 Z" id="location"></path>
            </g>
        </g>
    </g>
</svg>