<?xml version="1.0" encoding="UTF-8"?>
<svg width="49px" height="38px" viewBox="0 0 49 38" version="1.1" xmlns="http://www.w3.org/2000/svg" xmlns:xlink="http://www.w3.org/1999/xlink">
    <!-- Generator: sketchtool 53.2 (72643) - https://sketchapp.com -->
    <title>B5B36836-F251-425F-9C68-6028F96F318E</title>
    <desc>Created with sketchtool.</desc>
    <g id="UI_2" stroke="none" stroke-width="1" fill="none" fill-rule="evenodd">
        <g id="Homepage" transform="translate(-329.000000, -7298.000000)" fill="#FFFFFF" fill-rule="nonzero">
            <g id="Group-23" transform="translate(217.000000, 7298.500000)">
                <g id="mailid" transform="translate(112.000000, 0.000000)">
                    <path d="M48.9204506,30.7409178 C48.9204506,31.819189 48.6187881,32.8187973 48.1355432,33.6982822 L32.6893519,16.322474 L47.9680761,2.88245205 C48.562428,3.83076712 48.9204506,4.94472055 48.9204506,6.14848767 L48.9204506,30.7409178 Z M24.4602757,19.4774082 L45.7201255,0.774668493 C44.8477037,0.294479452 43.865284,-6.03961325e-14 42.8055329,-6.03961325e-14 L6.11501852,-6.03961325e-14 C5.05395679,-6.03961325e-14 4.07123457,0.294479452 3.20234156,0.774668493 L24.4602757,19.4774082 Z M30.3873601,18.3459178 L25.4662881,22.6778575 C25.1784383,22.9299644 24.8200123,23.0558658 24.4602757,23.0558658 C24.1003374,23.0558658 23.7419115,22.9299644 23.4540617,22.6778575 L18.5318807,18.3457151 L2.89029424,35.9436247 C3.82784774,36.5350164 4.92661728,36.8893041 6.1149177,36.8893041 L42.8055329,36.8893041 C43.9936317,36.8893041 45.0929053,36.5350164 46.0301564,35.9436247 L30.3873601,18.3459178 Z M0.952576132,2.88235068 C0.358325103,3.83066575 -1.38555833e-13,4.94461918 -1.38555833e-13,6.14848767 L-1.38555833e-13,30.7410192 C-1.38555833e-13,31.8192904 0.300251029,32.8188986 0.7853107,33.6983836 L16.2296872,16.3195342 L0.952576132,2.88235068 Z" id="Shape"></path>
                </g>
            </g>
        </g>
    </g>
</svg>