<?xml version="1.0" encoding="UTF-8"?>
<svg width="38px" height="37px" viewBox="0 0 38 37" version="1.1" xmlns="http://www.w3.org/2000/svg" xmlns:xlink="http://www.w3.org/1999/xlink">
    <!-- Generator: sketchtool 53.2 (72643) - https://sketchapp.com -->
    <title>70C36705-0745-437D-A13C-BC2C10E48C9F</title>
    <desc>Created with sketchtool.</desc>
    <g id="UI_2" stroke="none" stroke-width="1" fill="none" fill-rule="evenodd">
        <g id="Homepage" transform="translate(-334.000000, -7159.000000)" fill="#FFFFFF" fill-rule="nonzero">
            <g id="Group-24" transform="translate(289.000000, 7159.000000)">
                <g id="mobilenumber" transform="translate(45.000000, 0.000000)">
                    <path d="M25.8491649,19.40199 C25.7764515,19.5124378 25.7764515,19.6228856 25.7400949,19.7701493 C25.7037382,20.2487562 26.067305,20.6905473 26.5399418,20.7273632 C27.0125786,20.7641791 27.4488587,20.3960199 27.4852154,19.9174129 C27.4852154,19.8069652 27.4852154,19.6965174 27.5215721,19.5124378 C27.5215721,19.3283582 27.5215721,19.2179104 27.5215721,19.1074627 C27.5215721,18.039801 27.3397887,17.0089552 27.0125786,16.0149254 C26.5762985,14.7263682 25.8128082,13.5850746 24.9038913,12.6278607 C23.7768342,11.4865672 22.3952805,10.6766169 20.8319433,10.2348259 C20.1048097,10.0507463 19.3049628,9.94029851 18.5414726,9.94029851 C18.2869758,9.94029851 18.0324791,9.94029851 17.7416257,9.97711443 C17.4871289,10.0139303 17.2326322,10.0507463 16.9781354,10.0875622 C16.5054986,10.161194 16.1782885,10.639801 16.2873585,11.081592 C16.3600719,11.560199 16.8327087,11.8915423 17.2689889,11.7810945 C17.4871289,11.7442786 17.6689123,11.7074627 17.8870524,11.7074627 C17.9234091,11.7074627 17.9597657,11.7074627 17.9961224,11.7074627 C18.1779058,11.7074627 18.3596892,11.6706468 18.5414726,11.6706468 C20.5410899,11.6706468 22.3952805,12.480597 23.7041209,13.8427861 C25.0129613,15.1681592 25.8128082,16.9721393 25.8491649,18.9970149 L25.8491649,19.0706468 C25.8491649,19.2179104 25.8491649,19.3283582 25.8491649,19.40199 Z" id="Path"></path>
                    <path d="M30.6482464,20.2119403 C30.6118897,20.6905473 30.9754565,21.1323383 31.4480933,21.1691542 C31.9207301,21.2059701 32.3570103,20.8378109 32.393367,20.359204 C32.4297236,19.9542289 32.4297236,19.5492537 32.4297236,19.1442786 C32.4297236,18.3343284 32.3570103,17.561194 32.2479403,16.7880597 C31.7753034,13.8427861 30.357393,11.1920398 28.3577757,9.16716418 C26.067305,6.84776119 23.013344,5.33830846 19.6321729,5.08059701 C19.2686062,5.04378109 18.8686827,5.04378109 18.5051159,5.04378109 C18.1051925,5.04378109 17.705269,5.04378109 17.3053455,5.08059701 C16.9054221,5.11741294 16.5054986,5.15422886 16.1055752,5.2278607 C15.6329383,5.30149254 15.3057282,5.7800995 15.4147983,6.22189055 C15.4875116,6.70049751 15.9601484,7.0318408 16.3964286,6.92139303 C16.6509253,6.88457711 16.8690654,6.84776119 17.1235621,6.81094527 C17.2326322,6.81094527 17.3417022,6.77412935 17.4507722,6.77412935 C17.814339,6.73731343 18.1779058,6.73731343 18.5051159,6.73731343 C19.741243,6.73731343 20.9046567,6.92139303 22.0317137,7.25273632 C23.9949743,7.84179104 25.7400949,8.90945274 27.1580053,10.3452736 C28.321419,11.5233831 29.2666926,12.959204 29.8847562,14.5054726 C30.4301063,15.9044776 30.7573164,17.4507463 30.7573164,19.0706468 C30.7573164,19.1810945 30.7573164,19.3283582 30.7573164,19.438806 C30.6846031,19.7333333 30.6482464,19.9542289 30.6482464,20.2119403 Z" id="Path"></path>
                    <path d="M31.8843735,5.63283582 C28.430489,2.13532338 23.7041209,-3.84581256e-13 18.4687592,-3.84581256e-13 C17.9234091,-3.84581256e-13 17.3780589,0.0368159204 16.8327087,0.0736318408 C16.2873585,0.110447761 15.7420084,0.184079602 15.1966582,0.294527363 C14.7240214,0.368159204 14.3968113,0.846766169 14.5058813,1.28855721 C14.5785947,1.76716418 15.0512315,2.09850746 15.4875116,1.9880597 C15.7420084,1.95124378 15.9601484,1.91442786 16.2146452,1.87761194 C16.4691419,1.84079602 16.7236387,1.8039801 16.9781354,1.8039801 C17.4871289,1.76716418 17.9597657,1.73034826 18.4687592,1.73034826 C23.1951274,1.73034826 27.4852154,3.68159204 30.6118897,6.81094527 C33.7022074,9.94029851 35.6291113,14.2845771 35.6291113,19.1074627 C35.6291113,19.3651741 35.6291113,19.6597015 35.6291113,19.9174129 C35.6291113,20.1383085 35.5927546,20.359204 35.5927546,20.6169154 C35.556398,21.0955224 35.9199647,21.5373134 36.3926016,21.5741294 C36.8652384,21.6109453 37.3015185,21.2427861 37.3378752,20.7641791 C37.3742319,20.2119403 37.4105885,19.6597015 37.4105885,19.1442786 C37.4105885,13.879602 35.3019012,9.09353234 31.8843735,5.63283582 Z" id="Path"></path>
                    <path d="M36.0653915,27.9432836 L29.6302594,24.4457711 C27.4852154,23.2676617 27.4125021,24.040796 25.158388,26.4706468 C24.6130378,27.0597015 23.5950509,28.6059701 22.3952805,28.3114428 C19.8866697,27.6855721 15.1966582,23.9671642 13.6696777,22.2736318 C12.9425442,21.4636816 9.81586983,17.59801 9.77951315,16.3462687 C9.7067998,14.4318408 13.8514611,13.4746269 12.506264,9.82985075 L9.63408644,3.31343284 C6.94369226,-2.94527363 -0.582140117,7.06865672 0.0359234113,11.7442786 C1.63561725,23.2676617 21.5954336,41.8965174 32.7205771,35.7482587 C35.1928312,34.3492537 38.5376456,29.4527363 36.0653915,27.9432836 Z" id="Path"></path>
                </g>
            </g>
        </g>
    </g>
</svg>