<?xml version="1.0" encoding="UTF-8"?>
<svg width="67px" height="70px" viewBox="0 0 67 70" version="1.1" xmlns="http://www.w3.org/2000/svg" xmlns:xlink="http://www.w3.org/1999/xlink">
    <!-- Generator: sketchtool 53.2 (72643) - https://sketchapp.com -->
    <title>89158267-94FD-41B6-BA0C-6B073D40995E</title>
    <desc>Created with sketchtool.</desc>
    <g id="UI_2" stroke="none" stroke-width="1" fill="none" fill-rule="evenodd" opacity="0.748046875">
        <g id="Homepage" transform="translate(-435.000000, -5466.000000)">
            <g id="Group-8" transform="translate(435.000000, 5466.000000)">
                <path d="M2.79485436,64.494382 C3.53932584,64.494382 4.21777714,64.2038474 4.71910112,63.7316956 L3.93007944,62.9544692 C3.63540399,63.2233261 3.22962141,63.3904033 2.79485436,63.3904033 C1.86574107,63.3904033 1.11348672,62.6567968 1.11348672,61.741573 C1.11348672,60.8337515 1.86574107,60.0927428 2.79485436,60.0927428 C3.22962141,60.0927428 3.63540399,60.25982 3.93007944,60.5358147 L4.71910112,59.7514505 C4.21777714,59.2792987 3.53932584,58.988764 2.79485436,58.988764 C1.25357833,58.988764 0,60.2233379 0,61.741573 C0,63.2595438 1.25357833,64.494382 2.79485436,64.494382" id="Fill-80" fill="#E15F2F" style="mix-blend-mode: luminosity;"></path>
                <path d="M12.9810954,63.3932584 C12.0662671,63.3932584 11.3258427,62.6528341 11.3258427,61.7380057 C11.3258427,60.8305763 12.0662671,60.0898876 12.9810954,60.0898876 C13.8887891,60.0898876 14.6292135,60.8305763 14.6292135,61.7380057 C14.6292135,62.6528341 13.8887891,63.3932584 12.9810954,63.3932584 Z M15.7303371,61.741573 C15.7303371,60.2233379 14.4954988,58.988764 12.9775281,58.988764 C11.4595574,58.988764 10.2247191,60.2233379 10.2247191,61.741573 C10.2247191,63.2595438 11.4595574,64.494382 12.9775281,64.494382 C14.4954988,64.494382 15.7303371,63.2595438 15.7303371,61.741573 L15.7303371,61.741573 Z" id="Fill-81" fill="#E15F2F" style="mix-blend-mode: luminosity;"></path>
                <polyline id="Fill-82" fill="#E15F2F" style="mix-blend-mode: luminosity;" points="26.741573 64.494382 26.741573 58.988764 25.5744175 58.988764 23.9924122 63.012629 22.40285 58.988764 21.2359551 58.988764 21.2359551 64.494382 22.3168573 64.494382 22.3168573 61.741573 23.4053166 64.494382 24.5722115 64.494382 25.6606708 61.741573 25.6606708 64.494382 26.741573 64.494382"></polyline>
                <path d="M33.2958801,60.0898876 L33.7629855,60.0898876 C34.0841379,60.0898876 34.3445693,60.3377665 34.3445693,60.6440323 C34.3445693,60.9431324 34.0841379,61.1910112 33.7629855,61.1910112 L33.2958801,61.1910112 L33.2958801,60.0898876 Z M33.3291815,62.2935624 L33.7736637,62.2935624 C34.6694099,62.2935624 35.3932584,61.5525537 35.3932584,60.6447321 C35.3932584,59.7295084 34.6694099,58.988764 33.7666208,58.988764 L32.247191,58.988764 L32.247191,64.494382 L33.3291815,64.494382 L33.3291815,62.2935624 L33.3291815,62.2935624 Z" id="Fill-83" fill="#E15F2F" style="mix-blend-mode: luminosity;"></path>
                <path d="M43.1011236,61.741573 L43.6471245,60.6404494 L44.2022472,61.741573 L43.1011236,61.741573 Z M44.2768613,58.988764 L43.0265095,58.988764 L40.8988764,64.494382 L42.1492282,64.494382 L42.7469891,62.9544692 L44.5563817,62.9544692 L45.1544252,64.494382 L46.4044944,64.494382 L44.2768613,58.988764 L44.2768613,58.988764 Z" id="Fill-84" fill="#E15F2F" style="mix-blend-mode: luminosity;"></path>
                <polyline id="Fill-85" fill="#E15F2F" style="mix-blend-mode: luminosity;" points="56.6292135 64.494382 56.6292135 58.988764 55.3119554 58.988764 55.3119554 62.6639346 52.6682299 58.988764 51.1235955 58.988764 51.1235955 64.494382 52.4411712 64.494382 52.4411712 60.8263493 55.0937885 64.494382 56.6292135 64.494382"></polyline>
                <polyline id="Fill-86" fill="#E15F2F" style="mix-blend-mode: luminosity;" points="63.3497485 58.988764 62.1348315 58.988764 63.5582967 61.8721682 63.5582967 64.494382 64.6439505 64.494382 64.6439505 61.8721682 66.0674157 58.988764 64.852237 58.988764 64.1046561 60.5141369 63.3497485 58.988764"></polyline>
                <polyline id="Fill-87" fill="#E15F2F" style="mix-blend-mode: luminosity;" points="0.615302301 70 0.957731407 70 0.957731407 67.9591559 1.57303371 67.9591559 1.57303371 67.6404494 0 67.6404494 0 67.9591559 0.615302301 67.9591559 0.615302301 70"></polyline>
                <path d="M4.3258427,69.4101124 L4.61804072,68.2303371 L4.62353231,68.2303371 L4.91573034,69.4101124 L4.3258427,69.4101124 Z M4.1503247,67.6404494 L3.14606742,70 L3.5894813,70 L3.80148073,69.4724767 L4.84957837,69.4724767 L5.06376982,70 L5.50561798,70 L4.50104755,67.6404494 L4.1503247,67.6404494 L4.1503247,67.6404494 Z" id="Fill-88" fill="#E15F2F" style="mix-blend-mode: luminosity;"></path>
                <path d="M8.31079069,68.1612867 C8.34624074,68.1134117 8.39267532,68.0736913 8.45009442,68.0418624 C8.50651493,68.0110856 8.57391996,67.9945135 8.65255916,67.9924092 C8.75915897,67.9945135 8.85003094,68.0268686 8.92442612,68.0894743 C8.99607517,68.1552366 9.04525588,68.2349404 9.07246754,68.3283229 L9.42596948,68.3283229 C9.39101873,68.1341926 9.30613832,67.9711022 9.17232685,67.8395776 C9.03826573,67.7091053 8.86500983,67.6428169 8.65255916,67.6404494 C8.47930327,67.6428169 8.33475692,67.68622 8.21867048,67.7711848 C8.10108615,67.8550975 8.01520715,67.9505843 7.96178242,68.0576453 C7.92882885,68.1139378 7.90411367,68.1875916 7.88788653,68.2791327 C7.87290764,68.3704107 7.86516854,68.5505994 7.86516854,68.8202247 C7.86516854,69.0856413 7.87290764,69.2650408 7.88788653,69.3584232 C7.89587528,69.4084025 7.90611085,69.4497013 7.91809397,69.4825824 C7.93132533,69.5144113 7.94580493,69.5478186 7.96178242,69.5830672 C8.01520715,69.6901281 8.10108615,69.7845628 8.21867048,69.866371 C8.33475692,69.9513359 8.47930327,69.9957912 8.65255916,70 C8.8772426,69.9957912 9.0634802,69.9155612 9.21152162,69.7595731 C9.35856445,69.6025328 9.43420787,69.4078764 9.43820225,69.175341 L9.43820225,68.7023787 L8.65555494,68.7023787 L8.65555494,69.0353989 L9.10417287,69.0353989 L9.10417287,69.1564015 C9.10217568,69.3016046 9.05898654,69.4189245 8.97435577,69.5080982 C8.88972501,69.6014806 8.78237626,69.6483033 8.65255916,69.6483033 C8.57391996,69.6483033 8.50651493,69.630679 8.45009442,69.5956935 C8.39267532,69.565969 8.34624074,69.5273007 8.31079069,69.4794258 C8.26760154,69.4297095 8.23889199,69.3642103 8.22491169,69.2834542 C8.20868455,69.2029612 8.20069581,69.0485514 8.20069581,68.8202247 C8.20069581,68.5921611 8.20868455,68.4366991 8.22491169,68.3538386 C8.23889199,68.275187 8.26760154,68.211003 8.31079069,68.1612867" id="Fill-89" fill="#E15F2F" style="mix-blend-mode: luminosity;"></path>
                <polyline id="Fill-90" fill="#E15F2F" style="mix-blend-mode: luminosity;" points="12.5842697 67.6404494 12.5842697 70 14.1573034 70 14.1573034 69.6617755 12.957565 69.6617755 12.957565 67.6404494 12.5842697 67.6404494"></polyline>
                <polygon id="Fill-91" fill="#E15F2F" style="mix-blend-mode: luminosity;" points="16.5168539 70 17.3033708 70 17.3033708 67.6404494 16.5168539 67.6404494"></polygon>
                <polyline id="Fill-92" fill="#E15F2F" style="mix-blend-mode: luminosity;" points="20.9178294 69.317134 20.9121231 69.317134 19.9622638 67.6404494 19.6629213 67.6404494 19.6629213 70 19.981047 70 19.981047 68.3233154 19.9867533 68.3233154 20.9351861 70 21.2359551 70 21.2359551 67.6404494 20.9178294 67.6404494 20.9178294 69.317134"></polyline>
                <polyline id="Fill-93" fill="#E15F2F" style="mix-blend-mode: luminosity;" points="25.9550562 67.978674 25.9550562 67.6404494 24.3820225 67.6404494 24.3820225 70 25.9550562 70 25.9550562 69.6617755 24.7552516 69.6617755 24.7552516 68.9690168 25.7791891 68.9690168 25.7791891 68.6519146 24.7552516 68.6519146 24.7552516 67.978674 25.9550562 67.978674"></polyline>
                <path d="M31.8141761,67.7711848 C31.6965918,67.8550975 31.6109624,67.9505843 31.5575377,68.0576453 C31.5243345,68.1139378 31.4996193,68.1875916 31.4833921,68.2791327 C31.4684133,68.3704107 31.4606742,68.5505994 31.4606742,68.8202247 C31.4606742,69.0856413 31.4684133,69.2650408 31.4833921,69.3584232 C31.4916305,69.4084025 31.5016165,69.4497013 31.5135996,69.4825824 C31.5268309,69.5144113 31.5413105,69.5478186 31.5575377,69.5830672 C31.6109624,69.6901281 31.6965918,69.7845628 31.8141761,69.866371 C31.9302625,69.9513359 32.0748089,69.9957912 32.2480648,70 C32.4727482,69.9957912 32.6589858,69.9155612 32.8072769,69.7595731 C32.9540701,69.6025328 33.0297135,69.4078764 33.0337079,69.175341 L33.0337079,68.7023787 L32.2510606,68.7023787 L32.2510606,69.0353989 L32.6996785,69.0353989 L32.6996785,69.1564015 C32.6976813,69.3016046 32.6544922,69.4189245 32.5698614,69.5080982 C32.4852306,69.6014806 32.3778819,69.6483033 32.2480648,69.6483033 C32.1694256,69.6483033 32.1020205,69.630679 32.0456,69.5956935 C31.9881809,69.565969 31.9417464,69.5273007 31.906546,69.4794258 C31.8631072,69.4297095 31.8346473,69.3642103 31.8204173,69.2834542 C31.8041902,69.2029612 31.7962014,69.0485514 31.7962014,68.8202247 C31.7962014,68.5921611 31.8041902,68.4366991 31.8204173,68.3538386 C31.8346473,68.275187 31.8631072,68.211003 31.906546,68.1612867 C31.9417464,68.1134117 31.9881809,68.0736913 32.0456,68.0418624 C32.1020205,68.0110856 32.1694256,67.9945135 32.2480648,67.9924092 C32.3549142,67.9945135 32.4455366,68.0268686 32.5201814,68.0894743 C32.5915808,68.1552366 32.6410111,68.2349404 32.6679732,68.3283229 L33.0214751,68.3283229 C32.9865243,68.1341926 32.9016439,67.9711022 32.7678325,67.8395776 C32.6337713,67.7091053 32.4605155,67.6428169 32.2480648,67.6404494 C32.0748089,67.6428169 31.9302625,67.68622 31.8141761,67.7711848" id="Fill-94" fill="#E15F2F" style="mix-blend-mode: luminosity;"></path>
                <path d="M37.6230265,69.8195197 C37.5844973,69.8706839 37.5329319,69.9120088 37.46862,69.9437756 C37.4011215,69.9811648 37.3208765,70 37.2284644,70 C37.1372111,70 37.0589939,69.9811648 36.9935233,69.9437756 C36.9268939,69.9120088 36.8733006,69.8706839 36.8321642,69.8195197 C36.7820473,69.7663876 36.7487326,69.6963883 36.7322201,69.6100838 C36.7136797,69.5240605 36.7041199,69.3590419 36.7041199,69.115028 C36.7041199,68.8712952 36.7136797,68.7051521 36.7322201,68.6165987 C36.7487326,68.5325432 36.7820473,68.4639495 36.8321642,68.4108174 C36.8733006,68.3596532 36.9268939,68.3172038 36.9935233,68.283188 C37.0589939,68.2502967 37.1372111,68.2325861 37.2284644,68.2303371 C37.3208765,68.2325861 37.4011215,68.2502967 37.46862,68.283188 C37.5329319,68.3172038 37.5844973,68.3596532 37.6230265,68.4108174 C37.6734331,68.4639495 37.7079066,68.5325432 37.7264469,68.6165987 C37.7441182,68.7051521 37.752809,68.8712952 37.752809,69.115028 C37.752809,69.3590419 37.7441182,69.5240605 37.7264469,69.6100838 C37.7079066,69.6963883 37.6734331,69.7663876 37.6230265,69.8195197 Z M37.6561798,69.5830672 C37.693633,69.5267746 37.7191011,69.4518056 37.7333333,69.3584232 C37.7463171,69.2650408 37.752809,69.0856413 37.752809,68.8202247 C37.752809,68.5505994 37.7463171,68.3704107 37.7333333,68.2791327 C37.7191011,68.1875916 37.693633,68.1139378 37.6561798,68.0576453 C37.6049938,67.9505843 37.5213483,67.8550975 37.4054931,67.7711848 C37.2883895,67.68622 37.1425718,67.6428169 36.9670412,67.6404494 C36.7940075,67.6428169 36.6491885,67.68622 36.5333333,67.7711848 C36.4154806,67.8550975 36.3298377,67.9505843 36.2764045,68.0576453 C36.243196,68.1139378 36.2184769,68.1875916 36.2024969,68.2791327 C36.1872659,68.3704107 36.1797753,68.5505994 36.1797753,68.8202247 C36.1797753,69.0856413 36.1872659,69.2650408 36.2024969,69.3584232 C36.2104869,69.4084025 36.2204744,69.4497013 36.2327091,69.4825824 C36.2456929,69.5144113 36.2604245,69.5478186 36.2764045,69.5830672 C36.3298377,69.6901281 36.4154806,69.7845628 36.5333333,69.866371 C36.6491885,69.9513359 36.7940075,69.9957912 36.9670412,70 C37.1425718,69.9957912 37.2883895,69.9513359 37.4054931,69.866371 C37.5213483,69.7845628 37.6049938,69.6901281 37.6561798,69.5830672 L37.6561798,69.5830672 Z" id="Fill-95" fill="#E15F2F" style="mix-blend-mode: luminosity;"></path>
                <polyline id="Fill-96" fill="#E15F2F" style="mix-blend-mode: luminosity;" points="41.6853933 67.978674 41.6853933 67.6404494 40.1123596 67.6404494 40.1123596 70 41.6853933 70 41.6853933 69.6617755 40.4858678 69.6617755 40.4858678 68.9690168 41.5095261 68.9690168 41.5095261 68.6519146 40.4858678 68.6519146 40.4858678 67.978674 41.6853933 67.978674"></polyline>
                <path d="M44.8674435,69.6483033 C44.6318532,69.6459359 44.4288418,69.5691255 44.2581665,69.4173462 L44.0449438,69.6817106 C44.2734835,69.8939912 44.5465155,70 44.864526,70 C45.3558863,69.9936868 45.6070368,69.7687798 45.6179775,69.325016 C45.6179775,69.1606103 45.5703246,69.0161963 45.4752618,68.8920371 C45.3789834,68.7657736 45.2304326,68.687648 45.0293663,68.6579234 C44.9272528,68.6442449 44.8467777,68.6318816 44.7879409,68.6213596 C44.6819374,68.6000526 44.6051091,68.5619105 44.5569699,68.5066702 C44.5088307,68.4524821 44.4847611,68.3919808 44.4847611,68.3251663 C44.4867061,68.2138965 44.522689,68.1299838 44.5922234,68.0736913 C44.6588403,68.0195032 44.7424761,67.9924092 44.8424014,67.9924092 C45.0356876,67.9966179 45.2126843,68.056067 45.3736346,68.1707565 L45.5545213,67.8808763 C45.357345,67.7269926 45.1254016,67.6470257 44.8586909,67.6404494 C44.6369588,67.6428169 44.4657972,67.7051595 44.3449629,67.8285296 C44.2204817,67.9526887 44.1582411,68.1160422 44.1582411,68.3188531 C44.1582411,68.4877306 44.2078391,68.6308294 44.3067919,68.7486754 C44.4030704,68.8633648 44.5431117,68.9370185 44.7276453,68.9698997 C44.8307313,68.9859457 44.9253078,69.0001503 45.011618,69.0130397 C45.2000417,69.0480253 45.2931594,69.1519297 45.2912144,69.325016 C45.2873244,69.5362444 45.1460674,69.6440945 44.8674435,69.6483033" id="Fill-97" fill="#E15F2F" style="mix-blend-mode: luminosity;"></path>
                <polyline id="Fill-98" fill="#E15F2F" style="mix-blend-mode: luminosity;" points="53.4831461 70 53.4831461 67.6404494 53.1421138 67.6404494 53.1421138 68.6519146 52.2511446 68.6519146 52.2511446 67.6404494 51.9101124 67.6404494 51.9101124 70 52.2511446 70 52.2511446 68.9690168 53.1421138 68.9690168 53.1421138 70 53.4831461 70"></polyline>
                <polyline id="Fill-99" fill="#E15F2F" style="mix-blend-mode: luminosity;" points="57.4157303 67.978674 57.4157303 67.6404494 56.6292135 67.6404494 56.6292135 70 57.4157303 70 57.4157303 69.6617755 56.8160008 69.6617755 56.8160008 68.9690168 57.3279208 68.9690168 57.3279208 68.6519146 56.8160008 68.6519146 56.8160008 67.978674 57.4157303 67.978674"></polyline>
                <path d="M60.5617978,68.2303371 L61.1861808,68.2303371 C61.3138006,68.2303371 61.4113045,68.2503968 61.4786926,68.2905162 C61.5639713,68.3359261 61.6078033,68.4093314 61.6104869,68.5105117 C61.6104869,68.5951592 61.5738111,68.6663602 61.5004595,68.7241145 C61.4259152,68.7862775 61.3138006,68.8182408 61.164712,68.8202247 L60.5617978,68.8202247 L60.5617978,68.2303371 Z M60.887463,68.9917433 L61.3032525,68.9917433 L61.74681,70 L62.1348315,70 L61.6364687,68.9529745 C61.9095208,68.8374702 62.0483609,68.6195627 62.0520146,68.2989846 C62.0461687,68.0813445 61.9750436,67.9134354 61.8383957,67.7957921 C61.725375,67.6923194 61.5794712,67.6404494 61.4006841,67.6404494 L60.5617978,67.6404494 L60.5617978,70 L60.887463,70 L60.887463,68.9917433 L60.887463,68.9917433 Z" id="Fill-100" fill="#E15F2F" style="mix-blend-mode: luminosity;"></path>
                <polyline id="Fill-101" fill="#E15F2F" style="mix-blend-mode: luminosity;" points="66.0674157 67.978674 66.0674157 67.6404494 64.494382 67.6404494 64.494382 70 66.0674157 70 66.0674157 69.6617755 64.8678903 69.6617755 64.8678903 68.9690168 65.8915486 68.9690168 65.8915486 68.6519146 64.8678903 68.6519146 64.8678903 67.978674 66.0674157 67.978674"></polyline>
                <path d="M49.3201124,6.03101124 L49.3382022,6.04516854 L49.3193258,6.0294382 C49.2076404,5.93505618 49.091236,5.84382022 48.9779775,5.7541573 L48.9764045,5.75258427 L48.977191,5.75337079 C49.0896629,5.84460674 49.2068539,5.9358427 49.3201124,6.03101124" id="Fill-102" fill="#FFFBF8" style="mix-blend-mode: luminosity;"></path>
                <path d="M48.1925974,4.93047128 L48.1980323,4.93496852 L48.2015262,4.93996545 C48.3909735,5.12535157 48.5800326,5.31573462 48.760551,5.50361921 L48.7640449,5.50561798 L48.7609393,5.50311951 C48.5796444,5.31523493 48.3917499,5.12585126 48.2023026,4.93896606 L48.1976441,4.93396913 L48.1925974,4.9294719 C48.1429063,4.87950259 48.0912741,4.82953329 48.0400302,4.77956398 L47.9775281,4.71910112 L48.0392537,4.77956398 C48.0916623,4.83053267 48.1421298,4.87950259 48.1925974,4.93047128" id="Fill-103" fill="#FFFBF8" style="mix-blend-mode: luminosity;"></path>
                <path d="M47.5948876,5.12061798 C47.5885955,5.11589888 47.5830899,5.11117978 47.5775843,5.10724719 L47.5885955,5.11511236 L47.5736517,5.10410112 L47.5783708,5.10803371 C47.5838764,5.11196629 47.589382,5.11589888 47.5948876,5.12061798" id="Fill-104" fill="#FFFBF8" style="mix-blend-mode: luminosity;"></path>
                <polyline id="Fill-105" fill="#FFFBF8" style="mix-blend-mode: luminosity;" points="47.7010674 5.19848315 47.6829775 5.18589888 47.4674719 5.02623596 47.682191 5.18668539 47.7010674 5.19848315"></polyline>
                <path d="M47.5602809,5.09544944 C47.6161236,5.13477528 47.6711798,5.17488764 47.7270225,5.215 C47.6719663,5.17567416 47.6176966,5.1355618 47.5610674,5.09544944 L47.4415169,5.0097191 L47.4430899,5.01129213 L47.5602809,5.09544944" id="Fill-106" fill="#FFFBF8" style="mix-blend-mode: luminosity;"></path>
                <path d="M47.7608427,5.23780899 L47.753764,5.23230337 C47.6389326,5.1497191 47.5241011,5.06713483 47.4076966,4.98691011 C47.5233146,5.06713483 47.6381461,5.14893258 47.7529775,5.23466292 L47.7608427,5.23780899" id="Fill-107" fill="#FFFBF8" style="mix-blend-mode: luminosity;"></path>
                <path d="M47.7812921,5.24606742 L47.7710674,5.23898876 C47.6436517,5.15168539 47.5154494,5.06516854 47.3872472,4.97865169 C47.5154494,5.06516854 47.6428652,5.15247191 47.7702809,5.2405618 L47.7812921,5.24606742" id="Fill-108" fill="#FFFBF8" style="mix-blend-mode: luminosity;"></path>
                <path d="M46.8138764,4.33646067 C46.8036517,4.33016854 46.793427,4.32308989 46.7832022,4.31679775 L46.7816292,4.31522472 L46.7816292,4.31601124 C46.7926404,4.32308989 46.8028652,4.33016854 46.8138764,4.33646067" id="Fill-110" fill="#FFFBF8" style="mix-blend-mode: luminosity;"></path>
                <path d="M46.6019101,4.2 C46.7403371,4.28730337 46.8779775,4.37775281 47.0164045,4.46741573 C46.878764,4.37696629 46.7411236,4.28730337 46.6034831,4.2 L46.5814607,4.1858427 L46.5791011,4.18426966 L46.5806742,4.18505618 L46.6019101,4.2" id="Fill-112" fill="#FFFBF8" style="mix-blend-mode: luminosity;"></path>
                <polyline id="Fill-117" fill="#FFFBF8" style="mix-blend-mode: luminosity;" points="46.0124157 3.54011236 46.0100562 3.53853933 46.0116292 3.53932584 46.0124157 3.54011236"></polyline>
                <path d="M45.7250399,4.06157303 L45.9532656,4.26921348 C46.0984526,4.39741573 46.2415507,4.53269663 46.3825596,4.66797753 L46.4018831,4.68606742 L46.4044944,4.68842697 L46.4008386,4.68449438 L46.3836042,4.66797753 C46.2420729,4.53191011 46.0979304,4.39898876 45.9537878,4.26764045 L45.7250399,4.06078652 L45.7224286,4.05606742 C45.6874375,4.02539326 45.6524464,3.99393258 45.6179775,3.96325843 C45.6529686,3.9947191 45.6869153,4.02539326 45.7229509,4.05764045 L45.7250399,4.06157303" id="Fill-118" fill="#FFFBF8" style="mix-blend-mode: luminosity;"></path>
                <path d="M49.3716292,6.07466292 L49.4258989,6.11949438 L49.3708427,6.07308989 C49.2151124,5.94331461 49.0633146,5.81904494 48.9123034,5.69713483 L48.8887079,5.67825843 L48.9115169,5.69792135 C49.0641011,5.81904494 49.2143258,5.94331461 49.3716292,6.07466292" id="Fill-119" fill="#FFFBF8" style="mix-blend-mode: luminosity;"></path>
                <path d="M45.1295506,3.48505618 C45.2868539,3.57550562 45.4417978,3.66438202 45.5975281,3.75483146 C45.4417978,3.66438202 45.2868539,3.57393258 45.1311236,3.48426966 L45.0131461,3.4158427 C44.9588764,3.38438202 44.9061798,3.3552809 44.8519101,3.32382022 C44.9061798,3.3552809 44.9580899,3.38438202 45.0123596,3.4158427 L45.1295506,3.48505618" id="Fill-120" fill="#FFFBF8" style="mix-blend-mode: luminosity;"></path>
                <path d="M43.2907111,3.24713483 L43.6364791,3.52477528 C43.7688909,3.62702247 43.8989633,3.73320225 44.0271641,3.84646067 L44.0407328,3.85668539 L44.0449438,3.85983146 L44.0393292,3.85511236 L44.0266963,3.84488764 C43.8980275,3.73398876 43.7679551,3.62859551 43.6364791,3.52241573 L43.2907111,3.2455618 L43.2897753,3.24320225 C43.2794818,3.23533708 43.2687205,3.22668539 43.258427,3.21882022 C43.2687205,3.22668539 43.2794818,3.23455056 43.2888396,3.24320225 L43.2907111,3.24713483" id="Fill-121" fill="#FFFBF8" style="mix-blend-mode: luminosity;"></path>
                <polyline id="Fill-123" fill="#FFFBF8" style="mix-blend-mode: luminosity;" points="8.26235955 22.387809 8.25764045 22.4161236 8.25449438 22.4436517 8.25921348 22.4161236 8.26235955 22.387809"></polyline>
                <polyline id="Fill-124" fill="#FFFBF8" style="mix-blend-mode: luminosity;" points="8.26117978 22.3901685 8.25567416 22.433427 8.25567416 22.4412921 8.25646067 22.433427 8.26117978 22.3901685"></polyline>
                <path d="M8.22775281,21.8364607 C8.24269663,21.7200562 8.26078652,21.6028652 8.2788764,21.4856742 L8.29146067,21.4030899 L8.27808989,21.4856742 C8.26078652,21.6012921 8.24269663,21.7192697 8.22775281,21.8364607 L8.22617978,21.8474719 L8.22539326,21.8553371 L8.22775281,21.8474719 L8.22775281,21.8364607" id="Fill-125" fill="#FFFBF8" style="mix-blend-mode: luminosity;"></path>
                <path d="M8.28595506,21.4329775 C8.27651685,21.5014045 8.26707865,21.5714045 8.25685393,21.640618 L8.23089888,21.8254494 L8.25842697,21.642191 C8.26707865,21.570618 8.27730337,21.5014045 8.28595506,21.4329775" id="Fill-126" fill="#FFFBF8" style="mix-blend-mode: luminosity;"></path>
                <path d="M8.24702247,23.3092135 C8.25567416,23.2313483 8.26432584,23.1550562 8.27297753,23.0779775 C8.26432584,23.1558427 8.25488764,23.2313483 8.24623596,23.3092135 L8.24544944,23.3155056 L8.2438764,23.3265169 L8.24702247,23.3162921 L8.24702247,23.3092135" id="Fill-127" fill="#FFFBF8" style="mix-blend-mode: luminosity;"></path>
                <path d="M8.2694382,23.7815169 C8.26235955,23.9152247 8.25449438,24.0497191 8.24741573,24.1842135 L8.24741573,24.1960112 L8.24898876,24.1842135 C8.25449438,24.0497191 8.26235955,23.9152247 8.2694382,23.7815169" id="Fill-128" fill="#FFFBF8" style="mix-blend-mode: luminosity;"></path>
                <path d="M8.27297753,23.0272472 C8.26668539,23.1043258 8.25960674,23.1814045 8.25331461,23.2592697 C8.25016854,23.2985955 8.24702247,23.3379213 8.2438764,23.3772472 C8.24780899,23.3379213 8.25016854,23.297809 8.25410112,23.2584831 C8.25960674,23.1814045 8.26668539,23.1043258 8.27297753,23.0272472" id="Fill-129" fill="#FFFBF8" style="mix-blend-mode: luminosity;"></path>
                <path d="M8.28320225,22.8966025 C8.2855618,22.8678438 8.28792135,22.8377475 8.2902809,22.8089888 C8.28713483,22.8384163 8.28477528,22.8678438 8.28241573,22.8979401 C8.26117978,23.1106207 8.2438764,23.3340021 8.22735955,23.5914928 L8.22657303,23.5955056 L8.22814607,23.5921616 C8.24308989,23.3346709 8.26117978,23.1112895 8.28320225,22.8966025" id="Fill-130" fill="#FFFBF8" style="mix-blend-mode: luminosity;"></path>
                <path d="M20.7982584,34.1187079 C20.826573,34.1824157 20.8580337,34.2445506 20.8871348,34.3082584 C20.8580337,34.2445506 20.826573,34.1824157 20.7982584,34.1187079" id="Fill-133" fill="#FFFBF8" style="mix-blend-mode: luminosity;"></path>
                <path d="M44.0449438,3.14606742 C44.3096492,3.39557759 44.5732991,3.65868287 44.8314607,3.93258427 C44.5732991,3.65828302 44.3094381,3.39477788 44.0449438,3.14606742" id="Fill-136" fill="#FFFBF8" style="mix-blend-mode: luminosity;"></path>
                <path d="M50.2725843,6.17651685 C50.142809,6.06404494 50.0138202,5.95314607 49.8793258,5.84067416 L49.6150562,5.62123596 L49.8777528,5.84067416 C50.0138202,5.95235955 50.142809,6.06404494 50.2725843,6.17651685" id="Fill-137" fill="#FFFBF8" style="mix-blend-mode: luminosity;"></path>
                <path d="M25.1685393,11.011236 C27.2580348,8.92667894 29.8245853,7.30804461 32.7150446,6.27260244 C33.5907347,5.95865679 34.4846092,5.70282002 35.3932584,5.50561798 C34.4843251,5.70282002 33.5901665,5.95839386 32.7144764,6.27207657 C29.8243012,7.30778167 27.2577507,8.926416 25.1685393,11.011236" id="Fill-138" fill="#FFFBF8" style="mix-blend-mode: luminosity;"></path>
                <path d="M29.1008344,43.258427 L29.1011236,43.258427 C26.6402763,41.7599277 24.5111085,39.754356 22.8385421,37.3398645 C22.23215,36.4649389 21.6971832,35.5515679 21.2359551,34.6067416 C21.6971832,35.5515679 22.23215,36.4652302 22.8385421,37.340447 C24.510241,39.754356 26.639698,41.7599277 29.1008344,43.258427" id="Fill-139" fill="#FFFBF8" style="mix-blend-mode: luminosity;"></path>
                <path d="M7.47269663,24.5629213 L7.47269663,24.5644944 C7.47269663,24.64 7.47191011,24.7139326 7.47191011,24.7894382 C7.4711236,24.8555056 7.4711236,24.921573 7.4711236,24.9876404 C7.4711236,24.9207865 7.4711236,24.8547191 7.47269663,24.7886517 L7.47269663,24.5629213" id="Fill-140" fill="#FFFBF8" style="mix-blend-mode: luminosity;"></path>
                <path d="M13.2798802,38.5930999 C9.86009308,35.0815364 7.93796107,30.3947834 7.86721492,25.3980971 L7.86575322,25.3277684 L7.86575322,25.2443482 C7.86516854,25.2187741 7.86516854,25.1938089 7.86516854,25.1685393 C7.86516854,25.1935045 7.86516854,25.2184697 7.86546088,25.2434348 C7.86546088,25.2714445 7.86575322,25.2994542 7.86575322,25.3274639 L7.86663024,25.3984015 C7.93766873,30.3953923 9.85980074,35.0812319 13.2792955,38.5930999 C16.702006,42.1089258 21.2344371,44.0449438 26.0425444,44.0449438 C26.8075968,44.0449438 27.5653407,43.9925779 28.3146067,43.8954573 C27.5650483,43.9922734 26.8073044,44.0449438 26.0434214,44.0449438 C21.2347295,44.0449438 16.702006,42.1092302 13.2798802,38.5930999" id="Fill-141" fill="#FFFBF8" style="mix-blend-mode: luminosity;"></path>
                <path d="M49.8702809,7.40269663 L49.8930899,7.42393258 C50.013427,7.53247191 50.1314045,7.64179775 50.2517416,7.75426966 C50.1314045,7.64179775 50.013427,7.53247191 49.8930899,7.42314607 L49.8702809,7.40191011 L49.712191,7.25876404 C49.6870225,7.23516854 49.6610674,7.21235955 49.6358989,7.18955056 C49.6618539,7.21314607 49.6870225,7.23595506 49.713764,7.25955056 L49.8702809,7.40269663" id="Fill-142" fill="#FFFBF8" style="mix-blend-mode: luminosity;"></path>
                <polyline id="Fill-143" fill="#FFFBF8" style="mix-blend-mode: luminosity;" points="49.9615169 7.48882022 49.9363483 7.46522472 49.9261236 7.455 49.9355618 7.46679775 49.9615169 7.48882022"></polyline>
                <path d="M51.0028652,7.73696629 C51.0083708,7.74011236 51.0123034,7.74561798 51.0170225,7.7511236 C51.0185955,7.75191011 51.0209551,7.75348315 51.0225281,7.75426966 C51.0170225,7.74797753 51.0107303,7.74247191 51.0044382,7.73617978 C50.9242135,7.65910112 50.8432022,7.58044944 50.7629775,7.50022472 C50.6567978,7.39561798 50.5474719,7.29258427 50.4381461,7.18955056 C50.5466854,7.29337079 50.6560112,7.39640449 50.7614045,7.50022472 C50.8416292,7.58044944 50.9257865,7.66067416 51.0028652,7.73696629" id="Fill-144" fill="#FFFBF8" style="mix-blend-mode: luminosity;"></path>
                <path d="M50.1070225,7.62567416 C50.0024157,7.52657303 49.9041011,7.43140449 49.7939888,7.32994382 L49.780618,7.31814607 L49.7924157,7.33151685 C49.9033146,7.43140449 50.0024157,7.52657303 50.1070225,7.62567416" id="Fill-145" fill="#FFFBF8" style="mix-blend-mode: luminosity;"></path>
                <path d="M8.25960674,23.9620225 L8.25882022,23.9706742 C8.25803371,23.9864045 8.25803371,24.0013483 8.25724719,24.0155056 C8.25803371,24.0013483 8.25882022,23.987191 8.25960674,23.9722472 L8.25960674,23.9620225" id="Fill-146" fill="#FFFBF8" style="mix-blend-mode: luminosity;"></path>
                <polyline id="Fill-147" fill="#FFFBF8" style="mix-blend-mode: luminosity;" points="7.47230337 23.9852247 7.47151685 23.9899438 7.47151685 23.9923034 7.47230337 23.9883708 7.47230337 23.9852247"></polyline>
                <path d="M7.46207865,24.8619994 L7.46207865,24.8260089 C7.46207865,24.8086342 7.46207865,24.7915697 7.46522472,24.775436 C7.4691573,24.6702569 7.47702247,24.5681803 7.48803371,24.4586574 C7.48960674,24.4325954 7.49275281,24.407464 7.49511236,24.3820225 C7.49353933,24.4071538 7.48960674,24.4325954 7.48724719,24.4577267 C7.47702247,24.56787 7.4691573,24.6708774 7.46365169,24.7751258 C7.46365169,24.7921902 7.46286517,24.8089444 7.46207865,24.8256986 L7.46129213,24.8350065 L7.46129213,24.8523813 L7.46050562,24.8626199 C7.455,24.9479423 7.45264045,25.0335749 7.4502809,25.1201383 L7.44870787,25.1685393 L7.45106742,25.119828 C7.45106742,25.0335749 7.455,24.9485628 7.46207865,24.8619994" id="Fill-148" fill="#FFFBF8" style="mix-blend-mode: luminosity;"></path>
                <path d="M8.15396121,21.6931983 L8.15048875,21.7169297 L8.14585881,21.7480772 C8.13920327,21.792277 8.13254772,21.8364768 8.12704967,21.88038 L8.12704967,21.884533 L8.12618155,21.8874994 L8.12560281,21.888686 C8.1247347,21.896992 8.12357721,21.9058913 8.12241972,21.9144939 C8.11923664,21.9403018 8.11547481,21.9664064 8.11229172,21.9934009 L8.10216372,22.0625187 L8.1004275,22.0746811 L8.09753378,22.0954461 L8.09724441,22.0969293 L8.09608693,22.1076084 L8.0943507,22.1179909 L8.09348258,22.1230339 L8.09116761,22.1437989 L8.08943138,22.1601142 L8.08914201,22.1630806 L8.08682704,22.1740564 C8.0761203,22.2580064 8.06512418,22.3431429 8.05441744,22.428576 C8.0457363,22.5036267 8.0376339,22.5813471 8.02924213,22.6584743 C8.02605904,22.6875453 8.02287596,22.7163196 8.01969287,22.7456873 L8.01969287,22.7483571 L8.01853539,22.7522134 L8.01824602,22.7539933 C8.00753927,22.8462492 7.99827939,22.9399884 7.98873013,23.0322443 C7.98207459,23.1010655 7.97657653,23.1710732 7.96992099,23.2413776 L7.96992099,23.248497 L7.96326545,23.3173181 C7.9606611,23.3446093 7.95863551,23.3721971 7.95660991,23.3994882 C7.95429493,23.4285592 7.95169059,23.4576302 7.94966499,23.4867012 C7.94821813,23.5015334 7.94735002,23.5166622 7.94590316,23.5314943 C7.94416693,23.5537425 7.94185196,23.5759908 7.94040511,23.598239 C7.93837951,23.62642 7.93664328,23.6540078 7.93490705,23.6818923 C7.93403894,23.6946479 7.93317082,23.7079968 7.93230271,23.7207525 C7.92420031,23.8159749 7.91754476,23.9150536 7.91204671,24.0292611 L7.91146797,24.0307443 L7.91088922,24.0322275 L7.91088922,24.0363805 C7.90828488,24.0847333 7.90596991,24.1333828 7.90365494,24.1820322 C7.90105059,24.2324615 7.89815688,24.2831874 7.89613128,24.3339134 L7.89555254,24.338363 L7.89468442,24.3434059 L7.89468442,24.3546784 C7.89439505,24.3603146 7.89410568,24.3656541 7.89381631,24.3709937 C7.89323757,24.3822661 7.89294819,24.3932419 7.89208008,24.4054043 L7.89208008,24.4220163 L7.89179071,24.4234995 L7.89063322,24.4398149 C7.88773951,24.4970669 7.88600328,24.554319 7.88397768,24.6118677 C7.88310957,24.6361925 7.88195208,24.6602205 7.88137334,24.6851385 C7.87732214,24.7898535 7.87442842,24.887449 7.87298157,24.9880109 C7.87182408,25.0034364 7.87182408,25.0197517 7.87182408,25.0363637 L7.87182408,25.0707743 C7.86921974,25.1535377 7.86777288,25.2348178 7.86777288,25.3172845 L7.86690477,25.3638575 L7.86632602,25.3849191 L7.86632602,25.4715389 C7.86574728,25.4964569 7.86574728,25.5213749 7.86574728,25.5465895 C7.86574728,25.5640914 7.86516854,25.58189 7.86516854,25.5996886 C7.86516854,25.6168939 7.86574728,25.6349891 7.86574728,25.6527877 C7.86574728,25.677409 7.86574728,25.7017337 7.86632602,25.7266517 L7.86632602,25.8079319 L7.86777288,25.8764564 C7.93780076,30.7449596 9.84041779,35.3114803 13.2254846,38.7329595 C16.6128663,42.1588883 21.09957,44.0449438 25.8594404,44.0449438 C26.6155679,44.0449438 27.3656186,43.9936246 28.1075669,43.8992922 C28.4438164,43.8565756 28.7789085,43.8076295 29.1111069,43.7459278 C29.1108175,43.7456311 29.1108175,43.7456311 29.1105282,43.7453345 C26.6476881,42.2191068 24.516757,40.1764238 22.8439009,37.7178475 C22.237089,36.8264356 21.7017519,35.8958668 21.2402045,34.9335573 C21.1363202,34.7167113 21.0373552,34.4977889 20.9407051,34.2776798 C20.9299984,34.2536518 20.9184235,34.230217 20.9080061,34.2061889 C19.7403925,31.5171211 19.13387,28.5990449 19.13387,25.5996886 C19.13387,21.2372582 20.4172322,17.046584 22.8439009,13.4818263 C23.4015196,12.6624986 24.0112252,11.8912271 24.6657833,11.1680117 C26.7935313,8.81593021 29.4074232,6.98979654 32.3509092,5.82132018 C33.2427519,5.4674252 34.1534037,5.17908831 35.0791029,4.95660614 C36.6217419,4.58580252 38.2060504,4.39832421 39.8140873,4.39832421 C43.5727325,4.39832421 47.1832196,5.4217422 50.3370787,7.33924187 C50.3367893,7.33864859 50.3359212,7.33835195 50.3356318,7.33775866 C50.3338956,7.33568216 50.3324487,7.33360566 50.3304231,7.33241909 C50.3020647,7.30364473 50.271102,7.27338715 50.2415861,7.24312958 C50.2028103,7.20397271 50.1625877,7.1651125 50.1226544,7.12595563 C50.1102115,7.11408992 50.0980579,7.10192756 50.0859043,7.09006184 L50.0847468,7.08887527 L50.0751975,7.08056927 L50.0717251,7.07611963 L50.0656483,7.06929684 C50.0317918,7.03607284 49.9933054,7.00017905 49.957134,6.96547183 C49.9186476,6.92809482 49.8821868,6.89220103 49.8413854,6.85452738 L49.8370449,6.84948445 L49.833283,6.84473817 L49.8237338,6.83643217 C49.8170782,6.83020267 49.8107121,6.82426981 49.8040565,6.81774366 C49.7597827,6.77532373 49.716377,6.73409037 49.6721031,6.69315365 L49.6637114,6.68514429 L49.6061265,6.63115528 C49.5962878,6.622256 49.587028,6.61365335 49.5774787,6.60475407 C49.5135276,6.54512884 49.4501553,6.48639355 49.3870723,6.42884483 C49.3144401,6.36269346 49.2447016,6.3006951 49.1746737,6.23869673 C49.1529708,6.21882166 49.128953,6.19894658 49.106382,6.17936815 C49.0586358,6.13694822 49.0111788,6.09482493 48.9611176,6.05270164 L48.8644675,5.96993827 L48.8120913,5.92455191 L48.8106445,5.92188212 L48.7715793,5.8892514 L48.7516127,5.87234276 C48.6937384,5.82280339 48.6384685,5.77593382 48.5823304,5.73025081 L48.5739386,5.72283474 L48.5701768,5.71957167 L48.5646788,5.71512202 L48.5580232,5.70978245 C48.5163537,5.67388866 48.4732374,5.63947808 48.4318573,5.60506751 L48.4315679,5.60477087 L48.4275167,5.60091451 L48.4249124,5.59943129 L48.422308,5.59824472 C48.2877503,5.48670699 48.1468264,5.37368605 48.0056132,5.26363154 L48.0030089,5.26066511 L47.9989577,5.25799532 C47.9613394,5.22773775 47.9237211,5.19866674 47.8846559,5.16840917 L47.8386459,5.13251538 L47.8108662,5.1105638 C47.8047894,5.10522423 47.7981339,5.10077459 47.7914783,5.0960283 C47.7894527,5.09424844 47.7874271,5.09276523 47.7854015,5.09128201 L47.7836653,5.0897988 L47.778746,5.08594244 L47.7749842,5.08327266 L47.7680393,5.07882301 L47.6603931,4.99635629 L47.5527469,4.91477949 C47.5417508,4.90677013 47.530176,4.89816749 47.5188905,4.88986149 C47.4983451,4.8747327 47.4780891,4.85960391 47.4575437,4.84477177 L47.4144274,4.81303098 L47.4138487,4.81243769 L47.4118231,4.81036119 L47.4092187,4.80887798 L47.406325,4.80769141 C47.3640768,4.77535733 47.3218285,4.74450647 47.279291,4.71424889 C47.269163,4.70683282 47.2593243,4.69882346 47.2491963,4.69170403 L47.2370427,4.68339803 L47.226336,4.67538867 C47.122741,4.60093131 47.0194354,4.52647394 46.9143936,4.45201657 L46.9117893,4.45083 L46.9106318,4.44994007 L46.9065806,4.44786357 C46.8597024,4.41463957 46.8128242,4.38171221 46.7656567,4.34908149 C46.7543712,4.34136877 46.7433751,4.33306277 46.7318002,4.32535006 L46.7306428,4.32386684 L46.7263022,4.32119706 C46.6562743,4.27432748 46.5862464,4.22597469 46.5150611,4.17880847 C46.5110099,4.17643532 46.507248,4.17376554 46.5031968,4.17109575 L46.5031968,4.17079911 L46.4979881,4.16694275 L46.4913326,4.16278975 C46.4762853,4.15270389 46.461238,4.14291468 46.4461907,4.13282882 C46.3952613,4.09901153 46.3446213,4.0648976 46.2936919,4.03197023 L46.2858789,4.02633402 L46.2853002,4.02603738 L46.2777765,4.02099445 C46.2022506,3.96997187 46.1258565,3.92161908 46.0477262,3.87207971 L46.0399132,3.86763007 L46.0384663,3.86674014 L46.0277596,3.85991735 C45.9496293,3.80889478 45.8703416,3.7578722 45.7898963,3.70951941 L45.663441,3.63120568 L45.6622835,3.62972247 C45.6423169,3.61756011 45.6235077,3.60599104 45.6041199,3.59412532 C45.580102,3.57929318 45.5557948,3.56446103 45.531777,3.54992553 L45.5268577,3.54725574 L45.5265683,3.5469591 L45.5259896,3.54666246 L45.5225171,3.54428931 C45.5077592,3.53509338 45.4927119,3.52708403 45.4782433,3.5178881 C45.4209477,3.48377416 45.3639416,3.45025352 45.3060673,3.41613958 L45.262951,3.39003501 C45.2429843,3.37816929 45.2238858,3.36719351 45.2039192,3.35532779 C45.1509642,3.32388364 45.0982986,3.29214285 45.0453437,3.26188528 C45.040135,3.25891885 45.0349263,3.25654571 45.0297176,3.25357928 C44.6758164,3.05037889 44.3143915,2.85518787 43.9515197,2.6700827 C43.9434173,2.6659297 43.9356043,2.66148006 43.9275019,2.65732706 L43.9234507,2.6555472 L43.9208464,2.65436063 L43.9124546,2.65050427 C43.8331668,2.60778769 43.7527216,2.5677409 43.6708295,2.52917733 L43.456984,2.42446238 L43.4558265,2.42297917 C43.4500391,2.4197161 43.4433835,2.41674967 43.4370174,2.41378324 C43.4329662,2.41200338 43.428915,2.41022352 43.4248638,2.40785038 L43.4193657,2.4051806 L43.4176295,2.40458731 L43.414157,2.40369738 C43.1615358,2.28118387 42.9288812,2.17498571 42.7046183,2.07709355 L42.6988309,2.07412712 L42.6939116,2.07175398 L42.6887029,2.06997412 L42.6832048,2.06760098 C42.6293817,2.04268298 42.5755587,2.01954483 42.5205781,1.99611004 L42.4977178,1.98632083 L42.481513,1.97949804 L42.4786192,1.97742154 L42.4774618,1.97682825 L42.3808117,1.93529825 C42.3466659,1.92135603 42.3119413,1.90652389 42.2772167,1.89198839 C42.2607226,1.8851656 42.2450965,1.87863946 42.2288917,1.87211331 C41.9884241,1.77273794 41.7907834,1.692941 41.6093475,1.62411985 L41.5005439,1.58258985 L41.4857859,1.57695363 L41.3714842,1.53305048 C41.0664868,1.42032618 40.7493357,1.30849181 40.4310271,1.20526008 L40.4269759,1.20407351 L40.4229247,1.2025903 C40.4177161,1.20081044 40.4125074,1.19932723 40.4072987,1.19754737 C40.3465307,1.17737565 40.2860521,1.15809386 40.2252841,1.13910872 C40.1630692,1.11923364 40.1008544,1.09995186 40.0383501,1.08067007 C40.0013106,1.06910099 39.9642711,1.05723528 39.9269421,1.04536956 C39.7886226,1.0041362 39.6569586,0.965572624 39.5305033,0.929678834 L39.5241371,0.928788905 L39.5224009,0.928492263 L39.5189285,0.927009048 L39.5145879,0.925525834 C39.497515,0.920779547 39.4798633,0.916033261 39.462501,0.911286975 C39.4350107,0.903574259 39.4075205,0.896158187 39.3800302,0.888445472 L39.3632466,0.883402542 L39.3386501,0.87598647 C39.0761902,0.803902246 38.8079429,0.739234095 38.5394062,0.67515923 C38.3816988,0.637188939 38.223702,0.601295149 38.0642584,0.566291287 C37.7965898,0.507852637 37.5283425,0.449710629 37.258359,0.39957798 C37.1576577,0.381482763 37.058114,0.36368419 36.9574127,0.347072188 L36.9519147,0.345885616 L36.9452591,0.345885616 C36.8457154,0.327790399 36.7450141,0.311178397 36.6443129,0.29604961 C36.5977241,0.28893018 36.5514246,0.281810751 36.5045465,0.274691321 C36.4460934,0.265792034 36.387351,0.256299462 36.3297661,0.247993461 C36.0427097,0.207056741 35.7536276,0.170866308 35.4636775,0.140015447 C34.9043226,0.0803902246 34.3409164,0.0406400767 33.7769315,0.0189851453 C33.4632529,0.00682278659 33.1495743,0 32.8361851,0 C32.3077929,0 31.7782432,0.0195784311 31.249851,0.0536923641 C31.1942917,0.0569554359 31.138443,0.0584386504 31.0828837,0.062295008 C30.4989322,0.104121656 29.917585,0.166120021 29.3423147,0.247993461 C29.2387197,0.263122248 29.1354141,0.279437607 29.033266,0.294863038 C29.0303723,0.295752967 29.0277679,0.29604961 29.0248742,0.296642895 C29.0237167,0.296642895 29.0225593,0.296939538 29.0211124,0.297532824 L8.15540806,21.6860789 L8.15396121,21.6931983" id="Fill-149" fill="#E15F2F" style="mix-blend-mode: luminosity;"></path>
                <path d="M57.9186632,29.7866018 L57.9215569,29.7679556 L57.9241613,29.7475614 C57.92937,29.7123086 57.934868,29.6758904 57.9389192,29.6406376 L57.9403661,29.6324799 L57.9415235,29.619078 L57.9441279,29.603928 C57.9510728,29.5581867 57.9591752,29.5106974 57.9643839,29.4646648 L57.9669882,29.4337821 L57.9724863,29.4026081 C57.9750906,29.3874582 57.9765375,29.3728909 57.9791418,29.3591976 L57.997951,29.2021623 L58.0129983,29.094073 C58.0263094,28.9897713 58.0370161,28.8924618 58.0477229,28.7951523 L58.0491697,28.7814591 C58.0598765,28.6882285 58.0691363,28.6002421 58.0772387,28.5110903 C58.0841837,28.4365058 58.0922861,28.3660001 58.0974947,28.2972425 L58.0974947,28.2931637 L58.1041503,28.2255715 C58.1096483,28.17546 58.1136995,28.1268053 58.1163039,28.0778592 L58.1174614,28.0589218 L58.1189082,28.0399843 C58.1255638,27.9764709 58.129615,27.9129576 58.1336662,27.8494442 L58.1336662,27.8398298 L58.135113,27.8235144 C58.1432154,27.7317405 58.149871,27.6341397 58.155369,27.5245937 L58.155369,27.5178928 C58.1620246,27.4191266 58.1672333,27.3229825 58.1727313,27.2282952 L58.1741782,27.2000346 L58.1741782,27.160703 L58.1753356,27.1216626 C58.1808337,27.0418339 58.183438,26.9605485 58.1860424,26.879263 C58.1900936,26.769717 58.1929873,26.6657066 58.1955916,26.5614049 L58.1967491,26.5477116 L58.1967491,26.5005136 C58.198196,26.4259291 58.1996428,26.3504706 58.1996428,26.2744293 L58.1996428,26.1893564 L58.2008003,26.1756631 C58.2022472,26.1106931 58.2022472,26.0460143 58.2022472,25.9822096 C58.2022472,25.9146174 58.2022472,25.8455685 58.2008003,25.779433 L58.2008003,25.7738974 L58.1996428,25.7089273 C58.129615,20.9279444 56.2269979,16.4429687 52.843378,13.082296 C49.4542601,9.71754451 44.9678457,7.86516854 40.2079754,7.86516854 C39.1089427,7.86516854 38.0217744,7.96422608 36.9560194,8.15884501 C39.4194383,9.65810998 41.5503693,11.6657732 43.2235148,14.0807377 C45.6501835,17.581839 46.9335457,21.6976797 46.9335457,25.9822096 C46.9335457,30.2670308 45.6501835,34.3825802 43.2235148,37.8839728 C40.8529842,41.30408 37.5648569,43.9057971 33.7150596,45.4062275 C31.3378735,46.3329981 28.8278659,46.8038128 26.2533284,46.8038128 C22.4946832,46.8038128 18.8853536,45.7983788 15.7303371,43.9165769 L15.7355458,43.9221125 L15.7503037,43.9355144 L15.7639042,43.9492076 C15.7786621,43.9652316 15.79342,43.9800903 15.8096248,43.9937835 L15.8593967,44.0424382 C15.8996194,44.0829353 15.939842,44.122267 15.9815115,44.1615986 L15.988167,44.1682996 L15.9962694,44.1750005 C16.0634036,44.2399706 16.1426913,44.3168859 16.2208216,44.3888483 L16.2329752,44.3981713 L16.243682,44.4089511 C16.2946113,44.4578972 16.3455407,44.5065519 16.3982063,44.55375 L16.4022575,44.5578288 L16.4074662,44.5619076 C16.4974607,44.6458152 16.5889021,44.7285574 16.6829478,44.8110082 L16.6884458,44.8147957 L16.6939439,44.8203313 C16.7541331,44.8745216 16.8146118,44.9287119 16.8765372,44.9829022 L16.8884015,44.9922252 L16.9289135,45.0271867 L16.9329647,45.0286434 L17.1103493,45.1830567 L17.1465208,45.2142307 L17.1546232,45.222097 C17.2029482,45.2628854 17.2501157,45.3033824 17.2998876,45.3427141 L17.3186968,45.3575727 L17.336059,45.3735968 C17.3777285,45.4103063 17.4246067,45.4481813 17.4772723,45.490135 L17.4946346,45.5035369 L17.5108394,45.5172302 C17.5484577,45.5495696 17.5860759,45.5807435 17.6222474,45.6078387 L17.634401,45.6171618 L17.6451077,45.6267762 C17.7782186,45.7348654 17.9165381,45.843246 18.0563045,45.9498786 C18.0858204,45.9743516 18.1167831,45.9973679 18.146299,46.0203842 C18.1813129,46.0474794 18.21488,46.0731178 18.2496046,46.0990475 C18.2698606,46.1136148 18.2886697,46.1273081 18.3063214,46.1421667 L18.3398885,46.1666398 C18.394869,46.2085935 18.4512965,46.2505473 18.5077239,46.2925011 L18.5601001,46.330376 C18.5884585,46.3504789 18.6168169,46.3708731 18.6448859,46.3912673 L18.6555927,46.3991336 L18.6677463,46.4072913 C18.7079689,46.4384653 18.7510852,46.4681826 18.7924654,46.4978998 L18.8384754,46.5305305 C18.9406235,46.6036583 19.0450866,46.6764947 19.1501284,46.7496225 L19.1596777,46.7551581 L19.1689376,46.761859 C19.2146582,46.7941984 19.2618258,46.8253724 19.3072571,46.8565464 L19.342271,46.8795627 L19.4577302,46.9567693 L19.5801343,47.0392201 C19.6420598,47.0797172 19.7065896,47.1231277 19.7722769,47.1636247 C19.8382536,47.2067439 19.9024941,47.2475323 19.9658664,47.2880294 L20.1241526,47.2880294 L20.4077366,47.5598549 C20.4508529,47.5872414 20.4951267,47.6140452 20.5396899,47.639975 C20.6256332,47.6912518 20.7130234,47.7425286 20.8001242,47.7914747 L20.8082266,47.7967189 L20.816329,47.8022545 C20.88491,47.8427516 20.953491,47.8806265 21.0232296,47.9199582 C21.3915994,48.1294357 21.7648885,48.3284249 22.138467,48.5140121 C22.2220953,48.5556745 22.3039874,48.5964629 22.3858795,48.6355032 C22.3980331,48.6424955 22.4098974,48.6477397 22.422051,48.654732 C22.5001812,48.6911502 22.5768647,48.7275685 22.6547056,48.7654434 C22.8899645,48.8764461 23.1304322,48.9845354 23.3654018,49.086215 L23.3708998,49.0876717 L23.3761085,49.0902939 C23.4339828,49.1159323 23.4944614,49.1415707 23.5523357,49.1660437 C23.569698,49.1727447 23.5885071,49.1809024 23.6087631,49.1905168 C23.686604,49.2228562 23.7647343,49.2551955 23.8437327,49.2878262 C24.0361647,49.3661982 24.2442227,49.4474837 24.46183,49.5299345 L24.4687749,49.5325566 L24.4754305,49.5354701 C24.5425647,49.5611085 24.6096988,49.5867469 24.6782799,49.6109286 L24.6878291,49.6138421 L24.6956421,49.6164642 C25.0142401,49.7341679 25.3299443,49.8422571 25.6337843,49.9384012 L25.644491,49.94248 L25.6537509,49.9451021 C25.7156764,49.9669531 25.776155,49.9858905 25.8380805,50.004828 L25.8473404,50.0059934 L25.8554428,50.0089069 C25.9480416,50.0386241 26.0409298,50.0668846 26.1335287,50.0954365 L26.211659,50.1184528 C26.323067,50.1496268 26.4333175,50.1819662 26.543568,50.2131402 C26.6052041,50.2306209 26.6601846,50.2454796 26.7154546,50.2603382 L26.7287657,50.2632517 C27.4168909,50.4500042 28.1168803,50.6067482 28.8076099,50.7299875 L28.8157123,50.7326096 L28.8238147,50.7340663 C28.9071537,50.7489249 28.9971482,50.7652403 29.110003,50.7841778 L29.1166586,50.7841778 L29.1221566,50.7853431 C29.2335646,50.8042806 29.3264528,50.8191392 29.4109493,50.8313758 L29.4245497,50.8328325 L29.4378608,50.8354546 C29.5348002,50.85177 29.6326078,50.8651719 29.7295472,50.8788651 L29.7376496,50.8800305 C30.887901,51.0411447 32.0621701,51.1235955 33.2300732,51.1235955 C34.3991337,51.1235955 35.5748497,51.0411447 36.7251011,50.8800305 L36.7494083,50.8759517 C36.8420071,50.8625498 36.9334485,50.8503132 37.0246005,50.8354546 L37.0382009,50.8328325 L37.0474608,50.8313758 L57.9134545,29.8233113 C57.914612,29.8110748 57.9160589,29.7988383 57.9186632,29.7866018" id="Fill-150" fill="#1B242B" style="mix-blend-mode: luminosity;"></path>
                <path d="M36.9616716,1.2741573 L36.9662921,1.2741573 L36.9626984,1.27258427 C36.7845513,1.22617978 36.6064042,1.18292135 36.4282571,1.14202247 C36.3450876,1.12235955 36.2629448,1.10426966 36.1797753,1.08539326 C36.2629448,1.10426966 36.3450876,1.12314607 36.4277437,1.14202247 C36.6064042,1.18213483 36.7850647,1.22617978 36.9616716,1.2741573" id="Fill-109" fill="#FFFBF8" style="mix-blend-mode: luminosity;"></path>
                <path d="M43.2546274,3.14394933 L43.258427,3.14606742 L43.2552606,3.1432433 C42.97789,2.85235915 42.7236335,2.59889456 42.478876,2.36590483 L42.4719101,2.35955056 L42.4782428,2.36661086 C42.7236335,2.59960059 42.9782066,2.85235915 43.2546274,3.14394933" id="Fill-111" fill="#FFFBF8" style="mix-blend-mode: luminosity;"></path>
                <path d="M40.8988764,1.3347191 C40.7705662,1.28202247 40.6416391,1.22853933 40.5120952,1.17820225 C40.3776162,1.12629213 40.2456048,1.07595506 40.1123596,1.02483146 C40.2456048,1.07595506 40.3782331,1.12707865 40.5108614,1.17977528 C40.6404054,1.23011236 40.7693325,1.28123596 40.8988764,1.3347191" id="Fill-113" fill="#FFFBF8" style="mix-blend-mode: luminosity;"></path>
                <path d="M39.8539888,1.21674157 C39.7792697,1.19629213 39.7045506,1.17505618 39.6290449,1.15460674 L39.5842135,1.14280899 L39.6298315,1.15617978 C39.7045506,1.17662921 39.7792697,1.19629213 39.8539888,1.21674157" id="Fill-114" fill="#FFFBF8" style="mix-blend-mode: luminosity;"></path>
                <polyline id="Fill-115" fill="#FFFBF8" style="mix-blend-mode: luminosity;" points="39.7261798 1.18213483 39.7214607 1.1805618 39.7120225 1.17741573 39.7214607 1.18134831 39.7261798 1.18213483"></polyline>
                <path d="M42.631573,2.65370787 L42.6937079,2.67966292 C42.8431461,2.74179775 42.9894382,2.80314607 43.1357303,2.86921348 L43.1506742,2.87550562 L43.1365169,2.86842697 C42.9894382,2.80314607 42.8431461,2.74022472 42.6944944,2.6788764 L42.6307865,2.65292135 L42.5891011,2.63404494 L42.5796629,2.63011236 L42.5875281,2.63561798 L42.631573,2.65370787" id="Fill-116" fill="#FFFBF8" style="mix-blend-mode: luminosity;"></path>
                <path d="M41.8081877,1.69078906 C41.988497,1.86260818 42.1849105,2.06182949 42.4238851,2.30993038 C42.4399893,2.32622358 42.4555184,2.34251677 42.4719101,2.35955056 C42.4555184,2.34251677 42.4399893,2.32548298 42.4235976,2.30918978 C42.1843354,2.06034829 41.9887846,1.86408938 41.8081877,1.69004846 L41.7003471,1.5871051 L41.6853933,1.57303371 L41.7000596,1.5871051 L41.8081877,1.69078906" id="Fill-122" fill="#FFFBF8" style="mix-blend-mode: luminosity;"></path>
                <path d="M31.6270225,0.404662921 C31.7780337,0.394438202 31.9298315,0.390505618 32.0808427,0.381853933 C31.9298315,0.390505618 31.7780337,0.394438202 31.6270225,0.404662921" id="Fill-131" fill="#FFFBF8" style="mix-blend-mode: luminosity;"></path>
                <path d="M29.4900562,1.18016854 L29.4892697,1.18095506 C29.4932022,1.17938202 29.4963483,1.17859551 29.4994944,1.17859551 C29.4963483,1.17859551 29.4932022,1.17938202 29.4900562,1.18016854" id="Fill-132" fill="#FFFBF8" style="mix-blend-mode: luminosity;"></path>
                <path d="M34.6067416,0.232808989 C34.8697234,0.290224719 35.1324355,0.395617978 35.3932584,0.553707865 C35.1324355,0.395617978 34.8697234,0.290224719 34.6067416,0.232808989" id="Fill-134" fill="#FFFBF8" style="mix-blend-mode: luminosity;"></path>
                <path d="M38.5393258,1.03544944 C38.8032545,1.12825843 39.0647881,1.22342697 39.3258427,1.32410112 C39.0647881,1.22342697 38.8032545,1.12825843 38.5393258,1.03544944" id="Fill-135" fill="#FFFBF8" style="mix-blend-mode: luminosity;"></path>
            </g>
        </g>
    </g>
</svg>