<?xml version="1.0" encoding="UTF-8"?>
<svg width="26px" height="43px" viewBox="0 0 26 43" version="1.1" xmlns="http://www.w3.org/2000/svg" xmlns:xlink="http://www.w3.org/1999/xlink">
    <!-- Generator: sketchtool 53.2 (72643) - https://sketchapp.com -->
    <title>5818261B-30B9-4618-9376-04C440314884</title>
    <desc>Created with sketchtool.</desc>
    <g id="UI_2" stroke="none" stroke-width="1" fill="none" fill-rule="evenodd">
        <g id="Home" transform="translate(-155.000000, -5840.000000)" fill="#FFFFFF" fill-rule="nonzero">
            <path d="M162.613883,5868 L162.613883,5865.92385 C162.613883,5864.12825 162.999273,5862.56647 163.770065,5861.23848 C164.540857,5859.91048 165.950821,5858.49834 168,5857.002 C169.97398,5855.59919 171.275846,5854.45825 171.90564,5853.57916 C172.535433,5852.70006 172.850325,5851.71811 172.850325,5850.63327 C172.850325,5849.4175 172.399137,5848.49165 171.496746,5847.85571 C170.594356,5847.21977 169.334788,5846.9018 167.718004,5846.9018 C164.898034,5846.9018 161.683315,5847.81829 158.073753,5849.6513 L155,5843.50701 C159.192356,5841.16899 163.638444,5840 168.338395,5840 C172.211155,5840 175.289576,5840.92584 177.573753,5842.77756 C179.857929,5844.62927 181,5847.09818 181,5850.18437 C181,5852.24183 180.530012,5854.0187 179.590022,5855.51503 C178.650031,5857.01136 176.864077,5858.69471 174.232104,5860.56513 C172.427323,5861.89313 171.285252,5862.90314 170.805857,5863.59519 C170.326462,5864.28724 170.086768,5865.19438 170.086768,5866.31663 L170.086768,5868 L162.613883,5868 Z M162,5878 C162,5876.35293 162.428567,5875.10785 163.285714,5874.26471 C164.142861,5873.42156 165.390468,5873 167.028571,5873 C168.609532,5873 169.833329,5873.43137 170.7,5874.29412 C171.566671,5875.15687 172,5876.39215 172,5878 C172,5879.54903 171.561909,5880.7696 170.685714,5881.66176 C169.809519,5882.55393 168.590484,5883 167.028571,5883 C165.428563,5883 164.190481,5882.56373 163.314286,5881.69118 C162.438091,5880.81862 162,5879.58824 162,5878 Z" id="?"></path>
        </g>
    </g>
</svg>