<?xml version="1.0" encoding="UTF-8"?>
<svg width="365px" height="550px" viewBox="0 0 365 550" version="1.1" xmlns="http://www.w3.org/2000/svg" xmlns:xlink="http://www.w3.org/1999/xlink">
    <!-- Generator: Sketch 53.2 (72643) - https://sketchapp.com -->
    <title>? copy</title>
    <desc>Created with Sketch.</desc>
    <g id="UI_2" stroke="none" stroke-width="1" fill="none" fill-rule="evenodd" opacity="0.0516415551">
        <g id="Pop-over-1" transform="translate(-924.000000, -310.000000)" fill="#3C3C3C" fill-rule="nonzero">
            <g id="?-copy" transform="translate(59.000000, 310.000000)">
                <path d="M966.937093,336 L966.937093,306.266533 C966.937093,280.550974 972.451138,258.18413 983.479393,239.165331 C994.507647,220.146531 1014.68098,199.922619 1044,178.492986 C1072.24309,158.402705 1090.8698,142.062855 1099.88069,129.472946 C1108.89159,116.883037 1113.39696,102.820051 1113.39696,87.2835671 C1113.39696,69.8719904 1106.9415,56.612604 1094.03037,47.50501 C1081.11924,38.3974161 1063.09773,33.8436874 1039.96529,33.8436874 C999.61802,33.8436874 953.622818,46.9691406 901.978308,73.2204409 L858,-14.7745491 C917.982946,-48.2583505 981.596193,-65 1048.84165,-65 C1104.2519,-65 1148.29702,-51.7406136 1180.97831,-25.2214429 C1213.6596,1.29772779 1230,36.6560916 1230,80.8547094 C1230,110.320455 1223.27556,135.767762 1209.82646,157.197395 C1196.37737,178.627028 1170.82448,202.735003 1133.16703,229.522044 C1107.34477,248.540843 1091.00437,263.005628 1084.14534,272.916834 C1077.2863,282.828039 1073.85683,295.819559 1073.85683,311.891784 L1073.85683,336 L966.937093,336 Z M958,478.5 C958,454.946941 964.12851,437.142217 976.385714,425.085294 C988.642918,413.028371 1006.48369,407 1029.90857,407 C1052.5163,407 1070.0166,413.168566 1082.41,425.505882 C1094.8034,437.843199 1101,455.507728 1101,478.5 C1101,500.651091 1094.7353,518.105328 1082.20571,530.863235 C1069.67613,543.621142 1052.24392,550 1029.90857,550 C1007.02846,550 989.323872,543.761337 976.794286,531.283824 C964.264699,518.80631 958,501.211878 958,478.5 Z"></path>
            </g>
        </g>
    </g>
</svg>