<?xml version="1.0" encoding="UTF-8"?>
<svg width="22px" height="18px" viewBox="0 0 22 18" version="1.1" xmlns="http://www.w3.org/2000/svg" xmlns:xlink="http://www.w3.org/1999/xlink">
    <!-- Generator: sketchtool 53.2 (72643) - https://sketchapp.com -->
    <title>90A0D6D9-851A-4DBE-A8EA-B25CDAC8296D</title>
    <desc>Created with sketchtool.</desc>
    <g id="UI_2" stroke="none" stroke-width="1" fill="none" fill-rule="evenodd">
        <g id="Home" transform="translate(-28.000000, -384.000000)" fill="#FFD15E" fill-rule="nonzero">
            <path d="M33.656,401.08 C32.6106614,401.08 31.658671,400.772003 30.8,400.156 C29.941329,399.539997 29.2600025,398.700005 28.756,397.636 C28.2519975,396.571995 28,395.386673 28,394.08 C28,392.474659 28.3453299,390.990673 29.036,389.628 C29.7266701,388.265327 30.7066603,387.098672 31.976,386.128 C33.2453397,385.157328 34.7199916,384.448002 36.4,384 L37.744,388.032 C36.735995,388.293335 35.8586704,388.694664 35.112,389.236 C34.3653296,389.777336 33.7866687,390.39333 33.376,391.084 C32.9653313,391.77467 32.76,392.49333 32.76,393.24 C32.76,393.464001 32.7786665,393.669332 32.816,393.856 C33.2266687,393.594665 33.6933307,393.464 34.216,393.464 C34.8880034,393.464 35.5039972,393.631998 36.064,393.968 C36.6240028,394.304002 37.0626651,394.751997 37.38,395.312 C37.6973349,395.872003 37.856,396.506663 37.856,397.216 C37.856,397.925337 37.6693352,398.56933 37.296,399.148 C36.9226648,399.72667 36.4093366,400.193332 35.756,400.548 C35.1026634,400.902668 34.4026704,401.08 33.656,401.08 Z M45.808,401.08 C44.7626614,401.08 43.810671,400.772003 42.952,400.156 C42.093329,399.539997 41.4120025,398.700005 40.908,397.636 C40.4039975,396.571995 40.152,395.386673 40.152,394.08 C40.152,392.474659 40.4973299,390.990673 41.188,389.628 C41.8786701,388.265327 42.8586603,387.098672 44.128,386.128 C45.3973397,385.157328 46.8719916,384.448002 48.552,384 L49.896,388.032 C48.887995,388.293335 48.0106704,388.694664 47.264,389.236 C46.5173296,389.777336 45.9386687,390.39333 45.528,391.084 C45.1173313,391.77467 44.912,392.49333 44.912,393.24 C44.912,393.464001 44.9306665,393.669332 44.968,393.856 C45.3786687,393.594665 45.8453307,393.464 46.368,393.464 C47.0400034,393.464 47.6559972,393.631998 48.216,393.968 C48.7760028,394.304002 49.2146651,394.751997 49.532,395.312 C49.8493349,395.872003 50.008,396.506663 50.008,397.216 C50.008,397.925337 49.8213352,398.56933 49.448,399.148 C49.0746648,399.72667 48.5613366,400.193332 47.908,400.548 C47.2546634,400.902668 46.5546704,401.08 45.808,401.08 Z" id="quote-start"></path>
        </g>
    </g>
</svg>