<?xml version="1.0" encoding="UTF-8"?>
<svg width="22px" height="18px" viewBox="0 0 22 18" version="1.1" xmlns="http://www.w3.org/2000/svg" xmlns:xlink="http://www.w3.org/1999/xlink">
    <!-- Generator: sketchtool 53.2 (72643) - https://sketchapp.com -->
    <title>BAA9059B-2CB3-4B44-B2D8-15F28590B452</title>
    <desc>Created with sketchtool.</desc>
    <g id="UI_2" stroke="none" stroke-width="1" fill="none" fill-rule="evenodd">
        <g id="Home" transform="translate(-297.000000, -390.000000)" fill="#FFD15E" fill-rule="nonzero">
            <path d="M302.656,407.456 C301.610661,407.456 300.658671,407.148003 299.8,406.532 C298.941329,405.915997 298.260003,405.076005 297.756,404.012 C297.251997,402.947995 297,401.762673 297,400.456 C297,398.850659 297.34533,397.366673 298.036,396.004 C298.72667,394.641327 299.70666,393.474672 300.976,392.504 C302.24534,391.533328 303.719992,390.824002 305.4,390.376 L306.744,394.408 C305.735995,394.669335 304.85867,395.070664 304.112,395.612 C303.36533,396.153336 302.786669,396.76933 302.376,397.46 C301.965331,398.15067 301.76,398.86933 301.76,399.616 C301.76,399.840001 301.778666,400.045332 301.816,400.232 C302.226669,399.970665 302.693331,399.84 303.216,399.84 C303.888003,399.84 304.503997,400.007998 305.064,400.344 C305.624003,400.680002 306.062665,401.127997 306.38,401.688 C306.697335,402.248003 306.856,402.882663 306.856,403.592 C306.856,404.301337 306.669335,404.94533 306.296,405.524 C305.922665,406.10267 305.409337,406.569332 304.756,406.924 C304.102663,407.278668 303.40267,407.456 302.656,407.456 Z M314.808,407.456 C313.762661,407.456 312.810671,407.148003 311.952,406.532 C311.093329,405.915997 310.412003,405.076005 309.908,404.012 C309.403997,402.947995 309.152,401.762673 309.152,400.456 C309.152,398.850659 309.49733,397.366673 310.188,396.004 C310.87867,394.641327 311.85866,393.474672 313.128,392.504 C314.39734,391.533328 315.871992,390.824002 317.552,390.376 L318.896,394.408 C317.887995,394.669335 317.01067,395.070664 316.264,395.612 C315.51733,396.153336 314.938669,396.76933 314.528,397.46 C314.117331,398.15067 313.912,398.86933 313.912,399.616 C313.912,399.840001 313.930666,400.045332 313.968,400.232 C314.378669,399.970665 314.845331,399.84 315.368,399.84 C316.040003,399.84 316.655997,400.007998 317.216,400.344 C317.776003,400.680002 318.214665,401.127997 318.532,401.688 C318.849335,402.248003 319.008,402.882663 319.008,403.592 C319.008,404.301337 318.821335,404.94533 318.448,405.524 C318.074665,406.10267 317.561337,406.569332 316.908,406.924 C316.254663,407.278668 315.55467,407.456 314.808,407.456 Z" id="quote-end" transform="translate(308.004000, 398.916000) rotate(-180.000000) translate(-308.004000, -398.916000) "></path>
        </g>
    </g>
</svg>