<?xml version="1.0" encoding="UTF-8"?>
<svg width="352px" height="250px" viewBox="0 0 352 250" version="1.1" xmlns="http://www.w3.org/2000/svg" xmlns:xlink="http://www.w3.org/1999/xlink">
    <!-- Generator: Sketch 53.2 (72643) - https://sketchapp.com -->
    <title>step-7</title>
    <desc>Created with Sketch.</desc>
    <defs>
        <rect id="path-1" x="0" y="0" width="352" height="250"></rect>
        <linearGradient x1="49.9944184%" y1="100%" x2="49.9944184%" y2="0%" id="linearGradient-3">
            <stop stop-color="#808080" stop-opacity="0.25" offset="0%"></stop>
            <stop stop-color="#808080" stop-opacity="0.12" offset="54%"></stop>
            <stop stop-color="#808080" stop-opacity="0.1" offset="100%"></stop>
        </linearGradient>
        <linearGradient x1="49.9936241%" y1="100.004506%" x2="49.9936241%" y2="1.2807187e-14%" id="linearGradient-4">
            <stop stop-color="#808080" stop-opacity="0.25" offset="0%"></stop>
            <stop stop-color="#808080" stop-opacity="0.12" offset="54%"></stop>
            <stop stop-color="#808080" stop-opacity="0.1" offset="100%"></stop>
        </linearGradient>
        <linearGradient x1="50.0026011%" y1="100%" x2="50.0026011%" y2="-0.0182621717%" id="linearGradient-5">
            <stop stop-color="#808080" stop-opacity="0.25" offset="0%"></stop>
            <stop stop-color="#808080" stop-opacity="0.12" offset="54%"></stop>
            <stop stop-color="#808080" stop-opacity="0.1" offset="100%"></stop>
        </linearGradient>
        <linearGradient x1="49.9975438%" y1="100%" x2="49.9975438%" y2="0%" id="linearGradient-6">
            <stop stop-color="#808080" stop-opacity="0.25" offset="0%"></stop>
            <stop stop-color="#808080" stop-opacity="0.12" offset="54%"></stop>
            <stop stop-color="#808080" stop-opacity="0.1" offset="100%"></stop>
        </linearGradient>
        <linearGradient x1="50.0024608%" y1="99.9961641%" x2="50.0024608%" y2="0.00165012633%" id="linearGradient-7">
            <stop stop-color="#808080" stop-opacity="0.25" offset="0%"></stop>
            <stop stop-color="#808080" stop-opacity="0.12" offset="54%"></stop>
            <stop stop-color="#808080" stop-opacity="0.1" offset="100%"></stop>
        </linearGradient>
        <linearGradient x1="50%" y1="100.025363%" x2="50%" y2="0%" id="linearGradient-8">
            <stop stop-color="#808080" stop-opacity="0.25" offset="0%"></stop>
            <stop stop-color="#808080" stop-opacity="0.12" offset="54%"></stop>
            <stop stop-color="#808080" stop-opacity="0.1" offset="100%"></stop>
        </linearGradient>
        <linearGradient x1="49.9693811%" y1="100.000101%" x2="49.9693811%" y2="-0.0172476432%" id="linearGradient-9">
            <stop stop-color="#808080" stop-opacity="0.25" offset="0%"></stop>
            <stop stop-color="#808080" stop-opacity="0.12" offset="54%"></stop>
            <stop stop-color="#808080" stop-opacity="0.1" offset="100%"></stop>
        </linearGradient>
    </defs>
    <g id="UI_2" stroke="none" stroke-width="1" fill="none" fill-rule="evenodd">
        <g id="Home" transform="translate(-508.000000, -2584.000000)">
            <g id="step-7" transform="translate(508.000000, 2584.000000)">
                <mask id="mask-2" fill="white">
                    <use xlink:href="#path-1"></use>
                </mask>
                <use id="Mask" fill="#FFFFFF" xlink:href="#path-1"></use>
                <g mask="url(#mask-2)">
                    <g transform="translate(2.000000, 6.000000)">
                        <g id="Group-22">
                            <path d="M0.905279697,124.352641 C-3.90533448,178.305103 8.52679514,244.900295 85.4568952,237.762592 C162.386995,230.624889 150.654053,187.457848 244.153261,222.192449 C337.652469,256.927051 370.203059,120.327399 335.121758,71.4545048 C300.040457,22.5816105 268.046154,71.4545048 235.711027,67.8778183 C203.375901,64.3011318 119.0848,-22.6323297 75.4554925,5.64817407 C31.8261851,33.9286778 5.71589387,70.4001781 0.905279697,124.352641 Z" id="Path-6-Copy-5" fill="#FFD15E" opacity="0.360258557"></path>
                            <ellipse id="Oval" fill="#5C460E" fill-rule="nonzero" opacity="0.1" cx="218.5" cy="223" rx="32.5" ry="5"></ellipse>
                            <path d="M197.000996,14.1523567 L197.000996,12.1192357 L165.686255,12.1192357 C164.246016,12.1192357 165.124502,14.164586 165.124502,14.164586 L148.110558,14.164586 L148.110558,59.764586 L222.811753,59.764586 L222.811753,14.1523567 L197.000996,14.1523567 Z" id="Path" fill="#6C63FF" fill-rule="nonzero" opacity="0.2"></path>
                            <path d="M272.585377,50.4123276 C273.831845,52.4163978 280.999038,56 280.999038,56 C280.999038,56 281.076942,47.9587464 279.830474,45.9546762 C278.577939,44.0060924 276.000372,43.4176856 274.02872,44.6302519 C272.057067,45.8428181 271.414443,48.4116422 272.58226,50.4123276 L272.585377,50.4123276 Z" id="Path" fill="#6C63FF" fill-rule="nonzero"></path>
                            <path d="M73.413588,124.30676 C72.1975476,125.97606 65.004798,129 65.004798,129 C65.004798,129 64.8657296,122.333465 66.0850041,120.674832 C67.3146733,119.031376 69.9190849,118.509482 71.926413,119.504282 C73.9337411,120.499081 74.596803,122.640282 73.413588,124.30676 L73.413588,124.30676 Z" id="Path" fill="#6C63FF" fill-rule="nonzero"></path>
                            <path d="M269.985599,26.1841414 L269.732418,26.1841414 C270.130275,25.7255792 270.335231,25.267017 270.302076,24.8604251 L268.011386,22.5370432 L268.885466,20.5499403 L265.940723,20.5499403 L266.486269,19 L264.741125,19 L245.433021,25.5238118 C245.433021,25.5238118 245.411922,25.795892 245.433021,26.1841414 L233,26.1841414 L233,83 L287,83 L287,26.1841414 L269.985599,26.1841414 Z" id="Path" fill="url(#linearGradient-3)" fill-rule="nonzero"></path>
                            <rect id="Rectangle" fill="#FFFFFF" fill-rule="nonzero" x="233" y="27" width="53" height="55"></rect>
                            <path d="M269,26 C266.501159,29.8846424 249.810337,35 249.810337,35 L249.914954,30.9512623 L246.827271,30.9512623 C247.001132,30.1503469 246.652668,29.3245209 245.972405,28.9253156 C245.075691,28.4046283 244.989009,26.7163394 245.000965,26 L269,26 Z" id="Path" fill="#000000" fill-rule="nonzero" opacity="0.1"></path>
                            <path d="M264.408046,19.0158009 L245.015973,25.6521825 C245.015973,25.6521825 244.794666,28.2435315 245.999562,28.9166502 C246.697504,29.3179211 247.055285,30.1436449 246.878645,30.9454869 L250.053793,30.9454869 L249.946213,35 C249.946213,35 270.324949,28.9166502 269.996062,24.9759036 L267.696922,22.6089275 L268.572931,20.5800909 L265.612943,20.5800909 L266.163138,19 L264.408046,19.0158009 Z" id="Path" fill="#9D9CB5" fill-rule="nonzero"></path>
                            <rect id="Rectangle" fill="#FFF1CF" fill-rule="nonzero" x="243" y="44" width="33" height="1"></rect>
                            <rect id="Rectangle" fill="#FFF1CF" fill-rule="nonzero" x="243" y="50" width="33" height="1"></rect>
                            <rect id="Rectangle" fill="#FFF1CF" fill-rule="nonzero" x="243" y="54" width="33" height="1"></rect>
                            <rect id="Rectangle" fill="#FFF1CF" fill-rule="nonzero" x="243" y="59" width="33" height="1"></rect>
                            <rect id="Rectangle" fill="#FFF1CF" fill-rule="nonzero" x="243" y="63" width="33" height="1"></rect>
                            <rect id="Rectangle" fill="#FFF1CF" fill-rule="nonzero" x="243" y="69" width="33" height="1"></rect>
                            <path d="M88.4123948,22.0737653 L88.2838562,22.0737653 C89.2509564,19.6282895 90.144606,17.2431957 90.1048202,16.7873107 C90.0191278,15.8815789 88.1798011,17.850036 88.0941086,17.3579218 C88.0084162,16.8658075 88.0941086,15 87.2586075,15 C86.4231064,15 85.9181331,15.969133 85.4223412,15.969133 C84.9265493,15.969133 82.9097169,15.6430696 82.9097169,15.6430696 L80.3420046,22.0737653 L61,22.0737653 L61,82 L109,82 L109,22.0737653 L88.4123948,22.0737653 Z" id="Path" fill="url(#linearGradient-4)" fill-rule="nonzero"></path>
                            <rect id="Rectangle" fill="#FFFFFF" fill-rule="nonzero" x="61" y="23" width="48" height="59"></rect>
                            <path d="M88,22 C87.1,24.3175635 86.0857585,26.7594301 85.8544892,27.3422739 C85.4058824,28.4471909 85.1105263,27.8588226 84.5866873,27.7124211 C84.0628483,27.5660196 83.396904,27.8588226 83.0987616,27.7124211 C82.8006192,27.5660196 81.050774,27.7124211 81.050774,27.7124211 C81.070332,27.4411417 81.070332,27.1688242 81.050774,26.8975448 C81.0117647,26.6047418 79,26.8975448 79,26.8975448 L80.9170279,22 L88,22 Z" id="Path" fill="#000000" fill-rule="nonzero" opacity="0.1"></path>
                            <path d="M81.6816598,15.6714086 L77,27.7247911 C77,27.7247911 79.2978643,27.3826924 79.3392386,27.7247911 C79.3632664,28.0376502 79.3632664,28.351904 79.3392386,28.6647631 C79.3392386,28.6647631 81.3411176,28.4921152 81.6816598,28.6647631 C82.022202,28.837411 82.786035,28.4921152 83.3811882,28.6647631 C83.9763414,28.837411 84.3168836,29.5184111 84.8292883,28.2363405 C85.3416929,26.9542698 89.0844746,17.8071273 88.9985434,16.8671553 C88.9126122,15.9271833 87.0412213,17.9797752 86.9552901,17.4650286 C86.8693589,16.9502821 86.9552901,15 86.1055259,15 C85.2557617,15 84.743357,16.0135072 84.234135,16.0135072 C83.724913,16.0135072 81.6816598,15.6714086 81.6816598,15.6714086 Z" id="Path" fill="#9D9CB5" fill-rule="nonzero"></path>
                            <rect id="Rectangle" fill="#FFF1CF" fill-rule="nonzero" x="68" y="38" width="33" height="1"></rect>
                            <rect id="Rectangle" fill="#FFF1CF" fill-rule="nonzero" x="68" y="41" width="33" height="1"></rect>
                            <rect id="Rectangle" fill="#FFF1CF" fill-rule="nonzero" x="68" y="44" width="33" height="1"></rect>
                            <rect id="Rectangle" fill="#FFF1CF" fill-rule="nonzero" x="68" y="48" width="33" height="1"></rect>
                            <rect id="Rectangle" fill="#FFF1CF" fill-rule="nonzero" x="68" y="51" width="33" height="1"></rect>
                            <rect id="Rectangle" fill="#FFF1CF" fill-rule="nonzero" x="68" y="55" width="33" height="1"></rect>
                            <path d="M263.098892,110.761094 L262.972169,110.761094 C264.14285,107.729574 265.223014,104.767778 265.171721,104.21301 C265.072153,103.100442 262.845446,105.52869 262.757946,104.922386 C262.670447,104.316082 262.757946,102 261.747178,102 C260.73641,102 260.129948,103.212608 259.523487,103.212608 C258.917026,103.212608 256.488165,102.806384 256.488165,102.806384 L253.368361,110.761094 L230,110.761094 L230,185 L288,185 L288,110.761094 L263.098892,110.761094 Z" id="Path" fill="url(#linearGradient-5)" fill-rule="nonzero"></path>
                            <rect id="Rectangle" fill="#FFFFFF" fill-rule="nonzero" x="230" y="112" width="58" height="74"></rect>
                            <path d="M264,110 C262.809068,113.482302 261.473048,117.12752 261.161713,118.003186 C260.557179,119.67985 260.167254,118.783819 259.469018,118.563206 C258.770781,118.342592 257.876071,118.783819 257.477078,118.563206 C257.078086,118.342592 254.738539,118.563206 254.738539,118.563206 C254.764666,118.153049 254.764666,117.74132 254.738539,117.331163 C254.687154,116.886541 252,117.331163 252,117.331163 L254.548111,110 L264,110 Z" id="Path" fill="#000000" fill-rule="nonzero" opacity="0.1"></path>
                            <path d="M257.850754,102.816087 L252,117.452092 C252,117.452092 254.870486,117.036172 254.925377,117.452092 C254.953298,117.831815 254.953298,118.213002 254.925377,118.592724 C254.925377,118.592724 257.42454,118.387915 257.850754,118.592724 C258.276968,118.797534 259.23272,118.387915 259.978595,118.592724 C260.724469,118.797534 261.147454,119.632526 261.786775,118.075974 C262.426096,116.519421 267.104762,105.409291 266.998208,104.26866 C266.891655,103.128028 264.550707,105.617252 264.444154,104.996521 C264.3376,104.375791 264.444154,102 263.381848,102 C262.319542,102 261.680221,103.232008 261.0409,103.232008 C260.40158,103.232008 257.850754,102.816087 257.850754,102.816087 Z" id="Path" fill="#9D9CB5" fill-rule="nonzero"></path>
                            <rect id="Rectangle" fill="#FFF1CF" fill-rule="nonzero" x="243" y="132" width="33" height="2"></rect>
                            <rect id="Rectangle" fill="#FFF1CF" fill-rule="nonzero" x="243" y="148" width="33" height="2"></rect>
                            <rect id="Rectangle" fill="#FFF1CF" fill-rule="nonzero" x="243" y="163" width="33" height="2"></rect>
                            <polygon id="Path" fill="url(#linearGradient-6)" fill-rule="nonzero" points="98.4092941 112.897467 98.4092941 104 85.9707717 104 85.9707717 112.897467 60 112.897467 60 183 121 183 121 112.897467"></polygon>
                            <rect id="Rectangle" fill="#FFFFFF" fill-rule="nonzero" x="60" y="115" width="60" height="69"></rect>
                            <rect id="Rectangle" fill="#000000" fill-rule="nonzero" opacity="0.1" x="86" y="113" width="12" height="9"></rect>
                            <rect id="Rectangle" fill="#9D9CB5" fill-rule="nonzero" x="86" y="104" width="12" height="18"></rect>
                            <rect id="Rectangle" fill="#FFF1CF" fill-rule="nonzero" x="74" y="132" width="33" height="2"></rect>
                            <rect id="Rectangle" fill="#FFF1CF" fill-rule="nonzero" x="74" y="136" width="33" height="2"></rect>
                            <rect id="Rectangle" fill="#FFF1CF" fill-rule="nonzero" x="74" y="140" width="33" height="2"></rect>
                            <rect id="Rectangle" fill="#FFF1CF" fill-rule="nonzero" x="74" y="144" width="33" height="2"></rect>
                            <rect id="Rectangle" fill="#FFF1CF" fill-rule="nonzero" x="99" y="151" width="9" height="7"></rect>
                            <rect id="Rectangle" fill="#FFF1CF" fill-rule="nonzero" x="74" y="160" width="9" height="7"></rect>
                            <path d="M184.519858,112.283303 L184.435799,112.283303 C185.408485,108.443825 186.141001,105.386182 186.141001,105.386182 L181.992076,107.355922 C181.992076,107.355922 179.047,103.416442 177.957232,104.074032 C176.867464,104.731623 174.474777,106.371052 174.474777,106.371052 L171.298538,104.728592 L170.082681,112.283303 L145,112.283303 L145,166.796616 L146.612136,167.769364 C147.942074,167.287535 150.130617,166.469336 150.130617,166.469336 L149.124908,169.287579 L149.803386,169.693649 L150.947192,168.648171 L151.370491,170.645185 L152.730449,171.466415 L154.876962,170.087597 L154.276539,172.408859 L156.290959,173.621007 L162.148088,171.399746 L160.382844,176.090758 L161.544663,176.793804 L164.195531,176.324097 C164.195531,176.324097 164.075447,177.260481 164.000394,178.275654 L166.660269,179.88175 C167.750037,179.454468 168.776761,179.033247 168.776761,179.033247 C168.776761,179.033247 168.671687,180.057511 168.623653,181.063594 L170.40691,182.142405 C171.814902,181.312084 173.607166,180.181757 173.607166,180.181757 L172.106108,183 L206,183 L206,112.283303 L184.519858,112.283303 Z" id="Path" fill="url(#linearGradient-7)" fill-rule="nonzero"></path>
                            <path d="M205,115 L205,184 L171.657633,184 L173.145137,181.252345 C173.145137,181.252345 171.383619,182.352006 169.998494,183.164018 L168.24601,182.109302 C168.294188,181.129495 168.399578,180.128713 168.399578,180.128713 C168.399578,180.128713 167.387835,180.539213 166.315869,180.955706 L163.699187,179.388614 C163.774466,178.399818 163.888889,177.48593 163.888889,177.48593 L161.284252,177.944372 L160.143029,177.258207 L161.877447,172.679781 L156.117133,174.84914 L154.132791,173.650599 L154.71093,171.385357 L152.603132,172.730719 L151.266185,171.930693 L150.850647,169.983064 L149.724481,171.007817 L149.056007,170.609302 L150.046673,167.861647 C150.046673,167.861647 147.893707,168.658676 146.58386,169.129104 L145,168.182256 L145,115 L205,115 Z" id="Path" fill="#FFFFFF" fill-rule="nonzero"></path>
                            <rect id="Rectangle" fill="#FFF1CF" fill-rule="nonzero" x="159" y="136" width="33" height="2"></rect>
                            <rect id="Rectangle" fill="#FFF1CF" fill-rule="nonzero" x="159" y="143" width="33" height="2"></rect>
                            <rect id="Rectangle" fill="#FFF1CF" fill-rule="nonzero" x="159" y="151" width="33" height="2"></rect>
                            <rect id="Rectangle" fill="#FFF1CF" fill-rule="nonzero" x="159" y="158" width="7" height="2"></rect>
                            <path d="M185,112.003169 C183.312145,118.777465 180.851988,128.162623 180.210478,127.99786 C179.213959,127.722199 177.656897,125.779896 177.656897,125.779896 C177.656897,125.779896 173.994688,129.281111 172.219637,127.475054 C170.444587,125.668998 168,126.907889 168,126.907889 L170.366734,112 L185,112.003169 Z" id="Path" fill="#000000" fill-rule="nonzero" opacity="0.1"></path>
                            <path d="M171.429287,105.716778 L168,126.967879 C168,126.967879 170.35632,125.787597 172.069461,127.506835 C173.782601,129.226072 177.320087,125.889968 177.320087,125.889968 C177.320087,125.889968 178.822842,127.732654 179.784605,127.997615 C180.746368,128.262576 186,106.361116 186,106.361116 L181.927534,108.294129 C181.927534,108.294129 179.036233,104.428103 177.963266,105.07244 C176.890299,105.716778 174.546001,107.327622 174.546001,107.327622 L171.429287,105.716778 Z" id="Path" fill="#9D9CB5" fill-rule="nonzero"></path>
                            <path d="M201.401383,13.0604908 L201.401383,11 L169.116752,11 C167.635164,11 168.541762,13.0604908 168.541762,13.0604908 L151,13.0604908 L151,59 L228,59 L228,13.0422294 L201.401383,13.0604908 Z" id="Path" fill="url(#linearGradient-8)" fill-rule="nonzero"></path>
                            <rect id="Rectangle" fill="#FFFFFF" fill-rule="nonzero" x="151" y="14" width="75" height="45"></rect>
                            <path d="M200.124515,20 L169.437855,20 C169.437855,20 169.106827,16.6913276 170.183443,16.0785039 C171.26006,15.4656802 167.120655,13.3078504 167.120655,13.3078504 C167.074824,13.207212 167.034553,13.1044612 167,13 L200.124515,13 L200.124515,14.001233 C200.124515,14.001233 204.344356,17.4623921 200.124515,20 Z" id="Path" fill="#000000" fill-rule="nonzero" opacity="0.1"></path>
                            <path d="M167.849961,10 L200.132759,10 L200.132759,12.7324649 C200.132759,12.7324649 204.334051,16.3396794 200.132759,19 L169.580992,19 C169.580992,19 169.251418,15.5430862 170.323302,14.9028056 C171.395186,14.2625251 167.273978,12.008016 167.273978,12.008016 C167.273978,12.008016 166.368421,10 167.849961,10 Z" id="Path" fill="#9D9CB5" fill-rule="nonzero"></path>
                            <rect id="Rectangle" fill="#FFF1CF" fill-rule="nonzero" x="160" y="28" width="57" height="1"></rect>
                            <rect id="Rectangle" fill="#FFF1CF" fill-rule="nonzero" x="159" y="31" width="35" height="1"></rect>
                            <rect id="Rectangle" fill="#FFF1CF" fill-rule="nonzero" x="160" y="35" width="57" height="1"></rect>
                            <rect id="Rectangle" fill="#FFF1CF" fill-rule="nonzero" x="160" y="38" width="57" height="1"></rect>
                            <rect id="Rectangle" fill="#FFF1CF" fill-rule="nonzero" x="160" y="42" width="57" height="1"></rect>
                            <path d="M239.979103,221.775814 C239.444005,219.459996 239.115174,217.429857 239.115174,217.429857 C239.115174,217.429857 239.237739,214.910417 238.125692,213.020078 L238.125692,212.390978 L238.125692,212.390978 L238.125692,207.738068 C238.440965,206.895462 238.827023,206.082022 239.27959,205.306763 C240.104657,203.841902 239.27959,198.480875 239.27959,198.480875 C239.27959,198.480875 236.224451,190.922557 236.968805,186.129847 C237.713159,181.337138 230.691122,164.840735 230.691122,164.840735 C230.734289,163.249074 230.95594,161.667617 231.351774,160.127043 C231.424657,159.80331 231.454816,159.471152 231.441455,159.139326 C231.441455,159.099817 231.441455,159.060308 231.441455,159.017761 L231.441455,159.057269 C231.336827,155.896573 228.879562,149.970268 228.879562,149.970268 L229.208393,138.673818 C229.208393,138.673818 230.777814,132.012043 228.218911,123.073959 C227.322099,119.952772 226.751129,117.457645 226.389415,115.530836 C226.347564,115.312019 226.308702,115.102319 226.27283,114.901736 C231.543093,114.08421 235.566789,113.403445 235.566789,113.403445 C235.566789,113.403445 232.508661,100.395965 230.445994,98.1226946 C228.383327,95.8494247 226.730204,88.7013888 226.730204,88.7013888 C226.730204,88.7013888 225.654029,79.5201743 227.390855,76.8487783 C229.12768,74.1773822 229.36982,69.5335902 229.36982,69.5335902 C229.36982,69.5335902 233.333728,66.6099462 233.829964,65.3091982 C234.326199,64.0084502 235.151266,61.0848062 235.151266,59.5348495 C235.151266,57.9848927 234.65503,56.6081664 234.822435,55.7967185 C234.98984,54.9852705 233.665548,51.8975135 234.326199,50.4326524 C234.49784,49.9828716 234.587,49.5049343 234.589264,49.0224957 C234.590925,49.0083633 234.590925,48.9940802 234.589264,48.9799478 C234.589264,48.9799478 234.589264,48.9799478 234.589264,48.9647522 C234.593666,47.6849028 234.476537,46.4076098 234.239508,45.1506429 C234.239508,45.1506429 232.445884,43.5429427 230.32044,43.0232513 L230.233748,42.6737512 L230.009545,41.7620119 C229.883316,41.6758622 229.752589,41.5967288 229.617938,41.5249597 L229.617938,41.1936945 L229.582065,39.8747116 L230.203855,36.9054808 C231.420529,31.7389582 224.6496,30.9761364 224.6496,30.9761364 C224.243722,30.1802752 223.560468,29.5669225 222.733412,29.2559883 C221.370258,28.7666882 222.50622,37.0179286 223.142956,37.5436982 C223.624245,37.9418244 225.103985,40.5281248 225.815455,41.7984815 L225.815455,41.7984815 L225.932041,42.0081815 C225.823964,42.1104219 225.724007,42.2211887 225.633104,42.3394468 L225.89019,44.1294949 L225.929052,44.4030167 C225.481053,44.9710387 225.11746,45.6028155 224.849888,46.2781605 C224.849888,46.2781605 226.090478,47.6579259 225.84236,49.2018044 C225.594242,50.7456829 226.22201,52.6694528 226.251904,52.7758223 C226.17717,52.6907267 225.307262,51.7303613 224.437355,51.9643744 C223.567447,52.1983875 221.149045,52.9399354 221.149045,52.9399354 C221.149045,52.9399354 219.331506,53.2651224 219.498911,53.672366 C219.666316,54.0796095 218.258321,55.8666185 218.258321,55.8666185 L213.376676,51.1620438 C213.328846,51.0222438 213.281016,50.8824438 213.236175,50.7365655 C213.032663,50.0644515 212.890565,49.3746861 212.811684,48.6760348 C213.343315,48.5470518 213.864877,48.3784303 214.372137,48.171539 C214.885512,47.9936143 215.349044,47.692308 215.723333,47.2932302 C216.213591,46.685404 216.321208,45.8921908 216.509538,45.1658386 C216.895168,43.7192122 217.726213,42.4306207 218.321098,41.0599727 C219.325932,38.7446013 219.663866,36.1868765 219.295634,33.684002 C219.218632,32.9141385 218.961341,32.1742305 218.545301,31.526219 C217.750128,30.410858 216.303272,29.9580275 215.256991,29.0675621 C214.210711,28.1770968 213.529134,26.8216444 212.303491,26.1530356 C211.197423,25.5452094 209.846227,25.6211877 208.599658,25.8278486 C206.156625,26.2367499 203.809835,27.1045201 201.679261,28.3867968 C200.96779,28.8153143 200.184574,29.2985361 199.365486,29.1587361 C198.665973,29.0310926 198.151801,28.459736 197.700406,27.9157315 C197.705996,27.892026 197.712984,27.8686838 197.721331,27.8458315 L197.667523,27.7820098 C197.150532,28.9486701 196.891351,30.216354 196.908222,31.4958277 C196.908222,31.6933712 196.908222,31.8909148 196.932137,32.1036539 C196.932137,32.1735539 196.932137,32.2434539 196.932137,32.313354 C196.936558,32.3699954 196.936558,32.4269038 196.932137,32.4835453 L196.932137,32.4835453 C196.932182,32.5719383 196.920109,32.6599064 196.896265,32.7449105 C196.792452,32.9992736 196.636534,33.228237 196.43889,33.4165585 C196.289805,33.5869349 196.156698,33.7710956 196.041304,33.9666412 C196.06223,33.8997803 196.083155,33.8329194 196.10707,33.7660585 C195.795588,34.2271301 195.620296,34.7691427 195.601866,35.3281718 C195.575205,35.7365193 195.707233,36.139196 195.969559,36.4496111 C196.212889,36.6925109 196.479242,36.9103615 196.764732,37.0999851 C196.075283,41.0049251 197.853164,44.9328463 201.218897,46.940691 C201.275695,47.080491 201.329504,47.2233302 201.386302,47.3661693 C202.008092,49.0376913 202.477423,50.9827351 202.283114,52.7788615 C202.265178,52.9125832 202.247242,53.0432659 202.223327,53.1739485 C202.16055,53.2408094 202.100762,53.3107094 202.046954,53.3806094 L202.046954,53.3806094 C202.046954,53.3806094 193.975647,53.4596268 192.089353,51.7121265 C190.203059,49.9646263 187.306357,55.9669098 187.306357,55.9669098 C187.306357,55.9669098 184.415634,56.5382664 183.838685,55.9669098 C183.261736,55.3955532 179.874777,55.8878924 179.874777,55.8878924 C179.874777,55.8878924 177.80912,53.8547138 174.837684,54.0188269 C173.709032,53.1467943 172.463895,52.4427418 171.13983,51.9279048 L171.13983,51.9279048 L171.047159,51.8944744 L171.047159,51.8944744 C170.465748,51.6809596 169.845031,51.6010406 169.229621,51.6604613 C169.229621,51.6604613 165.265713,48.3174173 164.111815,46.5425649 C162.957917,44.7677124 157.448503,38.1241722 157.424588,38.0937809 L157.403662,37.7898678 L157.340886,36.8234242 C157.177681,36.8495656 157.012843,36.8637846 156.847639,36.8659721 L156.737032,36.5316677 C156.42079,35.5888294 156.028859,34.6740106 155.565198,33.7964498 C155.565198,33.7964498 155.565198,32.5807975 155.914955,32.2768844 C156.264711,31.9729713 155.771465,27.5024097 155.771465,27.5024097 C155.771465,27.5024097 152.199165,19.011078 149.000536,25.350705 C149.000536,25.350705 142.953035,29.4504926 148.02899,34.2249673 C148.02899,34.2249673 150.052795,35.2248414 150.339775,36.0150154 C150.528105,36.5286285 151.215661,37.9600592 151.679014,38.9143463 C151.756738,39.0723811 151.825493,39.2182594 151.885281,39.3398246 L151.828482,39.3884507 L151.903217,40.184703 L151.933111,40.4886161 C150.976511,41.0417379 150.327817,41.5857423 150.486254,42.0081815 C150.768804,42.7119424 150.962658,43.4492111 151.063203,44.2024341 C151.063203,44.2024341 158.08225,53.1405181 158.991019,56.9667839 C158.991019,56.9667839 177.824067,68.3422509 184.012068,69.1567379 L182.938884,74.8429519 C182.938884,74.8429519 182.607063,78.2558959 182.690766,79.4745874 C182.774468,80.6932789 181.946412,86.221458 181.946412,86.221458 C181.946412,86.221458 180.873227,94.3450549 179.964458,95.4816898 C179.055689,96.6183248 179.223093,101.49613 179.223093,101.49613 C179.004419,103.830578 178.589371,106.141681 177.982504,108.404074 C177.085692,111.491831 177.737375,115.30898 177.737375,115.30898 C177.737375,115.30898 174.598534,122.624168 182.113817,117.667345 C182.113817,117.667345 185.802703,117.433332 190.050601,117.287454 C190.050601,117.427254 190.050601,117.570093 190.050601,117.715972 C190.050601,118.272133 190.032665,118.87388 190.026686,119.509059 C189.969888,123.696981 189.945973,129.468291 190.131314,133.835522 C190.460145,141.554914 192.77392,156.832625 192.77392,156.832625 L192.77392,164.506431 C192.624638,165.227879 192.551482,165.963458 192.555695,166.700684 C192.504812,169.405992 193.210793,172.070351 194.591458,174.383606 L195.102641,179.449838 C195.102641,179.449838 196.459816,182.823273 196.48672,184.838217 C196.480266,185.002728 196.460267,185.1664 196.426933,185.327517 C196.376346,185.585575 196.354287,185.848573 196.361167,186.111613 C196.283443,188.436548 197.661544,193.995118 197.661544,193.995118 C197.661544,193.995118 197.745246,199.602315 198.558356,199.927502 C199.263848,200.204063 197.616703,203.158098 197.123457,204.006015 C197.123457,203.951311 197.102531,203.899646 197.093563,203.844941 C197.030786,203.95435 196.991924,204.015133 196.991924,204.015133 C196.822194,204.467379 196.735071,204.94732 196.734838,205.431368 C196.639345,206.213283 196.995471,206.981168 197.649586,207.403764 C199.219007,208.379325 200.06201,209.190773 198.731739,209.531155 C198.241679,209.607127 197.755768,209.708564 197.275915,209.835068 C197.252,209.771247 197.228085,209.707425 197.207159,209.646642 C196.824829,209.80714 196.60007,210.212665 196.663093,210.628282 C196.627221,211.038564 196.761743,211.637273 197.15634,212.530778 C198.477643,215.536478 199.392391,216.676152 199.392391,216.676152 L200.026138,216.603213 C199.929544,216.847485 199.806203,217.079924 199.658445,217.296135 C199.417141,217.648673 199.096303,217.937336 198.722771,218.137974 C198.378902,218.34886 197.994642,218.482533 197.595778,218.530022 C196.689274,218.560799 195.838338,218.981748 195.255099,219.687931 C194.433021,220.769861 193.91586,222.246879 195.554036,223.541549 L201.461037,225.614236 C201.461037,225.614236 211.624904,226.954493 211.077848,224.638675 C210.530793,222.322857 210.21392,220.292718 210.21392,220.292718 C210.21392,220.292718 210.327516,218.031605 209.388853,216.183813 C209.283826,215.97269 209.163939,215.769553 209.030128,215.575987 L209.388853,215.533439 C209.388853,215.533439 210.130217,210.415542 211.122689,209.455177 C211.349881,209.230281 211.400701,209.057051 211.346892,208.926368 C211.45152,208.646768 211.191445,208.482655 210.859624,208.391481 L210.787879,208.592064 C210.463733,208.520157 210.133148,208.482474 209.801386,208.479616 C209.801386,208.479616 209.469566,205.799103 210.542751,204.832659 C210.719441,204.608917 210.795389,204.319925 210.752007,204.036407 C210.761063,203.669416 210.723892,203.302756 210.6414,202.945359 C210.6414,202.963593 210.617485,202.987907 210.602538,203.006141 C210.061462,200.574837 208.231966,196.706023 208.231966,196.706023 C208.231966,196.706023 208.148263,194.274718 208.808915,193.296118 C209.469566,192.317518 208.728201,180.048546 208.728201,180.048546 C208.728201,180.048546 208.976319,174.119202 208.231966,171.356632 C207.487612,168.594062 209.128777,165.342192 209.128777,165.342192 C209.128777,165.342192 209.128777,165.27837 209.110841,165.165922 L209.131767,165.123375 C209.131767,165.123375 209.095894,164.758679 209.036107,164.190361 C209.027846,164.208061 209.020853,164.226343 209.015181,164.245066 C208.850766,162.676874 208.533892,159.832248 208.303711,158.516304 C207.97189,156.647238 208.384424,147.709154 208.384424,147.709154 L209.87911,143.892006 L212.521715,150.471724 L215.331726,159.248735 C215.331726,159.248735 216.721784,161.102604 216.754667,162.980787 C216.754667,163.071961 216.754667,163.163135 216.736731,163.254309 C216.714281,163.448985 216.7033,163.644852 216.703848,163.840861 C216.654375,164.949202 216.953873,166.0447 217.558808,166.968127 C217.558808,166.968127 218.303162,171.110462 219.460049,172.16808 C220.616936,173.225698 220.613947,175.255837 220.613947,175.255837 C220.613947,175.255837 222.018952,181.267238 222.679604,182.324856 C223.235627,183.215321 223.277478,185.6679 223.259542,186.412487 L223.259542,186.412487 C223.259542,186.552287 223.259542,186.631304 223.259542,186.631304 C223.259542,186.631304 223.453851,188.77997 223.447872,190.582174 C223.447872,190.804031 223.447872,191.019809 223.426947,191.223431 L223.426947,191.177844 C223.424955,191.670116 223.367788,192.160555 223.256553,192.639666 C223.246809,192.666452 223.23882,192.693864 223.232638,192.721722 C223.232638,192.621431 223.232638,192.518101 223.256553,192.417809 C222.968721,193.645022 222.830174,194.903518 222.844019,196.165058 C222.805157,198.32588 223.142956,200.887867 224.416429,202.389198 C226.646501,204.990694 228.051506,204.665507 228.051506,204.665507 C228.051506,204.665507 226.975332,207.914338 225.660008,208.564712 C225.610384,208.590412 225.56333,208.620946 225.519508,208.655886 C225.519508,208.592064 225.495593,208.531281 225.486625,208.46746 C225.211602,208.71059 225.100995,209.148225 225.100995,209.683112 C225.005336,211.111503 225.89019,213.433399 226.736182,214.500134 C227.048317,214.811235 227.43141,215.038861 227.851218,215.162665 C227.783663,215.209762 227.713823,215.253377 227.641962,215.293348 C227.495136,215.374959 227.34337,215.44703 227.187578,215.509126 C226.974277,215.605159 226.747176,215.665701 226.514969,215.688435 C225.607719,215.709434 224.753052,216.125618 224.168311,216.831148 C223.346234,217.910039 222.829072,219.387057 224.467248,220.681727 L230.374249,222.754414 C230.374249,222.754414 240.52018,224.091632 239.979103,221.775814 Z" id="Path" fill="url(#linearGradient-9)" fill-rule="nonzero"></path>
                            <path d="M200.139461,224.605849 L194.092074,222.494757 C192.422085,221.176098 192.953445,219.671712 193.797928,218.569735 C194.383755,217.855703 195.257227,217.425453 196.192213,217.390371 C196.602208,217.341384 196.99626,217.205085 197.346656,216.991058 C197.728182,216.783253 198.053489,216.489289 198.295514,216.133621 C198.737891,215.448546 198.97664,214.65646 198.985018,213.846088 C198.985018,213.846088 205.627022,211.94239 207.442503,213.846088 C207.766805,214.190231 208.037503,214.579279 208.245869,215.000688 C209.194727,216.882718 209.093516,219.185728 209.093516,219.185728 C209.093516,219.185728 209.431942,221.250388 209.979116,223.612212 C210.526291,225.974035 200.139461,224.605849 200.139461,224.605849 Z" id="Path" fill="#2D293D" fill-rule="nonzero"></path>
                            <path d="M229.134016,222.607048 L223.089237,220.495737 C221.423129,219.176942 221.95426,217.672401 222.795218,216.573405 C223.379439,215.857664 224.253352,215.426966 225.18847,215.39392 C225.42801,215.371076 225.661997,215.309349 225.880838,215.21127 C226.040348,215.147715 226.195574,215.074301 226.345577,214.991471 C228.036977,214.081316 227.992716,211.846175 227.992716,211.846175 C227.992716,211.846175 234.631856,209.942281 236.446555,211.846175 C236.689436,212.103444 236.901572,212.38699 237.078854,212.691319 C238.216992,214.616883 238.090532,217.186367 238.090532,217.186367 C238.090532,217.186367 238.428812,219.254336 238.978912,221.613308 C239.529012,223.972279 229.134016,222.607048 229.134016,222.607048 Z" id="Path" fill="#2D293D" fill-rule="nonzero"></path>
                            <path d="M208.273363,213.81041 C208.566691,214.140265 208.811535,214.51316 209,214.917073 L209,214.917073 L200,216 C200.400126,215.343369 200.616072,214.58417 200.623649,213.807443 C200.623649,213.807443 206.631278,211.988719 208.273363,213.81041 Z" id="Path" fill="#000000" fill-rule="nonzero" opacity="0.1"></path>
                            <path d="M236,212.604838 L236,214.335008 C234.619814,216.702609 227.939035,216.185614 226,214.995938 C226.142405,214.935634 226.280985,214.865973 226.414903,214.787378 C227.924922,213.923762 227.885408,211.802908 227.885408,211.802908 C227.885408,211.802908 233.812588,209.996364 235.432684,211.802908 C235.650507,212.046869 235.840846,212.315922 236,212.604838 L236,212.604838 Z" id="Path" fill="#000000" fill-rule="nonzero" opacity="0.1"></path>
                            <path d="M237.638863,204.684083 C237.192397,205.459073 236.811679,206.269806 236.500671,207.10784 L236.500671,213.512619 C234.87251,216.184812 226.409114,215.294081 225.270923,213.836797 C224.132732,212.379512 222.912372,208.571184 224.211857,207.922828 C225.511343,207.274473 226.567366,204.035728 226.567366,204.035728 C226.567366,204.035728 225.182668,204.359905 222.985411,201.766485 C220.788154,199.173064 221.439418,193.4227 221.850263,192.047218 C222.261107,190.671735 221.850263,186.051448 221.850263,186.051448 C221.850263,186.051448 221.932432,182.812702 221.281167,181.758367 C220.629903,180.704033 219.263464,174.711293 219.263464,174.711293 C219.263464,174.711293 219.263464,172.687455 218.12223,171.633121 C216.980995,170.578786 216.250605,166.44931 216.250605,166.44931 C215.584646,165.416928 215.297587,164.187125 215.438046,162.968188 C215.681509,160.941321 214.053348,158.75388 214.053348,158.75388 L211.286995,150.007146 L208.684981,143.444822 L207.221157,147.253151 C207.221157,147.253151 206.813356,156.163489 207.138988,158.026753 C207.46462,159.890016 207.951547,164.831452 207.951547,164.831452 C207.951547,164.831452 206.326429,168.070198 207.056819,170.824192 C207.787209,173.578186 207.546789,179.492154 207.546789,179.492154 C207.546789,179.492154 208.277179,191.72304 207.625915,192.695573 C206.97465,193.668105 207.056819,196.097922 207.056819,196.097922 C207.056819,196.097922 210.404441,203.223769 209.336245,204.196301 C208.26805,205.168834 208.602812,207.831938 208.602812,207.831938 C208.602812,207.831938 210.882238,207.831938 209.905341,208.80447 C208.928444,209.777003 208.195011,214.863864 208.195011,214.863864 L198.35909,216 C198.35909,216 197.446102,214.863864 196.155747,211.867494 C194.865391,208.871124 196.39921,209.195301 197.707826,208.871124 C199.016441,208.546946 198.188666,207.738017 196.642673,206.750336 C195.096681,205.762655 195.991409,203.590362 195.991409,203.590362 C195.991409,203.590362 198.34996,199.621459 197.537401,199.297282 C196.724842,198.973104 196.642673,193.383314 196.642673,193.383314 C196.642673,193.383314 195.014512,186.742219 195.425356,184.960757 C195.836201,183.179295 194.107611,178.913482 194.107611,178.913482 L193.538515,173.808443 C190.607825,168.788236 191.749059,164.170978 191.749059,164.170978 L191.749059,156.324063 C191.749059,156.324063 189.469634,141.096807 189.144001,133.401378 C188.937057,128.472061 188.99488,121.746134 189.061832,117.550004 C189.101395,115.19593 189.144001,113.635636 189.144001,113.635636 L224.294026,110 C224.294026,110 224.257507,111.614828 224.933118,115.19896 C225.289183,117.119787 225.846105,119.607168 226.734747,122.718667 C229.257636,131.629005 227.711643,138.2701 227.711643,138.2701 L227.386011,149.525424 C227.386011,149.525424 230.477996,157.06028 229.820645,159.65067 C229.430429,161.188374 229.212016,162.764283 229.16938,164.34973 C229.16938,164.34973 236.09287,180.788864 235.359437,185.578815 C234.626003,190.368766 237.638863,197.891503 237.638863,197.891503 C237.638863,197.891503 238.451422,203.223769 237.638863,204.684083 Z" id="Path" fill="#464353" fill-rule="nonzero"></path>
                            <path d="M218,162.325086 L228,161 C228,161 222.334471,166.753366 218,162.325086 Z" id="Path" fill="#000000" fill-rule="nonzero" opacity="0.05"></path>
                            <path d="M227.505567,151 C227.505567,151 227.786981,154.632379 226,156 C226,156 229.198744,155.374635 227.505567,151 Z" id="Path" fill="#000000" fill-rule="nonzero" opacity="0.1"></path>
                            <path d="M225,139 C225,139 216.513722,146.590714 213.427015,145.963123 C210.340308,145.335532 225,139 225,139 Z" id="Path" fill="#000000" fill-rule="nonzero" opacity="0.1"></path>
                            <path d="M204,166 C204,166 197.211198,167.578005 197.004371,170.357411 C196.797543,173.136816 204,166 204,166 Z" id="Path" fill="#000000" fill-rule="nonzero" opacity="0.1"></path>
                            <path d="M207.386497,199 C207.386497,199 197.753347,200.721035 200.489101,201.892741 C203.224854,203.064448 207.713199,203.999475 207.713199,203.999475 C207.713199,203.999475 210.815348,204.157261 207.386497,199 Z" id="Path" fill="#000000" fill-rule="nonzero" opacity="0.05"></path>
                            <path d="M197.25561,206.135874 C196.757322,205.886568 196.427927,205.468338 196.361004,205 L196.261948,205.139188 C196.261948,205.139188 195.351865,206.93372 196.924389,207.731566 L197.43515,208 C197.723034,207.957746 198.035681,207.925435 198.339042,207.863297 C199.670116,207.597349 198.828135,206.93372 197.25561,206.135874 Z" id="Path" fill="#000000" fill-rule="nonzero"></path>
                            <path d="M210.687837,205.418605 C211.084843,205.211886 211.070994,204.682171 210.826327,204 C210.170805,204.534884 210.013849,205.366925 210,206 C210.152467,205.780929 210.387008,205.582682 210.687837,205.418605 L210.687837,205.418605 Z" id="Path" fill="#000000" fill-rule="nonzero"></path>
                            <path d="M208.872951,165 C208.394042,165.964472 208.100165,166.974415 208,168 C208.24685,167.291726 208.581625,166.602083 209,165.93998 C209,165.93998 208.95082,165.570702 208.872951,165 Z" id="Path" fill="#000000" fill-rule="nonzero"></path>
                            <path d="M230.043044,160.533821 C230.108993,160.358814 230.138344,160.179461 230.130402,160 C230.012921,160.365631 229.928575,160.703839 229.868328,161 C229.919538,160.848263 229.976773,160.69287 230.043044,160.533821 Z" id="Path" fill="#000000" fill-rule="nonzero"></path>
                            <path d="M208.990963,193.584 C209.123506,193.408 209.195802,192.821333 209.231951,192 C208.930716,192.52 208.80721,193.36 208.768049,194 C208.823476,193.854006 208.898305,193.71436 208.990963,193.584 Z" id="Path" fill="#000000" fill-rule="nonzero"></path>
                            <path d="M210.476773,210 C209.783613,211.805869 209.314155,214.942062 209.314155,214.942062 L199.127862,216.06772 C199.127862,216.06772 198.182644,214.942062 196.846737,211.965388 C196.73016,211.703536 196.635638,211.468774 196.560021,211.255079 C195.94878,211.52295 195.709325,212.127916 196.509609,213.894658 C197.85812,216.871332 198.790734,218 198.790734,218 L208.977028,216.865312 C208.977028,216.865312 209.736352,211.79684 210.747735,210.845749 C211.24555,210.364184 210.927326,210.120391 210.476773,210 Z" id="Path" fill="#000000" fill-rule="nonzero"></path>
                            <path d="M196.623947,195.067289 C196.623947,195.067289 196.705849,200.674795 197.515772,201 L197.515772,201 C197.925284,200.073014 198.198291,199.176421 197.819114,199.045731 C197.009191,198.723565 196.927289,193.116059 196.927289,193.116059 C196.927289,193.116059 195.304409,186.450876 195.713921,184.663769 C196.123432,182.876661 194.415617,178.569975 194.415617,178.569975 L193.848368,173.451795 C190.927185,168.412638 192.064717,163.780746 192.064717,163.780746 L192.064717,155.902884 C192.064717,155.902884 189.792686,140.624329 189.46811,132.904509 C189.261838,127.96261 189.319473,121.215366 189.386208,117.005937 C189.386208,116.243073 189.413509,115.568349 189.425642,115 L189.143534,115.027354 C189.143534,115.027354 189.101066,116.592593 189.061632,118.954128 C188.994897,123.163557 188.937262,129.895604 189.143534,134.855739 C189.46811,142.575558 191.740141,157.851074 191.740141,157.851074 L191.740141,165.735016 C191.740141,165.735016 190.602609,170.366907 193.523792,175.403025 L194.091041,180.524244 C194.091041,180.524244 195.79279,184.83093 195.389345,186.602841 C194.9859,188.374753 196.623947,195.067289 196.623947,195.067289 Z" id="Path" fill="#000000" fill-rule="nonzero"></path>
                            <path d="M226.817749,213.747905 C226.070094,212.626092 225.572396,211.345882 225.360702,210 C224.42159,210.885332 225.500146,214.29386 226.49902,215.642515 C227.563347,217.061998 235.4775,217.929623 237,215.326747 L237,213.824634 C234.95672,215.940577 227.82516,215.090659 226.817749,213.747905 Z" id="Path" fill="#000000" fill-rule="nonzero"></path>
                            <path d="M237.974026,204.057596 C237.591596,204.697831 237.265769,205.367978 237,206.060935 L237,207 C237.158442,206.656928 237.384416,206.198664 237.696104,205.660267 C237.896104,205.312187 237.979221,204.698664 238,204 C237.98961,204.022538 237.981818,204.042571 237.974026,204.057596 Z" id="Path" fill="#000000" fill-rule="nonzero"></path>
                            <path d="M227.117262,205 C227.459196,204.375843 227.754119,203.731325 228,203.070886 C228,203.070886 226.478614,203.395949 224.064459,200.798481 C222.309014,198.905823 222.208703,195.330127 222.459481,193 C222.008081,194.382278 221.295871,200.148354 223.706683,202.745823 C225.291599,204.447089 226.478614,204.893671 227.117262,205 Z" id="Path" fill="#000000" fill-rule="nonzero"></path>
                            <path d="M222.484979,187.134754 C222.629304,188.752224 222.683547,190.376489 222.647456,192 C222.689467,191.743306 222.745758,191.489161 222.816064,191.23875 C223.22992,189.845172 222.816064,185.167168 222.816064,185.167168 C222.816064,185.167168 222.898835,181.882743 222.242796,180.817607 C221.586757,179.752471 220.179644,173.677819 220.179644,173.677819 C220.179644,173.677819 220.179644,171.624286 219.033109,170.55915 C217.886573,169.494014 217.147762,165.30714 217.147762,165.30714 C216.477167,164.25993 216.188054,163.013079 216.329246,161.77715 C216.574494,159.726687 214.934396,157.510467 214.934396,157.510467 L212.147762,148.645589 L209.526671,142 L208.04905,145.855363 C208.04905,145.855363 208.02759,146.340352 208,147.101602 L209.198651,143.967585 L211.819742,150.616244 L214.606376,159.478053 C214.606376,159.478053 216.246475,161.694272 216.001226,163.747805 C215.859738,164.982779 216.148901,166.228761 216.819742,167.274725 C216.819742,167.274725 217.558553,171.4616 218.705089,172.526736 C219.851625,173.591872 219.873084,175.645405 219.873084,175.645405 C219.873084,175.645405 221.267934,181.720056 221.923973,182.785192 C222.580012,183.850328 222.484979,187.134754 222.484979,187.134754 Z" id="Path" fill="#000000" fill-rule="nonzero"></path>
                            <path d="M229.842377,38.0951491 L229.170248,41.2255861 L229.210575,42.6176042 L229.237461,43.6471844 L225.473539,44 L225.053459,43.2590872 L225.053459,43.2590872 C224.27715,41.9183877 222.667402,39.1888776 222.143141,38.7687062 C221.450849,38.2106161 220.214132,29.5056919 221.699536,30.0220857 C222.604582,30.3563122 223.347989,30.9984139 223.786496,31.8246529 C223.786496,31.8246529 231.159749,32.6425437 229.842377,38.0951491 Z" id="Path" fill="#FFCDD3" fill-rule="nonzero"></path>
                            <path d="M228,42.7978844 L225.302176,43 L225,42.5940113 L225,42.5940113 C225.386785,42.3040195 226.491539,41.644947 227.978243,42.242506 L228,42.7978844 Z" id="Path" fill="#000000" fill-rule="nonzero" opacity="0.1"></path>
                            <path d="M229,44.1490626 L224.359168,45 L224.2615,44.4589415 L224,43.0103805 C224,43.0103805 225.830498,41.1019198 228.486452,42.530806 L228.716446,43.2686129 L229,44.1490626 Z" id="Path" fill="#DCE6F2" fill-rule="nonzero"></path>
                            <path d="M157,39.408259 L152.581404,42 C152.581404,42 152.412325,41.6192229 152.18125,41.078765 C151.758553,40.1176099 151.132961,38.6682002 150.961064,38.1492379 C150.698992,37.3508342 148.850396,36.3436174 148.850396,36.3436174 C144.220451,31.519417 149.73806,27.3738597 149.73806,27.3738597 C152.657489,20.9712767 155.915077,29.5479742 155.915077,29.5479742 C155.915077,29.5479742 156.365954,34.068167 156.047522,34.3721745 C155.72909,34.6761821 155.72909,35.9075661 155.72909,35.9075661 C156.151667,36.7961453 156.507884,37.720368 156.794287,38.671271 C156.926732,39.1318885 157,39.408259 157,39.408259 Z" id="Path" fill="#FFCDD3" fill-rule="nonzero"></path>
                            <path d="M158,37.6854707 L153.415205,40 C153.415205,40 153.239766,39.6599507 153,39.1773 C153.646199,38.6699684 155.944444,36.9231021 156.69883,37.0026297 C157.059641,37.0445723 157.423999,37.0528398 157.78655,37.0273107 C157.923977,37.4386607 158,37.6854707 158,37.6854707 Z" id="Path" fill="#000000" fill-rule="nonzero" opacity="0.1"></path>
                            <path d="M158,39.078507 L152.209951,42 L152.095134,40.7239456 L152,39.8307075 C152,39.8307075 155.352652,36.8890663 156.343357,37.0032396 C156.84475,37.078876 157.354266,37.078876 157.855659,37.0032396 L157.921268,38.0710956 L158,39.078507 Z" id="Path" fill="#DCE6F2" fill-rule="nonzero"></path>
                            <path d="M216,57.4280432 C216,57.4280432 193.282998,59.9617966 197.52878,58.5956715 C200.481341,57.6440544 201.662365,55.7846064 201.904475,53.7237425 C202.105249,51.9985717 201.65646,50.1332855 201.060043,48.5277966 C200.523554,47.1108145 199.842944,45.7513415 199.028681,44.4702883 C199.028681,44.4702883 216.395643,35.0241754 212.905716,43.5945671 C212.370426,44.8935876 212.038872,46.2657914 211.922514,47.6637516 C211.81624,49.0520734 211.967332,50.4479114 212.36835,51.7825604 C213.026084,53.9608701 214.283457,55.9154854 216,57.4280432 L216,57.4280432 Z" id="Path" fill="#FFCDD3" fill-rule="nonzero"></path>
                            <path d="M213.519495,41.5846682 C212.960018,42.8765722 212.613483,44.2412586 212.491866,45.6315602 C210.782238,46.9814919 208.905968,46.8943996 206.49891,46.8943996 C204.647327,46.8943996 202.601328,47.315346 201.123148,46.4763562 C200.562419,45.0671369 199.851055,43.7151116 199,42.4410765 C199,42.4410765 217.151683,33.0467131 213.519495,41.5846682 Z" id="Path" fill="#000000" fill-rule="nonzero" opacity="0.1"></path>
                            <circle id="Oval" fill="#FFCDD3" fill-rule="nonzero" cx="205.5" cy="40.5" r="9.5"></circle>
                            <path d="M216,57.269747 C216,57.269747 193.282998,60.0586496 197.52878,58.5549556 C200.481341,57.5075106 201.662365,55.4608159 201.904475,53.1924228 C203.035306,51.8622319 205.308778,50.8983255 206.767343,50.3874551 C208.104896,49.89741 209.549304,49.8715871 210.900928,50.3135556 C211.431199,50.4855849 211.935513,50.7410433 212.397876,51.0718286 C213.049821,53.4600321 214.296569,55.6052225 216,57.269747 Z" id="Path" fill="#000000" fill-rule="nonzero" opacity="0.1"></path>
                            <path d="M229,44.0760715 L224.103059,45 L224,44.412531 C225.379654,42.9972648 227.118351,42.8263647 228.700798,43.1227696 L229,44.0760715 Z" id="Path" fill="#000000" fill-rule="nonzero" opacity="0.1"></path>
                            <path d="M159,39.765411 L153.116667,42 L153,41.0239726 C155.103333,40.0684932 158.626667,39.0847603 158.933333,39 L159,39.765411 Z" id="Path" fill="#000000" fill-rule="nonzero" opacity="0.1"></path>
                            <path d="M225,115.859455 C215.898447,117.466189 202.945533,119.561782 200.890048,118.860972 C199.185798,118.279813 193.740137,118.341347 189,118.519114 C189.039705,115.862873 189.082464,114.102302 189.082464,114.102302 L224.358615,110 C224.358615,110 224.321965,111.815269 225,115.859455 Z" id="Path" fill="#000000" fill-rule="nonzero" opacity="0.1"></path>
                            <path d="M235,113.070366 C235,113.070366 205.106774,118.174618 201.895659,117.202235 C198.684544,116.229853 182.217678,117.284025 182.217678,117.284025 C174.805303,122.221669 177.900647,114.933342 177.900647,114.933342 C177.900647,114.933342 177.248675,111.12863 178.144375,108.050933 C178.74185,105.793344 179.149468,103.490261 179.363015,101.165494 C179.363015,101.165494 179.201545,96.318727 180.097245,95.1736782 C180.992945,94.0286294 182.050115,85.9405866 182.050115,85.9405866 C182.050115,85.9405866 182.866603,80.4334473 182.784345,79.2187263 C182.702087,78.0040052 183.028073,74.6021805 183.028073,74.6021805 L184.091336,68.9435797 C177.998138,68.1347754 159.413886,56.7963693 159.413886,56.7963693 C158.518186,52.9886277 151.593267,44.0736052 151.593267,44.0736052 C151.492578,43.3244304 151.301289,42.5900825 151.023553,41.8865015 C150.533051,40.5899913 157.866214,38 157.866214,38 C157.866214,38 163.322672,44.6400711 164.4621,46.4212581 C165.601528,48.2024451 169.513361,51.5255099 169.513361,51.5255099 C170.120616,51.4634342 170.734058,51.5433079 171.304761,51.7587605 C171.338274,51.7587605 171.365693,51.7769359 171.399206,51.7860236 C171.432718,51.7951113 171.399206,51.7860236 171.399206,51.7860236 C173.227165,52.4191326 175.055124,53.8671043 175.055124,53.8671043 C177.988999,53.7065551 180.024126,55.7300805 180.024126,55.7300805 C180.024126,55.7300805 183.375385,55.2454037 183.932913,55.8118697 C184.49044,56.3783356 187.354243,55.8118697 187.354243,55.8118697 C187.354243,55.8118697 190.205859,49.8170244 192.079518,51.5709483 C193.953176,53.3248722 201.901752,53.2309661 201.901752,53.2309661 C202.961968,51.831462 205.539391,50.8287871 207.151041,50.3107888 C208.531196,49.8487754 210.021607,49.8244297 211.416279,50.2411165 C212.017463,50.4113951 212.584402,50.6840244 213.091909,51.0468916 L217.914674,55.7421974 C217.914674,55.7421974 219.300877,53.9610104 219.133314,53.5550937 C218.965751,53.1491769 220.763244,52.8280786 220.763244,52.8280786 C220.763244,52.8280786 223.124358,52.0980342 224.020058,51.8556959 C224.915758,51.6133575 225.73834,52.5766525 225.811458,52.6614709 C225.780992,52.5584771 225.168626,50.5985656 225.406261,49.1021262 C225.643895,47.6056868 224.428303,46.1849782 224.428303,46.1849782 C227.279919,39.2177503 233.714335,45.0520464 233.714335,45.0520464 C233.714335,45.0520464 234.448566,48.8597879 233.796594,50.3168473 C233.144621,51.7739067 234.448566,54.8606916 234.284049,55.6604082 C234.119533,56.4601248 234.610035,57.8475119 234.610035,59.3863605 C234.610035,60.9252091 233.796594,63.8423571 233.306091,65.1418966 C232.815589,66.4414361 228.89157,69.3373795 228.89157,69.3373795 C228.89157,69.3373795 228.644795,73.9539253 226.935653,76.6257058 C225.226511,79.2974862 226.283681,88.439701 226.283681,88.439701 C226.283681,88.439701 227.913611,95.5674781 229.9396,97.8303125 C231.965588,100.093147 235,113.070366 235,113.070366 Z" id="Path" fill="#FFCC4B" fill-rule="nonzero"></path>
                            <path d="M190.747495,60 C190.747495,60 189.703543,57.309335 188.755464,57.0622331 C187.810011,56.7636489 186.889384,56.4099695 186,56.0036608 L186.610747,55 C186.610747,55 190.179358,55.8389262 190.747495,56.7358145 C191.315632,57.6327029 190.747495,60 190.747495,60 Z" id="Path" fill="#000000" fill-rule="nonzero" opacity="0.1"></path>
                            <path d="M174,53.7363184 C173.847513,54.4029851 167,55 167,55 L170.452528,52 L170.452528,52 L170.538841,52.0248756 C170.538841,52.0248756 170.538841,52.0248756 170.538841,52.0248756 C172.288122,52.5472637 174,53.7363184 174,53.7363184 Z" id="Path" fill="#000000" fill-rule="nonzero" opacity="0.1"></path>
                            <circle id="Oval" fill="#575988" fill-rule="nonzero" cx="154.5" cy="44.5" r="1"></circle>
                            <circle id="Oval" fill="#575988" fill-rule="nonzero" cx="154.5" cy="44.5" r="1"></circle>
                            <circle id="Oval" fill="#575988" fill-rule="nonzero" cx="154.5" cy="45.5" r="1"></circle>
                            <circle id="Oval" fill="#575988" fill-rule="nonzero" cx="156.5" cy="48.5" r="1"></circle>
                            <circle id="Oval" fill="#575988" fill-rule="nonzero" cx="231.5" cy="48.5" r="1"></circle>
                            <circle id="Oval" fill="#575988" fill-rule="nonzero" cx="231.5" cy="48.5" r="1"></circle>
                            <circle id="Oval" fill="#575988" fill-rule="nonzero" cx="231.5" cy="50.5" r="1"></circle>
                            <path d="M192.000221,82.0002907 C191.926071,81.9049213 210.537687,105.319641 225,91.7894953 C225,91.7833425 202.161842,94.875156 192.000221,82.0002907 Z" id="Path" fill="#000000" fill-rule="nonzero" opacity="0.1"></path>
                            <path d="M180,94 C180,94 190.861446,94.3040183 192,97.453648 L192,100.734006 C191.372122,101.088665 190.606794,101.088665 189.978916,100.734006 C188.88253,100.125969 182.316265,96.7817675 180,98.3900244 L180,94 Z" id="Path" fill="#000000" fill-rule="nonzero" opacity="0.1"></path>
                            <path d="M180,94 C180,94 190.862992,94.2996888 192,97.4527978 L192,100.733434 C191.371712,101.088855 190.60624,101.088855 189.977953,100.733434 C188.885039,100.137244 182.314961,96.7705275 180,98.3901224 L180,94 Z" id="Path" fill="#656691" fill-rule="nonzero"></path>
                            <path d="M187,70 C187,70 188.150738,73.2937528 190.900808,77.4435091 C192.601012,79.982698 194.660979,82.1971146 197,84 C197,84 187.167177,71.5383252 187,70 Z" id="Path" fill="#000000" fill-rule="nonzero" opacity="0.1"></path>
                            <path d="M183,58 C183,58 184.672862,65.4712644 189,68 L183,58 Z" id="Path" fill="#000000" fill-rule="nonzero" opacity="0.1"></path>
                            <path d="M180.156464,59.0022601 C180.112637,58.8680072 178.596239,64.7471646 186,68 C185.997078,68 182.853256,66.9791187 180.156464,59.0022601 Z" id="Path" fill="#000000" fill-rule="nonzero" opacity="0.1"></path>
                            <path d="M228.002843,52.0042224 C227.877914,52.0042224 231.906872,54.0538244 233,55 C233,55.007476 230.370246,51.869413 228.002843,52.0042224 Z" id="Path" fill="#000000" fill-rule="nonzero" opacity="0.1"></path>
                            <path d="M203.90215,48.4016051 C204.036265,48.8907545 204.200184,49.427626 204.641275,49.6841312 C204.920126,49.818268 205.225998,49.8866315 205.535378,49.8839666 C208.426311,50.0629238 211.433478,50.1822285 214.109827,49.0756769 C214.608055,48.8981731 215.055232,48.6011933 215.412237,48.2107174 C215.886111,47.6291068 215.978502,46.8387127 216.169244,46.1228842 C216.544767,44.7061402 217.343499,43.4385272 217.921686,42.0933661 C218.890446,39.8128629 219.215178,37.3100074 218.860494,34.8575326 C218.786008,34.1041574 218.538119,33.3782974 218.136271,32.7368906 C217.367342,31.6422695 215.972541,31.1978592 214.956244,30.3269345 C213.939947,29.4560098 213.290232,28.1227792 212.107036,27.466603 C211.040073,26.8700792 209.722761,26.9446447 208.530623,27.1474628 C206.166119,27.5509818 203.900275,28.4023344 201.854653,29.6558453 C201.169174,30.0793771 200.415147,30.565544 199.622376,30.4164131 C198.930936,30.2851779 198.430239,29.7035672 197.983187,29.1577479 C197.416987,30.4583314 197.172642,31.876411 197.270885,33.2916577 C197.301269,33.4990216 197.294203,33.7101604 197.250023,33.9150251 C197.151994,34.163023 197.001523,34.3868665 196.808932,34.5712012 C196.09663,35.4003693 195.649578,36.7127216 196.355919,37.5538201 C196.653954,37.9176996 197.133789,38.1175351 197.431823,38.4873798 C197.968285,39.1554865 197.786484,40.1129071 197.774563,40.9659361 C197.742687,41.2621596 197.816591,41.5601151 197.983187,41.8070347 C198.251418,42.1321401 198.740194,42.1589837 199.154462,42.0874008 C199.56873,42.015818 199.991939,41.8756349 200.400246,41.9680961 C200.845413,42.1164666 201.227606,42.4106855 201.485091,42.8032294 C202.820285,44.4884091 203.341845,46.3704416 203.90215,48.4016051 Z" id="Path" fill="#2D293D" fill-rule="nonzero"></path>
                            <path d="M214.761765,47.2453521 C214.409451,47.6510108 213.968152,47.959538 213.476471,48.1439437 C210.829412,49.3028169 207.867647,49.1695775 205.014706,48.9805634 C204.70947,48.9858737 204.407291,48.9158364 204.132353,48.7760563 C203.7,48.5064789 203.544118,47.951831 203.402941,47.443662 C202.85,45.3180282 202.335294,43.3783099 201.017647,41.6121127 C200.763546,41.2043056 200.386376,40.8986466 199.947059,40.744507 C199.544118,40.6484507 199.126471,40.7940845 198.717647,40.8684507 C198.308824,40.9428169 197.835294,40.9149296 197.561765,40.5771831 C197.397358,40.3206626 197.324425,40.0111217 197.355882,39.7033803 C197.355882,38.8171831 197.544118,37.8194366 197.017647,37.1284507 C196.723529,36.7411268 196.258824,36.5366197 195.952941,36.1585915 C195.517647,35.6101408 195.529412,34.8695775 195.773529,34.1785915 C195.273529,35.0152113 195.055882,36.0904225 195.641176,36.8185915 C195.935294,37.1997183 196.408824,37.4042254 196.702941,37.7915493 C197.229412,38.4825352 197.052941,39.4802817 197.041176,40.3664789 C197.009719,40.6742203 197.082652,40.9837612 197.247059,41.2402817 C197.511765,41.5780282 197.994118,41.6059155 198.402941,41.5315493 C198.811765,41.4571831 199.229412,41.3115493 199.632353,41.4076056 C200.07167,41.5617452 200.44884,41.8674042 200.702941,42.2752113 C202.020588,44.0414085 202.535294,45.9935211 203.088235,48.1067606 C203.220588,48.611831 203.382353,49.1695775 203.817647,49.4391549 C204.092585,49.5789349 204.394764,49.6489722 204.7,49.643662 C207.552941,49.8326761 210.520588,49.9535211 213.161765,48.8070423 C213.653446,48.6226366 214.094746,48.3141094 214.447059,47.9084507 C214.625398,47.6688292 214.762746,47.3983054 214.852941,47.1090141 C214.823529,47.155493 214.794118,47.2019718 214.761765,47.2453521 Z" id="Path" fill="#000000" fill-rule="nonzero"></path>
                            <path d="M196.552941,32.8802817 C196.683202,32.7376417 196.783425,32.5676469 196.847059,32.3814085 C196.890658,32.1685781 196.897632,31.9492296 196.867647,31.7338028 C196.79014,30.5261974 196.93905,29.3143298 197.305882,28.1673239 L197.255882,28.1022535 C196.696899,29.4533368 196.455756,30.9266135 196.552941,32.3969014 C196.56763,32.5576566 196.56763,32.7195265 196.552941,32.8802817 Z" id="Path" fill="#000000" fill-rule="nonzero"></path>
                            <path d="M202,53.2458021 C202,53.2458021 214.84626,55.0963411 216,53" id="Path" fill="#000000" fill-rule="nonzero" opacity="0.1"></path>
                            <path d="M223,50 C223,50 230.376392,50 232,52" id="Path" fill="#000000" fill-rule="nonzero" opacity="0.1"></path>
                        </g>
                        <g id="Group-15" transform="translate(60.000000, 10.000000)">
                            <g id="Group-8">
                                <g id="Group-7">
                                    <g id="Group" opacity="0.35" transform="translate(88.000000, 2.000000)"></g>
                                    <g id="Group" opacity="0.1" transform="translate(135.000000, 18.000000)"></g>
                                </g>
                            </g>
                        </g>
                    </g>
                </g>
            </g>
        </g>
    </g>
</svg>