<?xml version="1.0" encoding="UTF-8"?>
<svg width="352px" height="250px" viewBox="0 0 352 250" version="1.1" xmlns="http://www.w3.org/2000/svg" xmlns:xlink="http://www.w3.org/1999/xlink">
    <!-- Generator: Sketch 53.2 (72643) - https://sketchapp.com -->
    <title>step-4</title>
    <desc>Created with Sketch.</desc>
    <defs>
        <rect id="path-1" x="0" y="0" width="352" height="250"></rect>
    </defs>
    <g id="UI_2" stroke="none" stroke-width="1" fill="none" fill-rule="evenodd">
        <g id="Home" transform="translate(-71.000000, -1896.000000)">
            <g id="step-4" transform="translate(71.000000, 1896.000000)">
                <mask id="mask-2" fill="white">
                    <use xlink:href="#path-1"></use>
                </mask>
                <use id="Mask" fill="#FFFFFF" xlink:href="#path-1"></use>
                <text id="Budget" mask="url(#mask-2)" font-family="OpenSans-Bold, Open Sans" font-size="18" font-weight="bold" line-spacing="29" fill="#3C3C3C">
                    <tspan x="49.0341797" y="215">Budget</tspan>
                </text>
                <text id="Estimate" mask="url(#mask-2)" font-family="OpenSans-Bold, Open Sans" font-size="18" font-weight="bold" line-spacing="29" fill="#3C3C3C">
                    <tspan x="184.834961" y="215">Estimate</tspan>
                </text>
                <g mask="url(#mask-2)">
                    <g transform="translate(4.000000, 13.000000)">
                        <path d="M1.87264574,100.491981 C-4.07249574,143.261166 0.00192366973,224.626503 77.0174506,217.481032 C154.032978,210.335561 116.562106,182.708628 210.16514,217.481032 C303.768174,252.253436 287.71698,151.814865 332.35849,87.7386204 C377,23.662376 290.088919,6.77350445 257.717887,3.19292533 C225.346854,-0.387653791 159.108507,-4.37833094 98.5413252,12.0260576 C37.9741431,28.4304462 7.81778722,57.7227955 1.87264574,100.491981 Z" id="Path-6-Copy-3" fill="#FFD15E" opacity="0.360258557"></path>
                        <g id="Group-12" stroke-width="1" fill="none" transform="translate(48.000000, 34.000000)">
                            <path d="M0,124.000502 C0,130.685465 8.21447986,136.434653 20,139 L20,109 C8.21447986,111.566351 0,117.315539 0,124.000502" id="Fill-7" fill="#FFD15E"></path>
                            <path d="M134,124.000502 C134,130.685465 142.21448,136.434653 154,139 L154,109 C142.21448,111.566351 134,117.315539 134,124.000502" id="Fill-7-Copy" fill="#FFD15E"></path>
                            <path d="M30,107.179562 L30,139.820438 C31.3111361,139.922324 32.6420697,139.987895 34,140 L34,107 C32.6420697,107.012105 31.3111361,107.077676 30,107.179562" id="Fill-8" fill="#FFD15E"></path>
                            <path d="M164,107.179562 L164,139.820438 C165.311136,139.922324 166.64207,139.987895 168,140 L168,107 C166.64207,107.012105 165.311136,107.077676 164,107.179562" id="Fill-8-Copy" fill="#FFD15E"></path>
                            <polygon id="Fill-9" fill="#ED9851" points="0 125 68 125 68 117 0 117"></polygon>
                            <polygon id="Fill-9-Copy" fill="#ED9851" points="134 125 202 125 202 117 134 117"></polygon>
                            <path d="M68,124.000493 C68,118.666199 62.4885606,113.938299 54,111 L54,137 C62.4885606,134.063673 68,129.334787 68,124.000493" id="Fill-10" fill="#FFD15E"></path>
                            <path d="M202,124.000493 C202,118.666199 196.488561,113.938299 188,111 L188,137 C196.488561,134.063673 202,129.334787 202,124.000493" id="Fill-10-Copy" fill="#FFD15E"></path>
                            <path d="M20,109.22533 L20,138.77467 C22.8143581,139.376951 25.8437569,139.783416 29,140 L29,108 C25.8437569,108.217573 22.8143581,108.624038 20,109.22533" id="Fill-11" fill="#F1AD6F"></path>
                            <path d="M154,109.22533 L154,138.77467 C156.814358,139.376951 159.843757,139.783416 163,140 L163,108 C159.843757,108.217573 156.814358,108.624038 154,109.22533" id="Fill-11-Copy" fill="#F1AD6F"></path>
                            <path d="M34.4357015,107 C34.2884364,107 34.1462495,107.008066 34,107.009074 L34,139.990926 C34.1462495,139.991934 34.2884364,140 34.4357015,140 C42.1330947,140 49.2434589,138.807278 55,136.792857 L55,110.207143 C49.2434589,108.192722 42.1330947,107 34.4357015,107" id="Fill-12" fill="#F1AD6F"></path>
                            <path d="M168.435702,107 C168.288436,107 168.146249,107.008066 168,107.009074 L168,139.990926 C168.146249,139.991934 168.288436,140 168.435702,140 C176.133095,140 183.243459,138.807278 189,136.792857 L189,110.207143 C183.243459,108.192722 176.133095,107 168.435702,107" id="Fill-12-Copy" fill="#F1AD6F"></path>
                            <path d="M68,118.500504 C68,127.612783 52.7775146,135 34,135 C15.2224854,135 0,127.612783 0,118.500504 C0,109.387217 15.2224854,102 34,102 C52.7775146,102 68,109.387217 68,118.500504" id="Fill-13" fill="#D37C34"></path>
                            <path d="M202,118.500504 C202,127.612783 186.777515,135 168,135 C149.222485,135 134,127.612783 134,118.500504 C134,109.387217 149.222485,102 168,102 C186.777515,102 202,109.387217 202,118.500504" id="Fill-13-Copy" fill="#D37C34"></path>
                            <path d="M68,117.5 C68,126.612557 52.7775146,134 34,134 C15.2224854,134 0,126.612557 0,117.5 C0,108.387443 15.2224854,101 34,101 C52.7775146,101 68,108.387443 68,117.5" id="Fill-14" fill="#F9D253"></path>
                            <path d="M202,117.5 C202,126.612557 186.777515,134 168,134 C149.222485,134 134,126.612557 134,117.5 C134,108.387443 149.222485,101 168,101 C186.777515,101 202,108.387443 202,117.5" id="Fill-14-Copy" fill="#F9D253"></path>
                            <path d="M61,117.500496 C61,124.404332 48.9119448,130 34.0004966,130 C19.0880552,130 7,124.404332 7,117.500496 C7,110.59666 19.0880552,105 34.0004966,105 C48.9119448,105 61,110.59666 61,117.500496" id="Fill-15" fill="#F9DA6D"></path>
                            <path d="M195,117.500496 C195,124.404332 182.911945,130 168.000497,130 C153.088055,130 141,124.404332 141,117.500496 C141,110.59666 153.088055,105 168.000497,105 C182.911945,105 195,110.59666 195,117.500496" id="Fill-15-Copy" fill="#F9DA6D"></path>
                            <path d="M26.2211674,118.515663 L22,116.299041 L25.3033066,114.599991 L29.5254662,116.816612 C31.516976,117.861577 34.7944833,117.860595 36.8296535,116.813666 C38.865816,115.767719 38.9015382,114.064741 36.9090361,113.018794 L32.4894123,110.69905 L35.7927189,109 L40.2133349,111.319744 C43.9869831,113.301641 43.9195079,116.52689 40.0625081,118.510752 C36.2045159,120.494614 29.9958078,120.496578 26.2211674,118.515663" id="Fill-16" fill="#ED9851"></path>
                            <path d="M160.221167,118.515663 L156,116.299041 L159.303307,114.599991 L163.525466,116.816612 C165.516976,117.861577 168.794483,117.860595 170.829654,116.813666 C172.865816,115.767719 172.901538,114.064741 170.909036,113.018794 L166.489412,110.69905 L169.792719,109 L174.213335,111.319744 C177.986983,113.301641 177.919508,116.52689 174.062508,118.510752 C170.204516,120.494614 163.995808,120.496578 160.221167,118.515663" id="Fill-16-Copy" fill="#ED9851"></path>
                            <polyline id="Fill-17" fill="#ED9851" points="42.7588706 122 28 113.769884 31.2411294 112 46 120.230116 42.7588706 122"></polyline>
                            <polyline id="Fill-17-Copy" fill="#ED9851" points="176.758871 122 162 113.769884 165.241129 112 180 120.230116 176.758871 122"></polyline>
                            <polyline id="Fill-18" fill="#ED9851" points="47.7590459 119 33 110.770727 36.2409541 109 51 117.22825 47.7590459 119"></polyline>
                            <polyline id="Fill-18-Copy" fill="#ED9851" points="181.759046 119 167 110.770727 170.240954 109 185 117.22825 181.759046 119"></polyline>
                            <polyline id="Fill-19" fill="#ED9851" points="25.4627329 126 27 116.178183 22.194617 116 21 123.630788 25.4627329 126"></polyline>
                            <polyline id="Fill-19-Copy" fill="#ED9851" points="159.462733 126 161 116.178183 156.194617 116 155 123.630788 159.462733 126"></polyline>
                            <path d="M0,113.999498 C0,120.684461 8.21447986,126.432645 20,129 L20,99 C8.21447986,101.565347 0,107.314535 0,113.999498" id="Fill-20" fill="#ED9851"></path>
                            <path d="M134,113.999498 C134,120.684461 142.21448,126.432645 154,129 L154,99 C142.21448,101.565347 134,107.314535 134,113.999498" id="Fill-20-Copy" fill="#ED9851"></path>
                            <path d="M30,97.1785529 L30,129.820438 C31.3111361,129.920307 32.6420697,129.986886 34,130 L34,97 C32.6420697,97.0110965 31.3111361,97.0776755 30,97.1785529" id="Fill-21" fill="#ED9851"></path>
                            <path d="M164,97.1785529 L164,129.820438 C165.311136,129.920307 166.64207,129.986886 168,130 L168,97 C166.64207,97.0110965 165.311136,97.0776755 164,97.1785529" id="Fill-21-Copy" fill="#ED9851"></path>
                            <polygon id="Fill-22" fill="#ED9851" points="0 115 68 115 68 107 0 107"></polygon>
                            <polygon id="Fill-22-Copy" fill="#ED9851" points="134 115 202 115 202 107 134 107"></polygon>
                            <path d="M68,114 C68,108.664922 62.4885606,103.937201 54,101 L54,127 C62.4885606,124.061813 68,119.334092 68,114" id="Fill-23" fill="#ED9851"></path>
                            <path d="M202,114 C202,108.664922 196.488561,103.937201 188,101 L188,127 C196.488561,124.061813 202,119.334092 202,114" id="Fill-23-Copy" fill="#ED9851"></path>
                            <path d="M20,99.226281 L20,128.774708 C22.8143581,129.375981 25.8437569,129.782434 29,130 L29,98 C25.8437569,98.216577 22.8143581,98.6230299 20,99.226281" id="Fill-24" fill="#F1AD6F"></path>
                            <path d="M154,99.226281 L154,128.774708 C156.814358,129.375981 159.843757,129.782434 163,130 L163,98 C159.843757,98.216577 156.814358,98.6230299 154,99.226281" id="Fill-24-Copy" fill="#F1AD6F"></path>
                            <path d="M34.4357015,97 C34.2884364,97 34.1462495,97.0080657 34,97.0100822 L34,129.991934 C34.1462495,129.992942 34.2884364,130 34.4357015,130 C42.1330947,130 49.2434589,128.808286 55,126.793865 L55,100.207143 C49.2434589,98.1917143 42.1330947,97 34.4357015,97" id="Fill-25" fill="#F1AD6F"></path>
                            <path d="M168.435702,97 C168.288436,97 168.146249,97.0080657 168,97.0100822 L168,129.991934 C168.146249,129.992942 168.288436,130 168.435702,130 C176.133095,130 183.243459,128.808286 189,126.793865 L189,100.207143 C183.243459,98.1917143 176.133095,97 168.435702,97" id="Fill-25-Copy" fill="#F1AD6F"></path>
                            <path d="M68,108.499496 C68,117.612783 52.7775146,125 34,125 C15.2224854,125 0,117.612783 0,108.499496 C0,99.387217 15.2224854,92 34,92 C52.7775146,92 68,99.387217 68,108.499496" id="Fill-26" fill="#D37C34"></path>
                            <path d="M202,108.499496 C202,117.612783 186.777515,125 168,125 C149.222485,125 134,117.612783 134,108.499496 C134,99.387217 149.222485,92 168,92 C186.777515,92 202,99.387217 202,108.499496" id="Fill-26-Copy" fill="#D37C34"></path>
                            <path d="M68,107.500504 C68,116.612783 52.7775146,124 34,124 C15.2224854,124 0,116.612783 0,107.500504 C0,98.387217 15.2224854,91 34,91 C52.7775146,91 68,98.387217 68,107.500504" id="Fill-27" fill="#FFD15E"></path>
                            <path d="M202,107.500504 C202,116.612783 186.777515,124 168,124 C149.222485,124 134,116.612783 134,107.500504 C134,98.387217 149.222485,91 168,91 C186.777515,91 202,98.387217 202,107.500504" id="Fill-27-Copy" fill="#FFD15E"></path>
                            <path d="M61,107.5 C61,114.403562 48.9119448,120 34.0004966,120 C19.0880552,120 7,114.403562 7,107.5 C7,100.596438 19.0880552,95 34.0004966,95 C48.9119448,95 61,100.596438 61,107.5" id="Fill-28" fill="#F9DA6D"></path>
                            <path d="M195,107.5 C195,114.403562 182.911945,120 168.000497,120 C153.088055,120 141,114.403562 141,107.5 C141,100.596438 153.088055,95 168.000497,95 C182.911945,95 195,100.596438 195,107.5" id="Fill-28-Copy" fill="#F9DA6D"></path>
                            <path d="M26.2211674,108.516114 L22,106.299616 L25.3033066,104.60066 L29.5254662,106.816177 C31.516976,107.862065 34.7944833,107.861083 36.8296535,106.814212 C38.865816,105.767342 38.9015382,104.06544 36.9090361,103.019552 L32.4894123,100.699937 L35.7927189,99 L40.2133349,101.320596 C43.9869831,103.301401 43.9195079,106.52647 40.0625081,108.511204 C36.2045159,110.494955 29.9958078,110.495937 26.2211674,108.516114" id="Fill-29" fill="#ED9851"></path>
                            <path d="M160.221167,108.516114 L156,106.299616 L159.303307,104.60066 L163.525466,106.816177 C165.516976,107.862065 168.794483,107.861083 170.829654,106.814212 C172.865816,105.767342 172.901538,104.06544 170.909036,103.019552 L166.489412,100.699937 L169.792719,99 L174.213335,101.320596 C177.986983,103.301401 177.919508,106.52647 174.062508,108.511204 C170.204516,110.494955 163.995808,110.495937 160.221167,108.516114" id="Fill-29-Copy" fill="#ED9851"></path>
                            <polyline id="Fill-30" fill="#ED9851" points="42.7588706 112 28 103.770727 31.2411294 102 46 110.22825 42.7588706 112"></polyline>
                            <polyline id="Fill-30-Copy" fill="#ED9851" points="176.758871 112 162 103.770727 165.241129 102 180 110.22825 176.758871 112"></polyline>
                            <polyline id="Fill-31" fill="#ED9851" points="47.7590459 109 33 100.77175 36.2409541 99 51 107.229273 47.7590459 109"></polyline>
                            <polyline id="Fill-31-Copy" fill="#ED9851" points="181.759046 109 167 100.77175 170.240954 99 185 107.229273 181.759046 109"></polyline>
                            <polyline id="Fill-32" fill="#ED9851" points="25.4627329 116 27 106.179237 22.194617 106 21 113.631579 25.4627329 116"></polyline>
                            <polyline id="Fill-32-Copy" fill="#ED9851" points="159.462733 116 161 106.179237 156.194617 106 155 113.631579 159.462733 116"></polyline>
                            <path d="M0,103.999498 C0,110.685465 8.21447986,116.433649 20,119 L20,89 C8.21447986,91.567355 0,97.3145353 0,103.999498" id="Fill-33" fill="#ED9851"></path>
                            <path d="M134,103.999498 C134,110.685465 142.21448,116.433649 154,119 L154,89 C142.21448,91.567355 134,97.3145353 134,103.999498" id="Fill-33-Copy" fill="#ED9851"></path>
                            <path d="M30,87.1795616 L30,119.820438 C31.3111361,119.922324 32.6420697,119.987895 34,120 L34,87 C32.6420697,87.0121053 31.3111361,87.0776755 30,87.1795616" id="Fill-34" fill="#ED9851"></path>
                            <path d="M164,87.1795616 L164,119.820438 C165.311136,119.922324 166.64207,119.987895 168,120 L168,87 C166.64207,87.0121053 165.311136,87.0776755 164,87.1795616" id="Fill-34-Copy" fill="#ED9851"></path>
                            <polygon id="Fill-35" fill="#ED9851" points="0 105 68 105 68 97 0 97"></polygon>
                            <polygon id="Fill-35-Copy" fill="#ED9851" points="134 105 202 105 202 97 134 97"></polygon>
                            <path d="M68,103.999507 C68,98.6652129 62.4885606,93.9373128 54,91 L54,117 C62.4885606,114.062687 68,109.334787 68,103.999507" id="Fill-36" fill="#ED9851"></path>
                            <path d="M202,103.999507 C202,98.6652129 196.488561,93.9373128 188,91 L188,117 C196.488561,114.062687 202,109.334787 202,103.999507" id="Fill-36-Copy" fill="#ED9851"></path>
                            <path d="M20,89.2253299 L20,118.77467 C22.8143581,119.375962 25.8437569,119.782427 29,120 L29,88 C25.8437569,88.2165837 22.8143581,88.6240381 20,89.2253299" id="Fill-37" fill="#F1AD6F"></path>
                            <path d="M154,89.2253299 L154,118.77467 C156.814358,119.375962 159.843757,119.782427 163,120 L163,88 C159.843757,88.2165837 156.814358,88.6240381 154,89.2253299" id="Fill-37-Copy" fill="#F1AD6F"></path>
                            <path d="M34.4357015,87 C34.2884364,87 34.1462495,87.0080657 34,87.009074 L34,119.990926 C34.1462495,119.991934 34.2884364,120 34.4357015,120 C42.1330947,120 49.2434589,118.807278 55,116.792857 L55,90.2071431 C49.2434589,88.1927225 42.1330947,87 34.4357015,87" id="Fill-38" fill="#F1AD6F"></path>
                            <path d="M168.435702,87 C168.288436,87 168.146249,87.0080657 168,87.009074 L168,119.990926 C168.146249,119.991934 168.288436,120 168.435702,120 C176.133095,120 183.243459,118.807278 189,116.792857 L189,90.2071431 C183.243459,88.1927225 176.133095,87 168.435702,87" id="Fill-38-Copy" fill="#F1AD6F"></path>
                            <path d="M68,98.4994959 C68,107.611775 52.7775146,115 34,115 C15.2224854,115 0,107.611775 0,98.4994959 C0,89.387217 15.2224854,82 34,82 C52.7775146,82 68,89.387217 68,98.4994959" id="Fill-39" fill="#D37C34"></path>
                            <path d="M202,98.4994959 C202,107.611775 186.777515,115 168,115 C149.222485,115 134,107.611775 134,98.4994959 C134,89.387217 149.222485,82 168,82 C186.777515,82 202,89.387217 202,98.4994959" id="Fill-39-Copy" fill="#D37C34"></path>
                            <path d="M68,97.5005041 C68,106.613791 52.7775146,114 34,114 C15.2224854,114 0,106.613791 0,97.5005041 C0,88.3882252 15.2224854,81 34,81 C52.7775146,81 68,88.3882252 68,97.5005041" id="Fill-40" fill="#FFD15E"></path>
                            <path d="M202,97.5005041 C202,106.613791 186.777515,114 168,114 C149.222485,114 134,106.613791 134,97.5005041 C134,88.3882252 149.222485,81 168,81 C186.777515,81 202,88.3882252 202,97.5005041" id="Fill-40-Copy" fill="#FFD15E"></path>
                            <path d="M61,97.5004959 C61,104.404332 48.9119448,110 34.0004966,110 C19.0880552,110 7,104.404332 7,97.5004959 C7,90.5966597 19.0880552,85 34.0004966,85 C48.9119448,85 61,90.5966597 61,97.5004959" id="Fill-41" fill="#F9DA6D"></path>
                            <path d="M195,97.5004959 C195,104.404332 182.911945,110 168.000497,110 C153.088055,110 141,104.404332 141,97.5004959 C141,90.5966597 153.088055,85 168.000497,85 C182.911945,85 195,90.5966597 195,97.5004959" id="Fill-41-Copy" fill="#F9DA6D"></path>
                            <path d="M26.2211674,98.5148928 L22,96.2982214 L25.3033066,94.6001155 L29.5254662,96.816787 C31.516976,97.8617752 34.7944833,97.8607931 36.8296535,96.8138406 C38.865816,95.7668881 38.9015382,94.0648537 36.9090361,93.0188833 L32.4894123,90.6981059 L35.7927189,89 L40.2133349,91.3197953 C43.9869831,93.3017373 43.9195079,96.5270581 40.0625081,98.5099822 C36.2045159,100.494871 29.9958078,100.496835 26.2211674,98.5148928" id="Fill-42" fill="#ED9851"></path>
                            <path d="M160.221167,98.5148928 L156,96.2982214 L159.303307,94.6001155 L163.525466,96.816787 C165.516976,97.8617752 168.794483,97.8607931 170.829654,96.8138406 C172.865816,95.7668881 172.901538,94.0648537 170.909036,93.0188833 L166.489412,90.6981059 L169.792719,89 L174.213335,91.3197953 C177.986983,93.3017373 177.919508,96.5270581 174.062508,98.5099822 C170.204516,100.494871 163.995808,100.496835 160.221167,98.5148928" id="Fill-42-Copy" fill="#ED9851"></path>
                            <polyline id="Fill-43" fill="#ED9851" points="42.7588706 102 28 93.770908 31.2411294 92 46 100.230116 42.7588706 102"></polyline>
                            <polyline id="Fill-43-Copy" fill="#ED9851" points="176.758871 102 162 93.770908 165.241129 92 180 100.230116 176.758871 102"></polyline>
                            <polyline id="Fill-44" fill="#ED9851" points="47.7590459 99 33 90.7698843 36.2409541 89 51 97.229092 47.7590459 99"></polyline>
                            <polyline id="Fill-44-Copy" fill="#ED9851" points="181.759046 99 167 90.7698843 170.240954 89 185 97.229092 181.759046 99"></polyline>
                            <polyline id="Fill-45" fill="#ED9851" points="25.4627329 106 27 96.1782014 22.194617 96 21 103.630543 25.4627329 106"></polyline>
                            <polyline id="Fill-45-Copy" fill="#ED9851" points="159.462733 106 161 96.1782014 156.194617 96 155 103.630543 159.462733 106"></polyline>
                            <path d="M0,92.999498 C0,99.6844607 8.21447986,105.433649 20,108 L20,78 C8.21447986,80.5663509 0,86.3155393 0,92.999498" id="Fill-46" fill="#ED9851"></path>
                            <path d="M134,92.999498 C134,99.6844607 142.21448,105.433649 154,108 L154,78 C142.21448,80.5663509 134,86.3155393 134,92.999498" id="Fill-46-Copy" fill="#ED9851"></path>
                            <path d="M30,77.1795616 L30,109.821447 C31.3111361,109.921316 32.6420697,109.987895 34,110 L34,77 C32.6420697,77.0121053 31.3111361,77.0786843 30,77.1795616" id="Fill-47" fill="#ED9851"></path>
                            <path d="M164,77.1795616 L164,109.821447 C165.311136,109.921316 166.64207,109.987895 168,110 L168,77 C166.64207,77.0121053 165.311136,77.0786843 164,77.1795616" id="Fill-47-Copy" fill="#ED9851"></path>
                            <polygon id="Fill-48" fill="#ED9851" points="0 95 68 95 68 87 0 87"></polygon>
                            <polygon id="Fill-48-Copy" fill="#ED9851" points="134 95 202 95 202 87 134 87"></polygon>
                            <path d="M68,93 C68,87.6659082 62.4885606,82.9381873 54,80 L54,106 C62.4885606,103.062799 68,98.3350777 68,93" id="Fill-49" fill="#ED9851"></path>
                            <path d="M202,93 C202,87.6659082 196.488561,82.9381873 188,80 L188,106 C196.488561,103.062799 202,98.3350777 202,93" id="Fill-49-Copy" fill="#ED9851"></path>
                            <path d="M20,78.225292 L20,107.773719 C22.8143581,108.375981 25.8437569,108.782434 29,109 L29,77 C25.8437569,77.216577 22.8143581,77.6230299 20,78.225292" id="Fill-50" fill="#F1AD6F"></path>
                            <path d="M154,78.225292 L154,107.773719 C156.814358,108.375981 159.843757,108.782434 163,109 L163,77 C159.843757,77.216577 156.814358,77.6230299 154,78.225292" id="Fill-50-Copy" fill="#F1AD6F"></path>
                            <path d="M34.4357015,77 C34.2884364,77 34.1462495,77.0070575 34,77.009074 L34,109.990926 C34.1462495,109.991934 34.2884364,110 34.4357015,110 C42.1330947,110 49.2434589,108.807278 55,106.792857 L55,80.2061349 C49.2434589,78.1917143 42.1330947,77 34.4357015,77" id="Fill-51" fill="#F1AD6F"></path>
                            <path d="M168.435702,77 C168.288436,77 168.146249,77.0070575 168,77.009074 L168,109.990926 C168.146249,109.991934 168.288436,110 168.435702,110 C176.133095,110 183.243459,108.807278 189,106.792857 L189,80.2061349 C183.243459,78.1917143 176.133095,77 168.435702,77" id="Fill-51-Copy" fill="#F1AD6F"></path>
                            <path d="M68,88.5 C68,97.6130087 52.7775146,105 34,105 C15.2224854,105 0,97.6130087 0,88.5 C0,79.3879995 15.2224854,72 34,72 C52.7775146,72 68,79.3879995 68,88.5" id="Fill-52" fill="#D37C34"></path>
                            <path d="M202,88.5 C202,97.6130087 186.777515,105 168,105 C149.222485,105 134,97.6130087 134,88.5 C134,79.3879995 149.222485,72 168,72 C186.777515,72 202,79.3879995 202,88.5" id="Fill-52-Copy" fill="#D37C34"></path>
                            <path d="M68,87.5005041 C68,96.612783 52.7775146,104 34,104 C15.2224854,104 0,96.612783 0,87.5005041 C0,78.387217 15.2224854,71 34,71 C52.7775146,71 68,78.387217 68,87.5005041" id="Fill-53" fill="#FFD15E"></path>
                            <path d="M202,87.5005041 C202,96.612783 186.777515,104 168,104 C149.222485,104 134,96.612783 134,87.5005041 C134,78.387217 149.222485,71 168,71 C186.777515,71 202,78.387217 202,87.5005041" id="Fill-53-Copy" fill="#FFD15E"></path>
                            <path d="M61,87.5009917 C61,94.4045541 48.9119448,100 34.0004966,100 C19.0880552,100 7,94.4045541 7,87.5009917 C7,80.5974294 19.0880552,75 34.0004966,75 C48.9119448,75 61,80.5974294 61,87.5009917" id="Fill-54" fill="#F9DA6D"></path>
                            <path d="M195,87.5009917 C195,94.4045541 182.911945,100 168.000497,100 C153.088055,100 141,94.4045541 141,87.5009917 C141,80.5974294 153.088055,75 168.000497,75 C182.911945,75 195,80.5974294 195,87.5009917" id="Fill-54-Copy" fill="#F9DA6D"></path>
                            <path d="M26.2211674,88.5164323 L22,86.2998598 L25.3033066,84.5998655 L29.5254662,86.816438 C31.516976,87.8623617 34.7944833,87.8613796 36.8296535,86.8144738 C38.865816,85.7675681 38.9015382,84.0646276 36.9090361,83.019686 L32.4894123,80.6990122 L35.7927189,79 L40.2133349,81.3196917 C43.9869831,83.3015452 43.9195079,86.5267221 40.0625081,88.5115218 C36.2045159,90.4943574 29.9958078,90.4963216 26.2211674,88.5164323" id="Fill-55" fill="#ED9851"></path>
                            <path d="M160.221167,88.5164323 L156,86.2998598 L159.303307,84.5998655 L163.525466,86.816438 C165.516976,87.8623617 168.794483,87.8613796 170.829654,86.8144738 C172.865816,85.7675681 172.901538,84.0646276 170.909036,83.019686 L166.489412,80.6990122 L169.792719,79 L174.213335,81.3196917 C177.986983,83.3015452 177.919508,86.5267221 174.062508,88.5115218 C170.204516,90.4943574 163.995808,90.4963216 160.221167,88.5164323" id="Fill-55-Copy" fill="#ED9851"></path>
                            <polyline id="Fill-56" fill="#ED9851" points="42.7588706 91 28 82.7698843 31.2411294 81 46 89.229092 42.7588706 91"></polyline>
                            <polyline id="Fill-56-Copy" fill="#ED9851" points="176.758871 91 162 82.7698843 165.241129 81 180 89.229092 176.758871 91"></polyline>
                            <polyline id="Fill-57" fill="#ED9851" points="47.7590459 89 33 80.7707267 36.2409541 79 51 87.2292733 47.7590459 89"></polyline>
                            <polyline id="Fill-57-Copy" fill="#ED9851" points="181.759046 89 167 80.7707267 170.240954 79 185 87.2292733 181.759046 89"></polyline>
                            <polyline id="Fill-58" fill="#ED9851" points="25.4627329 96 27 86.1792189 22.194617 86 21 93.6318243 25.4627329 96"></polyline>
                            <polyline id="Fill-58-Copy" fill="#ED9851" points="159.462733 96 161 86.1792189 156.194617 86 155 93.6318243 159.462733 96"></polyline>
                            <path d="M0,82.999498 C0,89.6844607 8.21447986,95.4336491 20,98 L20,68 C8.21447986,70.5663509 0,76.3145353 0,82.999498" id="Fill-59" fill="#ED9851"></path>
                            <path d="M134,82.999498 C134,89.6844607 142.21448,95.4336491 154,98 L154,68 C142.21448,70.5663509 134,76.3145353 134,82.999498" id="Fill-59-Copy" fill="#ED9851"></path>
                            <path d="M30,67.1785529 L30,99.8204384 C31.3111361,99.9213157 32.6420697,99.9878947 34,100 L34,67 C32.6420697,67.0110965 31.3111361,67.0776755 30,67.1785529" id="Fill-60" fill="#ED9851"></path>
                            <path d="M164,67.1785529 L164,99.8204384 C165.311136,99.9213157 166.64207,99.9878947 168,100 L168,67 C166.64207,67.0110965 165.311136,67.0776755 164,67.1785529" id="Fill-60-Copy" fill="#ED9851"></path>
                            <polygon id="Fill-61" fill="#ED9851" points="0 85 68 85 68 77 0 77"></polygon>
                            <polygon id="Fill-61-Copy" fill="#ED9851" points="134 85 202 85 202 77 134 77"></polygon>
                            <path d="M68,82.999507 C68,77.6652129 62.4885606,72.9373128 54,70 L54,96 C62.4885606,93.0617012 68,88.3338011 68,82.999507" id="Fill-62" fill="#ED9851"></path>
                            <path d="M202,82.999507 C202,77.6652129 196.488561,72.9373128 188,70 L188,96 C196.488561,93.0617012 202,88.3338011 202,82.999507" id="Fill-62-Copy" fill="#ED9851"></path>
                            <path d="M20,68.226281 L20,97.774708 C22.8143581,98.3759812 25.8437569,98.782434 29,99 L29,67 C25.8437569,67.217566 22.8143581,67.6240188 20,68.226281" id="Fill-63" fill="#F1AD6F"></path>
                            <path d="M154,68.226281 L154,97.774708 C156.814358,98.3759812 159.843757,98.782434 163,99 L163,67 C159.843757,67.217566 156.814358,67.6240188 154,68.226281" id="Fill-63-Copy" fill="#F1AD6F"></path>
                            <path d="M34.4357015,67 C34.2884364,67 34.1462495,67.008066 34,67.0090742 L34,99.991934 C34.1462495,99.9929423 34.2884364,100 34.4357015,100 C42.1330947,100 49.2434589,98.8082493 55,96.7937672 L55,70.2072411 C49.2434589,68.1927589 42.1330947,67 34.4357015,67" id="Fill-64" fill="#F1AD6F"></path>
                            <path d="M168.435702,67 C168.288436,67 168.146249,67.008066 168,67.0090742 L168,99.991934 C168.146249,99.9929423 168.288436,100 168.435702,100 C176.133095,100 183.243459,98.8082493 189,96.7937672 L189,70.2072411 C183.243459,68.1927589 176.133095,67 168.435702,67" id="Fill-64-Copy" fill="#F1AD6F"></path>
                            <path d="M68,78.5 C68,87.6125573 52.7775146,95 34,95 C15.2224854,95 0,87.6125573 0,78.5 C0,69.3874427 15.2224854,62 34,62 C52.7775146,62 68,69.3874427 68,78.5" id="Fill-65" fill="#D37C34"></path>
                            <path d="M202,78.5 C202,87.6125573 186.777515,95 168,95 C149.222485,95 134,87.6125573 134,78.5 C134,69.3874427 149.222485,62 168,62 C186.777515,62 202,69.3874427 202,78.5" id="Fill-65-Copy" fill="#D37C34"></path>
                            <path d="M68,77.4994959 C68,86.6117748 52.7775146,94 34,94 C15.2224854,94 0,86.6117748 0,77.4994959 C0,68.387217 15.2224854,61 34,61 C52.7775146,61 68,68.387217 68,77.4994959" id="Fill-66" fill="#FFD15E"></path>
                            <path d="M202,77.4994959 C202,86.6117748 186.777515,94 168,94 C149.222485,94 134,86.6117748 134,77.4994959 C134,68.387217 149.222485,61 168,61 C186.777515,61 202,68.387217 202,77.4994959" id="Fill-66-Copy" fill="#FFD15E"></path>
                            <path d="M61,77.4995041 C61,84.4033403 48.9119448,90 34.0004966,90 C19.0880552,90 7,84.4033403 7,77.4995041 C7,70.5956679 19.0880552,65 34.0004966,65 C48.9119448,65 61,70.5956679 61,77.4995041" id="Fill-67" fill="#F9DA6D"></path>
                            <path d="M195,77.4995041 C195,84.4033403 182.911945,90 168.000497,90 C153.088055,90 141,84.4033403 141,77.4995041 C141,70.5956679 153.088055,65 168.000497,65 C182.911945,65 195,70.5956679 195,77.4995041" id="Fill-67-Copy" fill="#F9DA6D"></path>
                            <path d="M26.2211674,78.5150254 L22,76.2985519 L25.3033066,74.6005976 L29.5254662,76.8160891 C31.516976,77.8619661 34.7944833,77.860984 36.8296535,76.814125 C38.865816,75.7662839 38.9015382,74.0653835 36.9090361,73.0185245 L32.4894123,70.6989363 L35.7927189,69 L40.2133349,71.3205702 C43.9869831,73.3013532 43.9195079,76.5273681 40.0625081,78.5101152 C36.2045159,80.4948264 29.9958078,80.4967904 26.2211674,78.5150254" id="Fill-68" fill="#ED9851"></path>
                            <path d="M160.221167,78.5150254 L156,76.2985519 L159.303307,74.6005976 L163.525466,76.8160891 C165.516976,77.8619661 168.794483,77.860984 170.829654,76.814125 C172.865816,75.7662839 172.901538,74.0653835 170.909036,73.0185245 L166.489412,70.6989363 L169.792719,69 L174.213335,71.3205702 C177.986983,73.3013532 177.919508,76.5273681 174.062508,78.5101152 C170.204516,80.4948264 163.995808,80.4967904 160.221167,78.5150254" id="Fill-68-Copy" fill="#ED9851"></path>
                            <polyline id="Fill-69" fill="#ED9851" points="42.7588706 81 28 72.7707267 31.2411294 71 46 79.2292733 42.7588706 81"></polyline>
                            <polyline id="Fill-69-Copy" fill="#ED9851" points="176.758871 81 162 72.7707267 165.241129 71 180 79.2292733 176.758871 81"></polyline>
                            <polyline id="Fill-70" fill="#ED9851" points="47.7590459 79 33 70.7707267 36.2409541 69 51 77.2292733 47.7590459 79"></polyline>
                            <polyline id="Fill-70-Copy" fill="#ED9851" points="181.759046 79 167 70.7707267 170.240954 69 185 77.2292733 181.759046 79"></polyline>
                            <polyline id="Fill-71" fill="#ED9851" points="25.4627329 86 27 76.1782014 22.194617 76 21 83.6305429 25.4627329 86"></polyline>
                            <polyline id="Fill-71-Copy" fill="#ED9851" points="159.462733 86 161 76.1782014 156.194617 76 155 83.6305429 159.462733 86"></polyline>
                            <path d="M0,73.000502 C0,79.6854647 8.21447986,85.432645 20,88 L20,58 C8.21447986,60.5663509 0,66.3145353 0,73.000502" id="Fill-163" fill="#ED9851"></path>
                            <path d="M134,73.000502 C134,79.6854647 142.21448,85.432645 154,88 L154,58 C142.21448,60.5663509 134,66.3145353 134,73.000502" id="Fill-163-Copy" fill="#ED9851"></path>
                            <path d="M30,57.1795616 L30,89.8204384 C31.3111361,89.9213157 32.6420697,89.9868859 34,90 L34,57 C32.6420697,57.0121053 31.3111361,57.0776755 30,57.1795616" id="Fill-164" fill="#ED9851"></path>
                            <path d="M164,57.1795616 L164,89.8204384 C165.311136,89.9213157 166.64207,89.9868859 168,90 L168,57 C166.64207,57.0121053 165.311136,57.0776755 164,57.1795616" id="Fill-164-Copy" fill="#ED9851"></path>
                            <polygon id="Fill-165" fill="#ED9851" points="0 74 68 74 68 66 0 66"></polygon>
                            <polygon id="Fill-165-Copy" fill="#ED9851" points="134 74 202 74 202 66 134 66"></polygon>
                            <path d="M68,73.000986 C68,67.6649223 62.4885606,62.9372014 54,60 L54,86 C62.4885606,83.0627986 68,78.3350777 68,73.000986" id="Fill-166" fill="#ED9851"></path>
                            <path d="M202,73.000986 C202,67.6649223 196.488561,62.9372014 188,60 L188,86 C196.488561,83.0627986 202,78.3350777 202,73.000986" id="Fill-166-Copy" fill="#ED9851"></path>
                            <path d="M20,58.2253299 L20,87.7746701 C22.8143581,88.3759619 25.8437569,88.7834163 29,89 L29,57 C25.8437569,57.2175727 22.8143581,57.6230491 20,58.2253299" id="Fill-167" fill="#F1AD6F"></path>
                            <path d="M154,58.2253299 L154,87.7746701 C156.814358,88.3759619 159.843757,88.7834163 163,89 L163,57 C159.843757,57.2175727 156.814358,57.6230491 154,58.2253299" id="Fill-167-Copy" fill="#F1AD6F"></path>
                            <path d="M34.4357015,57 C34.2884364,57 34.1462495,57.0080655 34,57.0100819 L34,89.9909263 C34.1462495,89.9919345 34.2884364,90 34.4357015,90 C42.1330947,90 49.2434589,88.8073139 55,86.7929549 L55,60.2070451 C49.2434589,58.1926861 42.1330947,57 34.4357015,57" id="Fill-168" fill="#F1AD6F"></path>
                            <path d="M168.435702,57 C168.288436,57 168.146249,57.0080655 168,57.0100819 L168,89.9909263 C168.146249,89.9919345 168.288436,90 168.435702,90 C176.133095,90 183.243459,88.8073139 189,86.7929549 L189,60.2070451 C183.243459,58.1926861 176.133095,57 168.435702,57" id="Fill-168-Copy" fill="#F1AD6F"></path>
                            <path d="M68,68.4989918 C68,77.6120005 52.7775146,85 34,85 C15.2224854,85 0,77.6120005 0,68.4989918 C0,59.3869913 15.2224854,52 34,52 C52.7775146,52 68,59.3869913 68,68.4989918" id="Fill-169" fill="#D37C34"></path>
                            <path d="M202,68.4989918 C202,77.6120005 186.777515,85 168,85 C149.222485,85 134,77.6120005 134,68.4989918 C134,59.3869913 149.222485,52 168,52 C186.777515,52 202,59.3869913 202,68.4989918" id="Fill-169-Copy" fill="#D37C34"></path>
                            <path d="M68,67.5010082 C68,76.6130087 52.7775146,84 34,84 C15.2224854,84 0,76.6130087 0,67.5010082 C0,58.3879995 15.2224854,51 34,51 C52.7775146,51 68,58.3879995 68,67.5010082" id="Fill-170" fill="#FFD15E"></path>
                            <path d="M202,67.5010082 C202,76.6130087 186.777515,84 168,84 C149.222485,84 134,76.6130087 134,67.5010082 C134,58.3879995 149.222485,51 168,51 C186.777515,51 202,58.3879995 202,67.5010082" id="Fill-170-Copy" fill="#FFD15E"></path>
                            <path d="M61,67.5009917 C61,74.4045541 48.9119448,80 34.0004966,80 C19.0880552,80 7,74.4045541 7,67.5009917 C7,60.5974294 19.0880552,55 34.0004966,55 C48.9119448,55 61,60.5974294 61,67.5009917" id="Fill-171" fill="#F9DA6D"></path>
                            <path d="M195,67.5009917 C195,74.4045541 182.911945,80 168.000497,80 C153.088055,80 141,74.4045541 141,67.5009917 C141,60.5974294 153.088055,55 168.000497,55 C182.911945,55 195,60.5974294 195,67.5009917" id="Fill-171-Copy" fill="#F9DA6D"></path>
                            <path d="M26.2211674,68.5156626 L22,66.2990406 L25.3033066,64.5999905 L29.5254662,66.8166125 C31.516976,67.8625595 34.7944833,67.8605953 36.8296535,66.8146483 C38.865816,65.766737 38.9015382,64.0647406 36.9090361,63.0197757 L32.4894123,60.6990501 L35.7927189,59 L40.2133349,61.3197435 C43.9869831,63.3016412 43.9195079,66.5268901 40.0625081,68.510752 C36.2045159,70.494614 29.9958078,70.4965782 26.2211674,68.5156626" id="Fill-172" fill="#ED9851"></path>
                            <path d="M160.221167,68.5156626 L156,66.2990406 L159.303307,64.5999905 L163.525466,66.8166125 C165.516976,67.8625595 168.794483,67.8605953 170.829654,66.8146483 C172.865816,65.766737 172.901538,64.0647406 170.909036,63.0197757 L166.489412,60.6990501 L169.792719,59 L174.213335,61.3197435 C177.986983,63.3016412 177.919508,66.5268901 174.062508,68.510752 C170.204516,70.494614 163.995808,70.4965782 160.221167,68.5156626" id="Fill-172-Copy" fill="#ED9851"></path>
                            <polyline id="Fill-173" fill="#ED9851" points="42.7588706 71 28 62.7698843 31.2411294 61 46 69.229092 42.7588706 71"></polyline>
                            <polyline id="Fill-173-Copy" fill="#ED9851" points="176.758871 71 162 62.7698843 165.241129 61 180 69.229092 176.758871 71"></polyline>
                            <polyline id="Fill-174" fill="#ED9851" points="47.7590459 68 33 59.770908 36.2409541 58 51 66.2301157 47.7590459 68"></polyline>
                            <polyline id="Fill-174-Copy" fill="#ED9851" points="181.759046 68 167 59.770908 170.240954 58 185 66.2301157 181.759046 68"></polyline>
                            <polyline id="Fill-175" fill="#ED9851" points="25.4627329 76 27 66.1792189 22.194617 66 21 73.6307884 25.4627329 76"></polyline>
                            <polyline id="Fill-175-Copy" fill="#ED9851" points="159.462733 76 161 66.1792189 156.194617 66 155 73.6307884 159.462733 76"></polyline>
                            <path d="M0,63.000502 C0,69.6854647 8.21447986,75.4346531 20,78 L20,48 C8.21447986,50.5663509 0,56.3155393 0,63.000502" id="Fill-176" fill="#ED9851"></path>
                            <path d="M134,63.000502 C134,69.6854647 142.21448,75.4346531 154,78 L154,48 C142.21448,50.5663509 134,56.3155393 134,63.000502" id="Fill-176-Copy" fill="#ED9851"></path>
                            <path d="M30,47.1795616 L30,79.8214471 C31.3111361,79.9223245 32.6420697,79.9889035 34,80 L34,47 C32.6420697,47.0121053 31.3111361,47.0786843 30,47.1795616" id="Fill-177" fill="#ED9851"></path>
                            <path d="M164,47.1795616 L164,79.8214471 C165.311136,79.9223245 166.64207,79.9889035 168,80 L168,47 C166.64207,47.0121053 165.311136,47.0786843 164,47.1795616" id="Fill-177-Copy" fill="#ED9851"></path>
                            <polygon id="Fill-178" fill="#ED9851" points="0 64 68 64 68 56 0 56"></polygon>
                            <polygon id="Fill-178-Copy" fill="#ED9851" points="134 64 202 64 202 56 134 56"></polygon>
                            <path d="M68,63.000493 C68,57.6661989 62.4885606,52.9382988 54,50 L54,76 C62.4885606,73.0626872 68,68.3347871 68,63.000493" id="Fill-179" fill="#ED9851"></path>
                            <path d="M202,63.000493 C202,57.6661989 196.488561,52.9382988 188,50 L188,76 C196.488561,73.0626872 202,68.3347871 202,63.000493" id="Fill-179-Copy" fill="#ED9851"></path>
                            <path d="M20,48.225292 L20,77.773719 C22.8143581,78.3759812 25.8437569,78.782434 29,79 L29,47 C25.8437569,47.217566 22.8143581,47.6240188 20,48.225292" id="Fill-180" fill="#F1AD6F"></path>
                            <path d="M154,48.225292 L154,77.773719 C156.814358,78.3759812 159.843757,78.782434 163,79 L163,47 C159.843757,47.217566 156.814358,47.6240188 154,48.225292" id="Fill-180-Copy" fill="#F1AD6F"></path>
                            <path d="M34.4357015,47 C34.2884364,47 34.1462495,47.0070577 34,47.008066 L34,79.9909258 C34.1462495,79.991934 34.2884364,80 34.4357015,80 C42.1330947,80 49.2434589,78.8082493 55,76.7927589 L55,50.2062328 C49.2434589,48.1917507 42.1330947,47 34.4357015,47" id="Fill-181" fill="#F1AD6F"></path>
                            <path d="M168.435702,47 C168.288436,47 168.146249,47.0070577 168,47.008066 L168,79.9909258 C168.146249,79.991934 168.288436,80 168.435702,80 C176.133095,80 183.243459,78.8082493 189,76.7927589 L189,50.2062328 C183.243459,48.1917507 176.133095,47 168.435702,47" id="Fill-181-Copy" fill="#F1AD6F"></path>
                            <path d="M68,58.5 C68,67.6125573 52.7775146,75 34,75 C15.2224854,75 0,67.6125573 0,58.5 C0,49.3874427 15.2224854,42 34,42 C52.7775146,42 68,49.3874427 68,58.5" id="Fill-182" fill="#D37C34"></path>
                            <path d="M202,58.5 C202,67.6125573 186.777515,75 168,75 C149.222485,75 134,67.6125573 134,58.5 C134,49.3874427 149.222485,42 168,42 C186.777515,42 202,49.3874427 202,58.5" id="Fill-182-Copy" fill="#D37C34"></path>
                            <path d="M68,56.5 C68,65.6125573 52.7775146,73 34,73 C15.2224854,73 0,65.6125573 0,56.5 C0,47.3874427 15.2224854,40 34,40 C52.7775146,40 68,47.3874427 68,56.5" id="Fill-183" fill="#FFD15E"></path>
                            <path d="M202,56.5 C202,65.6125573 186.777515,73 168,73 C149.222485,73 134,65.6125573 134,56.5 C134,47.3874427 149.222485,40 168,40 C186.777515,40 202,47.3874427 202,56.5" id="Fill-183-Copy" fill="#FFD15E"></path>
                            <path d="M61,56.4995041 C61,63.4033403 48.9119448,69 34.0004966,69 C19.0880552,69 7,63.4033403 7,56.4995041 C7,49.5956679 19.0880552,44 34.0004966,44 C48.9119448,44 61,49.5956679 61,56.4995041" id="Fill-184" fill="#F9DA6D"></path>
                            <path d="M195,56.4995041 C195,63.4033403 182.911945,69 168.000497,69 C153.088055,69 141,63.4033403 141,56.4995041 C141,49.5956679 153.088055,44 168.000497,44 C182.911945,44 195,49.5956679 195,56.4995041" id="Fill-184-Copy" fill="#F9DA6D"></path>
                            <path d="M26.2211674,57.5156626 L22,55.2990406 L25.3033066,53.5999905 L29.5254662,55.8166125 C31.516976,56.8625595 34.7944833,56.8615774 36.8296535,55.8136662 C38.865816,54.7677191 38.9015382,53.0647406 36.9090361,52.0187936 L32.4894123,49.6990501 L35.7927189,48 L40.2133349,50.3207256 C43.9869831,52.3006591 43.9195079,55.5268901 40.0625081,57.510752 C36.2045159,59.494614 29.9958078,59.4965782 26.2211674,57.5156626" id="Fill-185" fill="#ED9851"></path>
                            <path d="M160.221167,57.5156626 L156,55.2990406 L159.303307,53.5999905 L163.525466,55.8166125 C165.516976,56.8625595 168.794483,56.8615774 170.829654,55.8136662 C172.865816,54.7677191 172.901538,53.0647406 170.909036,52.0187936 L166.489412,49.6990501 L169.792719,48 L174.213335,50.3207256 C177.986983,52.3006591 177.919508,55.5268901 174.062508,57.510752 C170.204516,59.494614 163.995808,59.4965782 160.221167,57.5156626" id="Fill-185-Copy" fill="#ED9851"></path>
                            <polyline id="Fill-186" fill="#ED9851" points="42.7588706 61 28 52.7707267 31.2411294 51 46 59.2292733 42.7588706 61"></polyline>
                            <polyline id="Fill-186-Copy" fill="#ED9851" points="176.758871 61 162 52.7707267 165.241129 51 180 59.2292733 176.758871 61"></polyline>
                            <polyline id="Fill-187" fill="#ED9851" points="47.7590459 58 33 49.7707267 36.2409541 48 51 56.2282497 47.7590459 58"></polyline>
                            <polyline id="Fill-187-Copy" fill="#ED9851" points="181.759046 58 167 49.7707267 170.240954 48 185 56.2282497 181.759046 58"></polyline>
                            <polyline id="Fill-188" fill="#ED9851" points="25.4627329 66 27 56.1771654 22.194617 56 21 63.6305429 25.4627329 66"></polyline>
                            <polyline id="Fill-188-Copy" fill="#ED9851" points="159.462733 66 161 56.1771654 156.194617 56 155 63.6305429 159.462733 66"></polyline>
                            <path d="M0,53 C0,59.6851864 8.21447986,65.4335632 20,68 L20,38 C8.21447986,40.5654328 0,46.3148136 0,53" id="Fill-189" fill="#ED9851"></path>
                            <path d="M134,53 C134,59.6851864 142.21448,65.4335632 154,68 L154,38 C142.21448,40.5654328 134,46.3148136 134,53" id="Fill-189-Copy" fill="#ED9851"></path>
                            <path d="M30,36.1795616 L30,68.8204384 C31.3111361,68.9213157 32.6420697,68.9868859 34,69 L34,36 C32.6420697,36.0121053 31.3111361,36.0776755 30,36.1795616" id="Fill-190" fill="#ED9851"></path>
                            <path d="M164,36.1795616 L164,68.8204384 C165.311136,68.9213157 166.64207,68.9868859 168,69 L168,36 C166.64207,36.0121053 165.311136,36.0776755 164,36.1795616" id="Fill-190-Copy" fill="#ED9851"></path>
                            <polygon id="Fill-191" fill="#ED9851" points="0 54 68 54 68 46 0 46"></polygon>
                            <polygon id="Fill-191-Copy" fill="#ED9851" points="134 54 202 54 202 46 134 46"></polygon>
                            <path d="M68,53 C68,47.6649223 62.4885606,42.9372014 54,40 L54,66 C62.4885606,63.0618127 68,58.3340918 68,53" id="Fill-192" fill="#ED9851"></path>
                            <path d="M202,53 C202,47.6649223 196.488561,42.9372014 188,40 L188,66 C196.488561,63.0618127 202,58.3340918 202,53" id="Fill-192-Copy" fill="#ED9851"></path>
                            <path d="M20,38.2253299 L20,67.7736811 C22.8143581,68.3759619 25.8437569,68.7824273 29,69 L29,37 C25.8437569,37.2165837 22.8143581,37.6220601 20,38.2253299" id="Fill-193" fill="#F1AD6F"></path>
                            <path d="M154,38.2253299 L154,67.7736811 C156.814358,68.3759619 159.843757,68.7824273 163,69 L163,37 C159.843757,37.2165837 156.814358,37.6220601 154,38.2253299" id="Fill-193-Copy" fill="#F1AD6F"></path>
                            <path d="M34.4357015,36 C34.2884364,36 34.1462495,36.0080657 34,36.0100822 L34,68.9919343 C34.1462495,68.9929425 34.2884364,69 34.4357015,69 C42.1330947,69 49.2434589,67.8082857 55,65.7938651 L55,39.2071431 C49.2434589,37.1927225 42.1330947,36 34.4357015,36" id="Fill-194" fill="#F1AD6F"></path>
                            <path d="M168.435702,36 C168.288436,36 168.146249,36.0080657 168,36.0100822 L168,68.9919343 C168.146249,68.9929425 168.288436,69 168.435702,69 C176.133095,69 183.243459,67.8082857 189,65.7938651 L189,39.2071431 C183.243459,37.1927225 176.133095,36 168.435702,36" id="Fill-194-Copy" fill="#F1AD6F"></path>
                            <path d="M68,48.4994959 C68,57.612783 52.7775146,65 34,65 C15.2224854,65 0,57.612783 0,48.4994959 C0,39.387217 15.2224854,32 34,32 C52.7775146,32 68,39.387217 68,48.4994959" id="Fill-195" fill="#D37C34"></path>
                            <path d="M202,48.4994959 C202,57.612783 186.777515,65 168,65 C149.222485,65 134,57.612783 134,48.4994959 C134,39.387217 149.222485,32 168,32 C186.777515,32 202,39.387217 202,48.4994959" id="Fill-195-Copy" fill="#D37C34"></path>
                            <path d="M68,46.5 C68,55.6130087 52.7775146,63 34,63 C15.2224854,63 0,55.6130087 0,46.5 C0,37.3869913 15.2224854,30 34,30 C52.7775146,30 68,37.3869913 68,46.5" id="Fill-196" fill="#FFD15E"></path>
                            <path d="M202,46.5 C202,55.6130087 186.777515,63 168,63 C149.222485,63 134,55.6130087 134,46.5 C134,37.3869913 149.222485,30 168,30 C186.777515,30 202,37.3869913 202,46.5" id="Fill-196-Copy" fill="#FFD15E"></path>
                            <path d="M61,46.5 C61,53.4035624 48.9119448,59 34.0004966,59 C19.0880552,59 7,53.4035624 7,46.5 C7,39.5964376 19.0880552,34 34.0004966,34 C48.9119448,34 61,39.5964376 61,46.5" id="Fill-197" fill="#F9DA6D"></path>
                            <path d="M195,46.5 C195,53.4035624 182.911945,59 168.000497,59 C153.088055,59 141,53.4035624 141,46.5 C141,39.5964376 153.088055,34 168.000497,34 C182.911945,34 195,39.5964376 195,46.5" id="Fill-197-Copy" fill="#F9DA6D"></path>
                            <path d="M26.2211674,47.5156626 L22,45.2990406 L25.3033066,43.5999905 L29.5254662,45.8166125 C31.516976,46.8615774 34.7944833,46.8605953 36.8296535,45.8146483 C38.865816,44.766737 38.9015382,43.0647406 36.9090361,42.0187936 L32.4894123,39.6990501 L35.7927189,38 L40.2133349,40.3197435 C43.9869831,42.3006591 43.9195079,45.5268901 40.0625081,47.510752 C36.2045159,49.494614 29.9958078,49.4965782 26.2211674,47.5156626" id="Fill-198" fill="#ED9851"></path>
                            <path d="M160.221167,47.5156626 L156,45.2990406 L159.303307,43.5999905 L163.525466,45.8166125 C165.516976,46.8615774 168.794483,46.8605953 170.829654,45.8146483 C172.865816,44.766737 172.901538,43.0647406 170.909036,42.0187936 L166.489412,39.6990501 L169.792719,38 L174.213335,40.3197435 C177.986983,42.3006591 177.919508,45.5268901 174.062508,47.510752 C170.204516,49.494614 163.995808,49.4965782 160.221167,47.5156626" id="Fill-198-Copy" fill="#ED9851"></path>
                            <polyline id="Fill-199" fill="#ED9851" points="42.7588706 51 28 42.7715689 31.2411294 41 46 49.2284311 42.7588706 51"></polyline>
                            <polyline id="Fill-199-Copy" fill="#ED9851" points="176.758871 51 162 42.7715689 165.241129 41 180 49.2284311 176.758871 51"></polyline>
                            <polyline id="Fill-200" fill="#ED9851" points="47.7590459 48 33 39.770908 36.2409541 38 51 46.2301157 47.7590459 48"></polyline>
                            <polyline id="Fill-200-Copy" fill="#ED9851" points="181.759046 48 167 39.770908 170.240954 38 185 46.2301157 181.759046 48"></polyline>
                            <polyline id="Fill-201" fill="#ED9851" points="25.4627329 56 27 46.1792375 22.194617 46 21 53.6315789 25.4627329 56"></polyline>
                            <polyline id="Fill-201-Copy" fill="#ED9851" points="159.462733 56 161 46.1792375 156.194617 46 155 53.6315789 159.462733 56"></polyline>
                            <path d="M0,43.000502 C0,49.6854647 8.21447986,55.4336491 20,58 L20,28 C8.21447986,30.5663509 0,36.3145353 0,43.000502" id="Fill-202" fill="#ED9851"></path>
                            <path d="M134,43.000502 C134,49.6854647 142.21448,55.4336491 154,58 L154,28 C142.21448,30.5663509 134,36.3145353 134,43.000502" id="Fill-202-Copy" fill="#ED9851"></path>
                            <path d="M30,26.1795616 L30,58.8204384 C31.3111361,58.9223245 32.6420697,58.9878947 34,59 L34,26 C32.6420697,26.0121053 31.3111361,26.0776755 30,26.1795616" id="Fill-203" fill="#ED9851"></path>
                            <path d="M164,26.1795616 L164,58.8204384 C165.311136,58.9223245 166.64207,58.9878947 168,59 L168,26 C166.64207,26.0121053 165.311136,26.0776755 164,26.1795616" id="Fill-203-Copy" fill="#ED9851"></path>
                            <polygon id="Fill-204" fill="#ED9851" points="0 44 68 44 68 36 0 36"></polygon>
                            <polygon id="Fill-204-Copy" fill="#ED9851" points="134 44 202 44 202 36 134 36"></polygon>
                            <path d="M68,43.000493 C68,37.6652129 62.4885606,32.9382988 54,30 L54,56 C62.4885606,53.0636733 68,48.3347871 68,43.000493" id="Fill-205" fill="#ED9851"></path>
                            <path d="M202,43.000493 C202,37.6652129 196.488561,32.9382988 188,30 L188,56 C196.488561,53.0636733 202,48.3347871 202,43.000493" id="Fill-205-Copy" fill="#ED9851"></path>
                            <path d="M20,28.2253299 L20,57.7746701 C22.8143581,58.3759619 25.8437569,58.7834163 29,59 L29,27 C25.8437569,27.2175727 22.8143581,27.6240381 20,28.2253299" id="Fill-206" fill="#F1AD6F"></path>
                            <path d="M154,28.2253299 L154,57.7746701 C156.814358,58.3759619 159.843757,58.7834163 163,59 L163,27 C159.843757,27.2175727 156.814358,27.6240381 154,28.2253299" id="Fill-206-Copy" fill="#F1AD6F"></path>
                            <path d="M34.4357015,26 C34.2884364,26 34.1462495,26.0080657 34,26.009074 L34,58.990926 C34.1462495,58.9919343 34.2884364,59 34.4357015,59 C42.1330947,59 49.2434589,57.8072775 55,55.7928569 L55,29.2071431 C49.2434589,27.1927225 42.1330947,26 34.4357015,26" id="Fill-207" fill="#F1AD6F"></path>
                            <path d="M168.435702,26 C168.288436,26 168.146249,26.0080657 168,26.009074 L168,58.990926 C168.146249,58.9919343 168.288436,59 168.435702,59 C176.133095,59 183.243459,57.8072775 189,55.7928569 L189,29.2071431 C183.243459,27.1927225 176.133095,26 168.435702,26" id="Fill-207-Copy" fill="#F1AD6F"></path>
                            <path d="M68,37.4994959 C68,46.612783 52.7775146,54 34,54 C15.2224854,54 0,46.612783 0,37.4994959 C0,28.387217 15.2224854,21 34,21 C52.7775146,21 68,28.387217 68,37.4994959" id="Fill-208" fill="#D37C34"></path>
                            <path d="M202,37.4994959 C202,46.612783 186.777515,54 168,54 C149.222485,54 134,46.612783 134,37.4994959 C134,28.387217 149.222485,21 168,21 C186.777515,21 202,28.387217 202,37.4994959" id="Fill-208-Copy" fill="#D37C34"></path>
                            <path d="M68,36.5 C68,45.6135655 52.7775146,53 34,53 C15.2224854,53 0,45.6135655 0,36.5 C0,27.3874427 15.2224854,20 34,20 C52.7775146,20 68,27.3874427 68,36.5" id="Fill-209" fill="#FFD15E"></path>
                            <path d="M202,36.5 C202,45.6135655 186.777515,53 168,53 C149.222485,53 134,45.6135655 134,36.5 C134,27.3874427 149.222485,20 168,20 C186.777515,20 202,27.3874427 202,36.5" id="Fill-209-Copy" fill="#FFD15E"></path>
                            <path d="M61,36.5004959 C61,43.4043321 48.9119448,49 34.0004966,49 C19.0880552,49 7,43.4043321 7,36.5004959 C7,29.5966597 19.0880552,24 34.0004966,24 C48.9119448,24 61,29.5966597 61,36.5004959" id="Fill-210" fill="#F9DA6D"></path>
                            <path d="M195,36.5004959 C195,43.4043321 182.911945,49 168.000497,49 C153.088055,49 141,43.4043321 141,36.5004959 C141,29.5966597 153.088055,24 168.000497,24 C182.911945,24 195,29.5966597 195,36.5004959" id="Fill-210-Copy" fill="#F9DA6D"></path>
                            <path d="M26.2211674,37.5147869 L22,35.2991222 L25.3033066,33.6000532 L29.5254662,35.8166999 C31.516976,36.8616765 34.7944833,36.8606944 36.8296535,35.8137536 C38.865816,34.7677949 38.9015382,33.0647973 36.9090361,32.0188386 L32.4894123,29.698087 L35.7927189,28 L40.2133349,30.3197695 C43.9869831,32.3016894 43.9195079,35.5269743 40.0625081,37.5108584 C36.2045159,39.4947426 29.9958078,39.4967068 26.2211674,37.5147869" id="Fill-211" fill="#ED9851"></path>
                            <path d="M160.221167,37.5147869 L156,35.2991222 L159.303307,33.6000532 L163.525466,35.8166999 C165.516976,36.8616765 168.794483,36.8606944 170.829654,35.8137536 C172.865816,34.7677949 172.901538,33.0647973 170.909036,32.0188386 L166.489412,29.698087 L169.792719,28 L174.213335,30.3197695 C177.986983,32.3016894 177.919508,35.5269743 174.062508,37.5108584 C170.204516,39.4947426 163.995808,39.4967068 160.221167,37.5147869" id="Fill-211-Copy" fill="#ED9851"></path>
                            <polyline id="Fill-212" fill="#ED9851" points="42.7588706 41 28 32.7698843 31.2411294 31 46 39.2301157 42.7588706 41"></polyline>
                            <polyline id="Fill-212-Copy" fill="#ED9851" points="176.758871 41 162 32.7698843 165.241129 31 180 39.2301157 176.758871 41"></polyline>
                            <polyline id="Fill-213" fill="#ED9851" points="47.7590459 38 33 29.7698843 36.2409541 28 51 36.229092 47.7590459 38"></polyline>
                            <polyline id="Fill-213-Copy" fill="#ED9851" points="181.759046 38 167 29.7698843 170.240954 28 185 36.229092 181.759046 38"></polyline>
                            <polyline id="Fill-214" fill="#ED9851" points="25.4627329 45 27 35.1781829 22.194617 35 21 42.6307884 25.4627329 45"></polyline>
                            <polyline id="Fill-214-Copy" fill="#ED9851" points="159.462733 45 161 35.1781829 156.194617 35 155 42.6307884 159.462733 45"></polyline>
                            <path d="M0,33 C0,39.6851864 8.21447986,45.4335632 20,48 L20,18 C8.21447986,20.5654328 0,26.3148136 0,33" id="Fill-215" fill="#ED9851"></path>
                            <path d="M134,33 C134,39.6851864 142.21448,45.4335632 154,48 L154,18 C142.21448,20.5654328 134,26.3148136 134,33" id="Fill-215-Copy" fill="#ED9851"></path>
                            <path d="M30,16.1785583 L30,48.8214417 C31.3111361,48.9213133 32.6420697,48.9878944 34,49 L34,16 C32.6420697,16.0110968 31.3111361,16.0776779 30,16.1785583" id="Fill-216" fill="#ED9851"></path>
                            <path d="M164,16.1785583 L164,48.8214417 C165.311136,48.9213133 166.64207,48.9878944 168,49 L168,16 C166.64207,16.0110968 165.311136,16.0776779 164,16.1785583" id="Fill-216-Copy" fill="#ED9851"></path>
                            <polygon id="Fill-217" fill="#ED9851" points="0 34 68 34 68 26 0 26"></polygon>
                            <polygon id="Fill-217-Copy" fill="#ED9851" points="134 34 202 34 202 26 134 26"></polygon>
                            <path d="M68,33.000493 C68,27.6656175 62.4885606,22.9380759 54,20 L54,46 C62.4885606,43.0619241 68,38.3343825 68,33.000493" id="Fill-218" fill="#ED9851"></path>
                            <path d="M202,33.000493 C202,27.6656175 196.488561,22.9380759 188,20 L188,46 C196.488561,43.0619241 202,38.3343825 202,33.000493" id="Fill-218-Copy" fill="#ED9851"></path>
                            <path d="M20,18.226281 L20,47.773719 C22.8143581,48.3759812 25.8437569,48.782434 29,49 L29,17 C25.8437569,17.216577 22.8143581,17.6230299 20,18.226281" id="Fill-219" fill="#F1AD6F"></path>
                            <path d="M154,18.226281 L154,47.773719 C156.814358,48.3759812 159.843757,48.782434 163,49 L163,17 C159.843757,17.216577 156.814358,17.6230299 154,18.226281" id="Fill-219-Copy" fill="#F1AD6F"></path>
                            <path d="M34.4357015,16 C34.2884364,16 34.1462495,16.0080657 34,16.0100822 L34,48.990926 C34.1462495,48.9919343 34.2884364,49 34.4357015,49 C42.1330947,49 49.2434589,47.8082857 55,45.7938651 L55,19.2061349 C49.2434589,17.1917143 42.1330947,16 34.4357015,16" id="Fill-220" fill="#F1AD6F"></path>
                            <path d="M168.435702,16 C168.288436,16 168.146249,16.0080657 168,16.0100822 L168,48.990926 C168.146249,48.9919343 168.288436,49 168.435702,49 C176.133095,49 183.243459,47.8082857 189,45.7938651 L189,19.2061349 C183.243459,17.1917143 176.133095,16 168.435702,16" id="Fill-220-Copy" fill="#F1AD6F"></path>
                            <path d="M68,27.4994959 C68,36.612783 52.7775146,44 34,44 C15.2224854,44 0,36.612783 0,27.4994959 C0,18.387217 15.2224854,11 34,11 C52.7775146,11 68,18.387217 68,27.4994959" id="Fill-221" fill="#D37C34"></path>
                            <path d="M202,27.4994959 C202,36.612783 186.777515,44 168,44 C149.222485,44 134,36.612783 134,27.4994959 C134,18.387217 149.222485,11 168,11 C186.777515,11 202,18.387217 202,27.4994959" id="Fill-221-Copy" fill="#D37C34"></path>
                            <path d="M68,26.5005041 C68,35.612783 52.7775146,43 34,43 C15.2224854,43 0,35.612783 0,26.5005041 C0,17.387217 15.2224854,10 34,10 C52.7775146,10 68,17.387217 68,26.5005041" id="Fill-222" fill="#FFD15E"></path>
                            <path d="M202,26.5005041 C202,35.612783 186.777515,43 168,43 C149.222485,43 134,35.612783 134,26.5005041 C134,17.387217 149.222485,10 168,10 C186.777515,10 202,17.387217 202,26.5005041" id="Fill-222-Copy" fill="#FFD15E"></path>
                            <path d="M61,26.5 C61,33.4035624 48.9119448,39 34.0004966,39 C19.0880552,39 7,33.4035624 7,26.5 C7,19.5964376 19.0880552,14 34.0004966,14 C48.9119448,14 61,19.5964376 61,26.5" id="Fill-223" fill="#F9DA6D"></path>
                            <path d="M195,26.5 C195,33.4035624 182.911945,39 168.000497,39 C153.088055,39 141,33.4035624 141,26.5 C141,19.5964376 153.088055,14 168.000497,14 C182.911945,14 195,19.5964376 195,26.5" id="Fill-223-Copy" fill="#F9DA6D"></path>
                            <path d="M26.2211674,27.5164323 L22,25.2998598 L25.3033066,23.5998655 L29.5254662,25.816438 C31.516976,26.8623617 34.7944833,26.8613796 36.8296535,25.8144738 C38.865816,24.7675681 38.9015382,23.0656097 36.9090361,22.019686 L32.4894123,19.6999942 L35.7927189,18 L40.2133349,20.3206738 C43.9869831,22.3015452 43.9195079,25.5267221 40.0625081,27.5115218 C36.2045159,29.4943574 29.9958078,29.4963216 26.2211674,27.5164323" id="Fill-224" fill="#ED9851"></path>
                            <path d="M160.221167,27.5164323 L156,25.2998598 L159.303307,23.5998655 L163.525466,25.816438 C165.516976,26.8623617 168.794483,26.8613796 170.829654,25.8144738 C172.865816,24.7675681 172.901538,23.0656097 170.909036,22.019686 L166.489412,19.6999942 L169.792719,18 L174.213335,20.3206738 C177.986983,22.3015452 177.919508,25.5267221 174.062508,27.5115218 C170.204516,29.4943574 163.995808,29.4963216 160.221167,27.5164323" id="Fill-224-Copy" fill="#ED9851"></path>
                            <polyline id="Fill-225" fill="#ED9851" points="42.7588706 31 28 22.7707267 31.2411294 21 46 29.2282497 42.7588706 31"></polyline>
                            <polyline id="Fill-225-Copy" fill="#ED9851" points="176.758871 31 162 22.7707267 165.241129 21 180 29.2282497 176.758871 31"></polyline>
                            <polyline id="Fill-226" fill="#ED9851" points="47.7590459 28 33 19.7717503 36.2409541 18 51 26.2292733 47.7590459 28"></polyline>
                            <polyline id="Fill-226-Copy" fill="#ED9851" points="181.759046 28 167 19.7717503 170.240954 18 185 26.2292733 181.759046 28"></polyline>
                            <polyline id="Fill-227" fill="#ED9851" points="25.4627329 35 27 25.1792375 22.194617 25 21 32.6315789 25.4627329 35"></polyline>
                            <polyline id="Fill-227-Copy" fill="#ED9851" points="159.462733 35 161 25.1792375 156.194617 25 155 32.6315789 159.462733 35"></polyline>
                            <path d="M0,21.999498 C0,28.6854647 8.21447986,34.4336491 20,37 L20,7 C8.21447986,9.567355 0,15.3145353 0,21.999498" id="Fill-228" fill="#ED9851"></path>
                            <path d="M134,21.999498 C134,28.6854647 142.21448,34.4336491 154,37 L154,7 C142.21448,9.567355 134,15.3145353 134,21.999498" id="Fill-228-Copy" fill="#ED9851"></path>
                            <path d="M30,6.17956164 L30,38.8204384 C31.3111361,38.9223245 32.6420697,38.9878947 34,39 L34,6 C32.6420697,6.01210528 31.3111361,6.07767554 30,6.17956164" id="Fill-229" fill="#ED9851"></path>
                            <path d="M164,6.17956164 L164,38.8204384 C165.311136,38.9223245 166.64207,38.9878947 168,39 L168,6 C166.64207,6.01210528 165.311136,6.07767554 164,6.17956164" id="Fill-229-Copy" fill="#ED9851"></path>
                            <polygon id="Fill-230" fill="#ED9851" points="0 24 68 24 68 16 0 16"></polygon>
                            <polygon id="Fill-230-Copy" fill="#ED9851" points="134 24 202 24 202 16 134 16"></polygon>
                            <path d="M68,21.999507 C68,16.6652129 62.4885606,11.9373128 54,9 L54,35 C62.4885606,32.0617012 68,27.3347871 68,21.999507" id="Fill-231" fill="#ED9851"></path>
                            <path d="M202,21.999507 C202,16.6652129 196.488561,11.9373128 188,9 L188,35 C196.488561,32.0617012 202,27.3347871 202,21.999507" id="Fill-231-Copy" fill="#ED9851"></path>
                            <path d="M20,7.22532991 L20,36.7746701 C22.8143581,37.3769509 25.8437569,37.7824273 29,38 L29,6 C25.8437569,6.21658374 22.8143581,6.62403808 20,7.22532991" id="Fill-232" fill="#F1AD6F"></path>
                            <path d="M154,7.22532991 L154,36.7746701 C156.814358,37.3769509 159.843757,37.7824273 163,38 L163,6 C159.843757,6.21658374 156.814358,6.62403808 154,7.22532991" id="Fill-232-Copy" fill="#F1AD6F"></path>
                            <path d="M34.4357015,6 C34.2884364,6 34.1462495,6.00806575 34,6.00907397 L34,38.990926 C34.1462495,38.9919343 34.2884364,39 34.4357015,39 C42.1330947,39 49.2434589,37.8072775 55,35.7928569 L55,9.20714308 C49.2434589,7.1927225 42.1330947,6 34.4357015,6" id="Fill-233" fill="#F1AD6F"></path>
                            <path d="M168.435702,6 C168.288436,6 168.146249,6.00806575 168,6.00907397 L168,38.990926 C168.146249,38.9919343 168.288436,39 168.435702,39 C176.133095,39 183.243459,37.8072775 189,35.7928569 L189,9.20714308 C183.243459,7.1927225 176.133095,6 168.435702,6" id="Fill-233-Copy" fill="#F1AD6F"></path>
                            <path d="M68,17.5 C68,26.6125573 52.7775146,34 34,34 C15.2224854,34 0,26.6125573 0,17.5 C0,8.38744271 15.2224854,1 34,1 C52.7775146,1 68,8.38744271 68,17.5" id="Fill-234" fill="#D37C34"></path>
                            <path d="M202,17.5 C202,26.6125573 186.777515,34 168,34 C149.222485,34 134,26.6125573 134,17.5 C134,8.38744271 149.222485,1 168,1 C186.777515,1 202,8.38744271 202,17.5" id="Fill-234-Copy" fill="#D37C34"></path>
                            <path d="M68,16.5005041 C68,25.6137912 52.7775146,33 34,33 C15.2224854,33 0,25.6137912 0,16.5005041 C0,7.38721701 15.2224854,0 34,0 C52.7775146,0 68,7.38721701 68,16.5005041" id="Fill-235" fill="#FFD15E"></path>
                            <path d="M202,16.5005041 C202,25.6137912 186.777515,33 168,33 C149.222485,33 134,25.6137912 134,16.5005041 C134,7.38721701 149.222485,0 168,0 C186.777515,0 202,7.38721701 202,16.5005041" id="Fill-235-Copy" fill="#FFD15E"></path>
                            <path d="M61,16.5004959 C61,23.4033403 48.9119448,29 34.0004966,29 C19.0880552,29 7,23.4033403 7,16.5004959 C7,9.59665966 19.0880552,4 34.0004966,4 C48.9119448,4 61,9.59665966 61,16.5004959" id="Fill-236" fill="#F9DA6D"></path>
                            <path d="M195,16.5004959 C195,23.4033403 182.911945,29 168.000497,29 C153.088055,29 141,23.4033403 141,16.5004959 C141,9.59665966 153.088055,4 168.000497,4 C182.911945,4 195,9.59665966 195,16.5004959" id="Fill-236-Copy" fill="#F9DA6D"></path>
                            <path d="M26.2211674,17.5148928 L22,15.2982214 L25.3033066,13.6001155 L29.5254662,15.816787 C31.516976,16.8617752 34.7944833,16.8607931 36.8296535,15.8138406 C38.865816,14.7659059 38.9015382,13.0638715 36.9090361,12.0179012 L32.4894123,9.69810588 L35.7927189,8 L40.2133349,10.3197953 C43.9869831,12.3017373 43.9195079,15.5270581 40.0625081,17.5099822 C36.2045159,19.4948705 29.9958078,19.4968348 26.2211674,17.5148928" id="Fill-237" fill="#ED9851"></path>
                            <path d="M160.221167,17.5148928 L156,15.2982214 L159.303307,13.6001155 L163.525466,15.816787 C165.516976,16.8617752 168.794483,16.8607931 170.829654,15.8138406 C172.865816,14.7659059 172.901538,13.0638715 170.909036,12.0179012 L166.489412,9.69810588 L169.792719,8 L174.213335,10.3197953 C177.986983,12.3017373 177.919508,15.5270581 174.062508,17.5099822 C170.204516,19.4948705 163.995808,19.4968348 160.221167,17.5148928" id="Fill-237-Copy" fill="#ED9851"></path>
                            <polyline id="Fill-238" fill="#ED9851" points="42.7588706 21 28 12.770908 31.2411294 11 46 19.2301157 42.7588706 21"></polyline>
                            <polyline id="Fill-238-Copy" fill="#ED9851" points="176.758871 21 162 12.770908 165.241129 11 180 19.2301157 176.758871 21"></polyline>
                            <polyline id="Fill-240" fill="#ED9851" points="25.4627329 25 27 15.1782014 22.194617 15 21 22.6305429 25.4627329 25"></polyline>
                            <polyline id="Fill-240-Copy" fill="#ED9851" points="159.462733 25 161 15.1782014 156.194617 15 155 22.6305429 159.462733 25"></polyline>
                            <path d="M95,76.1753429 L95,75.1753429 L108,75.1753429 L108,76.1753429 L95,76.1753429 Z M95,80.1753429 L95,79.1753429 L108,79.1753429 L108,80.1753429 L95,80.1753429 Z" id="=" fill="#3C3C3C" fill-rule="nonzero"></path>
                        </g>
                    </g>
                </g>
            </g>
        </g>
    </g>
</svg>