<?xml version="1.0" encoding="UTF-8"?>
<svg width="352px" height="250px" viewBox="0 0 352 250" version="1.1" xmlns="http://www.w3.org/2000/svg" xmlns:xlink="http://www.w3.org/1999/xlink">
    <!-- Generator: Sketch 53.2 (72643) - https://sketchapp.com -->
    <title>step-3</title>
    <desc>Created with Sketch.</desc>
    <defs>
        <rect id="path-1" x="0" y="0" width="352" height="250"></rect>
        <polygon id="path-3" points="0 0 50.9803922 0 50.9803922 31.7534722 0 31.7534722"></polygon>
        <polygon id="path-5" points="0 0 26.5098039 0 26.5098039 51.2152778 0 51.2152778"></polygon>
    </defs>
    <g id="UI_2" stroke="none" stroke-width="1" fill="none" fill-rule="evenodd">
        <g id="Home" transform="translate(-936.000000, -1184.000000)">
            <g id="step-3" transform="translate(936.000000, 1184.000000)">
                <mask id="mask-2" fill="white">
                    <use xlink:href="#path-1"></use>
                </mask>
                <use id="Mask" fill="#FFFFFF" xlink:href="#path-1"></use>
                <g mask="url(#mask-2)">
                    <g transform="translate(-10.000000, -73.000000)">
                        <path d="M13.9069532,196.150539 C7.85289481,240.051202 12.0019589,323.569093 90.4284355,316.234585 C168.854912,308.900078 130.697562,280.542263 226.015434,316.234585 C321.333307,351.926908 310.747747,237.378443 350.447406,183.059783 C390.147065,128.741123 307.403443,99.9527004 274.439363,96.2773955 C241.475282,92.6020907 174.023427,88.5058384 112.346635,105.344212 C50.6698418,122.182586 19.9610116,152.249877 13.9069532,196.150539 Z" id="Path-6-Copy-2" fill="#FFD15E" opacity="0.360258557"></path>
                        <g id="Group-4" stroke-width="1" fill="none">
                            <path d="M200.835171,287.825763 L200.835171,287.825763 C200.203895,287.876927 199.647141,287.443037 199.59206,286.856659 L198.827941,278.745177 C198.77286,278.158799 199.239971,277.642144 199.871247,277.59098 C200.502523,277.539315 201.058736,277.973205 201.113818,278.559583 L201.877937,286.671065 C201.933018,287.257443 201.466447,287.774098 200.835171,287.825763" id="Fill-10" fill="#765E8D"></path>
                            <path d="M208.007143,286.789025 L208.007143,286.789025 C207.339561,286.892284 206.704291,286.501014 206.586584,285.916387 L204.960038,277.824749 C204.842331,277.239616 205.287771,276.681816 205.954776,276.579064 C206.621204,276.475805 207.257051,276.866062 207.374758,277.450689 L209.000727,285.542834 C209.118433,286.127966 208.673571,286.68526 208.007143,286.789025" id="Fill-12" fill="#765E8D"></path>
                            <path d="M229.755541,280.562656 L229.755541,280.562656 C229.169716,280.803793 228.474324,280.580158 228.200683,280.063368 L224.423654,272.91095 C224.150563,272.393674 224.403833,271.779165 224.989107,271.538028 C225.574932,271.296892 226.271425,271.520526 226.544516,272.037803 L230.321545,279.190221 C230.594636,279.707011 230.340815,280.32152 229.755541,280.562656" id="Fill-18" fill="#765E8D"></path>
                            <path d="M140.342686,149.183741 L140.342686,149.183741 C139.858424,149.670234 139.073686,149.670234 138.589425,149.183741 L131.892608,142.45607 C131.408346,141.969577 131.408346,141.181224 131.892608,140.694731 C132.37687,140.208238 133.161608,140.208238 133.645869,140.694731 L140.342686,147.422402 C140.826948,147.908895 140.826948,148.697248 140.342686,149.183741" id="Fill-25" fill="#765E8D"></path>
                            <path d="M135.334271,153.275214 L135.334271,153.275214 C134.919581,153.714192 134.1826,153.771323 133.688163,153.403148 L126.848539,148.307782 C126.354652,147.939607 126.289753,147.285291 126.704993,146.846313 C127.119682,146.407335 127.856663,146.350205 128.3511,146.71838 L135.190174,151.813257 C135.684612,152.18192 135.74951,152.836237 135.334271,153.275214" id="Fill-27" fill="#765E8D"></path>
                            <path d="M130.308447,157.332206 L130.308447,157.332206 C129.956497,157.768189 129.264103,157.873786 128.761019,157.568779 L121.807272,153.348983 C121.304711,153.043976 121.182339,152.443932 121.534289,152.007948 C121.886238,151.572417 122.579155,151.466367 123.081716,151.771375 L130.035987,155.991171 C130.538547,156.296631 130.660919,156.896675 130.308447,157.332206" id="Fill-29" fill="#765E8D"></path>
                            <path d="M127.308129,164.385112 L127.308129,164.385112 C127.013913,164.890053 126.362828,165.063005 125.853588,164.771769 L118.806937,160.737707 C118.297697,160.445974 118.123272,159.800385 118.417489,159.295444 C118.711204,158.790503 119.36279,158.61755 119.872029,158.908786 L126.91818,162.942849 C127.427419,163.234084 127.602345,163.880171 127.308129,164.385112" id="Fill-31" fill="#765E8D"></path>
                            <path d="M269.033644,245.305148 L269.033644,245.305148 C268.739443,245.810581 268.08789,245.983034 267.578676,245.691802 L260.532883,241.657783 C260.023168,241.366053 259.848752,240.720968 260.142954,240.215535 C260.437155,239.710103 261.088207,239.537649 261.597921,239.829379 L268.643214,243.862901 C269.152928,244.15463 269.327845,244.800212 269.033644,245.305148" id="Fill-32" fill="#765E8D"></path>
                            <path d="M124.295536,169.355696 L124.295536,169.355696 C124.055506,169.944212 123.443816,170.198646 122.929396,169.9243 L115.809305,166.129918 C115.294885,165.855019 115.072277,165.155879 115.312307,164.567916 C115.552337,163.979399 116.164027,163.724965 116.678447,163.999311 L123.798538,167.793693 C124.312958,168.068039 124.535567,168.767732 124.295536,169.355696" id="Fill-33" fill="#765E8D"></path>
                            <path d="M272.138674,237.984249 L272.138674,237.984249 C271.898643,238.57222 271.286952,238.82721 270.772532,238.55286 L263.652917,234.75843 C263.138013,234.48408 262.915404,233.784379 263.155434,233.195855 C263.395465,232.607884 264.007156,232.353447 264.52206,232.627796 L271.641675,236.422227 C272.156095,236.697129 272.378704,237.395725 272.138674,237.984249" id="Fill-34" fill="#765E8D"></path>
                            <path d="M121.272831,176.327997 L121.272831,176.327997 C121.083699,177.019533 120.510187,177.375646 119.991721,177.124235 L112.81506,173.643358 C112.296123,173.391948 112.028422,172.627058 112.217554,171.935522 C112.406215,171.244613 112.979727,170.887873 113.498663,171.139911 L120.675324,174.620788 C121.194261,174.872198 121.461492,175.636461 121.272831,176.327997" id="Fill-35" fill="#765E8D"></path>
                            <path d="M274.213814,231.932463 L274.213814,231.932463 C274.025153,232.393451 273.451641,232.631259 272.932705,232.463665 L265.756048,230.142842 C265.237112,229.975248 264.969881,229.465779 265.158542,229.00479 C265.347674,228.54422 265.920715,228.305994 266.440122,228.474006 L273.616779,230.794829 C274.135245,230.962423 274.402946,231.471893 274.213814,231.932463" id="Fill-36" fill="#765E8D"></path>
                            <path d="M120.280264,182.586837 L120.280264,182.586837 C120.140297,183.136579 119.603909,183.462351 119.081794,183.315463 L111.862425,181.278413 C111.34077,181.131524 111.030908,180.566754 111.170875,180.017013 C111.310843,179.467756 111.847231,179.141498 112.368886,179.288872 L119.588255,181.325437 C120.11037,181.47281 120.419771,182.03758 120.280264,182.586837" id="Fill-37" fill="#765E8D"></path>
                            <path d="M276.280104,224.583676 L276.280104,224.583676 C276.140132,225.132937 275.603729,225.459197 275.081598,225.311822 L267.862477,223.275243 C267.340346,223.127868 267.030936,222.563094 267.170907,222.013348 C267.310418,221.464572 267.847282,221.138312 268.368492,221.285202 L275.588534,223.322267 C276.110204,223.469156 276.420075,224.03393 276.280104,224.583676" id="Fill-38" fill="#765E8D"></path>
                            <path d="M117.240196,188.47894 L117.240196,188.47894 C117.147691,189.148371 116.647986,189.595818 116.123794,189.47758 L108.874891,187.843704 C108.350699,187.725467 108.001087,187.086754 108.093138,186.417323 C108.186096,185.747312 108.685348,185.300445 109.20954,185.418103 L116.458442,187.051979 C116.982634,187.170216 117.332247,187.808929 117.240196,188.47894" id="Fill-39" fill="#765E8D"></path>
                            <path d="M279.35774,216.135648 L279.35774,216.135648 C279.26478,216.805147 278.765516,217.252059 278.241311,217.13381 L270.991782,215.500349 C270.468031,215.3821 270.118411,214.743323 270.210917,214.073825 C270.30297,213.403747 270.802688,212.956255 271.326892,213.074504 L278.575968,214.708544 C279.099719,214.826793 279.450246,215.46499 279.35774,216.135648" id="Fill-40" fill="#765E8D"></path>
                            <path d="M116.231554,194.590354 L116.231554,194.590354 C116.185718,195.224539 115.722861,195.69326 115.197541,195.637925 L107.930688,194.870285 C107.405368,194.81495 107.016658,194.256173 107.062495,193.621989 C107.108331,192.987805 107.571637,192.518541 108.096957,192.573876 L115.36381,193.341516 C115.88913,193.396851 116.27784,193.95617 116.231554,194.590354" id="Fill-41" fill="#765E8D"></path>
                            <path d="M280.388486,209.954938 L280.388486,209.954938 C280.3422,210.589122 279.879343,211.057843 279.354023,211.002508 L272.087171,210.234868 C271.56185,210.179533 271.173141,209.620757 271.219426,208.986573 C271.265263,208.352388 271.728119,207.883124 272.253439,207.93846 L279.520292,208.706099 C280.045612,208.761434 280.434322,209.320753 280.388486,209.954938" id="Fill-42" fill="#765E8D"></path>
                            <path d="M280.392157,202.300347 L280.392157,202.300347 C280.392157,203.149195 279.966084,203.836806 279.440101,203.836806 L272.167742,203.836806 C271.641759,203.836806 271.215686,203.149195 271.215686,202.300347 C271.215686,201.452222 271.641759,200.763889 272.167742,200.763889 L279.440101,200.763889 C279.966084,200.763889 280.392157,201.452222 280.392157,202.300347" id="Fill-44" fill="#765E8D"></path>
                            <path d="M274.213814,171.935522 L274.213814,171.935522 C274.402946,172.627058 274.135245,173.391948 273.616779,173.643358 L266.440122,177.124235 C265.920715,177.375646 265.347674,177.019533 265.158542,176.327997 C264.969881,175.636461 265.237112,174.872198 265.756048,174.620788 L272.932705,171.139911 C273.451641,170.887873 274.025153,171.244613 274.213814,171.935522" id="Fill-52" fill="#765E8D"></path>
                            <path d="M236.023257,126.133221 L236.023257,126.133221 C236.526371,126.428289 236.698034,127.082877 236.408137,127.594463 L232.392619,134.673078 C232.102228,135.184664 231.460101,135.360395 230.956986,135.064824 C230.453872,134.769252 230.282209,134.115167 230.572601,133.603582 L234.587624,126.524463 C234.878015,126.012877 235.520637,125.837649 236.023257,126.133221" id="Fill-68" fill="#765E8D"></path>
                            <path d="M162.461342,271.538028 L162.461342,271.538028 C163.04716,271.779165 163.300427,272.393674 163.027339,272.91095 L159.250359,280.063368 C158.97672,280.580158 158.280787,280.803793 157.69552,280.562656 C157.109703,280.32152 156.856436,279.707011 157.129524,279.190221 L160.906504,272.037803 C161.179592,271.520526 161.876076,271.296892 162.461342,271.538028" id="Fill-69" fill="#765E8D"></path>
                            <path d="M229.755541,123.013732 L229.755541,123.013732 C230.340815,123.254869 230.594636,123.869377 230.321545,124.386167 L226.544516,131.539063 C226.271425,132.055853 225.574932,132.279487 224.989107,132.038351 C224.403833,131.797215 224.150563,131.182706 224.423654,130.665917 L228.200683,123.51302 C228.474324,122.996231 229.169716,122.772596 229.755541,123.013732" id="Fill-70" fill="#765E8D"></path>
                            <path d="M222.711902,120.929026 L222.711902,120.929026 C223.170776,121.118557 223.407493,121.694711 223.240668,122.216038 L220.930489,129.425765 C220.763663,129.947092 220.25653,130.215555 219.797656,130.026024 C219.339198,129.836021 219.102065,129.259866 219.269306,128.739012 L221.579486,121.529285 C221.746311,121.007958 222.253444,120.739023 222.711902,120.929026" id="Fill-72" fill="#765E8D"></path>
                            <path d="M215.396818,117.828914 L215.396818,117.828914 C215.94356,117.969527 216.268324,118.508386 216.121625,119.032444 L214.094386,126.285075 C213.947687,126.809596 213.385503,127.120423 212.838279,126.980273 C212.29202,126.839661 211.967256,126.300802 212.113472,125.776281 L214.141194,118.52365 C214.28741,117.999592 214.849594,117.688302 215.396818,117.828914" id="Fill-74" fill="#765E8D"></path>
                            <path d="M180.477275,276.579064 L180.477275,276.579064 C181.143636,276.681816 181.589031,277.239616 181.471336,277.824749 L179.844953,285.916387 C179.727258,286.501014 179.091475,286.892284 178.425114,286.789025 C177.758176,286.68526 177.313358,286.127966 177.430476,285.542834 L179.056858,277.450689 C179.174553,276.866062 179.810337,276.475805 180.477275,276.579064" id="Fill-75" fill="#765E8D"></path>
                            <path d="M208.007143,115.761302 L208.007143,115.761302 C208.673571,115.854233 209.118433,116.35624 209.000727,116.882847 L207.374758,124.165149 C207.257051,124.691756 206.621204,125.042979 205.954776,124.950504 C205.287771,124.857573 204.842331,124.355565 204.960038,123.828958 L206.586584,116.546657 C206.704291,116.02005 207.339561,115.668827 208.007143,115.761302" id="Fill-76" fill="#765E8D"></path>
                            <path d="M186.560661,277.59098 L186.560661,277.59098 C187.191937,277.642144 187.658508,278.158799 187.603427,278.745177 L186.839308,286.856659 C186.784227,287.443037 186.228013,287.876927 185.596737,287.825763 C184.965461,287.774098 184.49835,287.257443 184.553431,286.671065 L185.31755,278.559583 C185.372632,277.973205 185.929385,277.539315 186.560661,277.59098" id="Fill-77" fill="#765E8D"></path>
                            <path d="M213.097923,224.633452 C213.103658,224.439495 212.896699,224.274415 212.710771,224.336019 C211.953196,224.58388 211.192753,224.822115 210.427053,225.043024 C210.073837,225.145056 209.719187,225.241312 209.365014,225.339975 C209.247435,225.372702 208.123739,225.670616 208.636595,225.464146 C208.68248,225.445376 208.664317,225.370777 208.615565,225.387622 C208.35125,225.480028 208.267128,225.573397 208.059691,225.78468 C207.956451,225.890081 208.025278,226.112434 208.188742,226.098476 C209.217801,226.007514 210.250206,225.735589 211.263014,225.429975 C199.497422,235.117713 187.749993,244.82759 176.004476,254.539873 C173.740355,251.965493 171.475278,249.391593 169.213068,246.815768 C169.075892,246.659352 168.789591,246.663202 168.651937,246.815768 C165.079147,250.772874 161.506357,254.729017 157.934045,258.685642 C154.104588,254.883509 151.147417,250.308436 149.280485,245.223204 C149.170075,244.923365 148.843147,244.831921 148.599862,245.042242 C138.997541,253.345811 129.770423,262.081091 120.944795,271.215835 C119.325927,268.510064 117.99575,265.659908 116.977684,262.668256 C116.873009,262.361197 116.549905,262.300556 116.310444,262.490662 C107.760124,269.292148 99.3584518,276.480105 91.8223742,284.419824 C91.6455271,284.605599 91.9146215,284.874155 92.1024618,284.701374 C100.036206,277.396467 107.962304,270.149313 116.404125,263.438308 C117.468076,266.465094 118.833623,269.358084 120.512714,272.09177 C120.648934,272.313641 120.967737,272.369951 121.1551,272.175031 C129.952527,263.046063 139.15288,254.318965 148.724611,246.016839 C150.699086,251.136243 153.723649,255.752224 157.658737,259.567833 C157.81073,259.715105 158.081736,259.733875 158.231339,259.567833 C161.797438,255.610727 165.363058,251.654103 168.928679,247.696516 C171.179895,250.255495 173.428721,252.816882 175.678026,255.377786 C175.830975,255.551048 176.083818,255.508214 176.242025,255.377786 C188.306345,245.416199 200.369709,235.452204 212.412521,225.464146 C212.278212,226.825213 212.09085,228.280612 212.279646,229.581519 C212.320751,229.86355 212.75331,229.83323 212.816879,229.581519 C213.201641,228.046708 213.052994,226.212059 213.097923,224.633452" id="Fill-79" fill="#464353"></path>
                            <polygon id="Fill-80" fill="#FFFFFF" points="198.823529 292.951389 212.078431 292.951389 212.078431 253.003472 198.823529 253.003472"></polygon>
                            <polygon id="Fill-81" fill="#FAD269" points="205.960784 292.951389 213.098039 292.951389 213.098039 253.003472 205.960784 253.003472"></polygon>
                            <polygon id="Fill-82" fill="#FFFFFF" points="174.352941 292.951389 187.607843 292.951389 187.607843 272.465278 174.352941 272.465278"></polygon>
                            <polygon id="Fill-83" fill="#FCE3AA" points="181.490196 292.951389 188.627451 292.951389 188.627451 272.465278 181.490196 272.465278"></polygon>
                            <polygon id="Fill-84" fill="#FBD689" points="218.196078 292.951389 233.490196 292.951389 233.490196 244.809028 218.196078 244.809028"></polygon>
                            <polygon id="Fill-85" fill="#FCE3AA" points="227.372549 292.951389 234.509804 292.951389 234.509804 244.809028 227.372549 244.809028"></polygon>
                            <polygon id="Fill-86" fill="#FFFFFF" points="149.882353 292.951389 163.137255 292.951389 163.137255 266.319444 149.882353 266.319444"></polygon>
                            <polygon id="Fill-87" fill="#FAD269" points="157.019608 292.951389 164.156863 292.951389 164.156863 266.319444 157.019608 266.319444"></polygon>
                            <polygon id="Fill-88" fill="#FBD689" points="127.45098 292.951389 140.705882 292.951389 140.705882 283.732639 127.45098 283.732639"></polygon>
                            <polygon id="Fill-89" fill="#FFFFFF" points="134.588235 292.951389 141.72549 292.951389 141.72549 283.732639 134.588235 283.732639"></polygon>
                            <polygon id="Fill-90" fill="#6A5084" points="117.254902 293.975694 267.137255 293.975694 267.137255 292.951389 117.254902 292.951389"></polygon>
                            <path d="M253.882353,116.770833 C249.91011,110.457935 243.926361,105.524342 237.091589,102.926266 C233.403665,101.524956 229.478809,100.807797 225.551535,100.781791 C224.251309,100.772789 222.910949,100.356197 221.648438,100.383203 C219.782959,100.423712 217.6467,101.651484 216.173368,102.745726 C215.776385,103.040291 222.66773,106.672596 223.159002,106.943656 C224.906499,107.90837 226.686393,108.80957 228.495298,109.645755 C232.312809,111.410146 236.256524,112.883972 240.283889,114.050231 C244.734832,115.339516 249.287317,116.253719 253.882353,116.770833" id="Fill-91" fill="#AC885E"></path>
                            <path d="M221.77779,175.571656 C223.313642,176.071363 225.079968,176.552545 226.478109,175.759683 C227.701244,175.066391 228.227699,173.529294 227.988619,172.176055 C227.749538,170.822817 226.87307,169.64649 225.841678,168.704503 C225.443848,168.341879 224.994377,167.752327 225.362082,167.36099 C225.521788,167.191488 225.77856,167.152122 226.014772,167.135913 C227.851865,167.008092 229.64688,167.650903 231.479191,167.833373 C233.311025,168.015842 235.466573,167.542996 236.285184,165.944767 C236.935004,164.675816 236.489359,163.086386 235.576072,161.980454 C234.662785,160.874059 233.359797,160.146959 232.089324,159.445795 C233.448257,159.262399 234.859309,159.060015 235.999244,158.319948 C237.139179,157.580345 237.915234,156.134019 237.412687,154.897487 C236.646674,153.012123 233.922592,153.03991 232.071154,152.09607 C229.601455,150.837771 228.809142,147.867315 227.929327,145.30209 C226.422165,140.907075 223.949118,136.825129 220.722012,133.407762 C218.994417,131.578436 217.014832,129.913517 214.66802,128.923828 C212.320729,127.934602 209.562699,127.681275 207.203454,128.642714 C204.832255,129.608783 203.135741,131.642346 201.541554,133.598105 C200.066906,135.408906 198.591303,137.219245 197.115699,139.030047 C195.595148,140.895497 194.043995,142.815595 193.303802,145.081644 C192.287233,148.193352 192.784998,152.071525 193.206257,155.258258 C193.841255,160.063135 195.570762,165.680325 198.880112,169.39409 C200.779366,171.525371 203.094141,173.269483 205.451951,174.915414 C206.020963,175.312772 206.613882,175.714297 207.299086,175.86018 C207.983812,176.006063 208.789991,175.834245 209.18543,175.273406 C209.578,174.717198 209.469935,173.96509 209.709972,173.332931 C210.913502,170.160091 219.774297,174.920045 221.77779,175.571656" id="Fill-92" fill="#ECAEB5"></path>
                            <path d="M224.926621,100.381944 C233.343251,102.557991 241.620297,105.394719 249.674994,108.862932 C250.205144,109.091078 249.019577,112.846329 247.593317,116.770833 C241.309813,109.677032 231.870016,105.827256 223.294118,102.998941 C223.841268,102.122484 224.375444,101.237615 224.926621,100.381944" id="Fill-93" fill="#F2B57F"></path>
                            <path d="M203.606934,176.905738 C201.551315,176.31435 199.684918,175.214658 197.644794,174.57566 C195.555369,173.920326 193.408191,173.235119 191.720686,171.846501 C189.513408,170.030329 188.459305,167.306304 187.883656,164.592082 C187.309886,161.883927 186.757245,159.456763 185.983923,156.805553 C184.922307,153.167608 186.129948,148.936875 186.998585,145.388548 C188.340043,139.909692 189.681032,134.430836 191.02202,128.95198 C191.578418,126.679781 192.185994,124.308162 193.752828,122.563872 C194.912107,121.273741 196.492558,120.448972 198.036385,119.651742 C202.755669,117.215243 207.474483,114.778743 212.193297,112.342244 C213.800981,111.511874 215.757528,110.936823 217.237968,109.940285 C219.327863,108.532997 220.837884,106.531054 222.262449,104.479167 C231.262942,107.146713 241.170104,110.777657 247.764706,117.468228 C246.173925,121.404434 244.298608,125.520811 243.999515,126.011845 C242.052358,129.209166 239.481191,132.297732 236.053125,133.984611 C232.818977,135.576271 229.034535,135.274276 226.075533,137.421382 C224.840659,138.317099 223.764018,139.507343 222.310811,139.979239 C220.293224,140.63364 218.141821,139.740257 216.13879,139.043848 C214.734884,138.555148 212.976949,138.075783 211.498857,138.529943 C210.338639,138.886082 209.474697,139.794868 208.469895,140.424997 C207.393723,141.100402 206.377652,141.268437 205.224477,141.661451 C202.612461,142.551566 200.517401,145.188307 199.473628,147.646744 C197.933557,151.273487 198.901266,154.002646 199.686796,157.496828 C199.816387,158.075613 199.976029,163.727638 199.764269,163.639887 C201.612354,164.40351 203.524765,165.097119 204.936184,166.569754 C203.514435,169.481884 204.060034,173.229518 206.253226,175.621208 C208.159533,177.6997 204.835234,177.259077 203.606934,176.905738" id="Fill-94" fill="#FFCDD3"></path>
                            <path d="M186.627246,154.231633 C186.77343,154.010458 186.916505,153.847616 187.079277,153.755865 C187.223181,153.674443 187.426595,153.546843 187.558887,153.774093 C187.630009,153.896225 187.620886,154.164187 187.549348,154.265052 C187.433852,154.427287 187.278544,154.350727 187.151229,154.395691 C187.000068,154.449161 186.848492,154.539697 186.701893,154.661221 C186.6175,154.731706 186.538498,154.36531 186.627246,154.231633" id="Fill-95" fill="#F2B57F"></path>
                            <path d="M192.708808,168.6672 C192.846009,167.604712 193.43526,166.749346 194.246695,166.101102 C194.698744,165.740088 196.131683,164.614885 196.700967,164.98802 C196.778271,165.038615 196.801309,165.111345 196.772128,165.200412 C196.731684,165.321101 196.699431,165.332696 196.588339,165.385399 C196.54124,165.407007 196.480318,165.380656 196.453185,165.340074 C196.44141,165.322156 196.429635,165.304237 196.417349,165.286318 C196.412741,165.279993 196.415301,165.274196 196.412229,165.267872 C196.121444,165.464453 195.528098,165.829156 195.452329,165.876062 C195.132875,166.07317 194.81598,166.281346 194.528778,166.526414 C193.841745,167.111941 193.368707,167.853996 193.272461,168.776821 C193.233553,169.152592 192.660173,169.045078 192.708808,168.6672" id="Fill-96" fill="#F2B57F"></path>
                            <path d="M192.712165,170.74732 C192.852479,170.197408 193.468748,169.768463 193.894476,169.361765 C194.376808,168.899449 194.845587,168.426706 195.397279,168.025569 C195.575064,167.89626 195.852504,168.111775 195.737701,168.282797 C195.375753,168.825062 194.915744,169.307538 194.473274,169.800443 C194.081828,170.23634 193.708718,170.82866 193.107597,171.04209 C192.898719,171.115782 192.66433,170.936418 192.712165,170.74732" id="Fill-97" fill="#F2B57F"></path>
                            <path d="M191.68927,166.846401 C191.733133,166.697281 191.874361,166.561881 191.988116,166.429462 C192.112956,166.283325 192.244063,166.139276 192.373241,165.994629 C192.481211,165.873843 192.783913,165.963314 192.687029,166.08947 C192.572311,166.238589 192.459521,166.388305 192.340465,166.536232 C192.232977,166.670142 192.138021,166.821647 191.968835,166.930206 C191.860383,166.999696 191.659385,166.946908 191.68927,166.846401" id="Fill-98" fill="#F2B57F"></path>
                            <path d="M200.259191,174.359561 C200.442859,174.439415 200.648711,174.540393 200.879844,174.662493 C202.148495,175.331728 204.819419,176.619707 204.941176,178.229167 C204.252422,178.05091 198.200149,175.145743 197.803922,175.801067 C198.720714,174.282797 198.958037,173.79491 200.259191,174.359561" id="Fill-99" fill="#FFEED3"></path>
                            <g id="Group-103" transform="translate(215.137255, 82.968750)">
                                <mask id="mask-4" fill="white">
                                    <use xlink:href="#path-3"></use>
                                </mask>
                                <g id="Clip-101"></g>
                                <path d="M37.4409946,31.7534722 C37.9982563,28.6408432 39.1358616,25.6350714 40.7760858,22.9398975 C41.110066,22.3913643 31.1707403,17.0960007 30.2338058,16.6628732 C26.4224748,14.9028178 22.4279022,13.5464448 18.3381758,12.6203498 C14.2489206,11.6952047 10.0630984,11.2003375 5.87256561,11.1642436 C4.1338902,11.1490461 3.09238077,11.0260417 2.42065193,12.7376552 C1.68061967,14.6202401 1.16245577,16.7801785 0.849673203,18.7686707 C2.59258813,18.521712 4.48058896,18.0358683 6.24941209,17.9850519 C8.68195606,17.9157135 11.3877137,18.8987989 13.7095591,19.5522895 C18.7946311,20.983225 23.7115355,23.0192092 28.3264916,25.6046764 C31.5254471,27.3965515 34.5793167,29.4529573 37.4409946,31.7534722" id="Fill-100" fill="#FFEED3" mask="url(#mask-4)"></path>
                                <path d="M50.3040419,3.10661369 C48.6675449,7.15435727 47.0310479,11.2016193 45.3945509,15.2493628 C44.1385134,18.3556027 43.4638256,22.049861 41.6922962,24.8878566 C40.3685056,24.0990162 39.4138034,22.912866 38.1487638,22.0513058 C36.5639107,20.972068 34.7473706,20.1456637 33.0360135,19.2990328 C29.6393583,17.6197369 26.0896665,16.2602152 22.4490055,15.2373232 C18.7074256,14.1860175 14.8682434,13.4901234 10.9987382,13.1684229 C9.94690744,13.080774 0.194257028,12.3916222 0,13.275817 C1.76442237,5.23089649 3.52884475,-2.81354239 5.29279332,-10.8584629 C19.4763992,-13.7027191 34.6284474,-11.2485488 47.2399927,-4.06470692 C48.9707754,-3.07889715 50.844645,-1.7044462 50.973518,0.307626692 C51.0355855,1.27465455 50.6664971,2.21037921 50.3040419,3.10661369" id="Fill-102" fill="#464353" mask="url(#mask-4)"></path>
                            </g>
                            <path d="M249.386664,107.849438 C250.0112,108.536503 251.023527,108.821556 251.845172,108.328409 C252.824291,107.741088 253.185836,106.074818 252.532912,105.157889 C251.226528,103.321498 247.292914,105.546736 249.386664,107.849438" id="Fill-104" fill="#84BF52"></path>
                            <path d="M223.961627,181.679936 C225.725013,189.687435 220.692517,197.614538 212.722124,199.386031 C204.750806,201.157059 196.860441,196.101427 195.097055,188.093928 C193.334132,180.086429 198.366165,172.159325 206.337021,170.388298 C214.307876,168.61727 222.198704,173.672437 223.961627,181.679936" id="Fill-105" fill="#F6C043"></path>
                            <path d="M224.981236,182.704683 C226.744614,190.712182 221.712142,198.639286 213.741787,200.410313 C205.770507,202.181341 197.879717,197.126175 196.116802,189.118675 C194.353424,181.111176 199.385896,173.184073 207.356714,171.41258 C215.327531,169.641552 223.218321,174.697184 224.981236,182.704683" id="Fill-106" fill="#FFE4A0"></path>
                            <path d="M221.98313,182.745041 C223.44241,189.372055 219.27789,195.932279 212.681236,197.398275 C206.085061,198.864271 199.554413,194.680104 198.095133,188.053091 C196.636331,181.426558 200.800851,174.866333 207.397505,173.400337 C213.994158,171.934341 220.524328,176.118508 221.98313,182.745041" id="Fill-107" fill="#F6C043"></path>
                            <path d="M208.757788,176.261609 C203.224878,177.490907 199.719638,183.013083 200.94328,188.571568 C202.166922,194.129581 207.664161,197.651494 213.196602,196.421724 C218.729043,195.192426 222.235222,189.67025 221.01111,184.111766 C219.787468,178.553753 214.290229,175.031839 208.757788,176.261609 Z M212.86077,196.411716 C207.097193,197.692154 201.371671,194.023577 200.097088,188.233994 C198.822035,182.443938 202.473835,176.692112 208.236942,175.411201 C214.000519,174.130763 219.726042,177.799339 221.001095,183.588923 C222.275678,189.378507 218.624347,195.130805 212.86077,196.411716 L212.86077,196.411716 Z" id="Fill-108" fill="#C1901E"></path>
                            <path d="M216.978618,144.340091 C217.119971,145.178199 217.210012,146.01242 217.199846,146.841782 C217.161603,149.942054 215.642535,153.509722 214.571732,156.373865 C213.294707,159.788973 210.996741,162.7877 208.076722,164.951719 C205.472328,166.88204 203.665227,169.406567 203.951323,172.911559 C204.143022,175.263607 205.550266,178.561623 208.353136,178.202086 C209.66792,178.033007 210.816661,177.24057 211.822111,176.374768 C212.828531,175.508966 213.763305,174.53676 214.918823,173.884737 C216.599577,172.936338 218.619676,172.737622 220.30285,171.792624 C222.927576,170.319012 224.262691,167.34555 226.174355,165.014881 C228.175575,162.575379 230.886468,160.775269 232.755532,158.232279 C235.421889,154.602906 236.118008,149.844882 237.350496,145.604298 C238.812442,140.572734 240.114639,135.495014 241.253698,130.380368 C241.56884,128.967002 241.868006,127.470068 241.418288,126.094113 C240.867396,124.409152 239.305244,123.265438 237.712594,122.498265 C231.416544,119.465529 222.376684,120.555798 218.339389,126.682489 C216.421432,129.593275 215.638178,133.151226 215.648344,136.640671 C215.655121,139.23662 216.551168,141.807304 216.978618,144.340091" id="Fill-110" fill="#FFCDD3"></path>
                            <path d="M210.229956,178.225174 C207.974572,178.326465 205.860514,176.484804 205.964465,174.5086 C206.050896,172.85264 207.9845,170.987959 209.974166,171.061114 C211.929961,171.132734 213.608943,173.300266 215.137255,174.183752 C213.670263,175.632013 211.859882,176.902759 210.229956,178.225174" id="Fill-111" fill="#FFEED3"></path>
                            <path d="M217.860185,170.983634 C217.273881,170.298408 216.901905,169.476322 216.263789,168.8136 C215.637187,168.16282 214.904306,167.637419 214.16434,167.1359 C214.068246,167.070684 214.133342,166.927852 214.243163,166.969186 C215.764722,167.547862 217.737079,169.114879 218.187436,170.81095 C218.245446,171.030938 217.997462,171.143918 217.860185,170.983634" id="Fill-112" fill="#F2B57F"></path>
                            <path d="M219.936908,166.892576 C219.896815,166.822878 219.908524,166.745829 219.891848,166.671231 C219.871624,166.581114 219.83366,166.49372 219.774408,166.413949 C219.654129,166.252501 219.482049,166.158844 219.269522,166.078801 C219.166983,166.04014 219.224107,165.928788 219.330548,165.938044 C219.617584,165.963092 219.881913,166.119639 220.040511,166.298784 C220.187045,166.465405 220.323644,166.742835 220.162918,166.925519 C220.102601,166.9944 219.972034,166.954922 219.936908,166.892576" id="Fill-113" fill="#F2B57F"></path>
                            <path d="M232.932076,154.596301 C231.709651,153.637324 230.492259,152.766116 229.099228,152.182954 C228.39466,151.88725 227.674995,151.652219 226.941741,151.479037 C226.320212,151.332952 225.019781,150.885273 224.501421,151.385967 C224.409827,151.474325 224.269417,151.327062 224.327292,151.209251 C224.923658,149.991092 227.318182,150.851108 228.183793,151.103222 C230.038316,151.642794 231.875224,152.598825 233.366391,154.011372 C233.706094,154.333584 233.275301,154.866087 232.932076,154.596301" id="Fill-114" fill="#F2B57F"></path>
                            <path d="M230.568876,150.836644 C230.278286,150.744007 230.49086,150.505342 230.811511,150.591261 C231.276025,150.715367 231.740539,150.838766 232.196464,150.96959 C232.608729,151.088038 233.071812,151.193404 233.411072,151.360647 C233.581417,151.444444 233.463321,151.632194 233.184898,151.591533 C232.262312,151.456112 231.370502,151.093695 230.568876,150.836644" id="Fill-115" fill="#F2B57F"></path>
                            <path d="M80.5498119,164.913194 C80.5010366,158.178717 82.7058673,151.447053 86.7366917,146.023074 C88.9112154,143.097201 91.6113753,140.560633 94.6576973,138.538132 C95.6663505,137.868811 96.5031065,136.873977 97.4994475,136.250623 C98.9726494,135.328959 101.248038,135.155414 102.940019,135.220611 C103.396517,135.237497 99.8363975,141.461659 99.5887329,141.914751 C98.7079372,143.525435 97.7698423,145.105631 96.7772897,146.651118 C94.6818482,149.914699 92.3434776,153.025373 89.7872757,155.9489 C86.9625732,159.180586 83.8717378,162.184319 80.5498119,164.913194" id="Fill-116" fill="#AC885E"></path>
                            <path d="M137.539747,196.129879 C136.563449,197.327327 135.388156,198.628676 133.803575,198.71142 C132.417004,198.784292 131.129194,197.815333 130.570046,196.599079 C130.010406,195.382355 130.070841,193.979456 130.38874,192.6861 C130.511084,192.187751 130.549409,191.479249 130.031042,191.353722 C129.806007,191.299185 129.574093,191.400266 129.37166,191.508868 C127.79887,192.355591 126.690892,193.802213 125.294986,194.8967 C123.899572,195.991187 121.873764,196.723196 120.31375,195.856257 C119.074582,195.167501 118.552285,193.654119 118.681508,192.288831 C118.811222,190.923543 119.470113,189.663096 120.117704,188.439791 C118.905069,188.994087 117.638386,189.560606 116.294563,189.552143 C114.950248,189.544151 113.509139,188.777822 113.229565,187.519256 C112.804062,185.601083 115.04606,184.215109 116.033168,182.496745 C117.349968,180.20387 116.340258,177.395721 115.628793,174.869656 C114.408788,170.541543 114.153781,165.967546 114.884408,161.540233 C115.276009,159.170255 115.965363,156.802157 117.331788,154.790426 C118.697722,152.778695 120.810989,151.147777 123.275074,150.704905 C125.752426,150.259212 128.272525,151.02413 130.66684,151.779176 C132.882306,152.478745 135.098264,153.177844 137.31373,153.876943 C139.597001,154.597198 141.935794,155.346132 143.804863,156.793224 C146.37164,158.779568 148.1277,162.168341 149.560948,164.959094 C151.721875,169.166852 153.441576,174.596504 152.808234,179.305902 C152.445132,182.008739 151.52632,184.612847 150.517102,187.161009 C150.273395,187.775953 150.012984,188.406411 149.534415,188.878432 C149.056339,189.350453 148.301636,189.628306 147.665346,189.380072 C147.034462,189.133718 146.703296,188.47082 146.154466,188.083895 C143.400979,186.144095 138.8138,194.568072 137.539747,196.129879" id="Fill-117" fill="#ECAEB5"></path>
                            <path d="M97.0755053,137.256944 C90.7409616,143.987697 84.8820969,151.168877 79.5569944,158.729097 C79.2059932,159.227281 82.2593525,161.560347 85.6161449,163.888889 C87.4362435,154.445525 93.7918173,145.758234 99.9215686,138.40714 C98.9682075,138.022066 98.0218564,137.622916 97.0755053,137.256944" id="Fill-118" fill="#F2B57F"></path>
                            <path d="M151.940836,188.89921 C153.258303,187.298588 154.15766,185.381131 155.436776,183.74955 C156.747228,182.077821 158.087143,180.349981 158.692794,178.291278 C159.484584,175.598421 158.885012,172.782216 157.910826,170.233507 C156.783707,167.284763 155.85816,164.227666 154.708124,161.274085 C153.290573,157.633141 150.322181,155.139575 147.401961,152.812409 C144.686586,150.648739 141.846339,148.197257 139.384917,145.686278 C137.240117,143.498422 135.25012,141.234622 132.170887,140.466478 C130.670088,140.092564 129.107087,140.114332 127.563729,140.148676 C120.342216,140.307819 113.065049,141.168353 105.865985,141.085153 C103.469103,141.057582 101.218139,140.225103 99.0087984,139.305556 C93.2834076,146.378961 87.3470911,154.738089 85.6470588,163.824729 C88.9807123,166.207039 92.6351972,168.584512 93.1309425,168.827339 C96.3574963,170.408129 100.021335,171.560828 103.625778,171.095008 C107.02631,170.654825 109.866089,168.356198 113.340983,168.523564 C114.791272,168.593219 116.271025,168.991319 117.670804,168.592736 C119.614032,168.039362 120.847783,166.138351 122.067971,164.478715 C122.922898,163.315858 124.063112,161.96822 125.47318,161.542064 C126.579721,161.207332 127.74332,161.488372 128.870907,161.463702 C130.079403,161.437581 130.973147,161.025454 132.093719,160.725065 C134.631374,160.04399 137.680675,161.082533 139.802559,162.54336 C142.93277,164.698323 143.603897,167.471961 144.822682,170.777689 C145.024254,171.325258 147.875725,176.07053 147.997323,175.883815 C146.758895,177.783375 145.600908,179.780162 144.95831,181.985915 C144.997596,181.851925 147.679297,184.802604 147.883208,185.165876 C148.579122,186.407096 148.957478,187.802622 149.181499,189.177348 C149.338641,190.141398 148.91071,190.62705 150.048586,190.501284 C150.695393,190.429694 151.547046,189.378091 151.940836,188.89921" id="Fill-119" fill="#FFCDD3"></path>
                            <path d="M152.580807,183.076125 C152.488586,183.231806 152.391342,183.415107 152.285425,183.628039 C151.704247,184.796147 150.424103,187.16149 151.088371,188.472222 C151.490128,187.981074 154.396475,182.631179 154.980392,182.937017 C153.628115,182.22892 153.233206,181.972298 152.580807,183.076125" id="Fill-120" fill="#FFEED3"></path>
                            <path d="M101.960784,134.936808 C100.703307,135.523159 99.2828233,136.035577 98.0115641,136.686097 C97.8091131,136.787465 97.6095136,136.896272 97.4170426,137.010659 C97.3495589,137.048788 97.2825505,137.086918 97.2164925,137.128302 C96.9265979,137.304997 96.6443071,137.499828 96.3705705,137.716513 C96.1866537,137.853685 96.002737,138.002946 95.8259488,138.158252 C94.4358803,139.365364 93.204541,140.923543 92.0539921,142.222722 C91.7574441,142.557979 91.4661238,142.896026 91.1762292,143.237328 C91.0308066,143.406584 90.8863345,143.579095 90.7423377,143.751606 C90.0128488,144.626251 89.3090227,145.521355 88.6299089,146.435988 C88.4916149,146.623379 88.3528457,146.810769 88.2183536,146.9963 C86.5540733,149.279862 85.0456708,151.673625 83.7097793,154.155272 C83.6413452,154.278494 83.576713,154.399856 83.5116055,154.521684 C83.4764379,154.585852 83.4445971,154.648161 83.4108552,154.716049 C83.041596,155.417253 82.6999005,156.133801 82.3776898,156.855464 C82.2802662,157.069824 82.1861693,157.282789 82.0939733,157.499474 C81.1686867,159.627729 80.3626846,161.795973 79.3979533,163.888889 C78.9493295,163.528057 78.497379,163.169086 78.0378248,162.812904 C77.9266193,162.727811 77.8154138,162.642718 77.7042083,162.557625 C77.1838237,162.15634 76.6539344,161.754124 76.1183422,161.358883 C75.9648406,161.243101 75.8127647,161.131039 75.6606889,161.018976 C74.588554,160.236865 73.4978849,159.461728 72.3929587,158.695891 C72.223299,158.581968 72.0555403,158.463396 71.8854055,158.349009 C71.2984877,157.943538 70.7087184,157.543183 70.1156226,157.143757 C69.9402601,157.027975 69.7701252,156.914052 69.5990399,156.79641 C68.4575204,156.036153 67.3136247,155.280546 66.1759071,154.540283 C66.0124256,154.432406 65.8503697,154.328248 65.6887891,154.224091 C64.9155784,153.718647 64.1504467,153.223434 63.3905426,152.730081 C61.5005247,151.506229 59.0411728,150.394905 56.505783,149.210113 C56.3237672,149.121765 56.1398504,149.038532 55.9545079,148.951579 C53.2523099,147.673324 50.5006872,146.290447 48.3084185,144.570917 C48.1705997,144.46211 48.0380086,144.355162 47.9039917,144.24496 C45.5605977,142.29433 43.9386135,139.912191 43.8483185,136.78142 C43.8245566,135.982103 43.8830108,135.194412 44.013701,134.413695 C44.0270076,134.315583 44.0460171,134.21933 44.0631256,134.120287 C44.2133005,133.323296 44.4342858,132.542114 44.7161014,131.772092 C44.7526946,131.656775 44.7973669,131.538668 44.8434649,131.42428 C45.5995671,129.460631 46.7249285,127.599745 47.984782,125.895095 C48.6372826,125.011616 49.3316039,124.158826 50.0610929,123.33905 C50.1694469,123.218153 50.2773257,123.096791 50.3871055,122.979613 C51.0975849,122.200757 51.8418062,121.452124 52.6192941,120.732786 C52.7271729,120.633278 52.8350517,120.533306 52.9467324,120.432403 C55.4037082,118.206965 58.1567566,116.297255 61.122236,114.773486 C61.2657576,114.698623 61.4145068,114.625619 61.5594541,114.554476 C61.7143814,114.474963 61.8669325,114.40103 62.0232855,114.325236 C63.6576258,113.54266 65.4017459,112.862381 67.2000431,112.707539 C67.4253054,112.686615 67.651043,112.67778 67.8744045,112.67406 C67.9566205,112.67313 68.0345594,112.673595 68.1172506,112.67592 C68.7621473,112.68801 69.3970641,112.775428 70.0172485,112.923294 C70.2482137,112.972118 70.4815551,113.036752 70.7120451,113.106965 C72.5155698,113.648212 74.211691,114.631664 75.8255961,115.616511 C76.490928,116.022447 77.1610123,116.430707 77.8382252,116.845012 C78.0207162,116.95847 78.2036825,117.071462 78.3904507,117.183524 C82.029341,119.417332 85.7571007,121.766457 89.3451407,124.290418 C89.5537698,124.436424 89.7623988,124.581966 89.9686517,124.733552 C90.4163251,125.04742 90.8578203,125.368262 91.2993156,125.689105 C91.4699257,125.815582 91.6419615,125.945314 91.817324,126.074116 C92.3971132,126.503766 92.9702492,126.940391 93.5410089,127.381665 C93.7572418,127.545806 93.9706232,127.715527 94.1835294,127.884783 C95.4657191,128.89288 96.7117907,129.9312 97.9146158,131.002535 C98.0809488,131.151797 98.2491827,131.304313 98.4207433,131.4559 C98.9130889,131.905544 99.3973555,132.357978 99.8721173,132.818783 C100.046054,132.986179 100.219516,133.153575 100.385849,133.324226 C100.926193,133.852918 101.449429,134.392771 101.960784,134.936808 L0.477607322,0.122173267" id="Fill-122" fill="#464353"></path>
                            <path d="M152.046219,174.136983 C151.881147,174.144726 151.88209,174.516424 152.036786,174.557958 C153.163991,174.864186 154.245919,175.145071 155.306152,175.836372 C156.273473,176.467836 157.079023,177.442134 157.985503,178.222136 C158.021348,178.252406 158.053419,178.177785 158.032667,178.134139 C156.830472,175.571679 154.085564,174.032091 152.046219,174.136983" id="Fill-124" fill="#F2B57F"></path>
                            <path d="M155.156625,174.132705 C154.951231,174.120211 154.914034,174.265421 155.105411,174.292908 C155.648277,174.370928 156.17443,174.483653 156.64398,174.644967 C157.060698,174.787679 157.365824,174.986476 157.7599,175.139183 C157.887665,175.188882 158.096293,175.122246 158.024594,175.039507 C157.571757,174.515305 156.199229,174.196564 155.156625,174.132705" id="Fill-125" fill="#F2B57F"></path>
                            <path d="M157.154157,172.091437 C157.002985,172.023529 156.964731,172.402798 157.11452,172.470706 C157.415021,172.605798 157.642701,172.888263 157.918314,173.094152 C157.999431,173.154835 158.07179,172.997348 158.023858,172.888263 C157.833049,172.458425 157.462954,172.230863 157.154157,172.091437" id="Fill-126" fill="#F2B57F"></path>
                            <path d="M152.824501,159.966632 C150.674963,159.586142 147.566614,159.827833 145.858365,160.676015 C145.720932,160.744811 145.868565,160.852531 146.025861,160.803649 C147.157536,160.449712 148.34397,160.259618 149.635626,160.206513 C150.672816,160.163666 151.744364,160.280136 152.764374,160.176942 C152.934555,160.159442 153.030114,160.00284 152.824501,159.966632" id="Fill-127" fill="#F2B57F"></path>
                            <path d="M150.71982,155.734817 C150.200062,155.622421 149.720878,155.767829 149.210915,155.888871 C148.759712,155.995765 148.316205,156.104231 147.910472,156.354961 C147.782457,156.434346 147.854509,156.659925 147.980426,156.682718 C148.481296,156.772321 148.984264,156.67643 149.481636,156.594688 C149.963618,156.515303 150.391036,156.450852 150.813558,156.169468 C150.981447,156.057072 150.887709,155.770973 150.71982,155.734817" id="Fill-128" fill="#F2B57F"></path>
                            <path d="M132.321051,142.38991 C131.105026,142.836367 129.696051,143.123132 128.66243,143.818865 C127.648663,144.500967 127.297504,145.478109 126.471104,146.267808 C126.333371,146.399262 126.586502,146.553112 126.731681,146.431396 C127.679063,145.634881 128.082337,144.57351 129.276026,143.936687 C130.295377,143.393343 131.701871,143.350499 132.513381,142.596342 C132.617612,142.499455 132.474915,142.333433 132.321051,142.38991" id="Fill-129" fill="#F2B57F"></path>
                            <path d="M186.588235,206.165899 C186.427842,206.332857 178.881325,215.991938 175.98526,221.715213 C173.088722,227.43897 169.53216,235.588202 169.53216,235.588202 C169.53216,235.588202 144.660825,236.278171 118.835649,212.497829 C100.301024,195.430487 97.8823529,186.310775 97.8823529,186.310775 L116.232928,158.767361 C116.232928,158.767361 131.519476,178.701874 150.685738,192.491143 C159.863155,199.093479 186.588235,206.165899 186.588235,206.165899" id="Fill-134" fill="#D7A934"></path>
                            <path d="M187.607843,200.413769 C187.459901,200.588428 180.624477,210.573051 178.158132,216.366818 C175.692264,222.160586 172.751548,230.366232 172.751548,230.366232 C172.751548,230.366232 147.795548,232.976244 119.973758,211.857634 C100.005808,196.700406 96.8627451,188.017267 96.8627451,188.017267 L113.167923,159.791667 C113.167923,159.791667 130.093506,177.991796 150.440856,189.910805 C160.183589,195.618183 187.607843,200.413769 187.607843,200.413769" id="Fill-135" fill="#E7B73B"></path>
                            <path d="M187.607843,191.998242 C187.469754,192.182016 181.186452,202.608736 179.030645,208.584025 C176.874363,214.559314 174.368825,222.994429 174.368825,222.994429 C174.368825,222.994429 149.717268,226.873641 121.019837,206.925779 C100.422698,192.608925 96.8627451,183.993834 96.8627451,183.993834 L111.62739,154.670139 C111.62739,154.670139 129.356447,172.21231 150.166177,183.23974 C160.130438,188.519344 187.607843,191.998242 187.607843,191.998242" id="Fill-136" fill="#FFCC4B"></path>
                            <path d="M107.670883,183.208857 C108.660295,185.520472 107.787382,188.057706 105.710832,189.496528 C103.797159,187.561441 102.630515,186.103323 101.960784,185.172641 L104.712586,180.277778 C106.026649,180.87102 107.104401,181.886804 107.670883,183.208857" id="Fill-137" fill="#C89D30"></path>
                            <path d="M117.254902,162.850138 C116.731153,163.563095 116.057451,164.140151 115.267699,164.50447 C113.868572,165.15 112.378605,165.005213 111.137255,164.250963 L113.436969,158.767361 C114.473165,159.906315 115.757545,161.291982 117.254902,162.850138" id="Fill-138" fill="#84BF52"></path>
                            <path d="M174.352941,212.457705 C173.410287,215.804525 172.548097,219.03206 171.989722,221.1633 C170.30533,221.275202 167.620252,221.327461 164.156863,221.010501 C164.208555,217.395003 166.110932,214.012397 169.181752,212.639474 C170.903206,211.870932 172.721218,211.853892 174.352941,212.457705" id="Fill-139" fill="#C89D30"></path>
                            <path d="M182.509804,195.557669 C181.608233,197.095774 180.579462,198.903953 179.584191,200.763889 C178.351025,200.113641 177.342159,199.050283 176.799857,197.680621 C176.39835,196.665726 176.303678,195.61366 176.47069,194.618056 C178.743793,194.993054 180.804248,195.309709 182.509804,195.557669" id="Fill-140" fill="#C89D30"></path>
                            <path d="M151.888872,196.124676 C152.306687,202.935894 148.691777,207.251173 142.677083,210.161759 C141.007669,210.974931 139.266233,211.733027 137.435232,212.03125 C133.688283,210.301019 129.784826,208.184799 125.792728,205.600647 L125.791343,205.597065 C125.409077,204.87524 125.049894,204.137294 124.641312,203.38099 C122.240606,198.937198 121.583643,193.697696 123.368476,188.918515 C125.432622,183.391537 131.264493,179.933761 137.119909,180.304973 L148.836281,187.177089 L148.864443,187.195448 C148.919844,187.260376 148.973398,187.321723 149.024644,187.387994 C150.982143,189.808706 151.701894,193.061397 151.888872,196.124676" id="Fill-141" fill="#FFFFFF"></path>
                            <path d="M182.509804,195.129947 C181.642963,196.718277 180.653821,198.5855 179.696888,200.506169 C178.320305,203.257202 177.010473,206.110268 176.216919,208.394374 C175.63389,210.073077 175.033123,211.921837 174.458963,213.729297 C173.556645,216.592081 172.731349,219.352831 172.196867,221.175839 C170.584551,221.271557 168.014369,221.316258 164.69918,221.045139 C158.003916,220.487353 148.264672,218.607982 137.179654,213.123895 C133.391132,211.246468 129.444367,208.950216 125.407977,206.146223 L125.406577,206.142336 C124.921108,205.805138 124.433306,205.460652 123.94597,205.107419 C114.072755,197.967951 108.348896,192.314293 105.131267,188.528829 C103.51335,186.628566 102.527009,185.196688 101.960784,184.282755 L111.345263,164.888996 L113.815084,159.791667 C114.927927,160.850391 116.307311,162.13845 117.915425,163.586848 C122.587125,167.791137 129.207701,173.364625 136.860832,178.698577 C140.598939,181.303846 144.579313,183.851782 148.707195,186.155323 L148.73567,186.175244 C148.933592,186.286023 149.126379,186.394374 149.323367,186.501753 C155.523826,189.922323 167.794041,192.572779 176.703321,194.159651 C178.888863,194.546895 180.869947,194.87389 182.509804,195.129947 Z" id="Stroke-142" stroke="#D1A330" stroke-width="0.849"></path>
                            <path d="M125.142957,164.285394 C125.593231,165.072883 126.208845,165.743274 126.822076,166.534179 C127.944666,167.981812 128.913352,169.648518 129.776736,171.270337 C131.39296,174.307586 133.919263,176.695426 137.042597,178.068409 C139.060495,178.955433 141.209425,179.635093 142.950963,181.005149 C145.591622,183.081701 148.190827,187.287499 147.804877,190.755087 C147.626196,192.362756 147.340784,194.707171 145.171366,194.615444 C143.622325,194.549088 142.730353,192.854571 141.566309,191.805561 C139.351625,189.809514 136.034363,190.154956 133.104957,189.799268 C128.997689,189.30111 125.292572,187.239196 121.856666,184.999194 C120.338121,184.008733 118.892477,183.685736 117.311512,182.916299 C115.371281,181.971702 113.584953,180.67776 111.700947,179.620944 C105.844517,176.334859 99.7279284,174.382237 94.2488716,170.205714 C93.2558849,169.448475 92.2686159,168.640981 91.5777182,167.588068 C90.8863441,166.535154 90.5237419,165.188031 90.8906324,163.976546 C91.2656231,162.736275 92.3119757,161.850715 93.3287865,161.075424 C98.3685276,157.234583 105.141231,152.50672 111.79672,153.892877 C113.432003,154.232951 115.117793,154.670608 116.732111,155.117535 C118.394078,155.577635 120.002202,156.239732 121.511217,157.087722 C122.646195,157.725422 123.796421,158.559263 124.207148,159.816124 C124.468259,160.615323 124.393928,161.48283 124.49113,162.31911 C124.581662,163.093426 124.819426,163.719417 125.142957,164.285394" id="Fill-144" fill="#FFCDD3"></path>
                            <path d="M144.170947,192.569444 C145.672244,192.540629 146.979293,190.859734 146.808462,189.176438 C146.665304,187.766287 145.286409,186.272092 143.96978,186.435979 C142.676568,186.597465 141.674461,188.535297 140.705882,189.36794 C141.754821,190.529558 143.020892,191.523087 144.170947,192.569444" id="Fill-145" fill="#FFEED3"></path>
                            <path d="M120.526887,178.55749 C120.551159,178.253845 120.384065,178.081779 120.348551,178.396895 C120.297707,178.851013 120.245842,179.305131 120.199853,179.763973 C120.158462,180.178279 120.098421,180.608106 120.098165,181.039282 C120.098165,181.254532 120.218248,181.4212 120.265259,181.191779 C120.421367,180.431317 120.459181,179.398249 120.526887,178.55749" id="Fill-146" fill="#F2B57F"></path>
                            <path d="M136.283686,180.341306 C135.204516,181.604185 134.539628,183.17634 134.110957,184.72053 C133.737445,186.064018 133.225439,188.15657 133.891526,189.464415 C133.908913,189.49951 133.979059,189.513219 133.994047,189.467157 C134.206884,188.825024 134.119951,188.156022 134.171511,187.487019 C134.231465,186.701216 134.35497,185.920895 134.546822,185.153188 C134.964101,183.479037 135.769282,182.03794 136.607437,180.521168 C136.705761,180.343499 136.416784,180.185571 136.283686,180.341306" id="Fill-147" fill="#F2B57F"></path>
                            <path d="M133.395219,182.377811 C133.074217,182.937979 132.891829,183.642003 132.755867,184.314641 C132.631512,184.931479 132.449788,185.756691 132.615263,186.379197 C132.630849,186.438483 132.695845,186.437175 132.714747,186.382684 C132.902441,185.841261 132.881218,185.162085 132.995293,184.582301 C133.136892,183.862583 133.381955,183.211306 133.563016,182.512513 C133.597172,182.380863 133.467179,182.251828 133.395219,182.377811" id="Fill-148" fill="#F2B57F"></path>
                            <path d="M131.173404,183.381262 C130.716466,183.617161 130.410689,183.984874 130.539392,184.289201 C130.578262,184.38212 130.878856,184.410571 130.982509,184.319093 C131.137989,184.181516 131.194998,184.025571 131.303834,183.880791 C131.409215,183.740332 131.481772,183.593751 131.527552,183.44717 C131.553466,183.365416 131.302107,183.314995 131.173404,183.381262" id="Fill-149" fill="#F2B57F"></path>
                            <path d="M122.188332,176.298632 C121.779404,178.003948 121.451833,180.106151 121.334347,182.067818 C121.319627,182.314408 121.469496,182.437379 121.509907,182.195342 C121.820885,180.341031 122.091452,178.375461 122.3473,176.471051 C122.382359,176.210797 122.2448,176.063102 122.188332,176.298632" id="Fill-150" fill="#F2B57F"></path>
                            <path d="M120.007516,170.073785 C118.373307,171.341127 117.047961,172.905528 115.964054,174.566673 C115.151766,175.811251 113.730743,177.707995 114.346541,179.213212 C114.372868,179.27638 114.470471,179.259877 114.485882,179.200692 C115.38871,175.797593 117.85447,173.002272 120.273997,170.319628 C120.406917,170.172805 120.177679,169.942328 120.007516,170.073785" id="Fill-151" fill="#F2B57F"></path>
                            <path d="M285.490196,259.149306 C291.600613,255.593964 296.569192,249.929067 299.431692,243.251973 C300.975684,239.649427 301.902266,235.763175 302.188655,231.827772 C302.283498,230.524569 302.75911,229.208712 302.818154,227.942006 C302.905559,226.068469 301.911099,223.844068 300.996141,222.293168 C300.749734,221.87515 296.925784,228.538619 296.642184,229.012599 C295.631917,230.69927 294.67837,232.423411 293.783868,234.17967 C291.894441,237.887815 290.266298,241.742437 288.917107,245.700711 C287.426115,250.075543 286.275443,254.577873 285.490196,259.149306" id="Fill-152" fill="#AC885E"></path>
                            <path d="M226.16595,220.978571 C225.552908,222.429232 224.942702,224.104571 225.652167,225.511596 C226.272772,226.743149 227.799942,227.358694 229.191931,227.221751 C230.58392,227.084345 231.840255,226.31886 232.868767,225.386723 C233.264858,225.027888 233.894916,224.633772 234.267373,225.016747 C234.429024,225.183399 234.451239,225.434537 234.451711,225.663858 C234.455493,227.449679 233.678909,229.140337 233.367425,230.899235 C233.056414,232.658596 233.389168,234.776329 234.957459,235.678756 C236.202923,236.395963 237.849204,236.075657 239.036531,235.269321 C240.22433,234.462986 241.052906,233.254179 241.853122,232.074154 C241.946237,233.40087 242.054949,234.779578 242.728492,235.933608 C243.402507,237.087173 244.819547,237.938537 246.111805,237.538851 C248.081386,236.929806 248.240201,234.293085 249.325905,232.568075 C250.775086,230.266979 253.849751,229.707604 256.517926,229.035426 C261.089984,227.883717 265.40964,225.776197 269.105382,222.893444 C271.083944,221.350405 272.913146,219.551585 274.080147,217.350759 C275.246677,215.150396 275.694287,212.500213 274.878473,210.151767 C274.058878,207.791252 272.108203,206.00868 270.228899,204.331484 C268.489031,202.778232 266.750109,201.224981 265.010241,199.672193 C263.217907,198.072056 261.372163,196.438496 259.118984,195.56485 C256.025413,194.364863 252.048437,194.576544 248.77998,194.761764 C243.851536,195.041684 238.021726,196.322907 234.018753,199.26508 C231.721144,200.953417 229.789376,203.069757 227.95403,205.235768 C227.511146,205.75847 227.06259,206.304382 226.866908,206.956135 C226.671226,207.608352 226.790809,208.399833 227.333898,208.821801 C227.872259,209.240056 228.644589,209.188064 229.270866,209.463806 C232.414066,210.849013 226.966167,219.086909 226.16595,220.978571" id="Fill-153" fill="#ECAEB5"></path>
                            <path d="M301.803922,229.228963 C299.104238,237.671068 295.782574,245.928166 291.874538,253.918285 C291.617199,254.444457 288.116063,252.993706 284.470588,251.288341 C291.713108,245.336509 296.087867,235.958376 299.422826,227.395833 C300.220481,228.009472 301.026683,228.611661 301.803922,229.228963" id="Fill-154" fill="#F2B57F"></path>
                            <path d="M228.846971,203.064625 C229.588569,201.025624 230.831515,199.214664 231.620973,197.1957 C232.430333,195.127122 233.273812,193.002726 234.796812,191.393089 C236.788463,189.288253 239.616486,188.414259 242.40186,188.024969 C245.181548,187.636157 247.674075,187.248775 250.409693,186.654345 C254.163646,185.838554 258.357346,187.361364 261.884792,188.492022 C267.331862,190.238578 272.778459,191.985134 278.225055,193.73169 C280.48444,194.455883 282.84002,195.238756 284.493806,196.948578 C285.717798,198.213769 286.440915,199.87159 287.138917,201.491246 C289.27178,206.440378 291.405117,211.38951 293.538454,216.338642 C294.265836,218.025564 294.710321,220.046436 295.61398,221.615044 C296.891044,223.831038 298.809721,225.500786 300.784314,227.088477 C297.455891,236.008746 293.089705,245.778678 285.861379,251.979167 C281.992276,250.089012 277.960165,247.898303 277.484879,247.561014 C274.387702,245.363149 271.44453,242.541276 269.979342,238.952273 C268.596132,235.565547 269.166665,231.756614 267.202971,228.609379 C266.38366,227.295526 265.254915,226.121455 264.880088,224.61725 C264.359311,222.528635 265.413659,220.414734 266.259033,218.436799 C266.85089,217.050431 267.459332,215.304829 267.103459,213.776772 C266.824353,212.577416 265.966185,211.638063 265.399443,210.576581 C264.791475,209.439244 264.692912,208.398753 264.37637,207.203691 C263.659414,204.497268 261.139403,202.1892 258.72696,200.958357 C255.166817,199.142149 252.339269,199.927885 248.75022,200.474608 C248.155995,200.565251 242.428397,200.325285 242.532173,200.117282 C241.630409,201.93349 240.794986,203.819351 239.206119,205.143699 C236.361038,203.497805 232.532688,203.784048 229.960079,205.834498 C227.724861,207.61588 228.403434,204.282587 228.846971,203.064625" id="Fill-155" fill="#FFCDD3"></path>
                            <path d="M251.339039,189.539629 C251.557657,189.690401 251.711319,189.836617 251.777673,190.000645 C251.83774,190.145825 251.935525,190.351273 251.644965,190.4774 C251.487811,190.545331 251.18398,190.530005 251.085497,190.456276 C250.926248,190.337397 251.049876,190.184761 251.028223,190.057184 C251.003079,189.905376 250.933931,189.752533 250.829162,189.603624 C250.769094,189.51809 251.206331,189.448088 251.339039,189.539629" id="Fill-156" fill="#F2B57F"></path>
                            <path d="M234.897127,192.575757 C236.010583,192.774027 236.870574,193.387836 237.494444,194.198455 C237.84191,194.649556 238.923472,196.080316 238.485364,196.596695 C238.426054,196.666358 238.347161,196.683895 238.254839,196.649795 C238.131184,196.604003 238.121113,196.572825 238.074113,196.463703 C238.054529,196.418398 238.086422,196.362376 238.132303,196.338506 C238.151887,196.328763 238.17147,196.318533 238.191054,196.308302 C238.198327,196.304405 238.203923,196.307328 238.211196,196.304892 C238.025434,196.016499 237.684683,195.430458 237.64104,195.355436 C237.456397,195.04025 237.260563,194.726525 237.023324,194.438132 C236.455965,193.749789 235.70732,193.253383 234.738222,193.103341 C234.343757,193.04196 234.501543,192.505607 234.897127,192.575757" id="Fill-157" fill="#F2B57F"></path>
                            <path d="M234.625083,194.621511 C234.814107,194.678959 234.950759,194.883166 235.083514,195.026662 C235.234538,195.189726 235.389947,195.348275 235.518073,195.531409 C235.559483,195.590363 235.478369,195.671644 235.421126,195.631756 C235.23941,195.504566 235.080835,195.348275 234.918362,195.197252 C234.774402,195.063791 234.575392,194.931834 234.513764,194.737913 C234.492572,194.670681 234.560289,194.601692 234.625083,194.621511" id="Fill-158" fill="#F2B57F"></path>
                            <path d="M235.655138,191.550189 C235.805951,191.606266 235.937759,191.750017 236.068647,191.868401 C236.212716,191.998801 236.354639,192.134097 236.496869,192.268058 C236.615802,192.379766 236.510969,192.649022 236.385598,192.54666 C236.238158,192.425606 236.090104,192.306332 235.943583,192.181717 C235.811162,192.068674 235.660349,191.965867 235.556742,191.798973 C235.490226,191.691715 235.553677,191.512805 235.655138,191.550189" id="Fill-159" fill="#F2B57F"></path>
                            <path d="M231.187508,201.345324 C231.103797,201.529187 230.998924,201.732769 230.872887,201.962465 C230.184388,203.219664 228.844074,205.875291 227.372549,205.885417 C227.578534,205.188868 230.603413,199.169873 230.032486,198.715278 C231.35493,199.767829 231.783831,200.047621 231.187508,201.345324" id="Fill-160" fill="#FFEED3"></path>
                            <g id="Group-164" transform="translate(285.490196, 222.274306)">
                                <mask id="mask-6" fill="white">
                                    <use xlink:href="#path-5"></use>
                                </mask>
                                <g id="Clip-162"></g>
                                <path d="M0,36.2016516 C2.98384399,36.9663821 5.82509312,38.299158 8.33068872,40.1081929 C8.8404191,40.476275 14.6613455,30.9960519 15.1460754,30.0973882 C17.1155514,26.4437278 18.7053916,22.5812066 19.8831882,18.5945864 C21.0609848,14.6079662 21.8272008,10.4967787 22.1489652,6.34859576 C22.2823006,4.6285375 22.4725815,3.60577484 20.8563519,2.82278072 C19.0785457,1.96111255 17.0169387,1.29987588 15.1071859,0.853587963 C15.2275582,2.59706112 15.5710822,4.49975557 15.4988589,6.25540448 C15.4002462,8.66854366 14.2613391,11.2807095 13.4682709,13.5360322 C11.731669,18.4732972 9.41866908,23.2031062 6.59269798,27.596209 C4.63433334,30.6415504 2.42874253,33.5248607 0,36.2016516" id="Fill-161" fill="#FFEED3" mask="url(#mask-6)"></path>
                                <path d="M28.2258367,50.3641772 C24.4131323,48.4741702 20.6008966,46.5836935 16.7881922,44.6936865 C13.8629155,43.2428338 10.3267998,42.326481 7.69639469,40.3848088 C8.55241316,39.1312231 9.7679969,38.2684143 10.6905842,37.0777662 C11.8461622,35.5855813 12.7720311,33.8482215 13.7105574,32.2151315 C15.5726085,28.974784 17.1346313,25.561593 18.3769363,22.0356778 C19.6534633,18.4120685 20.5919896,14.6682202 21.170013,10.8689492 C21.3270591,9.83564519 22.6659357,0.251750433 21.8216371,0 C29.5014261,2.28735935 37.1812151,4.57471869 44.861004,6.86160836 C46.6438289,21.0606146 43.2235054,35.8575281 35.3904207,47.8250674 C34.315944,49.4670814 32.8533057,51.2241679 30.8942141,51.2152439 C29.9519375,51.2110168 29.0701353,50.783135 28.2258367,50.3641772" id="Fill-163" fill="#F6C043" mask="url(#mask-6)"></path>
                            </g>
                            <path d="M251.227258,195.642361 L245.72549,189.743595 L268.423423,169.484024 C269.179673,168.809138 270.351482,168.861979 271.041394,169.601295 L275.294118,174.16095 L251.227258,195.642361" id="Fill-165" fill="#FFFFFF"></path>
                            <polyline id="Fill-166" fill="#FFEED3" points="251.333954 196.666667 245.72549 189.153037 247.254281 187.447917 252.862745 194.961546 251.333954 196.666667"></polyline>
                            <path d="M261.019608,190.770975 L261.019608,190.770975 L276.869833,175.15625 L278.352941,176.910499 L264.127495,190.924412 C263.229661,191.808706 261.838638,191.739875 261.019608,190.770975" id="Fill-167" fill="#334262"></path>
                            <polyline id="Fill-168" fill="#202A35" points="227.607958 218.177083 223.294118 213.317486 246.509689 191.545139 250.823529 196.404266 227.607958 218.177083"></polyline>
                            <polyline id="Fill-169" fill="#161E27" points="248.944182 197.690972 244.705882 193.202023 246.58523 191.545139 250.823529 196.033654 248.944182 197.690972"></polyline>
                            <path d="M217.176471,221.25 L220.235294,220.708021 C219.744468,220.521681 219.189283,220.359485 218.59237,220.225694 L217.176471,221.25" id="Fill-170" fill="#202A35"></path>
                            <path d="M223.608532,212.03125 L219.215686,220.345386 C219.643465,220.596313 220.041341,220.900514 220.393093,221.25 L228.392157,217.542042 L223.608532,212.03125" id="Fill-171" fill="#334262"></path>
                            <polyline id="Fill-172" fill="#334262" points="275.473843 176.180556 272.235294 172.811207 273.075177 172.083333 276.313725 175.453193 275.473843 176.180556"></polyline>
                            <path d="M262.792788,220.022104 C261.86392,220.111593 260.943608,220.146084 260.035655,220.072908 C256.642005,219.799312 252.849997,217.894394 249.794809,216.525947 C246.15159,214.893693 243.042686,212.191291 240.89545,208.881572 C238.981144,205.929345 236.353786,203.791847 232.491899,203.837524 C229.90067,203.868286 226.179967,205.138853 226.35918,208.187561 C226.44332,209.617065 227.223399,210.915131 228.094748,212.064048 C228.966097,213.213431 229.959615,214.294299 230.585675,215.588636 C231.495528,217.471648 231.557802,219.664145 232.464328,221.549021 C233.877596,224.48913 237.032612,226.151214 239.439398,228.386592 C241.957896,230.726374 243.721986,233.783937 246.364555,235.989019 C250.136123,239.135606 255.295289,240.242109 259.845984,241.888812 C265.246161,243.841737 270.709087,245.625472 276.224303,247.236752 C277.748332,247.682336 279.365533,248.1172 280.907626,247.73547 C282.795786,247.26798 284.168173,245.669284 285.131268,244.009064 C288.935636,237.449285 288.434598,227.622201 282.031871,222.811199 C278.990943,220.525949 275.152824,219.415252 271.329442,219.164028 C268.484841,218.977125 265.600785,219.750838 262.792788,220.022104" id="Fill-173" fill="#FFCDD3"></path>
                            <path d="M227.372549,210.764172 C227.401532,208.931128 229.218284,205.960057 231.014332,207.206163 C231.620683,207.627239 232.016329,208.351681 232.388512,209.049372 C232.976001,210.148342 233.771433,211.854046 233.390969,213.213045 C233.260774,213.677459 231.121065,216.106001 231.139927,216.128472 C229.772648,214.505164 228.604572,212.544246 227.372549,210.764172" id="Fill-174" fill="#FFEED3"></path>
                            <path d="M255.592319,230.503214 C254.669225,231.100558 253.935458,231.920752 253.020212,232.543151 C252.017168,233.225327 250.911613,233.745311 249.860993,234.361116 C249.74671,234.428367 249.817339,234.593636 249.955656,234.561989 C252.036297,234.084201 254.836971,232.499635 255.89642,230.775733 C255.995498,230.61398 255.782627,230.380141 255.592319,230.503214" id="Fill-175" fill="#F2B57F"></path>
                            <path d="M249.633051,231.527093 C249.570491,231.603405 249.5433,231.70055 249.491576,231.786225 C249.438829,231.873538 249.373202,231.957574 249.3041,232.028268 C249.158126,232.17738 248.976375,232.23473 248.817521,232.355986 C248.769272,232.392503 248.772543,232.485434 248.834286,232.502757 C249.050793,232.564087 249.283042,232.421764 249.447824,232.271247 C249.607291,232.125647 249.816234,231.858791 249.803354,231.607853 C249.798652,231.513751 249.695407,231.450782 249.633051,231.527093" id="Fill-176" fill="#F2B57F"></path>
                            <path d="M251.427659,229.486482 C250.914535,229.776587 246.089917,233.308906 245.97728,233.203619 C245.882847,233.1146 245.687155,233.209042 245.732096,233.316588 C245.748024,233.35545 245.764521,233.394311 245.78045,233.432721 C245.798654,233.476553 245.842457,233.52174 245.903895,233.530778 C246.728193,233.650073 247.666266,232.758069 248.246517,232.373974 C249.440583,231.582738 250.76549,230.784724 251.774672,229.843917 C251.970933,229.66181 251.710958,229.326518 251.427659,229.486482" id="Fill-177" fill="#F2B57F"></path>
                            <path d="M237.362592,217.15524 C235.944377,217.487914 234.38781,219.135612 233.508195,221.009842 C233.456578,221.119546 233.524273,221.32257 233.606353,221.223552 C234.210533,220.498365 234.79102,219.732573 235.442586,219.127776 C236.099653,218.517993 236.802837,218.150413 237.484867,217.643922 C237.664682,217.509285 237.522522,217.118197 237.362592,217.15524" id="Fill-178" fill="#F2B57F"></path>
                            <path d="M236.276727,220.231462 C235.196267,220.391398 234.354982,220.802562 233.535716,221.13925 C233.409675,221.191074 233.570643,221.27619 233.71187,221.242213 C234.676159,221.012263 235.805212,220.799816 236.49616,220.401694 C236.621441,220.329277 236.514382,220.196455 236.276727,220.231462" id="Fill-179" fill="#F2B57F"></path>
                            <path d="M238.208278,221.339102 C237.750267,221.971303 237.301738,222.592095 236.674936,223.06886 C236.032962,223.557033 235.327454,223.7909 234.591602,224.087986 C234.471646,224.136471 234.484922,224.309494 234.622894,224.317575 C236.262442,224.420248 238.093538,223.02703 238.577152,221.495013 C238.651117,221.262097 238.335345,221.164653 238.208278,221.339102" id="Fill-180" fill="#F2B57F"></path>
                            <path d="M255.65629,233.608981 C255.152755,234.373622 254.685489,235.134993 254.062726,235.770248 C253.385944,236.46062 252.608454,236.839904 251.885756,237.423778 C251.815531,237.480764 251.832508,237.651255 251.933601,237.638176 C253.520606,237.425646 255.255005,235.545573 255.907093,233.843465 C255.976932,233.660829 255.777833,233.423543 255.65629,233.608981" id="Fill-181" fill="#F2B57F"></path>
                        </g>
                        <g id="Path-3" stroke-width="1" fill="none" transform="translate(208.000000, 233.000000)">
                            <path d="M54.7900488,43.9147422 L79,28.249752 L0,0 L28.2494434,79 L43.9147422,54.7900488 L60.8747461,71.7500527 C63.8778262,74.7531328 68.7468184,74.7529785 71.7500527,71.7500527 C74.7529785,68.7469727 74.7529785,63.8779805 71.7500527,60.8747461 L54.7900488,43.9147422 Z" id="Path" fill="#464353" fill-rule="nonzero"></path>
                        </g>
                    </g>
                </g>
            </g>
        </g>
    </g>
</svg>