<?xml version="1.0" encoding="UTF-8"?>
<svg width="352px" height="250px" viewBox="0 0 352 250" version="1.1" xmlns="http://www.w3.org/2000/svg" xmlns:xlink="http://www.w3.org/1999/xlink">
    <!-- Generator: Sketch 53.2 (72643) - https://sketchapp.com -->
    <title>step-6</title>
    <desc>Created with Sketch.</desc>
    <defs>
        <rect id="path-1" x="0" y="0" width="352" height="250"></rect>
        <linearGradient x1="50.0017132%" y1="99.9950446%" x2="50.0017132%" y2="0%" id="linearGradient-3">
            <stop stop-color="#808080" stop-opacity="0.25" offset="0%"></stop>
            <stop stop-color="#808080" stop-opacity="0.12" offset="54%"></stop>
            <stop stop-color="#808080" stop-opacity="0.1" offset="100%"></stop>
        </linearGradient>
    </defs>
    <g id="UI_2" stroke="none" stroke-width="1" fill="none" fill-rule="evenodd">
        <g id="Home" transform="translate(-936.000000, -1896.000000)">
            <g id="step-6" transform="translate(936.000000, 1896.000000)">
                <mask id="mask-2" fill="white">
                    <use xlink:href="#path-1"></use>
                </mask>
                <use id="Mask" fill="#FFFFFF" xlink:href="#path-1"></use>
                <g mask="url(#mask-2)">
                    <g transform="translate(1.000000, 13.000000)">
                        <path d="M2.74841672,107.234043 C-2.93742618,148.138745 0.959286577,225.957035 74.6157653,219.123064 C148.272244,212.289093 112.435673,185.866531 201.956191,219.123064 C291.476709,252.379597 228.703476,118.537659 318.820052,95.036653 C408.936629,71.5356469 278.394078,17.6011365 247.434914,14.1766494 C216.475751,10.7521623 153.126404,6.93545503 95.2008717,22.6247095 C37.2753398,38.3139639 8.43425961,66.3293402 2.74841672,107.234043 Z" id="Path-6-Copy-7" fill="#FFD15E" fill-rule="evenodd" opacity="0.360258557"></path>
                        <path d="M319.787234,149.015054 C312.070119,163.855303 301.571008,173.68716 289.779291,179.943797 C286.371888,181.748405 282.829404,183.286358 279.183724,184.543812 C257.72635,191.979346 233.71076,190.006811 214.846329,186.081002 C201.615153,183.325135 188.184509,181.629724 174.682724,181.010969 C170.831895,180.83762 166.977208,180.751578 163.118662,180.752845 C157.168768,180.76055 151.220177,180.981433 145.272887,181.415493 C106.621832,184.251013 62.0163648,174.131604 0,166.143916 L86.5149486,0 L110.804495,62.2658626 L118.556314,82.1414711 L139.921083,52.8693498 L150.952666,37.7555657 L201.190935,95.2634565 L215.390391,63.9533167 L313.698425,144.056758 L319.181419,148.521931 L319.787234,149.015054 Z" id="Path" fill="#FFFFFF" fill-rule="nonzero"></path>
                        <polygon id="Path" fill="#000000" fill-rule="nonzero" opacity="0.1" points="77.5531915 40.8472187 87.5909403 19.1489362 101.489362 50.7446809 89.5212766 27.9043835"></polygon>
                        <path d="M175.212766,181.914894 C171.337035,181.741987 167.45742,181.656165 163.573922,181.657428 L118.723404,83.2978723 L175.212766,181.914894 Z" id="Path" fill="#000000" fill-rule="nonzero" opacity="0.1"></path>
                        <polygon id="Path" fill="#000000" fill-rule="nonzero" opacity="0.1" points="139.787234 53.513234 150.833628 45 201.06383 102.446809 150.060856 53.4255319"></polygon>
                        <path d="M290.106383,181.107589 C286.718337,182.926743 283.195977,184.477092 279.571007,185.744681 L202.021277,95.7446809 L290.106383,181.107589 Z" id="Path" fill="#000000" fill-rule="nonzero" opacity="0.1"></path>
                        <circle id="Oval" fill="#F2F2F2" fill-rule="nonzero" cx="174.668957" cy="35.9042553" r="1"></circle>
                        <circle id="Oval" fill="#F2F2F2" fill-rule="nonzero" cx="28.1795951" cy="51.2234043" r="1"></circle>
                        <circle id="Oval" fill="#F2F2F2" fill-rule="nonzero" cx="221.58385" cy="26.3297872" r="1"></circle>
                        <ellipse id="Oval" fill="#F2F2F2" fill-rule="nonzero" cx="292.978723" cy="65.5851064" rx="1" ry="1"></ellipse>
                        <path d="M8.7026815,182.796301 C6.55761727,177.092204 4.77845694,170.032106 3.36520052,161.616008 C35.4856161,158.812463 86.5255499,157 144,157 C234.922782,157 309.742382,161.535916 319.029749,167.355835 C319.671156,167.625759 320,167.963668 320,168.377663 C320,168.411049 319.997861,168.444864 319.993593,168.479102 C319.997861,168.512351 320,168.545633 320,168.578947 C320,168.986654 319.679708,169.38944 319.054774,169.786274 C309.877632,177.528384 235.004968,197 144,197 C89.6125692,197 40.9870063,190.045452 8.7026815,182.796301 Z" id="Combined-Shape" fill="#3F3D56" fill-rule="nonzero"></path>
                        <path d="M37.3404255,160.442997 C37.3404255,160.442997 41.7146868,160.302537 43.0329751,159.323832 C44.3512633,158.345128 49.7616881,157.1765 50.0887251,158.746128 C50.4157621,160.315756 56.6624248,166.552741 51.723906,166.594271 C46.7853873,166.635801 40.2489905,165.792255 38.9332373,164.956683 C37.6174841,164.121112 37.3404255,160.442997 37.3404255,160.442997 Z" id="Path" fill="#A8A8A8" fill-rule="nonzero"></path>
                        <path d="M51.8130522,165.127253 C46.8741873,165.166003 40.3373323,164.379149 39.0214829,163.599746 C38.0193972,163.006166 37.6200746,160.876276 37.486465,159.893617 C37.3939361,159.897481 37.3404255,159.899154 37.3404255,159.899154 C37.3404255,159.899154 37.6174996,163.32998 38.933349,164.109415 C40.2491984,164.888849 46.7860494,165.67568 51.7249144,165.636922 C53.1505666,165.625743 53.6430142,165.132505 53.6159728,164.401971 C53.4179287,164.843345 52.8741959,165.118934 51.8130522,165.127253 Z" id="Path" fill="#000000" fill-rule="nonzero" opacity="0.2"></path>
                        <path d="M239.361702,135 C239.361702,149.817969 248.354598,161.808511 259.468085,161.808511" id="Path" fill="#3F3D56" fill-rule="nonzero"></path>
                        <path d="M259.468085,161.808511 C259.468085,146.990523 269.745683,135 282.446809,135" id="Path" fill="#F6C043" fill-rule="nonzero"></path>
                        <path d="M247.021277,136.914894 C247.021277,150.674451 252.588306,161.808511 259.468085,161.808511" id="Path" fill="#F6C043" fill-rule="nonzero"></path>
                        <path d="M260.425532,161.808511 C260.425532,143.286025 272.416054,128.297872 287.234043,128.297872" id="Path" fill="#3F3D56" fill-rule="nonzero"></path>
                        <path d="M256.595745,161.536465 C256.595745,161.536465 259.426146,161.442818 260.279157,160.790355 C261.132168,160.137891 264.633032,159.3588 264.844645,160.405218 C265.056258,161.451636 269.098214,165.609636 265.902703,165.637316 C262.707191,165.664996 258.477763,165.102646 257.626383,164.545582 C256.775004,163.988518 256.595745,161.536465 256.595745,161.536465 Z" id="Path" fill="#A8A8A8" fill-rule="nonzero"></path>
                        <path d="M265.960383,166.169886 C262.764648,166.202174 258.534925,165.546481 257.68349,164.896954 C257.035079,164.402304 256.776696,162.627411 256.690243,161.808511 C256.630372,161.811735 256.595745,161.813122 256.595745,161.813122 C256.595745,161.813122 256.775027,164.672142 257.626459,165.321668 C258.477891,165.971194 262.707607,166.626887 265.903352,166.594599 C266.825835,166.585278 267.144478,166.174244 267.126981,165.565474 C266.998828,165.933278 266.646998,166.16295 265.960383,166.169886 Z" id="Path" fill="#000000" fill-rule="nonzero" opacity="0.2"></path>
                        <path d="M285,168.84156 C285,168.84156 289.456374,168.157291 290.688426,167.024562 C291.920479,165.891834 297.314545,164.061068 297.834997,165.57339 C298.355449,167.085711 305.482373,172.478282 300.437283,173.135002 C295.392194,173.791722 288.60824,173.771898 287.163735,173.109119 C285.719231,172.44634 285,168.84156 285,168.84156 Z" id="Path" fill="#A8A8A8" fill-rule="nonzero"></path>
                        <path d="M321.846696,174.181775 C316.801257,174.836824 310.016845,174.817043 308.572238,174.155963 C307.472096,173.652516 306.793108,171.448617 306.531613,170.425532 C306.437485,170.441128 306.382979,170.449544 306.382979,170.449544 C306.382979,170.449544 307.102275,174.045083 308.546874,174.706163 C309.991473,175.367243 316.775885,175.387024 321.821332,174.731979 C323.277748,174.542896 323.718636,173.959798 323.598156,173.190222 C323.451715,173.681834 322.930729,174.041041 321.846696,174.181775 Z" id="Path" fill="#000000" fill-rule="nonzero" opacity="0.2"></path>
                        <path d="M198.191489,170.010465 C198.191489,170.010465 201.905146,169.402226 202.931842,168.395357 C203.958538,167.388488 208.453605,165.761139 208.88732,167.105423 C209.321036,168.449708 215.260133,173.243105 211.055891,173.826859 C206.85165,174.410612 201.198358,174.392984 199.99461,173.80385 C198.790861,173.214715 198.191489,170.010465 198.191489,170.010465 Z" id="Path" fill="#A8A8A8" fill-rule="nonzero"></path>
                        <path d="M211.077918,173.224328 C206.873385,173.879376 201.219706,173.859596 200.015871,173.198513 C199.099091,172.695066 198.533265,170.491172 198.31535,169.468085 C198.236911,169.483684 198.191489,169.492098 198.191489,169.492098 C198.191489,169.492098 198.790903,173.087633 199.994738,173.748715 C201.198574,174.409797 206.852249,174.429578 211.056782,173.774529 C212.270476,173.585449 212.63787,173.002352 212.53747,172.232775 C212.415434,172.724388 211.981278,173.083592 211.077918,173.224328 Z" id="Path" fill="#000000" fill-rule="nonzero" opacity="0.2"></path>
                        <path d="M8.61702128,168.729943 C8.61702128,168.729943 11.3403563,168.349788 12.0932808,167.720501 C12.8462052,167.091213 16.1425732,166.074114 16.4606309,166.914294 C16.7786886,167.754474 21.1340265,170.750347 18.0509157,171.115192 C14.967805,171.480037 10.8220498,171.469021 9.93931153,171.100803 C9.05657325,170.732584 8.61702128,168.729943 8.61702128,168.729943 Z" id="Path" fill="#A8A8A8" fill-rule="nonzero"></path>
                        <path d="M18.0670703,170.764402 C14.9837461,171.15743 10.8377041,171.145562 9.9549047,170.748901 C9.28259663,170.446834 8.86765706,169.1245 8.70785636,168.510638 C8.65033088,168.520011 8.61702128,168.525058 8.61702128,168.525058 C8.61702128,168.525058 9.05659272,170.682369 9.93940303,171.079017 C10.8222133,171.475664 14.9682445,171.487531 18.0515686,171.094518 C18.9416006,170.981069 19.2110333,170.631213 19.1374076,170.169469 C19.0479155,170.464459 18.7295329,170.679965 18.0670703,170.764402 Z" id="Path" fill="#000000" fill-rule="nonzero" opacity="0.2"></path>
                        <path d="M129.936535,152.357345 C132.029596,153.00065 133.981541,154.016866 135.692928,155.354223 C135.821793,155.43276 135.915261,155.555916 135.954487,155.698859 C135.997861,156.021486 135.555316,156.153097 135.233963,156.243127 C134.289078,156.507841 133.685338,157.371573 132.989492,158.047518 C132.293645,158.723462 131.175584,159.253811 130.363824,158.713937 C130.150501,158.555128 129.964404,158.364414 129.812465,158.148899 L126.382979,153.793453 C127.545791,153.161038 128.768385,152.638833 130.033895,152.234043" id="Path" fill="#F1F1F1" fill-rule="nonzero"></path>
                        <g id="Group-13" stroke-width="1" fill="none" fill-rule="evenodd" transform="translate(52.659574, 72.765957)">
                            <path d="M14.8394233,45 C14.8394233,45 22.640057,52.735761 18.2370838,64.2194746 C13.8341107,75.7031882 25.7859781,94.787234 25.7859781,94.787234 C25.7859781,94.787234 25.6576403,94.7692856 25.420709,94.7268621 C9.39987572,91.9187532 1.43799709,73.7484442 10.3476009,60.2479829 C13.6597029,55.2289572 16.3712499,49.3418815 14.8394233,45 Z" id="Path" fill="#F6C043" fill-rule="nonzero"></path>
                            <path d="M15.1018154,45 C15.1018154,45 19.399248,54.4822725 15.1018154,62.2185406 C10.8043827,69.9548088 14.3646997,91.667271 25.7859781,94.787234" id="Path" stroke="#535461" stroke-width="2"></path>
                            <path d="M0.892361053,75.7361975 C0.892361053,75.7361975 9.79015507,74.3131024 10.5960551,82.3184255 C11.4019551,90.3237486 27.7008717,91.4315176 27.7008717,91.4315176 C27.7008717,91.4315176 27.5939666,91.5041582 27.3949586,91.636232 C13.9479413,100.500035 1.08314555,97.279085 3.02223966,85.5047059 C3.74261559,81.1264594 3.6850513,76.726751 0.892361053,75.7361975 Z" id="Path" fill="#F6C043" fill-rule="nonzero"></path>
                            <path d="M0.892361053,75.7361975 C0.892361053,75.7361975 9.79015507,74.3131024 10.5960551,82.3184255 C11.4019551,90.3237486 27.7008717,91.4315176 27.7008717,91.4315176 C27.7008717,91.4315176 27.5939666,91.5041582 27.3949586,91.636232 C13.9479413,100.500035 1.08314555,97.279085 3.02223966,85.5047059 C3.74261559,81.1264594 3.6850513,76.726751 0.892361053,75.7361975 Z" id="Path" fill="#F5F5F5" fill-rule="nonzero" opacity="0.2"></path>
                            <path d="M0.892361053,75.6382979 C0.892361053,75.6382979 7.79795717,77.1051357 7.22906758,83.1793078 C6.660178,89.25348 17.4822336,96.5431229 27.7008717,90.7632729" id="Path" stroke="#535461" stroke-width="2"></path>
                            <path d="M93.4999722,91.0091433 C93.4999722,91.0091433 100.334109,90.4900722 102.301209,92.7415034 C104.26831,94.9929346 111.290343,100.154985 108.392071,101.304585 C105.493798,102.454184 89.9349142,97.8637482 89.9349142,97.8637482 L93.4999722,91.0091433 Z" id="Path" fill="#FFB9B9" fill-rule="nonzero"></path>
                            <path d="M65.5791623,9.51575743 C65.4596223,7.92017856 64.2671782,6.6050734 62.6765284,6.31454331 C61.6370269,6.15029425 60.4763054,6.44101508 59.5829319,5.88749576 C59.1794193,5.6361947 58.8904843,5.24363945 58.5650174,4.90200142 C57.2897183,3.55351666 55.3751092,2.93101273 53.5086558,2.87681054 C51.6422025,2.82260835 49.8023179,3.26936579 48.0089286,3.78018036 C44.4287922,4.800167 40.6460691,6.29647591 38.7414233,9.46319773 C35.8454316,14.2839075 38.5172496,20.7816002 36.2273571,25.9110983 C35.2310297,28.1514554 33.3313655,29.9811899 32.7136425,32.3529463 C31.8833697,35.5213106 33.5206677,38.7356647 34.7810219,41.7611323 C35.9116503,44.4746299 36.7703914,47.2913063 37.3449044,50.170684 C37.8513708,52.7132594 38.1336635,55.3560267 37.5624358,57.8903897 C37.3116934,58.9990708 36.8982176,60.1274618 37.1207307,61.2410704 C37.4528398,62.9262658 39.1001011,63.9889572 40.5979133,64.8545497 L40.9881415,65.0812134 C43.1468509,66.3295062 45.3670005,67.6040789 47.8395529,67.9128671 C49.3755577,68.103396 50.9945897,67.8931573 52.3230262,67.1162592 C53.6514628,66.3393612 54.6627351,64.9530991 54.7756522,63.4272254 C54.9018537,61.7009678 53.9304344,60.0847571 53.7212057,58.3650695 C53.673189,58.1059894 53.6932004,57.8390553 53.7793248,57.5898139 C53.9171501,57.2613158 54.2376354,57.0494345 54.5332125,56.8457657 C58.7908516,53.9089925 61.0741019,48.4132191 60.1325725,43.3642031 C59.4916019,39.9248278 57.4989471,36.5051625 58.4637241,33.1396993 C58.9967593,31.2804 60.3700305,29.7742361 61.1405237,27.9987038 C61.9545775,26.1023688 62.0558866,23.980533 61.4261376,22.0167532 C60.986093,20.6600559 60.189031,19.3050012 60.4630211,17.9105267 C60.9462399,15.4336509 64.2822761,14.643613 65.5426303,12.4492456 C66.4775175,10.81661 65.9245558,8.50726822 64.3470374,7.46921418" id="Path" fill="#686672" fill-rule="nonzero"></path>
                            <polygon id="Path" fill="#777B9B" fill-rule="nonzero" points="72.7008717 95.7446809 37.2753398 95.7446809 37.2753398 76.5957447 57.0477297 84.2553191 72.7008717 76.5957447"></polygon>
                            <polygon id="Path" fill="#000000" fill-rule="nonzero" opacity="0.1" points="72.7008717 95.7446809 37.2753398 95.7446809 37.2753398 76.5957447 57.0477297 84.2553191 72.7008717 76.5957447"></polygon>
                            <path d="M68.9915675,97.6052568 C68.9915675,97.6052568 62.8612547,99.1057382 62.2325047,101.855548 C61.6037546,104.605357 65.8478174,104.355813 65.8478174,104.355813 C65.8478174,104.355813 71.8209427,103.104875 72.6068802,98.104344 C73.3928178,93.1038125 68.9915675,97.6052568 68.9915675,97.6052568 Z" id="Path" fill="#FFB9B9" fill-rule="nonzero"></path>
                            <path d="M68.9915675,97.6052568 C68.9915675,97.6052568 62.8612547,99.1057382 62.2325047,101.855548 C61.6037546,104.605357 65.8478174,104.355813 65.8478174,104.355813 C65.8478174,104.355813 71.8209427,103.104875 72.6068802,98.104344 C73.3928178,93.1038125 68.9915675,97.6052568 68.9915675,97.6052568 Z" id="Path" fill="#000000" fill-rule="nonzero" opacity="0.1"></path>
                            <path d="M50.8598228,106.732275 C50.8598228,106.732275 45.0144155,107.099291 44.9349294,111.68008 C44.9238014,112.294333 51.0235642,112.472466 58.2647472,108.711704 C65.5059303,104.950942 65.998744,104.554749 65.998744,104.554749 C65.998744,104.554749 63.2008336,100.199697 61.2295785,99.6069431 C59.2583234,99.0141892 50.8598228,106.732275 50.8598228,106.732275 Z" id="Path" fill="#CBCDDA" fill-rule="nonzero"></path>
                            <path d="M16.1267879,87.335338 C16.1267879,87.335338 9.31967039,93.1914769 21.96146,101.390071 C34.6032496,109.588666 46.7588166,108.082801 46.7588166,108.082801 C46.7588166,108.082801 59.9451756,106.471527 61.9419301,100.081643 C63.9386845,93.6917584 52.107266,88.3392475 52.107266,88.3392475 C52.107266,88.3392475 39.141328,88.3392475 33.3066558,84.4909277 C27.4719837,80.6426078 16.1267879,87.335338 16.1267879,87.335338 Z" id="Path" fill="#777B9B" fill-rule="nonzero"></path>
                            <path d="M52.771755,77.3494451 C52.771755,77.3494451 58.6785399,80.7740094 66.7183305,77.3494451 C72.904047,74.7141613 86.4732446,75.7480536 92.4013596,76.3709982 C95.18083,76.65964 97.5615925,78.5627193 98.3212707,81.2355102 C98.9414831,83.4158161 98.4853481,86.0951299 94.7739182,88.6064771 C86.5700502,94.1510097 80.8273426,95.7817546 78.694337,98.0647974 C76.5613313,100.34784 70.490469,101.489362 70.490469,101.489362 C70.490469,101.489362 62.7788331,100.34784 62.7788331,98.7170954 C62.7788331,97.0863505 69.8341596,89.0957005 69.8341596,89.0957005 C69.8341596,89.0957005 59.4972859,98.5540209 48.8322576,85.8342108 C38.1672292,73.1144006 52.771755,77.3494451 52.771755,77.3494451 Z" id="Path" fill="#777B9B" fill-rule="nonzero"></path>
                            <path d="M49.764831,54.5744681 L29.6157653,40.2675816 C29.6157653,40.2675816 39.2809707,33.4742772 40.1107314,27.4028951 C40.299207,26.2192667 40.065136,25.0050094 39.4523171,23.9873315 C35.4859656,17.4094527 53.4138744,23.9873315 53.4138744,23.9873315 C53.5297018,25.7001943 53.7549556,27.4032138 54.0881542,29.0851876 C54.8671456,33.0894713 56.5108017,38.4224866 59.9186909,41.0898165 C65.7888911,45.6943317 49.764831,54.5744681 49.764831,54.5744681 Z" id="Path" fill="#FFB9B9" fill-rule="nonzero"></path>
                            <path d="M55.4668291,29.0025897 C50.6482246,31.6911665 44.5596344,31.0155806 40.5080108,27.3427692 C40.7097199,26.1703675 40.4592141,24.9676274 39.8033673,23.9596021 C35.5585267,17.4441143 54.7452062,23.9596021 54.7452062,23.9596021 C54.8694644,25.6540343 55.1105326,27.3387147 55.4668291,29.0025897 L55.4668291,29.0025897 Z" id="Path" fill="#000000" fill-rule="nonzero" opacity="0.1"></path>
                            <circle id="Oval" fill="#FFB9B9" fill-rule="nonzero" cx="48.7647015" cy="18.1914894" r="12.4468085"></circle>
                            <path d="M54.9659957,35.1288583 C54.9659957,35.1288583 52.5269239,49.3691939 48.4618042,48.5600839 C44.3966844,47.7509739 31.7135108,33.5106383 31.7135108,33.5106383 C31.7135108,33.5106383 18.5425228,37.8798322 20.6563851,48.5600839 C22.7702474,59.2403356 24.8841096,68.3023674 20.4937803,71.7006293 C16.103451,75.0988912 13.3391696,90.9574468 13.3391696,90.9574468 C13.3391696,90.9574468 27.3231815,85.131855 34.640397,87.3973629 C41.9576126,89.6628708 49.4374329,88.5301169 51.2260856,86.4264309 C53.0147383,84.322745 55.6164149,79.7917291 55.6164149,79.7917291 C55.6164149,79.7917291 51.8765047,74.2897812 53.6651574,71.5388073 C55.4538101,68.7878334 57.7302772,68.6260114 59.0311155,60.8585556 C60.3319538,53.0910998 70.5760556,50.3401259 68.6247981,45.970932 C66.6735406,41.6017381 62.9336304,35.1288583 54.9659957,35.1288583 Z" id="Path" fill="#000000" fill-rule="nonzero" opacity="0.1"></path>
                            <path d="M54.9659957,35.1288583 C54.9659957,35.1288583 52.5269239,49.3691939 48.4618042,48.5600839 C44.3966844,47.7509739 31.7135108,33.5106383 31.7135108,33.5106383 C31.7135108,33.5106383 18.5425228,37.8798322 20.6563851,48.5600839 C22.7702474,59.2403356 24.8841096,68.3023674 20.4937803,71.7006293 C16.103451,75.0988912 13.3391696,90.9574468 13.3391696,90.9574468 C13.3391696,90.9574468 27.3231815,85.131855 34.640397,87.3973629 C41.9576126,89.6628708 49.4374329,88.5301169 51.2260856,86.4264309 C53.0147383,84.322745 55.6164149,79.7917291 55.6164149,79.7917291 C55.6164149,79.7917291 51.8765047,74.2897812 53.6651574,71.5388073 C55.4538101,68.7878334 57.7302772,68.6260114 59.0311155,60.8585556 C60.3319538,53.0910998 70.5760556,50.3401259 68.6247981,45.970932 C66.6735406,41.6017381 62.9336304,35.1288583 54.9659957,35.1288583 Z" id="Path" fill="#FFCC4B" fill-rule="nonzero"></path>
                            <path d="M65.4319189,92.5746602 C65.4319189,92.5746602 72.0191054,90.8856577 74.3246207,92.9124608 C76.630136,94.9392638 84.3700801,99.1617702 81.7352055,100.850773 C79.1003309,102.539775 63.1264036,100.344072 63.1264036,100.344072 L65.4319189,92.5746602 Z" id="Path" fill="#FFB9B9" fill-rule="nonzero"></path>
                            <g id="Group" opacity="0.05" transform="translate(13.339170, 32.553191)" fill="#000000" fill-rule="nonzero">
                                <path d="M34.0277164,15.4082238 C34.4128909,15.4805776 34.8113034,15.4228401 35.1597765,15.2441669 C30.5821011,13.4854769 18.7028853,0.150932345 18.7028853,0.150932345 C18.7028853,0.150932345 18.2349012,0.306786397 17.4867858,0.629978484 C19.7574973,3.14168958 30.3579961,14.6781706 34.0277164,15.4082238 Z" id="Path"></path>
                                <path d="M54.4608245,12.7833134 C59.0055433,11.0426697 46.0568849,20.0018169 44.7386199,27.8765479 C43.4203548,35.751279 41.113391,35.9153359 39.3007766,38.7043031 C37.4881621,41.4932704 41.2781741,47.0712049 41.2781741,47.0712049 C41.2781741,47.0712049 38.641644,51.664798 36.8290296,53.7975377 C35.7908959,55.0197615 32.859404,55.9155122 29.1517836,56.0287115 C33.6239977,56.1698004 37.2887745,55.1936618 38.4768609,53.7975377 C40.2894753,51.664798 42.9260054,47.0712049 42.9260054,47.0712049 C42.9260054,47.0712049 39.1359934,41.4932704 40.9486079,38.7043031 C42.7612223,35.9153359 45.0681861,35.751279 46.3864512,27.8765479 C47.7047162,20.0018169 53.3897342,13.1934557 54.4608245,12.7833134 Z" id="Path"></path>
                                <path d="M0.209274575,57.7070135 C0.125235179,58.1450454 0.0823915651,58.3927713 0.0823915651,58.3927713 C0.0823915651,58.3927713 9.29706421,54.5521994 16.7551487,54.2700215 C10.9992739,54.032139 3.56096344,56.4700245 0.209274575,57.7070135 Z" id="Path"></path>
                            </g>
                            <path d="M67.5970343,44.0425532 C67.5970343,44.0425532 69.0612364,44.2071193 70.5254384,51.9417258 C71.9896405,59.6763323 77.6837596,67.0818067 77.6837596,67.0818067 C79.9343864,70.1275589 81.6916962,73.5160789 82.8898114,77.1203385 C84.8420808,83.044718 93.5459487,90.8616075 96.6370419,91.1907397 C96.6370419,91.1907397 90.6988891,97.1974023 91.3496456,98.8430632 C92.000402,100.488724 90.6988891,98.8430632 90.6988891,98.8430632 C90.6988891,98.8430632 82.5644332,95.7163074 80.7748529,90.6147584 C78.9852726,85.5132094 71.1761949,77.2849046 71.1761949,77.2849046 C71.1761949,77.2849046 60.7640913,56.8787087 60.276024,53.5873868 C59.7879566,50.2960648 67.5970343,44.0425532 67.5970343,44.0425532 Z" id="Path" fill="#FFCC4B" fill-rule="nonzero"></path>
                            <path d="M23.8710845,71.8085106 C23.8710845,71.8085106 36.3040169,73.2812353 39.0489501,77.2085012 C41.7938832,81.135767 54.5093823,74.9274143 54.5093823,74.9274143" id="Path" fill="#000000" fill-rule="nonzero" opacity="0.1"></path>
                            <path d="M35.4896527,49.5651585 C35.4896527,49.5651585 40.8422082,69.3141697 42.788592,71.7623943 C44.7349758,74.2106188 59.8194502,94.28606 66.9561908,92.9803403 C66.9561908,92.9803403 64.8476084,102.120379 63.3878205,102.446809 C63.3878205,102.446809 48.6277434,87.7574613 43.5995852,87.9206762 C43.5995852,87.9206762 34.3542622,80.2495727 33.3810703,76.4956284 C32.4078784,72.7416841 24.6223432,60.5005614 24.6223432,60.5005614 C24.6223432,60.5005614 20.7295756,51.850168 22.3515621,48.0962237 C23.9735486,44.3422794 32.5700771,45.9744291 35.4896527,49.5651585 Z" id="Path" fill="#000000" fill-rule="nonzero" opacity="0.1"></path>
                            <path d="M35.4896527,48.6077116 C35.4896527,48.6077116 40.8422082,68.3567229 42.788592,70.8049475 C44.7349758,73.253172 59.8194502,93.3286132 66.9561908,92.0228935 C66.9561908,92.0228935 64.8476084,101.162932 63.3878205,101.489362 C63.3878205,101.489362 48.6277434,86.8000145 43.5995852,86.9632294 C43.5995852,86.9632294 34.3542622,79.2921259 33.3810703,75.5381816 C32.4078784,71.7842373 24.6223432,59.5431146 24.6223432,59.5431146 C24.6223432,59.5431146 20.7295756,50.8927212 22.3515621,47.1387769 C23.9735486,43.3848326 32.5700771,45.0169823 35.4896527,48.6077116 Z" id="Path" fill="#FFCC4B" fill-rule="nonzero"></path>
                            <path d="M56.962141,6.643417 C56.842601,5.04783814 55.650157,3.73273297 54.0595072,3.44220288 C53.0200056,3.27795382 51.8592842,3.56867465 50.9659106,3.01515533 C50.562398,2.76385427 50.2734631,2.37129903 49.9479961,2.02966099 C48.672697,0.681176232 46.7580879,0.0586723062 44.8916346,0.00447011736 C43.0251812,-0.0497320714 41.1852966,0.397025364 39.3919073,0.907839931 C35.8117709,1.92782657 32.0290479,3.42413548 30.124402,6.5908573 C27.2284103,11.4115671 29.9002283,17.9092598 27.6103359,23.0387579 C26.6140085,25.279115 24.7143442,27.1088495 24.0966212,29.4806059 C23.2663484,32.6489702 24.9036464,35.8633242 26.1640006,38.8887919 C27.294629,41.6022895 28.1533701,44.4189659 28.7278831,47.2983436 C29.2343495,49.840919 29.5166423,52.4836863 28.9454146,55.0180493 C28.6946722,56.1267304 28.2811963,57.2551214 28.5037094,58.36873 C28.8358186,60.0539253 30.4830798,61.1166167 31.980892,61.9822093 L32.3711203,62.208873 C34.5298296,63.4571658 36.7499792,64.7317385 39.2225317,65.0405267 C40.7585364,65.2310556 42.3775684,65.0208168 43.706005,64.2439188 C45.0344415,63.4670207 46.0457138,62.0807587 46.1586309,60.554885 C46.2848324,58.8286274 45.3134132,57.2124167 45.1041844,55.492729 C45.0561677,55.2336489 45.0761791,54.9667148 45.1623035,54.7174735 C45.3001288,54.3889754 45.6206141,54.1770941 45.9161912,53.9734253 C50.1738303,51.0366521 52.4570806,45.5408787 51.5155512,40.4918627 C50.8745806,37.0524874 48.8819258,33.632822 49.8467028,30.2673589 C50.379738,28.4080595 51.7530092,26.9018957 52.5235024,25.1263634 C53.3375563,23.2300284 53.4388653,21.1081926 52.8091163,19.1444127 C52.3690717,17.7877155 51.5720098,16.4326608 51.8459998,15.0381863 C52.3292186,12.5613105 55.6652548,11.7712726 56.925609,9.57690516 C57.8604962,7.94426953 57.3075345,5.63492779 55.7300161,4.59687375" id="Path" fill="#000000" fill-rule="nonzero" opacity="0.1"></path>
                            <path d="M56.962141,6.643417 C56.842601,5.04783814 55.650157,3.73273297 54.0595072,3.44220288 C53.0200056,3.27795382 51.8592842,3.56867465 50.9659106,3.01515533 C50.562398,2.76385427 50.2734631,2.37129903 49.9479961,2.02966099 C48.672697,0.681176232 46.7580879,0.0586723062 44.8916346,0.00447011736 C43.0251812,-0.0497320714 41.1852966,0.397025364 39.3919073,0.907839931 C35.8117709,1.92782657 32.0290479,3.42413548 30.124402,6.5908573 C27.2284103,11.4115671 29.9002283,17.9092598 27.6103359,23.0387579 C26.6140085,25.279115 24.7143442,27.1088495 24.0966212,29.4806059 C23.2663484,32.6489702 24.9036464,35.8633242 26.1640006,38.8887919 C27.294629,41.6022895 28.1533701,44.4189659 28.7278831,47.2983436 C29.2343495,49.840919 29.5166423,52.4836863 28.9454146,55.0180493 C28.6946722,56.1267304 28.2811963,57.2551214 28.5037094,58.36873 C28.8358186,60.0539253 30.4830798,61.1166167 31.980892,61.9822093 L32.3711203,62.208873 C34.5298296,63.4571658 36.7499792,64.7317385 39.2225317,65.0405267 C40.7585364,65.2310556 42.3775684,65.0208168 43.706005,64.2439188 C45.0344415,63.4670207 46.0457138,62.0807587 46.1586309,60.554885 C46.2848324,58.8286274 45.3134132,57.2124167 45.1041844,55.492729 C45.0561677,55.2336489 45.0761791,54.9667148 45.1623035,54.7174735 C45.3001288,54.3889754 45.6206141,54.1770941 45.9161912,53.9734253 C50.1738303,51.0366521 52.4570806,45.5408787 51.5155512,40.4918627 C50.8745806,37.0524874 48.8819258,33.632822 49.8467028,30.2673589 C50.379738,28.4080595 51.7530092,26.9018957 52.5235024,25.1263634 C53.3375563,23.2300284 53.4388653,21.1081926 52.8091163,19.1444127 C52.3690717,17.7877155 51.5720098,16.4326608 51.8459998,15.0381863 C52.3292186,12.5613105 55.6652548,11.7712726 56.925609,9.57690516 C57.8604962,7.94426953 57.3075345,5.63492779 55.7300161,4.59687375" id="Path" fill="#464353" fill-rule="nonzero"></path>
                            <path d="M69.1840852,111.052632 C69.482501,110.821804 69.6999722,110.510407 69.8076947,110.159687 C69.8891059,109.804363 69.72954,109.379519 69.3713309,109.249748 C68.970788,109.104529 68.5425652,109.36716 68.2185488,109.634425 C67.8945324,109.901691 67.5216692,110.204489 67.096703,110.147328 C67.5410009,109.765197 67.7412813,109.18983 67.6242473,108.631793 C67.6058778,108.518086 67.5552186,108.411272 67.4777072,108.322816 C67.2546406,108.097262 66.8524695,108.19459 66.5854409,108.372252 C65.7387648,108.937681 65.5026724,110.028372 65.4977877,111.01092 C65.4131201,110.657141 65.4847619,110.287913 65.4815055,109.929499 C65.478249,109.571085 65.3740428,109.157055 65.0516545,108.968579 C64.8517399,108.86666 64.6272297,108.816068 64.4003652,108.821815 C64.019361,108.807911 63.5960229,108.844988 63.3355072,109.109164 C63.0098626,109.43668 63.0961584,109.988205 63.377841,110.345074 C63.6595237,110.701943 64.0861181,110.932131 64.4801482,111.182403 C64.7959474,111.36054 65.0653212,111.603981 65.2682082,111.894596 C65.2920709,111.9349 65.3117038,111.977331 65.3268243,112.021277 L67.7089149,112.021277 C68.2445056,111.763118 68.7407461,111.43727 69.1840852,111.052632 L69.1840852,111.052632 Z" id="Path" fill="#F6C043" fill-rule="nonzero"></path>
                            <rect id="Rectangle" fill="#FFD15E" fill-rule="nonzero" x="70.7859781" y="102.446809" width="19.1489362" height="1.91489362" rx="0.957446809"></rect>
                            <g id="Group" opacity="0.7" transform="translate(82.275340, 72.765957)" fill="url(#linearGradient-3)" fill-rule="nonzero">
                                <rect id="Rectangle" x="0.119272384" y="0.0808877476" width="47.6844456" height="33.3125459" rx="16.6562729"></rect>
                            </g>
                            <rect id="Rectangle" fill="#3E3F49" fill-rule="nonzero" x="83.2327866" y="73.7234043" width="45" height="31.5957447" rx="15.7978723"></rect>
                            <rect id="Rectangle" fill="#DEB449" fill-rule="nonzero" x="84.1902334" y="73.7234043" width="45" height="31.5957447" rx="3"></rect>
                            <circle id="Oval" fill="#E0E0E0" fill-rule="nonzero" cx="108.605127" cy="89.5212766" r="1.43617021"></circle>
                            <path d="M30.8237607,103.68849 C30.8237607,103.68849 28.3790357,102.84336 27.2028582,105.041012 C26.5721863,106.252008 26.5919309,107.707924 27.2552012,108.900649 C28.0249509,110.325431 29.6198722,112.17592 32.6434489,112.010979 C35.2020968,111.871171 36.0534399,109.879303 36.2843648,108.025672 C36.4643949,106.612413 35.9111529,105.205327 34.8237826,104.310907 C33.7364123,103.416486 32.2714261,103.16347 30.9561576,103.642934 L30.8237607,103.68849 Z" id="Path" fill="#F6C043" fill-rule="nonzero"></path>
                            <path d="M27.7785349,109.482941 C27.1093552,108.224916 27.0894346,106.68929 27.7257256,105.411994 C28.9123823,103.092366 31.3788886,103.985423 31.3788886,103.985423 L31.5046991,103.937374 C32.4451596,103.574396 33.4788011,103.599214 34.4029994,104.006962 C33.3702736,103.35103 32.1163303,103.223347 30.9859251,103.659018 L30.8601146,103.707068 C30.8601146,103.707068 28.3936083,102.815668 27.2069516,105.133639 C26.5706606,106.410935 26.5905812,107.94656 27.2597609,109.204586 C27.7738753,110.198712 28.6452292,111.376751 30.0555489,112.021277 C29.093111,111.413361 28.3055094,110.53537 27.7785349,109.482941 Z" id="Path" fill="#FFFFFF" fill-rule="nonzero" opacity="0.1"></path>
                            <path d="M29.6157653,104.142053 C29.6157653,104.142053 30.4541243,105.130476 32.4881057,104.142053" id="Path" fill="#000000" fill-rule="nonzero" opacity="0.2"></path>
                            <path d="M29.6157653,98.6170213 C29.6157653,98.6170213 30.7358393,103.170447 30.6425923,104.361702 L31.5306589,104.221751 C31.5306589,104.221751 30.0364869,100.223133 30.4105849,98.6170213 L29.6157653,98.6170213 Z" id="Path" fill="#F6C043" fill-rule="nonzero"></path>
                            <path d="M29.6157653,98.6170213 C29.6157653,98.6170213 30.7358393,103.170447 30.6425923,104.361702 L31.5306589,104.221751 C31.5306589,104.221751 30.0364869,100.223133 30.4105849,98.6170213 L29.6157653,98.6170213 Z" id="Path" fill="#000000" fill-rule="nonzero" opacity="0.2"></path>
                            <path d="M36.317893,99.2006616 C36.317893,99.2006616 33.3939977,98.0350909 32.0830321,98.9982657 C30.7720665,99.9614406 30.5732121,102.423206 30.5732121,102.423206 C30.5732121,102.423206 35.343875,102.93422 36.317893,99.2006616 Z" id="Path" fill="#F6C043" fill-rule="nonzero"></path>
                            <path d="M36.317893,99.2006616 C36.317893,99.2006616 33.3939977,98.0350909 32.0830321,98.9982657 C30.7720665,99.9614406 30.5732121,102.423206 30.5732121,102.423206 C30.5732121,102.423206 35.343875,102.93422 36.317893,99.2006616 Z" id="Path" fill="#FFFFFF" fill-rule="nonzero" opacity="0.1"></path>
                            <path d="M30.5732121,102.446809 C30.5732121,102.446809 31.341257,99.8994456 36.317893,99.5744681" id="Path" stroke="#F6C043"></path>
                        </g>
                    </g>
                </g>
            </g>
        </g>
    </g>
</svg>