<?xml version="1.0" encoding="UTF-8"?>
<svg width="352px" height="250px" viewBox="0 0 352 250" version="1.1" xmlns="http://www.w3.org/2000/svg" xmlns:xlink="http://www.w3.org/1999/xlink">
    <!-- Generator: Sketch 53.2 (72643) - https://sketchapp.com -->
    <title>step-1</title>
    <desc>Created with Sketch.</desc>
    <defs>
        <rect id="path-1" x="0" y="0" width="352" height="250"></rect>
    </defs>
    <g id="UI_2" stroke="none" stroke-width="1" fill="none" fill-rule="evenodd">
        <g id="Home" transform="translate(-74.000000, -1184.000000)">
            <g id="step-1" transform="translate(74.000000, 1184.000000)">
                <mask id="mask-2" fill="white">
                    <use xlink:href="#path-1"></use>
                </mask>
                <use id="Mask" fill="#FFFFFF" xlink:href="#path-1"></use>
                <g mask="url(#mask-2)">
                    <g transform="translate(2.000000, 7.000000)">
                        <path d="M1.78542662,127.226064 C-3.88281785,165.200498 0.00183407415,237.44416 73.4303365,231.09975 C146.858839,224.755341 111.133186,200.225598 200.376627,231.09975 C289.620068,261.973903 227.041125,137.719929 316.878779,115.902452 C406.716433,94.0849753 276.577929,44.014143 245.714588,40.8349741 C214.851247,37.6558052 151.697974,34.1125133 93.9517293,48.6778449 C36.2054844,63.2431765 7.4536711,89.2516301 1.78542662,127.226064 Z" id="Path-6-Copy-4" fill="#FFD15E" opacity="0.360258557"></path>
                        <g id="Group-2" stroke-width="1" fill="none" transform="translate(13.000000, 0.000000)">
                            <rect id="Rectangle" fill="#464353" fill-rule="nonzero" x="85.451505" y="172.266871" width="58.5953177" height="17.1940299"></rect>
                            <path d="M20.0168544,30.2079347 L211.922945,30.2079347 C215.337086,30.2079347 218.104794,32.9869663 218.104794,36.4150756 L218.104794,155.121827 L13.8350056,155.121827 L13.8350056,36.4150756 C13.8350056,34.7688395 14.4863056,33.1900289 15.6456272,32.0259642 C16.8049487,30.8618994 18.3773262,30.2079347 20.0168544,30.2079347 Z" id="Path" stroke="#464353" fill-rule="nonzero"></path>
                            <path d="M211.922945,174.716163 L20.0168544,174.716163 C16.6027136,174.716163 13.8350056,171.891359 13.8350056,168.406787 L13.8350056,155.121827 L218.104794,155.121827 L218.104794,168.406787 C218.104794,171.891359 215.337086,174.716163 211.922945,174.716163 Z" id="Path" fill="#FFFFFF" fill-rule="nonzero"></path>
                            <ellipse id="Oval" fill="#535461" fill-rule="nonzero" cx="114.749164" cy="165.735425" rx="3.25529543" ry="3.26572267"></ellipse>
                            <path d="M82.8670082,183.402985 L148.258967,183.402985 C149.977827,183.402985 151.371237,184.896169 151.371237,186.738104 L151.371237,191.567292 L79.754738,191.567292 L79.754738,186.738104 C79.754738,185.853576 80.082637,185.005275 80.6663009,184.379819 C81.2499647,183.754363 82.0415828,183.402985 82.8670082,183.402985 L82.8670082,183.402985 Z" id="Path" fill="#FFFFFF" fill-rule="nonzero"></path>
                            <path d="M66.7335563,115.116724 L66.7335563,94.2377773 L103.616713,94.2377773 L103.616713,101.077074 L119.803647,101.077074 L119.803647,51.0489981 L138.856335,51.0489981 L138.856335,71.0538901 L148.28033,71.0538901 L148.28033,59.2094095 L156.066752,59.2094095 L156.066752,46.5568105 L159.643975,46.5568105 L159.643975,39.188672 C159.954001,39.3015709 160.264027,39.4184312 160.572066,39.5352914 L160.572066,46.5568105 L164.053896,46.5568105 L164.053896,59.2173322 L171.834356,59.2173322 L171.834356,71.0618128 L183.307305,71.0618128 L183.307305,115.116724 L201.543194,115.116724 L201.543194,83.3697731 L207.419776,83.3697731 C211.719958,93.3656328 213.804798,104.746094 211.380777,115.116724 L218.104794,115.116724 L218.104794,155.121827 L13.8350056,155.121827 L13.8350056,115.116724 L66.7335563,115.116724 Z" id="Combined-Shape" fill="#FFCC4B"></path>
                            <rect id="Rectangle" fill="#EABB47" fill-rule="nonzero" x="125.328874" y="57.9665774" width="8.95206243" height="8.98073734"></rect>
                            <rect id="Rectangle" fill="#EABB47" fill-rule="nonzero" x="125.328874" y="75.1116214" width="8.95206243" height="8.98073734"></rect>
                            <rect id="Rectangle" fill="#EABB47" fill-rule="nonzero" x="125.328874" y="93.0730961" width="8.95206243" height="8.98073734"></rect>
                            <rect id="Rectangle" fill="#EABB47" fill-rule="nonzero" x="125.328874" y="111.034571" width="8.95206243" height="8.98073734"></rect>
                            <rect id="Rectangle" fill="#EABB47" fill-rule="nonzero" x="125.328874" y="128.179615" width="8.95206243" height="8.98073734"></rect>
                            <rect id="Rectangle-Copy-3" fill="#EABB47" fill-rule="nonzero" x="125.328874" y="146.95752" width="8.95206243" height="8.16430667"></rect>
                            <rect id="Rectangle" fill="#EABB47" fill-rule="nonzero" opacity="0.1" x="69.1750279" y="104.503125" width="30.1114827" height="4.08215334"></rect>
                            <rect id="Rectangle" fill="#6C63FF" fill-rule="nonzero" opacity="0.1" x="69.1750279" y="115.116724" width="30.1114827" height="4.08215334"></rect>
                            <path d="M98.4726867,127.363184 L98.4726867,131.445337 L76.396598,131.445337 C75.552114,130.763576 74.7182523,130.067085 73.8950131,129.355864 L73.5564228,129.06338 C72.9091178,128.499454 72.2677879,127.922902 71.6164994,127.363184 L98.4726867,127.363184 Z" id="Path" fill="#EABB47" fill-rule="nonzero"></path>
                            <path d="M100.100334,138.793213 L100.100334,142.875367 L97.8323537,142.875367 C95.28136,141.628918 92.7820581,140.268201 90.3344482,138.793213 L100.100334,138.793213 Z" id="Path" fill="#EABB47" fill-rule="nonzero"></path>
                            <rect id="Rectangle" fill="#EABB47" fill-rule="nonzero" x="148.115942" y="80.0102054" width="4.88294314" height="4.898584"></rect>
                            <rect id="Rectangle" fill="#EABB47" fill-rule="nonzero" x="28.483835" y="55.5172854" width="4.88294314" height="4.898584"></rect>
                            <rect id="Rectangle" fill="#EABB47" fill-rule="nonzero" x="28.483835" y="67.7637454" width="4.88294314" height="4.898584"></rect>
                            <rect id="Rectangle" fill="#EABB47" fill-rule="nonzero" x="28.483835" y="80.0102054" width="4.88294314" height="4.898584"></rect>
                            <rect id="Rectangle" fill="#EABB47" fill-rule="nonzero" x="28.483835" y="93.8895267" width="4.88294314" height="4.898584"></rect>
                            <rect id="Rectangle" fill="#EABB47" fill-rule="nonzero" x="28.483835" y="106.952417" width="4.88294314" height="4.898584"></rect>
                            <rect id="Rectangle" fill="#EABB47" fill-rule="nonzero" x="28.483835" y="120.015308" width="4.88294314" height="4.898584"></rect>
                            <rect id="Rectangle" fill="#EABB47" fill-rule="nonzero" x="169.275362" y="80.0102054" width="4.88294314" height="4.898584"></rect>
                            <rect id="Rectangle" fill="#EABB47" fill-rule="nonzero" x="148.115942" y="93.8895267" width="4.88294314" height="4.898584"></rect>
                            <rect id="Rectangle" fill="#EABB47" fill-rule="nonzero" x="169.275362" y="93.8895267" width="4.88294314" height="4.898584"></rect>
                            <rect id="Rectangle" fill="#EABB47" fill-rule="nonzero" x="148.115942" y="107.768848" width="4.88294314" height="4.898584"></rect>
                            <rect id="Rectangle" fill="#EABB47" fill-rule="nonzero" x="169.275362" y="107.768848" width="4.88294314" height="4.898584"></rect>
                            <rect id="Rectangle" fill="#EABB47" fill-rule="nonzero" x="148.115942" y="121.648169" width="4.88294314" height="4.898584"></rect>
                            <rect id="Rectangle" fill="#EABB47" fill-rule="nonzero" x="169.275362" y="121.648169" width="4.88294314" height="4.898584"></rect>
                            <rect id="Rectangle" fill="#EABB47" fill-rule="nonzero" x="148.115942" y="135.527491" width="4.88294314" height="4.898584"></rect>
                            <rect id="Rectangle-Copy" fill="#EABB47" fill-rule="nonzero" x="148.115942" y="147.773951" width="4.88294314" height="4.898584"></rect>
                            <rect id="Rectangle" fill="#EABB47" fill-rule="nonzero" x="169.275362" y="135.527491" width="4.88294314" height="4.898584"></rect>
                            <rect id="Rectangle-Copy-2" fill="#EABB47" fill-rule="nonzero" x="169.275362" y="147.773951" width="4.88294314" height="4.898584"></rect>
                            <path d="M14.6488294,125.730323 C14.8565815,125.822715 15.0666419,125.911483 15.2790107,126.000252 L15.2790107,125.911483 L17.0864537,125.911483 L17.0864537,126.712213 L17.4719493,126.849896 L17.4719493,125.911483 L19.2793923,125.911483 L19.2793923,127.449537 L19.6648878,127.56548 L19.6648878,125.911483 L21.5877486,125.911483 L21.5877486,128.085411 L21.9732441,128.179615 L21.9732441,125.730323 L14.6488294,125.730323 Z" id="Path" fill="#6C63FF" fill-rule="nonzero" opacity="0.1"></path>
                            <path d="M68.6577673,58.822028 C68.6577673,58.822028 67.4333686,63.2000625 69.9602872,63.6000167 C70.1976441,63.7516563 70.4831723,63.6878881 70.6678844,63.441986 C70.6678844,63.441986 70.4921119,63.3658972 70.6543635,62.9386291 C70.7112126,62.7868355 70.7545589,62.6271245 70.7835638,62.4625861 C70.8215612,62.2390737 70.8025794,62.0055776 70.72948,61.7972966 L70.72948,61.7972966 C70.72948,61.7972966 70.6168052,60.3906286 69.1505315,59.2961199 C69.1505315,59.2961199 68.8891261,58.802518 68.797484,58.783008 L68.8726005,59.6316912 C68.8726005,59.6316912 69.348839,59.5341414 69.6508072,59.8697127 C69.6508072,59.8697127 68.8996424,59.6063283 68.8801121,59.7585059 C68.8801121,59.7877709 68.9356983,60.205284 68.9356983,60.205284 C68.9356983,60.205284 69.7649843,60.0414003 70.2171855,60.5798752 C70.2171855,60.5798752 69.348839,60.1077342 68.9567309,60.3633146 L69.0739126,60.9837313 C69.0739126,60.9837313 69.9437615,60.7574158 70.4770886,61.3427145 C70.4770886,61.3427145 69.5576628,60.8920345 69.1069639,61.11835 L69.2857411,61.7036488 C69.2857411,61.7036488 70.1375621,61.5085492 70.579247,61.9943471 C70.579247,61.9943471 69.4735323,61.604148 69.3338157,61.8343655 C69.4107585,62.0615369 69.508623,62.275758 69.6252676,62.4723411 C69.6252676,62.4723411 70.2397205,62.3474774 70.4755862,62.6674407 C70.4755862,62.6674407 69.7169098,62.513312 69.6898678,62.6147638 C69.6898678,62.6147638 70.0789712,63.2195725 70.4004698,63.3951621 C70.0985584,63.2564091 69.8297863,63.0176631 69.6207607,62.7025586 C69.6008536,62.9576585 69.6389833,63.2147398 69.7304307,63.441986 C69.7304307,63.441986 69.4029228,63.2468864 69.5276162,62.5542829 C69.5276162,62.5542829 69.2391689,62.068485 69.2391689,61.9689842 C69.2391689,61.9689842 69.0408614,62.6264698 69.0889359,63.0908068 C69.0889359,63.0908068 68.8485632,62.6050088 69.1880897,61.8148555 L68.9987962,61.2295568 C68.9987962,61.2295568 68.6983302,62.0821419 68.7193628,62.499655 C68.7193628,62.499655 68.533074,61.9553272 68.9597356,61.0754281 L68.8410515,60.4686684 C68.6838287,60.8371947 68.5641428,61.2306875 68.4849994,61.6392659 C68.4849994,61.6392659 68.3948596,61.0871341 68.8110049,60.2852748 L68.7674374,59.8677617 C68.7674374,59.8677617 68.5571112,60.3906286 68.5075343,60.5486592 C68.4579575,60.7066899 68.4203992,60.7008369 68.4203992,60.7008369 C68.4549992,60.3318815 68.5678662,59.9826695 68.7464048,59.6921721 C68.7464048,59.6921721 68.6983302,58.822028 68.6577673,58.822028 Z" id="Path" fill="#6C63FF" fill-rule="nonzero" opacity="0.1"></path>
                            <path d="M55.6365227,92.2937359 C55.6365227,92.2937359 54.4123838,96.6739043 56.938766,97.0738751 C57.1763169,97.2256718 57.4621315,97.1610352 57.6462131,96.9138868 C57.6462131,96.9138868 57.4704778,96.8377948 57.632695,96.4124599 C57.6904358,96.260472 57.7338086,96.0999678 57.7618679,95.934446 C57.8006389,95.7109823 57.7816346,95.4771495 57.7077956,95.2691287 L57.7077956,95.2691287 C57.7077956,95.2691287 57.5951447,93.862402 56.1291822,92.7697987 C56.1291822,92.7697987 55.8678323,92.2761762 55.7762097,92.2566654 L55.8513102,93.1034329 C55.8513102,93.1034329 56.3289496,93.0078301 56.6293518,93.3434154 C56.6293518,93.3434154 55.8783464,93.08002 55.8588203,93.2302529 C55.8588203,93.2614702 55.9143947,93.6770496 55.9143947,93.6770496 C55.9143947,93.6770496 56.7435046,93.5151102 57.1956099,94.0516565 C57.1956099,94.0516565 56.3274476,93.5814468 55.9354228,93.8350869 L56.0525796,94.4574805 C56.0525796,94.4574805 56.9222439,94.2292045 57.4554577,94.8164788 C57.4554577,94.8164788 56.5362271,94.3638288 56.0856239,94.5901538 L56.2643632,95.175477 C56.2643632,95.175477 57.1160033,94.9803692 57.5575945,95.4661875 C57.5575945,95.4661875 56.4536165,95.075972 56.3124275,95.3081502 C56.389354,95.5353312 56.4871977,95.7495612 56.6038176,95.9461525 C56.6038176,95.9461525 57.21814,95.8193325 57.4554577,96.1412602 C57.4554577,96.1412602 56.6954403,95.9871251 56.6684041,96.0905322 C56.6684041,96.0905322 57.0574249,96.6934151 57.3788552,96.8709631 C57.0769509,96.7333257 56.8081466,96.4951632 56.5993116,96.1802818 C56.5794406,96.4347626 56.6175686,96.691219 56.7089584,96.917789 C56.7089584,96.917789 56.38152,96.7226812 56.5061869,96.0319999 C56.5061869,96.0319999 56.2193028,95.5442306 56.2178008,95.4466767 C56.2178008,95.4466767 56.0195354,96.1061408 56.0675998,96.5685461 C56.0675998,96.5685461 55.827278,96.084679 56.1667325,95.2925416 L55.9774791,94.7072184 C55.9774791,94.7072184 55.6770769,95.5598392 55.6996071,95.9754186 C55.6996071,95.9754186 55.5133578,95.4330192 55.9399288,94.5530833 L55.819768,93.9462983 C55.6622839,94.3146592 55.5426079,94.7082197 55.4637914,95.1169446 C55.4637914,95.1169446 55.3736708,94.5628387 55.7897278,93.762897 L55.7461694,93.3434154 C55.7461694,93.3434154 55.5358879,93.8663041 55.4863216,94.0243414 C55.4367552,94.1823786 55.3992049,94.1765254 55.3992049,94.1765254 C55.4339242,93.8072475 55.5473277,93.4578964 55.7266433,93.1678185 C55.7266433,93.1678185 55.6770769,92.2937359 55.6365227,92.2937359 Z" id="Path" fill="#6C63FF" fill-rule="nonzero" opacity="0.1"></path>
                            <path d="M49.1254483,49.8412922 C49.1254483,49.8412922 47.9025193,54.219504 50.428003,54.6194744 C50.6658961,54.7708058 50.9516902,54.7071126 51.1371215,54.4614373 C51.1371215,54.4614373 50.9598419,54.3853454 51.1236002,53.95806 C51.1802634,53.8056744 51.2231172,53.6452636 51.2513016,53.4800467 C51.2897645,53.2573806 51.2713049,53.0245016 51.1987187,52.8166813 L51.1987187,52.8166813 C51.1987187,52.8166813 51.0860409,51.4099563 49.6182256,50.3154034 C49.6182256,50.3154034 49.3568133,49.8217814 49.2651687,49.8022707 L49.3417896,50.6509882 C49.3417896,50.6509882 49.8180408,50.5534345 50.1185148,50.8890194 C50.1185148,50.8890194 49.3673299,50.6256243 49.3477991,50.7778081 C49.3477991,50.8070742 49.4033868,51.2246042 49.4033868,51.2246042 C49.4033868,51.2246042 50.2326949,51.0607139 50.6864106,51.5992106 C50.6864106,51.5992106 49.8180408,51.1270505 49.4244199,51.3826413 L49.5416048,52.0030831 C49.5416048,52.0030831 50.4114769,51.7748073 50.9463205,52.3620808 C50.9463205,52.3620808 50.0253679,51.9094315 49.5746569,52.1377072 L49.7534389,52.7230297 C49.7534389,52.7230297 50.6052826,52.5279222 51.0469793,53.0156909 C51.0469793,53.0156909 49.9427375,52.6254759 49.8015148,52.8557028 C49.8784596,53.0828834 49.9763267,53.2971132 50.0929745,53.4937042 C50.0929745,53.4937042 50.7074437,53.3688354 50.9448182,53.6888117 C50.9448182,53.6888117 50.1861214,53.5346768 50.1590788,53.6361327 C50.1590788,53.6361327 50.5466902,54.2409659 50.8681973,54.4165626 C50.5664676,54.2773194 50.2977776,54.038643 50.0884674,53.723931 C50.0685598,53.9790412 50.1066905,54.236133 50.1981404,54.4633884 C50.1981404,54.4633884 49.8706238,54.2682809 49.9968228,53.5756494 C49.9968228,53.5756494 49.7083678,53.0898317 49.7068655,52.9903269 C49.7068655,52.9903269 49.510055,53.6478391 49.5566285,54.1121949 C49.5566285,54.1121949 49.3147469,53.6263773 49.6557849,52.836192 L49.4649839,52.2508696 C49.4649839,52.2508696 49.16451,53.1034893 49.1870455,53.5210193 C49.1870455,53.5210193 49.0007517,52.9766694 49.4274247,52.0967347 L49.3072351,51.4899504 C49.150008,51.8584916 49.030319,52.2520004 48.9511734,52.6605953 C48.9511734,52.6605953 48.8625336,52.1084411 49.2771877,51.3065494 L49.2351213,50.8890194 C49.2351213,50.8890194 49.0232872,51.4119074 48.973709,51.5679934 C48.9241308,51.7240794 48.8865715,51.7221283 48.8865715,51.7221283 C48.9212991,51.3528509 49.0347297,51.0035002 49.2140882,50.7134226 C49.2140882,50.7134226 49.1675147,49.8412922 49.1254483,49.8412922 Z" id="Path" fill="#6C63FF" fill-rule="nonzero" opacity="0.1"></path>
                            <path d="M60.2229654,75.2161976 C60.2229654,75.2161976 61.4719981,78.4473844 64.4347273,77.3234933 C64.7801067,77.2846202 65.0509623,77.0929967 65.1059086,76.8486494 C65.1059086,76.8486494 64.8715909,76.8992245 64.7981183,76.5606523 C64.7701134,76.4404697 64.7221224,76.3230511 64.6551448,76.2108412 C64.5671138,76.058328 64.4099501,75.9308309 64.2083525,75.8483863 L64.2083525,75.8483863 C64.2083525,75.8483863 63.2611529,75.0813307 61.031163,75.2274365 C61.031163,75.2274365 60.4592689,75.0799258 60.3480673,75.1178572 L60.9279044,75.5744379 C60.9279044,75.5744379 61.3866111,75.2611533 61.9088616,75.2934651 C61.9088616,75.2934651 60.9378331,75.5463406 61.0093198,75.6432762 C61.0252058,75.6629443 61.3310103,75.8764836 61.3310103,75.8764836 C61.3310103,75.8764836 62.1253077,75.3328013 62.935491,75.4044494 C62.935491,75.4044494 61.7222017,75.5955109 61.4481691,75.9579657 L61.9386478,76.2600114 C61.9386478,76.2600114 62.7448596,75.6573249 63.6662446,75.7135194 C63.6662446,75.7135194 62.4052975,75.9439171 62.0518352,76.3204206 L62.5919574,76.5718912 C62.5919574,76.5718912 63.3862548,75.9944922 64.1606947,76.0464721 C64.1606947,76.0464721 62.7428739,76.4159513 62.7210307,76.6238712 C62.9379284,76.7161687 63.1700069,76.7892992 63.4120694,76.841625 C63.4120694,76.841625 64.0077925,76.4370243 64.4426703,76.4946237 C64.4426703,76.4946237 63.531214,76.8135278 63.5629859,76.8879856 C63.5629859,76.8879856 64.3374259,77.0284719 64.7842181,76.9610385 C64.3773927,77.0426387 63.9474628,77.0474821 63.5371713,76.9750871 C63.6649008,77.1358827 63.8569581,77.2663821 64.0892079,77.3501857 C64.0892079,77.3501857 63.6205725,77.4105949 63.3505114,76.9371558 C63.3505114,76.9371558 62.7547883,76.8065034 62.6912445,76.7474992 C62.6912445,76.7474992 62.86599,77.2420112 63.1876804,77.4892673 C63.1876804,77.4892673 62.6435867,77.3333274 62.5462853,76.6842803 L61.9962343,76.4412389 C61.9962343,76.4412389 62.176937,77.1029297 62.4390551,77.337542 C62.4390551,77.337542 61.9187903,77.1183832 61.8631895,76.3709957 L61.3786681,76.078784 C61.4258513,76.3819478 61.528651,76.6794721 61.6844726,76.9638482 C61.6844726,76.9638482 61.2654808,76.6828754 61.2436376,75.9916824 L60.9517333,75.7683091 C60.9517333,75.7683091 61.031163,76.1897682 61.0688922,76.3091817 C61.1066213,76.4285951 61.0688922,76.449668 61.0688922,76.449668 C60.8900139,76.2136643 60.8075058,75.9470968 60.8306029,75.6798027 C60.8306029,75.6798027 60.2686375,75.1951247 60.2229654,75.2161976 Z" id="Path" fill="#6C63FF" fill-rule="nonzero" opacity="0.1"></path>
                            <path d="M81.9457674,124.097461 C81.9457674,124.097461 92.1609166,120.697275 90.0462153,108.649676 L77.0705343,105.319556 L74.057971,115.204815 L81.9457674,124.097461 Z" id="Path" fill="#CED7E7" fill-rule="nonzero"></path>
                            <path d="M74.057971,114.351314 L81.9447525,123.281031 C81.9447525,123.281031 92.1611376,119.86667 90.0461805,107.768848 L74.057971,114.351314 Z" id="Path" fill="#000000" fill-rule="nonzero" opacity="0.1"></path>
                            <path d="M30.9394789,24.5806956 C30.9394789,24.5806956 32.2958524,26.9940443 34.1502086,25.7884294 C36.0045649,24.5828144 34.225778,21.2520118 34.225778,21.2520118 C34.225778,21.2520118 30.6740172,20.7201852 30.9394789,24.5806956 Z" id="Path" fill="#FED253" fill-rule="nonzero"></path>
                            <path d="M34.1514316,25.7900665 C33.7091982,26.1030479 33.1685542,26.2027562 32.6569433,26.0656878 C31.9765732,25.8769932 31.4532116,25.3045491 31.172147,24.9292802 C31.088295,24.8193347 31.0106173,24.7039273 30.9395418,24.5836936 C30.8445614,23.2055874 31.2361134,22.3850842 31.7788588,21.9016869 L31.7788588,21.9016869 C32.5251337,21.2380758 33.5582884,21.2105137 34.004115,21.2317153 C34.1417397,21.2317153 34.2212131,21.2529169 34.2212131,21.2529169 L34.2580423,21.3207621 C34.3103784,21.4288905 34.4247427,21.6684689 34.5468604,21.9886136 C34.9616729,23.0380945 35.4559589,24.939881 34.1514316,25.7900665 Z" id="Path" fill="#000000" fill-rule="nonzero" opacity="0.1"></path>
                            <path d="M83.3240333,106.952417 L90.6098113,107.536905 L104.169454,107.647376 L93.4856698,120.702947 C93.4856698,120.702947 90.0957592,120.885725 89.3975388,121.359743 C88.6993184,121.833761 78.8958993,121.580683 78.8958993,121.580683 L77.3132664,114.888196 L83.3240333,106.952417 Z" id="Path" fill="#FFA2A2" fill-rule="nonzero"></path>
                            <path d="M83.3240333,106.952417 L90.6098113,107.536905 L104.169454,107.647376 L93.4856698,120.702947 C93.4856698,120.702947 90.0957592,120.885725 89.3975388,121.359743 C88.6993184,121.833761 78.8958993,121.580683 78.8958993,121.580683 L77.3132664,114.888196 L83.3240333,106.952417 Z" id="Path" fill="#000000" fill-rule="nonzero" opacity="0.05"></path>
                            <path d="M75.7105134,72.1273649 L77.3999866,74.9619885 L77.7673511,79.904614 C77.7673511,79.904614 78.9441288,84.1186214 79.8262074,85.3542777 C80.708286,86.5899341 81.0756505,89.8617286 81.0756505,89.8617286 C81.0756505,89.8617286 81.4430151,92.9139396 81.8830451,93.5667015 C82.3230752,94.2194634 82.9124733,98.9564788 82.9124733,98.9564788 C82.9124733,98.9564788 86.8081522,106.659868 90.3344482,107.604077 C90.3344482,107.604077 72.8442626,113.273324 82.0303947,123.448026 C82.0303947,123.448026 75.4904984,125.044997 73.9463562,123.230439 C72.402214,121.415881 68.361204,94.5228879 68.361204,94.5228879 L69.6106472,71.8458987 L75.7105134,72.1273649 Z" id="Path" fill="#CED7E7" fill-rule="nonzero"></path>
                            <path d="M75.7105134,72.1273649 L77.3999866,74.9619885 L77.7673511,79.904614 C77.7673511,79.904614 78.9441288,84.1186214 79.8262074,85.3542777 C80.708286,86.5899341 81.0756505,89.8617286 81.0756505,89.8617286 C81.0756505,89.8617286 81.4430151,92.9139396 81.8830451,93.5667015 C82.3230752,94.2194634 82.9124733,98.9564788 82.9124733,98.9564788 C82.9124733,98.9564788 86.8081522,106.659868 90.3344482,107.604077 C90.3344482,107.604077 72.8442626,113.273324 82.0303947,123.448026 C82.0303947,123.448026 75.4904984,125.044997 73.9463562,123.230439 C72.402214,121.415881 68.361204,94.5228879 68.361204,94.5228879 L69.6106472,71.8458987 L75.7105134,72.1273649 Z" id="Path" fill="#000000" fill-rule="nonzero" opacity="0.05"></path>
                            <path d="M54.2847665,45.1097954 C53.8041934,47.6338304 53.946764,50.2389669 54.699814,52.693796 L52.0356042,60.4158694 C52.0356042,60.4158694 31.7437335,48.9778358 33.4711218,46.2083749 C34.449448,44.6375463 34.5739623,40.4813539 34.4949056,37.1796122 C34.4375895,34.6702886 34.2616884,32.6572267 34.2616884,32.6572267 C34.2616884,32.6572267 59.1645394,35.1365345 55.8500885,40.8915703 C55.1000245,42.199617 54.5709743,43.6252999 54.2847665,45.1097954 Z" id="Path" fill="#FFCDD3" fill-rule="nonzero"></path>
                            <path d="M57.4663201,41.583791 C56.68556,42.8721066 56.1348587,44.276284 55.836938,45.7383868 C47.9048518,48.1693559 39.2841331,44.900741 35.2371873,37.9278255 C35.1775256,35.4563534 34.9944259,33.4736574 34.9944259,33.4736574 C34.9944259,33.4736574 60.9102413,35.9155664 57.4663201,41.583791 Z" id="Path" fill="#000000" fill-rule="nonzero" opacity="0.1"></path>
                            <path d="M67.5472953,27.7494378 C67.5522136,35.1523385 62.70582,41.7219787 55.5296026,44.0402973 C48.3533853,46.3586158 40.4688317,43.9017818 35.978128,37.9480401 C31.4874242,31.9942984 31.4052581,23.8889146 35.7743791,17.8489685 C36.0218639,17.5081768 36.2824103,17.1754671 36.5560184,16.8508395 C38.1150297,14.9944445 40.0550756,13.4799741 42.2502299,12.4057308 L42.2502299,12.4057308 C43.4411817,11.8219986 44.6973436,11.375842 45.9934366,11.0762392 C50.7240793,9.97828011 55.7076854,10.8542602 59.7536678,13.4949071 C63.7996502,16.135554 66.5446224,20.3037003 67.3328085,25.0035729 C67.4784792,25.9118448 67.5502008,26.8300267 67.5472953,27.7494378 Z" id="Path" fill="#FFCDD3" fill-rule="nonzero"></path>
                            <path d="M73.0587552,97.9866056 C72.802678,99.3424297 73.1232786,101.820108 73.6092204,104.341781 C73.629384,104.451767 73.6515639,104.561752 73.6737438,104.671738 C73.6959237,104.781724 73.7281854,104.951702 73.7564144,105.089684 C73.9802299,106.173543 74.224209,107.247404 74.462139,108.223277 C74.700069,109.199151 74.9138028,110.035042 75.0952748,110.722953 C75.3694992,111.752819 75.5570203,112.400735 75.5570203,112.400735 C75.5570203,112.400735 75.5812166,113.036653 75.6134783,114.048522 C75.6316255,114.632446 75.6517891,115.344353 75.6719526,116.130251 C75.6719526,116.358222 75.6860671,116.590192 75.6921162,116.830161 C75.702198,117.248106 75.7122797,117.68205 75.7223615,118.125992 C75.7223615,118.269974 75.7223615,118.413955 75.7324433,118.559936 C75.7324433,119.037874 75.7505905,119.525811 75.7586559,120.011748 C75.7687377,120.679661 75.7768031,121.347574 75.7808359,121.99549 C75.7808359,122.243458 75.7808359,122.487427 75.7808359,122.727395 C75.7808359,123.347315 75.7808359,123.941238 75.7808359,124.487167 C75.7586559,126.036966 75.6961489,127.206814 75.5630694,127.54477 C75.5166932,127.660755 75.4743497,127.786739 75.4340226,127.918722 C75.2591835,128.539469 75.1324559,129.172566 75.0549477,129.812476 L74.7121672,129.534512 C74.0568514,128.998582 73.4075848,128.450653 72.7482364,127.918722 C71.6522922,127.008246 70.4889432,126.180692 69.2680059,125.443043 C69.1853353,125.395049 69.1026647,125.347055 69.0179777,125.301061 C68.7921458,125.171078 68.5622812,125.049094 68.3283839,124.933109 C67.8465359,124.692198 67.3525526,124.475943 66.8483786,124.285193 C64.5194874,123.405307 62.025255,123.085349 59.4967445,123.139342 C58.4885665,123.521292 57.8332508,123.795257 57.8332508,123.795257 L56.5508483,124.179207 L56.3371146,124.243199 C54.9478453,124.663144 52.9939963,125.259067 52.290288,125.507035 C51.1530632,125.906983 41.2789677,127.944718 41.2789677,127.944718 C40.3768998,128.188919 39.4554292,128.356173 38.5246253,128.444654 C36.8297783,128.917456 35.1045134,129.275567 33.3607375,129.516514 C29.3980954,130.018935 25.3733803,129.697486 21.5428748,128.572637 C21.4285417,128.579389 21.3138296,128.576043 21.2000943,128.562638 C21.2706667,128.562638 21.3392228,128.54664 21.4017299,128.534642 L21.1557344,128.462651 L20.819003,128.358665 C20.2544233,128.182688 19.6945484,127.990046 19.1393784,127.78074 L18.8026469,127.652756 C18.264952,127.44745 17.7386831,127.226812 17.2238402,126.990842 L16.8871087,126.838862 C16.3494138,126.590894 15.8231448,126.328928 15.3083019,126.052964 C15.1227972,125.956976 14.9393088,125.85299 14.7578367,125.755003 C14.2093879,125.451042 13.6716929,125.132417 13.1447519,124.799127 C13.0560322,124.045224 13.009656,123.54129 13.009656,123.54129 L12.2232772,119.657794 L12.1829501,119.45782 L11.6183704,116.658183 L11.5780433,116.458209 L10.3500824,110.366999 L10.3097553,110.167025 L9.74517561,107.367388 L9.70484849,107.167414 L8.46075682,101.080204 L8.4204297,100.88023 L7.85585001,98.0805934 L7.81552288,97.8806194 L6.58151299,91.7814108 L6.54118587,91.5814367 L5.97660618,88.7917987 L5.93627906,88.5918246 L5.71246354,87.4919674 L5.37573208,85.8261835 C5.37573208,85.8261835 4.30101431,84.3023812 3.09120069,82.500615 L2.95610483,82.300641 C2.61130795,81.7947066 2.25642929,81.2687748 1.91163241,80.7528418 C1.79670011,80.5828638 1.68580053,80.4148856 1.57490095,80.2489072 C1.40687128,79.9969399 1.24421856,79.7509718 1.08694279,79.5110029 L0.97805956,79.3450245 L0.955879644,79.3110289 C-0.782219261,76.643375 0.381218173,75.4835255 0.381218173,75.4835255 C0.381218173,75.4835255 1.11113906,74.5036526 2.05277733,73.2078208 C2.09915352,73.1418293 2.14754606,73.0758379 2.19795496,73.0078467 C2.60122617,72.4479194 3.0448245,71.8359988 3.4803574,71.2240782 L3.81708886,70.7481399 C3.94411929,70.570163 4.06913337,70.3921861 4.19011473,70.216209 C4.23850727,70.1502175 4.28488346,70.0822263 4.32924329,70.0162349 C5.25878343,68.6844077 6.02499872,67.5225585 6.18227449,67.1106119 C6.42826993,66.4606963 7.99699493,64.5389456 9.55967086,62.8531643 C10.7916644,61.5213372 12.0176089,60.3374908 12.5680741,60.0535276 C13.8161985,59.3996125 14.3303692,57.2858867 14.3303692,57.2858867 C14.3303692,57.2858867 17.0464008,56.3420092 17.4133776,55.6141036 C17.7803544,54.8861981 22.920046,51.6146226 22.920046,51.6146226 C22.920046,51.6146226 24.998909,50.2867949 25.8397295,49.4868987 C25.9587552,49.3822995 26.0625784,49.2618341 26.148232,49.1289451 C26.4406036,48.6090126 28.3500928,48.1810681 29.1263898,48.0270881 C29.3280255,47.9870933 29.4530395,47.9650961 29.4530395,47.9650961 C29.7664368,47.4003072 30.1625954,46.8847601 30.6285751,46.4352946 C30.945143,46.1573307 31.3403488,45.199455 31.6730475,44.2715754 C32.0339753,43.2597067 32.3142487,42.2858331 32.3142487,42.2858331 C32.9030247,40.3200881 34.0765439,40.9020126 34.0765439,40.9020126 C34.0749454,41.1705195 34.1006154,41.4385036 34.1531655,41.7019088 L34.1531655,41.7019088 C34.64314,44.1015974 37.3047299,45.1014677 38.7020647,46.2233221 C40.244577,47.4591618 42.6662206,50.6647459 44.5757098,51.318661 C46.1565329,51.8605907 47.9894006,53.9043255 48.5701111,54.586237 L48.614471,54.6382303 C48.711256,54.7502157 48.7596486,54.8142074 48.7596486,54.8142074 C48.7596486,54.8142074 49.8424318,54.7582147 50.5017802,54.7462163 L50.7417266,54.7462163 C50.8758444,54.7328699 51.0032481,54.6814952 51.1087034,54.5982355 C51.7640191,54.1562928 52.7399354,52.8604609 53.1653865,52.5624996 C53.677541,52.1965471 54.1937281,46.2993123 54.1937281,46.2993123 L54.2199407,46.2873138 C56.0487757,45.4374241 58.0106901,53.9443203 58.0106901,53.9443203 C58.0106901,53.9443203 61.4606753,54.964188 61.7550633,55.6920935 C61.8115212,55.8360748 62.0716312,56.0920416 62.4628042,56.4020014 C64.2439234,57.751963 66.1396713,58.946278 68.1287647,59.9715383 C68.1731245,59.9935354 68.215468,60.0155325 68.2598278,60.0335302 C68.2998132,60.0549087 68.3408651,60.0742643 68.3828256,60.0915227 C68.4574307,60.127518 68.5300195,60.1595139 68.5985756,60.18951 C68.7074589,60.2375037 68.8082767,60.2774986 68.9010291,60.3094944 L69.0220104,60.351489 C69.311008,60.4468451 69.5831558,60.5865211 69.8285528,60.7654352 C69.9011416,60.8174285 69.9737305,60.8714215 70.0443029,60.929414 C70.3188846,61.1560502 70.5713685,61.4077925 70.7984201,61.6813164 C70.8326981,61.7213112 70.8649598,61.7633058 70.8972215,61.8033006 L70.8972215,61.8033006 C71.0504646,61.9932759 71.1875768,62.1812515 71.3004927,62.355229 C71.4858092,62.6236275 71.6548113,62.9027541 71.8065981,63.1911205 C71.8065981,63.1911205 74.8150013,68.2884591 75.7707541,68.8683838 C76.7265068,69.4483086 77.3132664,75.3495429 77.3132664,75.3495429 L77.3132664,75.3495429 L74.0870968,87.2100039 C74.0870968,87.2100039 73.9358701,90.2096147 73.6535802,93.2692177 C73.4963045,94.9849951 73.2966852,96.7307686 73.0587552,97.9866056 Z" id="Path" fill="#464353" fill-rule="nonzero"></path>
                            <path d="M49.6432553,55.9147973 C49.6432553,55.9147973 47.4626508,57.0404586 45.759625,57.1468356 C45.5366938,57.156736 45.3132859,57.1444195 45.0930469,57.1100872 C43.3087312,56.8528484 40.6911929,55.4564095 40.6911929,55.4564095 L43.761923,52.2515627 L47.497199,54.0135515 L48.8710002,55.2301167 L49.6432553,55.9147973 Z" id="Path" fill="#63667E" fill-rule="nonzero"></path>
                            <path d="M65.9197324,25.7102637 C65.8426502,25.8181062 65.7550501,25.9182008 65.6581931,26.0091068 C64.5917614,27.0119361 62.6981356,26.5967648 61.2444635,26.3641084 C59.9812873,26.1598152 58.7472992,25.8069944 57.5687209,25.3131433 C56.5428379,24.8799211 55.3121839,24.3504272 54.3897002,24.9721814 C54.0348988,25.2088491 53.7916064,25.5879185 53.4226129,25.796507 C53.0536194,26.0050955 52.5832541,26.0191351 52.1473552,26.0251521 C50.7281496,26.0251521 49.3089439,26.0411974 47.9242047,25.7243033 C45.8582467,25.2469566 43.7213285,24.0455671 41.7567424,24.8378022 C40.2199454,25.4555451 39.3866689,27.1102134 38.9710444,28.7007006 C38.7683008,29.4809018 38.6182704,30.3052274 38.1600698,30.9670947 C37.7018691,31.6289621 36.8158793,32.0982862 36.0616728,31.7874091 C34.9486101,31.3281133 34.7843877,29.4588395 33.4422247,29.3645736 C31.9682782,29.262285 31.9865252,30.7685345 32.4163417,31.8576071 C33.0529568,33.462134 33.8862333,35.0666608 33.9227272,36.73938 C30.6896944,31.0109699 31.0714272,23.9545516 34.9040065,18.6002042 C35.2308077,18.3999989 35.4865858,18.1042125 35.6359111,17.7538163 C35.6509292,17.7064305 35.6631149,17.6582113 35.672405,17.6094089 C35.783914,17.0498301 35.4696613,16.4621722 35.4514144,15.8765199 C35.3804541,14.4464853 36.9456352,13.449673 38.3810604,13.2691638 C39.335983,13.1488243 40.3132075,13.2410845 41.2701576,13.2109997 L41.2701576,13.2109997 C41.7521757,13.2004966 42.2315396,13.137268 42.6995004,13.0224678 C43.5068215,12.7831549 44.2627826,12.3990367 44.9296808,11.8892707 C49.5801873,10.7993787 54.479372,11.6689226 58.4568163,14.2901677 C62.4342605,16.9114128 65.1327334,21.0489342 65.9075678,25.714275 L65.9197324,25.7102637 Z" id="Path" fill="#000000" fill-rule="nonzero" opacity="0.1"></path>
                            <path d="M65.8146423,24.9190351 C65.7147002,25.3137149 65.5064664,25.6729618 65.2132077,25.9566355 C64.1586924,26.9543282 62.286226,26.5392881 60.8487973,26.3078234 C59.5996569,26.1090062 58.3792463,25.7606119 57.2141275,25.270223 C56.1997079,24.8412151 54.9828052,24.3144334 54.0706294,24.9330028 C53.7197925,25.1684583 53.4792187,25.5455861 53.1143484,25.7531062 C52.7494781,25.9606263 52.2843686,25.974594 51.8533405,25.9785848 C50.4499931,25.9885617 49.0466457,25.9965432 47.6773796,25.6812724 C45.6345068,25.2043752 43.5214665,24.0111348 41.5788328,24.7973166 C40.059208,25.4118953 39.2352426,27.0600836 38.8242623,28.6424242 C38.6237841,29.4186292 38.4754303,30.2387325 38.0223495,30.8952143 C37.5692688,31.5516961 36.6931791,32.0226071 35.9474002,31.7133223 C34.8467749,31.2563791 34.6843875,29.3966799 33.3572218,29.3028968 C31.8997453,29.2011321 31.9177884,30.6996666 32.3428022,31.7831608 C33.0885811,33.6727908 34.1030007,35.5524438 33.7702069,37.5558107 C33.4394179,37.5558107 32.8921124,37.5438384 32.5673377,37.5358568 C32.8199403,37.106849 32.3387926,36.5960303 31.8596497,36.4503672 C31.3805068,36.3047041 30.8211726,36.3066994 30.4563023,35.9595024 C30.091432,35.6123053 30.0894272,35.0755467 30.127518,34.5946588 C30.2106757,33.5668381 30.4633169,32.5596618 30.8753017,31.6135531 C31.1379282,31.0149374 31.4767363,30.3664372 31.2762581,29.7398862 C31.1559224,29.4558848 31.0110337,29.1828213 30.8432252,28.9237736 C30.4262306,28.1256194 30.5244649,27.1279267 30.8813161,26.3038326 C31.0336795,25.9526448 31.1439425,25.6214108 31.2702438,25.3061399 C31.4297448,24.8579915 31.6605642,24.4382658 31.9538744,24.0630148 C32.4129695,23.49433 32.8620407,22.6383097 32.3548308,22.1095325 C32.2265248,21.9758417 32.4831369,21.884054 32.4009408,21.7104555 C32.386415,21.6808056 32.3762857,21.6492158 32.3708691,21.6166724 C32.347302,21.4064809 32.3983671,21.1947069 32.5152134,21.0180567 C32.538888,20.9721516 32.5649866,20.9275256 32.5933999,20.8843659 C32.6164579,20.8387679 32.6425793,20.7947696 32.6715864,20.7526705 C33.1155147,20.0149465 33.705511,19.3747629 34.4057228,18.8710221 C34.8407605,18.5577466 35.3499751,18.2564434 35.5223864,17.7496155 C35.7228646,17.1509999 35.370023,16.514472 35.3399512,15.8819348 C35.2697839,14.459225 36.8174756,13.4675185 38.2368612,13.2879338 C39.6562469,13.1083491 41.1277568,13.4056616 42.5110564,13.040506 C44.473738,12.5256966 45.853028,10.8016836 47.6352792,9.83392174 C49.611068,8.78241973 51.9641205,8.6984604 54.0104859,9.60644781 C56.0914496,10.5522605 57.6611939,12.4638397 59.8343776,13.1821784 C60.6042139,13.4375877 61.4382032,13.5393524 62.1318578,13.9623741 C62.9337706,14.4532389 63.4209326,15.3112546 63.8379272,16.157298 C64.4734431,17.4403308 64.6017492,18.7293497 65.0407964,20.0882072 C65.3896285,21.1657153 65.872781,22.5744573 65.9128766,23.815587 C65.9354156,24.1862182 65.9023069,24.558123 65.8146423,24.9190351 L65.8146423,24.9190351 Z" id="Path" fill="#896363" fill-rule="nonzero"></path>
                            <g id="Group" opacity="0.1" transform="translate(30.111483, 14.695752)" fill="#000000" fill-rule="nonzero">
                                <path d="M2.5284603,7.16281839 C2.59292949,6.89590261 2.53815313,6.61312353 2.37925926,6.39257857 C2.43098229,6.55321682 2.20618605,6.64589274 2.32952558,6.77975794 C2.42778592,6.88669081 2.49649201,7.01898841 2.5284603,7.16281839 L2.5284603,7.16281839 Z" id="Path"></path>
                                <path d="M2.37329122,5.92096114 L2.37329122,5.92096114 C2.34984614,5.99284124 2.33579607,6.06764558 2.33151493,6.14338334 C2.36931252,6.07748047 2.42103555,6.00951813 2.37329122,5.92096114 Z" id="Path"></path>
                                <path d="M34.9309476,10.31174 C33.8825616,11.3414724 32.0265007,10.9151632 30.59616,10.6742058 C29.3575096,10.4677462 28.1477203,10.106056 26.9934522,9.59710572 C25.9848532,9.15226133 24.7793088,8.60856264 23.8721665,9.24699671 C23.5260201,9.49001355 23.2872984,9.87925239 22.9232479,10.0934367 C22.5591973,10.3076211 22.0996581,10.3220373 21.6719485,10.3261562 C20.2794054,10.3261562 18.8868624,10.3446914 17.5261489,10.0172365 C15.5009934,9.52708392 13.4042215,8.29758346 11.476544,9.10695311 C9.96861885,9.74332771 9.15099715,11.4423861 8.74318097,13.0755417 C8.54424625,13.8766735 8.39902391,14.7231135 7.94744209,15.4027368 C7.49586027,16.0823602 6.62651555,16.564275 5.88846773,16.2471174 C4.79631612,15.7734405 4.63517899,13.8560788 3.31823114,13.759284 C2.28973863,13.6830838 2.00327264,14.4450857 2.07289979,15.2915257 C2.13258021,14.6448538 2.47076923,14.1464633 3.31823114,14.2082473 C4.63517899,14.3050421 4.79631612,16.2244633 5.88846773,16.6960807 C6.62651555,17.0152977 7.49784962,16.5354424 7.94744209,15.8517002 C8.39703456,15.1679579 8.54424625,14.3256368 8.74318097,13.5265645 C9.15099715,11.8934089 9.96861885,10.192291 11.476544,9.55797589 C13.4042215,8.74654678 15.5009934,9.96986884 17.5261489,10.4682593 C18.878905,10.7957142 20.2833841,10.7854169 21.6719485,10.7751196 C22.0996581,10.7751196 22.5512399,10.7627628 22.9232479,10.5444595 C23.2952558,10.3261562 23.520052,9.94103633 23.8721665,9.69596002 C24.7793088,9.05958542 25.9848532,9.60328411 26.9934522,10.046069 C28.1479677,10.5547499 29.3576433,10.9170976 30.59616,11.1252286 C32.0265007,11.3641265 33.8825616,11.7945546 34.9309476,10.7607033 C35.4999009,10.1984694 35.6709848,9.38498085 35.6331872,8.49529208 C35.6013576,9.20168849 35.4024229,9.84218202 34.9309476,10.31174 Z" id="Path"></path>
                                <path d="M5.30161031,0.0432487597 C5.29060427,0.145802113 5.28661563,0.249032704 5.28967422,0.352168472 C5.30956769,0.780537139 5.46672612,1.20890581 5.5164598,1.62697715 C5.59006565,1.11417043 5.36129072,0.578709594 5.30161031,0.0432487597 Z" id="Path"></path>
                                <path d="M1.25925678,14.6551511 C1.27565812,14.7167346 1.2882825,14.7793299 1.29705438,14.8425624 C1.32930512,14.6301159 1.31640612,14.4129435 1.25925678,14.2061878 C1.14065436,13.9120149 0.996847198,13.6294264 0.829557785,13.3618073 C0.68009916,13.0571577 0.591467263,12.7244551 0.568953301,12.3835615 C0.528505778,12.8756617 0.618614149,13.3698552 0.829557785,13.8128301 C0.997228568,14.0794961 1.14105728,14.3614376 1.25925678,14.6551511 L1.25925678,14.6551511 Z" id="Path"></path>
                                <path d="M3.72803667,22.2710518 L2.56426855,22.2525166 C2.61926331,22.399968 2.60607175,22.5653635 2.5284603,22.7014799 C2.85670259,22.7014799 3.40178372,22.7138367 3.72206862,22.7220745 C3.77771636,22.3695897 3.79705512,22.0119843 3.77975969,21.6552718 C3.77523743,21.8614646 3.75796105,22.0671457 3.72803667,22.2710518 Z" id="Path"></path>
                                <path d="M1.82423139,21.1321678 C1.34877741,20.9838863 0.795738883,20.9818268 0.44163508,20.6214205 C0.233185433,20.3853606 0.115677917,20.0783062 0.111403444,19.7585048 C0.0815632355,20.2321817 0.111403444,20.7429289 0.44163508,21.0724433 C0.795738883,21.4328496 1.34877741,21.4349091 1.82423139,21.5831905 C2.13688734,21.6773409 2.39816017,21.9008795 2.54636442,22.20103 C2.74728849,21.7747208 2.28575994,21.2742708 1.82423139,21.1321678 Z" id="Path"></path>
                            </g>
                            <path d="M69.1750279,125.730323 C68.9544815,125.599207 68.7299969,125.476159 68.5015739,125.359164 C68.0310035,125.116153 67.5485818,124.898013 67.0562078,124.705601 C64.7818239,123.818046 62.3459685,123.495299 59.8766373,123.549763 C58.8920555,123.935042 58.2520774,124.211394 58.2520774,124.211394 L56.9996893,124.598691 L56.790958,124.66324 C56.7771738,124.522038 56.7614205,124.380836 56.7476364,124.237617 C56.7338522,124.094398 56.7180989,123.957231 56.7023456,123.816029 C56.261253,119.537612 55.9146802,115.1422 55.9146802,115.1422 L55.9146802,111.345887 L55.9146802,110.904127 L55.8910502,99.7189224 L55.6941338,96.0315366 L55.6015832,94.3996465 L55.5838607,94.0890024 L55.5484157,93.4515768 L55.5287241,93.072349 C55.48526,92.9521943 55.4484439,92.8296248 55.4184509,92.7052241 L55.4184509,92.7052241 C55.4046668,92.6547949 55.3908826,92.5983141 55.3790677,92.5398162 C55.3298386,92.3380993 55.2766712,92.0778844 55.2215346,91.7954807 C54.8611776,89.9396848 54.4102392,86.8110549 54.3826709,86.1756465 C54.3472259,85.3284353 53.6304504,80.2613056 53.6304504,80.2613056 C53.5575913,77.4715602 51.2674541,72.2188509 50.6904891,71.2284207 C50.1135242,70.2379905 49.4696077,64.2873406 49.6862157,63.9666106 C49.798458,63.7951512 49.8713171,62.780515 49.9166078,61.8445483 C49.9166078,61.7376383 49.9264537,61.6327455 49.930392,61.5298699 C49.9599294,60.7976374 49.9737136,60.186435 49.9737136,60.186435 L52.2264367,59.7305547 L52.83097,59.6095246 L52.8782299,59.5994387 L52.8979215,59.6397821 C52.9629039,59.7628294 53.1657278,60.1561775 53.4039966,60.6725729 C53.4315649,60.7270364 53.457164,60.7855344 53.4847323,60.8440323 C53.4965473,60.8722726 53.5103314,60.900513 53.5241156,60.9287534 C53.9652082,61.9171664 54.4752216,63.2182407 54.4535608,63.9666106 C54.4181158,65.2898738 55.889081,68.4850702 55.889081,68.4850702 C56.0308608,69.2193199 59.150016,76.5255078 59.150016,76.5255078 C59.150016,76.5255078 61.6961445,83.6864594 61.5523956,84.8624692 C61.4086466,86.038479 62.7713078,93.822736 62.7713078,93.822736 L64.169414,101.828882 C64.8487754,103.406308 65.7447449,107.041248 65.7447449,107.041248 L66.0854102,109.102795 L66.1503926,109.496143 L67.058177,114.996964 L67.503208,117.691902 C67.503208,117.691902 67.6902785,119.124093 67.9738381,120.717657 C67.997468,120.860876 68.0250363,121.006112 68.0526046,121.151348 C68.2272999,122.200358 68.4753977,123.235145 68.7949793,124.247703 C68.9534548,124.732779 69.0804152,125.228068 69.1750279,125.730323 L69.1750279,125.730323 Z" id="Path" fill="#000000" fill-rule="nonzero" opacity="0.1"></path>
                            <path d="M69.1750279,125.730323 C69.0944035,125.682018 69.0137791,125.633714 68.9311883,125.587422 C68.7109461,125.456597 68.486771,125.333823 68.258663,125.217087 C67.7887414,124.974617 67.3069849,124.756961 66.81529,124.564976 C64.5440422,123.679394 62.1115457,123.357364 59.6456196,123.411706 C58.6623955,123.79613 58.0232998,124.071868 58.0232998,124.071868 L56.7726387,124.458304 C56.7569071,124.317416 56.743142,124.176528 56.7274104,124.033627 C56.7116788,123.890726 56.6998801,123.776003 56.6880814,123.647191 C56.247597,119.388343 55.9015021,115.022823 55.9015021,115.022823 L55.9015021,111.198717 L55.9015021,110.757938 L55.8779048,99.6257616 L55.6812599,96.1116086 L55.641931,95.3830156 L55.6144007,94.8899071 L55.5790046,94.2377963 L55.5436085,93.575622 L55.5180447,93.098615 L55.5180447,92.9939552 C55.5180447,92.9838917 55.5180447,92.9718156 55.5042796,92.9597395 C55.4669171,92.8510543 55.4216888,92.6860139 55.3725275,92.4766944 L55.3489302,92.37606 C55.3390979,92.3297682 55.3272992,92.279451 55.317467,92.2291338 C54.9477747,90.5123111 54.405035,86.8109782 54.3755383,86.1166009 C54.3401422,85.271272 53.624355,80.2154002 53.624355,80.2154002 C53.5515965,77.4318529 51.2646171,72.1908138 50.6884478,71.202584 C50.1122785,70.2143543 49.4712163,64.2769252 49.6855592,63.9569079 C49.8094454,63.7556391 49.882204,62.5339376 49.9293988,61.525581 C49.9293988,61.4450734 49.9293988,61.3665786 49.9293988,61.2921092 C49.9549626,60.6701886 49.9647948,60.1851309 49.9647948,60.1851309 L52.0570958,59.7624664 L52.5880368,59.655794 L52.6706276,59.6396925 L52.8672725,59.5994387 C52.8672725,59.5994387 53.1248772,60.0865092 53.4336096,60.7567342 L53.4729385,60.8412671 C53.9232552,61.8355349 54.4561627,63.1880611 54.4404311,63.9569079 C54.405035,65.2772311 55.8739719,68.4653286 55.8739719,68.4653286 C56.0155561,69.197947 59.1304102,76.4879023 59.1304102,76.4879023 C59.1304102,76.4879023 61.6730278,83.6329441 61.529477,84.8063411 C61.3859263,85.9797381 62.7467085,93.7467004 62.7467085,93.7467004 L64.1428868,101.735058 C64.8213114,103.30898 65.7160454,106.935844 65.7160454,106.935844 L66.0326436,108.851923 L66.0975363,109.240371 L66.8113571,113.571676 L67.4701172,117.562836 C67.4701172,117.562836 67.6667621,118.985806 67.9381319,120.581867 C67.9636957,120.726781 67.9892596,120.871694 68.0167898,121.018621 C68.1909785,122.069977 68.4387331,123.107168 68.7581408,124.122185 C68.9324711,124.647966 69.0717531,125.185245 69.1750279,125.730323 L69.1750279,125.730323 Z" id="Path" fill="#63667E" fill-rule="nonzero"></path>
                            <path d="M66.7335563,22.6971095 C66.7335563,22.6971095 65.9749817,23.6764893 65.2898817,23.6764893 C64.6047816,23.6764893 61.9378558,23.5670058 60.5477977,23.133053 C59.1577396,22.6991001 52.3424834,22.3706495 52.3424834,22.3706495 C52.3424834,22.3706495 42.6915085,22.4064805 42.3658378,22.0800206 C42.040167,21.7535606 36.3647584,20.0137679 35.7868914,20.1232515 C35.6657577,20.1471388 35.3698739,20.1988946 34.9747003,20.2645847 L34.5219385,20.3382373 C33.8368384,20.4477208 32.9809598,20.5751198 32.1985557,20.6686785 C31.2314724,20.7821432 30.3815512,20.8398709 30.1114827,20.7403404 L30.1114827,19.906275 C30.1114827,19.906275 31.2314724,18.2739753 31.3029611,17.806182 C31.3744498,17.3383888 32.3157177,10.5563824 34.7741348,8.12982945 C35.7897635,6.1836296 37.4333686,4.63989296 39.4367868,3.75048863 C42.7629972,2.29933433 46.0892077,1.06913768 46.0892077,1.06913768 L46.6710463,0.985532087 L48.5476247,0.706846762 C48.6046698,0.64992286 48.6664533,0.597978841 48.7323039,0.551579224 C49.2525828,0.153457332 50.8293058,-0.712457785 52.884606,1.14876206 L53.2480069,1.73002003 C53.2480069,1.73002003 59.5727713,3.21501468 62.4998365,8.39657112 C65.4269017,13.5781275 65.5738507,18.6521911 65.7903026,20.9712511 C65.7903026,20.9712511 65.6453394,21.624171 65.9352658,21.8769784 C66.0402282,21.9699226 66.1403143,22.0682579 66.2351212,22.1715886 C66.2609365,22.1974665 66.2867519,22.2233444 66.3105815,22.251213 C66.393985,22.3348186 66.4714311,22.4224054 66.5349766,22.4940673 C66.5425596,22.4996607 66.5492547,22.506372 66.5548345,22.5139734 C66.5703407,22.5328286 66.5869165,22.5507738 66.6044795,22.5677199 L66.7335563,22.6971095 Z" id="Path" fill="#FED253" fill-rule="nonzero"></path>
                            <path d="M67.5473802,24.3247404 C67.5473802,24.3247404 66.7729856,25.3093507 66.0735978,25.3093507 C65.37421,25.3093507 62.6516656,25.1992825 61.2326179,24.7630121 C59.8135702,24.3267417 52.856182,23.996537 52.856182,23.996537 C52.856182,23.996537 43.0039365,24.0325593 42.6714739,23.7043559 C42.3390113,23.3761525 36.5452423,21.6270684 35.9553239,21.7371366 C35.831664,21.7611515 35.5296096,21.8131838 35.1261946,21.8792247 L35.0207796,21.2388278 L34.9944259,21.0807298 C34.9944259,21.0807298 46.1765218,18.7132624 53.6305766,19.9540314 C61.0846315,21.1948005 66.5844549,22.5756563 66.5844549,22.5756563 C66.5844549,22.5756563 66.4364685,23.2320632 66.7324413,23.4862207 C66.8395927,23.5796613 66.9417661,23.6785218 67.0385502,23.7824043 C67.0649039,23.8084204 67.0912577,23.8344365 67.1155842,23.8624539 C67.2007271,23.946506 67.2797883,24.0345606 67.3446591,24.1066052 C67.3524002,24.1122285 67.3592349,24.1189756 67.3649312,24.1266176 C67.3807997,24.1455398 67.3977192,24.1635787 67.4156114,24.1806511 L67.5473802,24.3247404 Z" id="Path" fill="#000000" fill-rule="nonzero" opacity="0.05"></path>
                            <path d="M65.8077304,26.1023154 C64.4659695,26.2237631 61.9932676,25.8433797 60.9115836,25.6577709 C60.6042199,25.6050672 60.302767,25.5409062 59.9993438,25.4629963 C58.8388486,25.1696886 55.2706708,24.3470523 53.1033624,24.7274357 C50.4848597,25.1857289 43.0963082,24.3516352 43.0963082,24.3516352 C43.0963082,24.3516352 38.5410199,23.2677717 36.7106294,22.3924316 C36.0387638,22.0693349 34.9157039,21.9685103 33.7985549,22.128913 C33.5136612,22.1702401 33.2308559,22.2291373 32.9513344,22.3053559 C31.4263373,22.7246942 30.1397442,23.6802356 30.3623859,25.3094681 C30.2771537,25.1906393 30.1981975,25.0659073 30.1259523,24.9359591 C30.0294085,23.446506 30.4274052,22.5597086 30.9790837,22.0372543 L30.9790837,22.0372543 L31.1091222,21.9753847 C31.7830472,21.7526729 32.4688838,21.5819691 33.1621544,21.4643878 C33.2705198,21.4437646 33.3828258,21.4254329 33.497102,21.4093926 C35.457531,21.1023361 38.2927646,21.0335921 40.684685,22.433678 C40.684685,22.433678 42.9071613,23.6458636 44.4144258,23.6458636 C45.9216903,23.6458636 58.1866858,23.7718942 61.0573844,24.7297271 C61.628871,24.9217479 62.2116542,25.0649637 62.8010825,25.1582313 C63.8476821,25.3151598 64.9112021,25.1985164 65.9141256,24.8168028 C65.934644,25.2490961 65.8987726,25.6825111 65.8077304,26.1023154 L65.8077304,26.1023154 Z" id="Path" fill="#000000" fill-rule="nonzero" opacity="0.1"></path>
                            <path d="M66.7335563,23.5100428 C66.7335563,23.5100428 65.9749817,24.49292 65.2898817,24.49292 C64.6047816,24.49292 61.9378558,24.3830455 60.5477977,23.947543 C59.1577396,23.5120405 52.3424834,23.1824171 52.3424834,23.1824171 C52.3424834,23.1824171 42.6915085,23.218376 42.3658378,22.8907503 C42.040167,22.5631246 36.3647584,20.8171192 35.7868914,20.9269936 C35.6657577,20.9509663 35.3698739,21.0029069 34.9747003,21.0688316 L34.5219385,21.1427472 C33.7355455,21.138704 32.9527952,21.2504275 32.1985557,21.4743683 C31.2314724,21.5882383 30.3815512,21.6461721 30.1114827,21.5462862 L30.1114827,21.3804756 C30.3196996,21.2589146 30.5367728,21.1533995 30.7608384,21.0648362 C32.1008667,20.6873401 33.4807448,20.4714039 34.8714388,20.421571 C36.6050399,20.3576441 38.6325389,20.5614113 40.413799,21.4643797 C40.413799,21.4643797 42.6537784,22.5211725 44.1729133,22.5211725 C45.6920482,22.5211725 58.0536364,22.6290493 60.946943,23.466093 C61.5232013,23.6319308 62.1105089,23.7561059 62.7043736,23.8376686 C64.0074717,24.0028637 65.3307406,23.8117046 66.5349766,23.2843007 C66.5425596,23.2899141 66.5492547,23.2966494 66.5548345,23.3042779 C66.5703789,23.3231668 66.5869527,23.3411739 66.6044795,23.3582163 L66.7335563,23.5100428 Z" id="Path" fill="#000000" fill-rule="nonzero" opacity="0.1"></path>
                            <path d="M30.1823762,24.7058696 C30.1823762,24.7058696 27.7761258,22.5778066 30.9003066,21.1598615 C30.9003066,21.1598615 36.3577615,19.2013106 40.4878339,21.6180021 C40.4878339,21.6180021 42.7126294,22.8252025 44.2214667,22.8252025 C45.7303041,22.8252025 58.0080982,22.9511912 60.8817923,23.9109957 C61.4540923,24.1013994 62.037434,24.2437897 62.6273101,24.3370664 C64.1561718,24.5523639 65.7048582,24.2105607 67.05915,23.3589363 C67.2563836,23.2329476 67.4338939,23.168808 67.487147,23.2421105 C67.6666296,23.4940878 67.5246213,24.9532655 65.9447799,25.2441848 C64.7120696,25.473255 61.9113519,25.0403122 60.7338671,24.8410211 C60.428155,24.7883349 60.1244152,24.7219045 59.8226477,24.6463113 C58.6609415,24.3531013 55.0890403,23.530739 52.9096086,23.9109957 C50.2903458,24.3691363 42.892112,23.5353204 42.892112,23.5353204 C42.892112,23.5353204 38.3340425,22.451818 36.501742,21.5744788 C34.6694415,20.6971396 29.4999478,21.4530715 30.1823762,24.7058696 Z" id="Path" fill="#FED253" fill-rule="nonzero"></path>
                            <path d="M50.4570792,4.898584 C50.2439247,4.57327682 47.5048894,2.24868591 46.3879599,1.3089096 L48.4022698,0.992638725 C48.4635017,0.928037648 48.5298199,0.869088076 48.6005035,0.816430667 C50.0648749,2.44522566 50.4570792,4.898584 50.4570792,4.898584 Z" id="Path" fill="#000000" fill-rule="nonzero" opacity="0.1"></path>
                            <polygon id="Path" fill="#000000" fill-rule="nonzero" opacity="0.1" points="42.1295446 15.6511729 41.5050167 16.3286133 43.8928296 16.2695151 43.9464883 15.5121827"></polygon>
                            <polygon id="Path" fill="#000000" fill-rule="nonzero" opacity="0.1" points="62.664437 17.9614747 63.0341107 18.5939842 65.1059086 18.7779053 64.2182854 18.0220341"></polygon>
                            <path d="M27.6700111,54.7008547 C27.875435,55.0745355 34.6336898,64.7614925 36.4184269,64.4925245 C38.203164,64.2235564 27.6700111,54.7008547 27.6700111,54.7008547 Z" id="Path" fill="#000000" fill-rule="nonzero" opacity="0.1"></path>
                            <path d="M51.270903,63.681592 C51.270903,63.681592 52.2082777,65.375292 52.0709963,66.0361988 C51.9337149,66.6971056 51.270903,63.681592 51.270903,63.681592 Z" id="Path" fill="#000000" fill-rule="nonzero" opacity="0.1"></path>
                            <path d="M30.9237877,75.1116214 C30.9237877,75.1116214 29.6298874,81.4375438 30.308128,81.6386467 C30.9863685,81.8397496 30.9237877,75.1116214 30.9237877,75.1116214 Z" id="Path" fill="#000000" fill-rule="nonzero" opacity="0.1"></path>
                            <path d="M52.8985507,102.053833 C53.1133977,102.780706 54.8998417,107.507373 55.3007766,107.760979 C55.7017115,108.014586 52.8985507,102.053833 52.8985507,102.053833 Z" id="Path" fill="#000000" fill-rule="nonzero" opacity="0.1"></path>
                            <path d="M76.4994426,83.2759281 C76.4606235,83.539123 75.5058829,85.0872065 75.715716,85.6529719 C75.9255491,86.2187374 76.4994426,83.2759281 76.4994426,83.2759281 Z" id="Path" fill="#000000" fill-rule="nonzero" opacity="0.1"></path>
                            <path d="M62.8203549,95.5223881 C62.7763821,95.7100968 62.331768,99.6030137 63.1770233,100.351809 C64.0222787,101.100603 62.8203549,95.5223881 62.8203549,95.5223881 Z" id="Path" fill="#000000" fill-rule="nonzero" opacity="0.1"></path>
                            <path d="M80.7922455,116.62319 C80.2648463,116.932943 79.7194675,117.232159 79.1641001,117.518733 C78.5647828,117.826378 77.9654654,118.119273 77.3541617,118.395311 C77.1104394,118.50699 76.866717,118.616562 76.6249923,118.72192 C76.257411,118.882064 75.8938252,119.035887 75.5342348,119.183388 C74.4414795,119.63432 73.3886787,120.026251 72.4517459,120.357075 C72.0881601,120.485612 71.740556,120.603613 71.4169246,120.713185 C69.7867815,121.258939 68.7040148,121.556049 68.7040148,121.556049 C68.4566757,121.5002 68.2035387,121.478245 67.9508727,121.490727 C67.8809523,121.490727 67.8090342,121.490727 67.7351184,121.490727 C67.396789,121.516603 67.0600207,121.561621 66.7262676,121.625585 C64.4948094,122.047017 61.3424002,123.229133 59.4425642,124.00246 C58.443702,124.404927 57.7944415,124.693608 57.7944415,124.693608 L56.5238888,125.098182 L56.31213,125.165611 C54.9356978,125.608115 52.9999028,126.236048 52.302697,126.497336 C51.1759804,126.918767 41.3931237,129.065962 41.3931237,129.065962 C40.4993911,129.32328 39.5864351,129.499518 38.664232,129.592752 C36.3917558,129.812679 34.1076353,129.867595 31.8280189,129.75711 C29.5386267,129.91304 25.8348455,129.382036 23.6793008,129.023819 L23.3356922,128.966926 C22.5026411,128.823639 21.9732441,128.720388 21.9732441,128.720388 L22.2529256,128.313706 L27.9883925,119.967251 L28.0223538,119.916679 L33.3662668,112.143371 L33.5660392,111.861012 L34.0514863,111.155114 C34.0514863,111.155114 34.343154,110.733682 35.4658752,110.706289 C35.597725,110.706289 35.7415612,110.706289 35.8993814,110.706289 C36.8424453,110.786254 37.7728443,110.98649 38.6702252,111.302615 L38.9299294,111.384794 C42.7995217,112.554267 48.7807087,112.261372 48.7807087,112.261372 C48.7807087,112.261372 52.5024694,111.629224 55.427138,111.249936 L55.64489,111.220436 C56.6006036,111.078003 57.5629084,110.990077 58.5276064,110.957041 C60.3095766,110.99497 64.1651848,109.998284 64.1651848,109.998284 C64.9942405,109.810746 65.3438423,109.65271 65.8113098,109.300814 C65.8732392,109.254457 65.9391642,109.203885 66.0110822,109.149099 C66.2108547,108.991062 66.440593,108.797203 66.7362562,108.556987 C67.2756418,108.120805 68.0327794,107.528694 69.2234232,106.698473 C69.3273048,106.62683 69.4371797,106.555186 69.5550454,106.487757 C69.6729112,106.420328 69.8227405,106.32972 69.9665767,106.253863 C71.1196485,105.677885 72.3353534,105.253282 73.5864534,104.989567 C74.6242692,104.754248 75.6773629,104.601401 76.7368649,104.532314 L76.8946851,104.532314 C79.8912718,104.363741 82.9517857,104.905281 84.7417468,106.681616 C85.0547296,106.993782 85.3274269,107.348013 85.5528229,107.735195 C85.6622101,107.919074 85.759656,108.110562 85.8444907,108.308342 C86.0077761,108.685647 86.1291128,109.081618 86.2060788,109.488351 C86.2207288,109.564209 86.2327152,109.640067 86.2420379,109.715924 C86.2420379,109.739103 86.2420379,109.760175 86.2420379,109.783353 C86.2420379,109.844461 86.2540242,109.905569 86.2580197,109.966676 C86.4178376,112.488945 83.9366638,114.768891 80.7922455,116.62319 Z" id="Path" fill="#000000" fill-rule="nonzero" opacity="0.1"></path>
                            <path d="M21.9732441,127.090196 C21.9732441,127.090196 28.4459069,128.353769 31.828073,128.124219 C31.828073,128.124219 38.0470233,128.469596 41.3932302,127.435572 C41.3932302,127.435572 51.1821337,125.287499 52.3028633,124.866308 C53.4235929,124.445117 57.7946379,123.063611 57.7946379,123.063611 C57.7946379,123.063611 66.3049908,119.306588 68.7042711,119.919421 C68.7042711,119.919421 87.5429161,114.782998 86.1964424,107.843878 C84.8499687,100.904758 72.9594475,102.477906 69.2156913,105.082972 C65.4719352,107.688038 66.0193147,107.959706 64.1614207,108.380897 C64.1614207,108.380897 60.3057914,109.377013 58.5238114,109.339106 C56.7418314,109.301199 48.7768603,110.642692 48.7768603,110.642692 C48.7768603,110.642692 42.5219507,110.950161 38.668319,109.684482 C34.8146874,108.418804 34.0495548,109.530748 34.0495548,109.530748 L21.9732441,127.090196 Z" id="Path" fill="#FFCDD3" fill-rule="nonzero"></path>
                            <path d="M35.8082497,109.583931 L35.8082497,109.583931 C35.7962896,109.737228 35.7585752,109.887218 35.6967886,110.027213 C34.9498036,111.927281 30.6829938,117.059279 30.6829938,117.059279 C30.4877962,117.667164 30.2532671,118.260882 29.9809843,118.836437 C29.5090923,119.829316 28.9754446,120.789745 28.383375,121.711726 C27.1575622,123.617076 25.7995345,125.428518 24.3199329,127.131857 L24.2749573,127.18223 C24.2749573,127.18223 24.102877,127.31723 23.8291129,127.490513 C23.3399413,127.812252 22.800922,128.045319 22.2354144,128.179615 L21.9968485,128.107078 L21.670287,128.002302 C21.1227587,127.824989 20.5797932,127.630885 20.0413904,127.41999 L19.7148288,127.291036 C19.1933733,127.084171 18.6829987,126.861858 18.1837051,126.624098 L17.8571436,126.470964 C17.335688,126.221114 16.8253135,125.95716 16.3260198,125.679101 C16.1461176,125.582385 15.9681709,125.477609 15.7921797,125.378878 C15.2602951,125.07261 14.7388396,124.751567 14.2278132,124.415747 C13.6854994,124.059778 13.1549184,123.688361 12.6360702,123.301497 C12.3962007,123.124184 12.1589384,122.94217 11.9242834,122.755454 C11.6602966,122.239635 11.4491071,121.804412 11.3180914,121.534413 C10.9973962,120.871505 10.9700198,119.922478 11.009129,119.235391 C11.009129,119.164869 11.009129,119.098377 11.0208617,119.033899 C11.0541045,118.602707 11.1049464,118.306514 11.1049464,118.306514 C11.1049464,118.306514 10.9465543,118.086887 10.7549194,117.788679 C10.6473692,117.623456 10.5319972,117.432039 10.4283579,117.242637 C10.2328121,116.888011 10.0802863,116.529355 10.1096182,116.325849 C10.1135836,116.291043 10.1135836,116.255879 10.1096182,116.221073 C10.1066812,116.153039 10.0968505,116.085508 10.0802863,116.019581 C9.92971606,115.382867 9.28050394,114.288766 8.68213374,113.601679 C8.23628927,113.095934 8.20891286,111.20594 8.24997748,109.86602 C8.24997748,109.797512 8.24997748,109.73102 8.24997748,109.664528 C8.27735389,108.969381 8.31841851,108.467666 8.31841851,108.467666 C8.09745174,108.368935 7.92732688,107.63752 7.81782122,106.855731 L7.78848935,106.654239 C7.66334002,105.729392 7.60663173,104.800514 7.60663173,104.800514 C6.15959267,103.714473 5.47127139,102.019926 5.15253171,100.508738 C4.93047595,99.4503243 4.84500095,98.3663357 4.89832214,97.2848678 C4.89832214,97.2526291 4.89832214,97.2344948 4.89832214,97.2344948 C4.89832214,97.2344948 5.06649155,92.8460021 5.60228709,91.139366 C5.62379713,91.0668289 5.64726263,91.0003366 5.67072813,90.9378742 C5.71765162,90.8332908 5.77604394,90.7345885 5.84476391,90.643696 C6.14199355,90.2165333 6.33949483,89.1889248 6.46855507,88.1371373 L6.49202057,87.9356454 C6.6543236,86.5252024 6.69929913,85.1409533 6.69929913,85.1409533 L6.33558391,83.3033476 C6.23650736,82.7996179 6.16024449,82.2952166 6.1067953,81.7901437 C6.09701801,81.7236514 6.09115164,81.6551441 6.08332981,81.5886518 C5.99189192,80.6547036 5.97554075,79.7145648 6.03444335,78.7778404 C6.03444335,78.7093331 6.03444335,78.6428408 6.04813156,78.5763485 C6.19988965,76.442622 6.74125603,74.3576034 7.64378544,72.4308468 C7.67507277,72.3623395 7.7063601,72.2958472 7.74155835,72.2293549 C7.99298181,71.706037 8.27238991,71.197496 8.57849445,70.7060764 C8.6840892,70.5348084 8.7916394,70.3655552 8.90505597,70.1983169 C9.08300267,69.9323477 9.26877119,69.6704083 9.46236155,69.4165285 L9.61879821,69.2150367 C10.2237571,68.4385402 10.8959392,67.7202912 11.6270538,67.0691484 C13.7780578,65.1690801 15.733516,64.4356497 17.4934283,64.5021421 C24.4255276,64.7580367 28.3168894,77.4076957 28.9563242,79.6603747 C29.0188989,79.8820158 29.0501862,80.0029109 29.0501862,80.0029109 C29.0501862,80.0029109 31.9696853,83.0111844 31.1151501,84.330956 C30.9494646,84.6214695 30.8486018,84.9463364 30.8198759,85.2819976 C30.5832654,87.0571409 31.2578985,89.9807878 31.2578985,89.9807878 C31.2578985,89.9807878 31.4964644,90.7867553 32.1926075,92.7170473 C32.2551822,92.896375 32.3236232,93.0837625 32.3881534,93.2812245 C32.8242205,94.4901757 32.9259044,96.5191987 32.6756057,98.3366553 C32.4350843,100.07956 31.8719124,101.616943 30.9645798,102.011867 C29.1147163,102.817834 29.6114027,103.623802 30.0396481,104.28671 C30.2929637,104.761897 30.5043504,105.259566 30.6712611,105.77372 C31.0095553,106.722747 31.3204732,107.734236 31.3204732,107.734236 C31.4484508,107.683348 31.5790053,107.639627 31.7115648,107.603266 C31.9836063,107.511086 32.2716843,107.480165 32.5563228,107.512595 C32.7179254,107.525502 32.8530027,107.644338 32.8907061,107.806773 C32.9435035,108.048563 33.3482833,108.348786 33.8391033,108.632889 C34.4764053,108.990259 35.1339725,109.307846 35.8082497,109.583931 Z" id="Path" fill="#CED7E7" fill-rule="nonzero"></path>
                            <path d="M8.95206243,90.1651012 C9.66113356,90.1295439 17.2723768,87.2889176 18.8401208,88.2588394 C20.4078648,89.2287612 30.1114827,95.5223881 30.1114827,95.5223881 C30.1114827,95.5223881 24.0310953,87.8637593 18.7335552,86.0661446 C13.4360151,84.2685299 8.95206243,90.1651012 8.95206243,90.1651012 Z" id="Path" fill="#000000" fill-rule="nonzero" opacity="0.1"></path>
                            <path d="M19.5317726,103.686695 C19.5317726,103.686695 27.3036192,105.141449 28.483835,106.135987 L19.5317726,103.686695 Z" id="Path" fill="#000000" fill-rule="nonzero" opacity="0.1"></path>
                            <path d="M17.9041249,113.483863 C17.8025665,113.586049 15.2711315,119.198877 15.4742481,119.198877 C15.6773648,119.198877 17.8364193,115.854591 17.8364193,115.854591 L17.9041249,113.483863 Z" id="Path" fill="#000000" fill-rule="nonzero" opacity="0.1"></path>
                            <path d="M23.6008919,106.952417 C23.6008919,106.952417 21.7784443,107.693303 21.9903956,107.762942 C22.202347,107.832582 23.5391423,107.269663 23.6008919,106.952417 Z" id="Path" fill="#000000" fill-rule="nonzero" opacity="0.1"></path>
                            <path d="M21.9732441,115.933155 C22.3012562,116.617882 23.350174,118.673857 23.5808638,118.347625 C23.8115537,118.021394 21.9732441,115.933155 21.9732441,115.933155 Z" id="Path" fill="#000000" fill-rule="nonzero" opacity="0.1"></path>
                            <path d="M48.0156076,54.7081675 L47.7127207,55.1299559 C47.7127207,55.1299559 45.3070997,53.4713018 44.3188341,52.6410247 C43.3305684,51.8107477 40.996786,55.6144425 39.1581071,56.6518138 C37.3194283,57.689185 34.2109543,57.9665774 34.2109543,57.9665774 C34.2109543,57.9665774 31.8072749,55.6144425 31.8810551,54.9266615 C31.9548352,54.2388805 30.7510539,54.0279864 30.6792153,53.5434998 C30.6073768,53.0590132 30.1841117,51.6758515 29.6191112,50.9842706 C29.3201074,50.6194807 29.2773926,49.4776123 29.3045748,48.4839398 C29.498733,48.4459408 29.6191112,48.4250414 29.6191112,48.4250414 C29.9208866,47.8884371 30.3023543,47.3986174 30.7510539,46.9715816 C31.387893,46.4186969 32.3761587,43.0291907 32.3761587,43.0291907 C32.9411592,41.1615424 34.0711604,41.7144271 34.0711604,41.7144271 C34.0711604,44.5510486 37.041782,45.5884199 38.5251512,46.7644874 C40.0085204,47.9405548 42.3423028,50.9842706 44.1809817,51.6074533 C45.6895915,52.1109394 47.4544902,54.0583855 48.0156076,54.7081675 Z" id="Path" fill="#000000" fill-rule="nonzero" opacity="0.1"></path>
                            <path d="M48.0156076,54.7065288 L47.7128777,55.1301831 C47.7128777,55.1301831 45.2988008,53.4754615 44.3110475,52.6395516 C43.3232942,51.8036417 40.9907215,55.6127311 39.1529958,56.6500193 C37.31527,57.6873075 34.2084074,57.9665774 34.2084074,57.9665774 C34.2084074,57.9665774 31.805974,55.6127311 31.8797159,54.926905 C31.9534578,54.2410789 30.7503005,54.0283019 30.6784992,53.5419543 C30.6066979,53.0556067 30.1836522,51.6744556 29.6189445,50.9829301 C29.3200958,50.6181695 29.2774031,49.4763925 29.3045712,48.4827996 L29.6189445,48.4258058 C29.9205636,47.8892445 30.3018335,47.399464 30.7503005,46.9724624 C31.3868095,46.4177222 32.3745628,43.0303874 32.3745628,43.0303874 C32.9392705,41.1628886 34.0686859,41.7138293 34.0686859,41.7138293 C34.0686859,44.5502235 37.0377676,45.5894115 38.5203679,46.7653848 C40.0029682,47.941358 42.3355408,50.9829301 44.1732666,51.606063 C45.6907972,52.1171079 47.454781,54.0567988 48.0156076,54.7065288 Z" id="Path" fill="#CED7E7" fill-rule="nonzero"></path>
                            <path d="M49.6432553,55.9270748 C49.6432553,55.9270748 47.3031937,57.0415488 45.4756339,57.1468685 C45.2364008,57.1566705 44.9966561,57.1444764 44.7603122,57.1104853 L44.7603122,57.1104853 C44.7603122,57.1104853 46.7776067,55.7872868 48.6509645,55.5172854 L49.6432553,55.9270748 Z" id="Path" fill="#000000" fill-rule="nonzero" opacity="0.1"></path>
                            <path d="M52.8931373,61.5953475 C52.8931373,61.5953475 51.0620336,60.6971033 50.4570792,62.0487307 C50.4773796,61.4283116 50.4854998,60.9135682 50.4854998,60.9135682 L52.4817141,60.4158694 C52.4817141,60.4158694 52.673892,60.8641392 52.8985507,61.4675139 C52.8931373,61.5476229 52.8931373,61.5953475 52.8931373,61.5953475 Z" id="Path" fill="#000000" fill-rule="nonzero" opacity="0.1"></path>
                            <path d="M43.9464883,57.1065608 C43.9464883,57.1065608 47.2445095,55.3805266 48.8294314,55.5259889 C50.4916667,55.676773 53.7123746,55.7832088 53.7123746,55.7832088 C53.7123746,55.7832088 52.601505,57.9793345 52.7500279,58.4316868 C52.8985507,58.884039 52.9351728,61.0801647 52.9351728,61.0801647 C52.9351728,61.0801647 49.6025641,59.9501711 49.0471293,62.0487307 C49.0471293,62.0487307 47.2323021,59.6911773 46.0095318,58.9798312 C45.1981703,58.4687332 44.4992841,57.8341354 43.9464883,57.1065608 Z" id="Path" fill="#63667E" fill-rule="nonzero"></path>
                            <path d="M63.2709737,59.5994387 C62.2589563,59.5994387 58.6751738,57.4450285 57.8963697,56.0366109 C57.1175656,54.6281933 56.0263841,56.1833636 55.0143667,56.7051507 C54.3724952,57.0394206 51.8285446,56.3403073 50.4570792,55.8327878 C51.1524399,55.3823388 52.6929315,54.1145591 53.1443811,53.8108627 C53.6878323,53.4378664 54.2355627,47.4271232 54.2355627,47.4271232 C56.1825728,46.46304 58.2857718,55.2192803 58.2857718,55.2192803 C58.2857718,55.2192803 61.9487184,56.2587781 62.2589563,57.0006942 C62.3188643,57.1474468 62.594869,57.4083404 63.0099459,57.7242662 C63.4378602,58.7515346 63.6732131,59.5994387 63.2709737,59.5994387 Z" id="Path" fill="#000000" fill-rule="nonzero" opacity="0.1"></path>
                            <path d="M63.2760892,57.9665774 C62.2890472,57.9665774 58.7937079,55.8131302 58.0341237,54.404009 C57.2745395,52.9948878 56.2102869,54.550835 55.2232449,55.0708435 C54.597214,55.4052804 52.6085224,54.7588384 51.270903,54.2551438 C51.9491032,53.806509 52.9590997,52.4850755 53.3994081,52.1791882 C53.9294476,51.8080448 54.4636607,45.7942989 54.4636607,45.7942989 C56.3626211,44.829734 58.4139158,53.5903486 58.4139158,53.5903486 C58.4139158,53.5903486 61.9864655,54.6303657 62.2890472,55.3726524 C62.3474767,55.5194783 62.61667,55.7805022 63.0215033,56.0965859 C63.4388573,57.1182497 63.6684019,57.9665774 63.2760892,57.9665774 Z" id="Path" fill="#CED7E7" fill-rule="nonzero"></path>
                            <path d="M75.8446445,121.671522 L107.311271,95.1088404 C107.625261,94.8402983 108.025354,94.6971684 108.436286,94.7063755 L120.175398,95.0182858 C120.175398,95.0182858 120.988351,95.6219831 119.795756,96.9420678 L90.1120593,121.603103 C89.7912966,121.868599 89.3931871,122.01992 88.9790938,122.03374 L76.1427934,122.464378 C75.9538342,122.470381 75.7819112,122.354388 75.7146469,122.175514 C75.6473825,121.99664 75.6995832,121.794261 75.8446445,121.671522 L75.8446445,121.671522 Z" id="Path" fill="#967113" fill-rule="nonzero"></path>
                            <path d="M91.148272,119.345875 C91.148272,119.345875 97.9263801,129.544748 105.457176,120.058478 C112.987971,110.572207 110.810274,105.588105 108.52673,105.324483 C106.243185,105.060861 93.3945739,115.447154 91.148272,119.345875 Z" id="Path" fill="#FFCDD3" fill-rule="nonzero"></path>
                        </g>
                    </g>
                </g>
            </g>
        </g>
    </g>
</svg>