<?xml version="1.0" encoding="UTF-8"?>
<svg width="352px" height="250px" viewBox="0 0 352 250" version="1.1" xmlns="http://www.w3.org/2000/svg" xmlns:xlink="http://www.w3.org/1999/xlink">
    <!-- Generator: Sketch 53.2 (72643) - https://sketchapp.com -->
    <title>step-5</title>
    <desc>Created with Sketch.</desc>
    <defs>
        <rect id="path-1" x="0" y="0" width="352" height="250"></rect>
        <linearGradient x1="49.9879247%" y1="99.9938906%" x2="49.9879247%" y2="-0.00738901634%" id="linearGradient-3">
            <stop stop-color="#808080" stop-opacity="0.25" offset="0%"></stop>
            <stop stop-color="#808080" stop-opacity="0.12" offset="54%"></stop>
            <stop stop-color="#808080" stop-opacity="0.1" offset="100%"></stop>
        </linearGradient>
    </defs>
    <g id="UI_2" stroke="none" stroke-width="1" fill="none" fill-rule="evenodd">
        <g id="Home" transform="translate(-504.000000, -1896.000000)">
            <g id="step-5" transform="translate(504.000000, 1896.000000)">
                <mask id="mask-2" fill="white">
                    <use xlink:href="#path-1"></use>
                </mask>
                <use id="Mask" fill="#FFFFFF" xlink:href="#path-1"></use>
                <g mask="url(#mask-2)">
                    <g transform="translate(5.000000, -31.000000)">
                        <path d="M18.4213053,171.873586 C13.9485603,222.036745 25.5075303,283.954683 97.034513,277.31829 C168.561496,270.681897 157.652606,230.546655 244.58498,262.841702 C331.517354,295.13675 361.781782,168.131054 329.164385,122.690704 C296.546988,77.2503538 266.799777,122.690704 236.735679,119.365223 C206.671582,116.039741 128.300592,35.2119747 87.7355499,61.5062223 C47.1705083,87.8004699 22.8940502,121.710427 18.4213053,171.873586 Z" id="Path-6-Copy" fill="#FFD15E" fill-rule="evenodd" opacity="0.360258557"></path>
                        <rect id="Rectangle" fill="#85848B" fill-rule="nonzero" x="24.6114499" y="232.050814" width="309.401085" height="2.34394761"></rect>
                        <path d="M270.725949,192.134055 C270.725949,193.648521 260.644455,198.063573 248.669199,198.063573 C236.693944,198.063573 227.362918,193.648521 227.362918,192.134055 C227.362918,190.61959 237.069178,191.107299 249.05616,191.107299 C261.043142,191.107299 270.725949,190.617023 270.725949,192.134055 Z" id="Path" fill="#504F60" fill-rule="nonzero"></path>
                        <path d="M270.725949,192.203704 C270.725949,193.999716 260.644455,199.235547 248.669199,199.235547 C236.693944,199.235547 227.362918,193.999716 227.362918,192.203704" id="Path" fill="#000000" fill-rule="nonzero" opacity="0.2"></path>
                        <path d="M148.479529,159.172543 C150.365776,159.415026 152.323147,159.569074 154.129733,158.981409 C154.414235,158.892974 154.727187,158.696135 154.698737,158.410861 C154.678393,158.307199 154.634593,158.209602 154.570711,158.125586 C153.889711,157.101446 153.317585,156.008587 152.863701,154.864902 C152.845712,154.805253 152.80874,154.753151 152.758435,154.716559 C152.69961,154.695204 152.635179,154.695204 152.576354,154.716559 C151.742764,154.93622 151.022975,155.475389 150.195075,155.706461 C149.772951,155.822581 149.332377,155.85552 148.897747,155.803454 C148.522205,155.760663 148.010102,155.449714 147.6687,155.489652 C147.862161,156.736301 148.334434,157.90022 148.479529,159.172543 Z" id="Path" fill="#6C63FF" fill-rule="nonzero"></path>
                        <path d="M185.51233,157.04449 C187.123717,156.114352 188.794102,155.137707 189.745448,153.702194 C189.813368,153.616337 189.852827,153.516803 189.859757,153.413852 C189.843531,153.31253 189.796544,153.21643 189.723323,153.13481 C188.817108,151.923467 187.650427,150.864683 186.282993,150.012647 C185.569524,150.436423 184.924927,150.936727 184.365553,151.500868 C183.959941,151.860521 182.838976,152.431006 182.827914,152.979787 C182.827914,153.289833 183.25565,153.649487 183.454769,153.909925 C183.723948,154.244775 183.978378,154.585825 184.221745,154.933077 C184.361866,155.103602 185.641388,156.97628 185.51233,157.04449 Z" id="Path" fill="#6C63FF" fill-rule="nonzero"></path>
                        <path d="M157.028264,164.550847 C157.051203,164.848435 156.968103,165.144598 156.793218,165.388534 C156.656061,165.524162 156.486274,165.623522 156.299619,165.677392 C153.576012,166.6364 150.423445,165.440529 147.705715,166.385094 C147.147478,166.578629 146.618623,166.858821 146.057448,167.04369 C145.388427,167.241442 144.698192,167.361651 144.000787,167.401873 C143.040033,167.491419 142.073402,167.549191 141.10971,167.575188 C140.377498,167.626157 139.641695,167.562786 138.929649,167.38743 C138.20954,167.206222 137.601737,166.732584 137.257878,166.084682 C137.110149,165.797517 137.080685,165.465422 137.175611,165.157448 C137.21822,165.051848 137.278829,164.954162 137.354835,164.86859 C137.539018,164.665448 137.75529,164.492809 137.995338,164.357312 L138.997225,163.721825 C139.467032,163.395201 139.977532,163.129205 140.516216,162.930354 C140.912858,162.803257 141.333004,162.748374 141.735522,162.641497 C143.142866,162.237096 144.218206,161.139436 145.217155,160.085105 L146.580428,158.655259 C146.707878,158.497933 146.869499,158.370618 147.05346,158.282632 C147.242537,158.22064 147.443508,158.201869 147.641077,158.227749 C148.965327,158.320704 150.24402,158.742072 151.357757,159.452506 C151.642406,159.662425 151.949844,159.84068 152.27444,159.984005 C153.0736,160.290194 154.098992,160.059108 154.836452,159.672038 C155.186084,159.487169 155.109694,159.38318 155.256598,159.053883 C155.403502,158.724585 155.761949,158.513718 156.073386,158.814131 C156.167351,158.918018 156.233937,159.042996 156.2673,159.178091 C156.561109,160.131322 156.449461,161.156767 156.449461,162.156215 C156.440842,162.312486 156.460743,162.469012 156.508223,162.618388 C156.583194,162.768991 156.672728,162.912154 156.775589,163.045897 C156.796527,163.081295 156.815171,163.117957 156.831413,163.155663 C157.01114,163.598148 157.078699,164.076972 157.028264,164.550847 Z" id="Path" fill="#514E7F" fill-rule="nonzero"></path>
                        <path d="M157.024954,164.384835 C157.047889,164.698668 156.964802,165.010996 156.789946,165.268247 C156.652813,165.411277 156.483054,165.516061 156.29643,165.572872 C153.573276,166.584226 150.421233,165.32308 147.703955,166.319202 C147.145811,166.523301 146.617043,166.818787 146.055962,167.013747 C145.387052,167.222293 144.696932,167.349064 143.999643,167.391482 C143.039049,167.485915 142.072579,167.54684 141.109047,167.574256 C140.376956,167.628007 139.641276,167.561177 138.929349,167.37625 C138.209359,167.18515 137.601657,166.68566 137.257855,166.002393 C137.110151,165.699554 137.080692,165.349331 137.175602,165.024547 C137.218204,164.913183 137.278803,164.810165 137.354796,164.719923 C137.513426,165.064149 137.627993,165.521086 137.727871,165.685583 C138.000841,166.178745 138.465363,166.526148 139.002789,166.639058 C139.400405,166.664375 139.799058,166.611667 140.177828,166.4837 C142.64541,165.85008 145.268686,165.840942 147.639328,164.881374 C148.453042,164.549333 149.228568,164.107627 150.083409,163.906574 C150.93825,163.705522 151.845968,163.760355 152.727248,163.684198 C154.119669,163.568441 155.468027,163.132828 156.839885,162.904359 C157.017027,163.37483 157.080561,163.883077 157.024954,164.384835 L157.024954,164.384835 Z" id="Path" fill="#464353" fill-rule="nonzero"></path>
                        <path d="M191.009492,157.176671 C190.882008,158.236308 190.235901,159.148438 189.526052,159.922093 C188.816202,160.695748 188.013638,161.391135 187.448656,162.282193 C186.753294,163.386984 186.440381,164.756685 185.536409,165.689888 C185.189409,166.029251 184.799508,166.317889 184.377472,166.547832 C183.90469,166.837652 183.404735,167.076701 182.88534,167.26128 C181.535178,167.70982 180.080711,167.607468 178.669705,167.499097 C178.211602,167.494521 177.758087,167.403749 177.331132,167.231177 C177.136766,167.128587 176.950727,167.009791 176.774842,166.875958 C176.421145,166.64966 176.123443,166.340349 175.905639,165.972859 C175.798688,165.773045 175.768661,165.538521 175.821616,165.316607 C175.902248,165.072164 176.040736,164.852707 176.224347,164.678416 C176.541861,164.335352 176.882694,164.016439 177.244212,163.724141 C177.740251,163.391541 178.187232,162.985941 178.571195,162.520009 C178.806765,162.151833 178.980193,161.74462 179.084025,161.315877 C179.289254,160.564744 179.414589,159.792495 179.457782,159.012973 C179.456195,158.495005 179.507672,157.978332 179.611341,157.471684 C179.825745,156.676956 180.393624,155.966518 180.329883,155.144698 C180.304097,155.027018 180.314223,154.903916 180.358856,154.792489 C180.426306,154.70542 180.520344,154.644885 180.625412,154.6209 C181.068181,154.437543 181.535114,154.324884 182.010342,154.286754 C182.493041,154.252161 182.965211,154.444416 183.296763,154.810551 C183.493782,155.057398 183.624162,155.412617 183.913897,155.508948 C184.057468,155.549658 184.20808,155.555835 184.354293,155.52701 C185.06704,155.451752 185.820349,155.358431 186.382434,154.879789 C186.907657,154.390326 187.21225,153.695182 187.222663,152.962208 C187.222663,152.688268 187.103872,152.402286 187.512398,152.360142 C187.819516,152.317997 188.062893,152.661175 188.21935,152.871898 C188.784332,153.657594 189.3638,154.479415 189.575306,155.4367 C189.657561,155.40353 189.744939,155.386189 189.83317,155.385524 C190.199955,155.382171 190.545129,155.565423 190.757423,155.876208 C190.988162,156.264535 191.077573,156.725819 191.009492,157.176671 L191.009492,157.176671 Z" id="Path" fill="#514E7F" fill-rule="nonzero"></path>
                        <path d="M192.180421,156.457123 C192.052022,157.470732 191.401272,158.343242 190.686322,159.083291 C189.971372,159.823341 189.163042,160.488522 188.594,161.340874 C187.893641,162.397677 187.57848,163.707881 186.668014,164.600548 C186.31852,164.92517 185.925817,165.20127 185.500749,165.421225 C185.024571,165.698456 184.521023,165.927121 183.997896,166.103683 C182.638033,166.532739 181.173115,166.434834 179.751971,166.331169 C179.290576,166.326793 178.833803,166.239963 178.40378,166.074888 C178.208018,165.976753 178.020642,165.863118 177.843493,165.735098 C177.487255,165.51863 177.187414,165.222755 176.968045,164.871227 C177.24159,164.741446 177.540053,164.670763 177.843493,164.663898 C178.473816,164.698453 178.934886,165.285885 179.538945,165.467298 C180.399803,165.72358 181.257742,165.124629 182.130272,164.92018 C182.699314,164.78772 183.297537,164.822275 183.860742,164.632223 C184.330094,164.453232 184.763764,164.193936 185.141815,163.866257 C185.659985,163.50068 186.121086,163.062169 186.510433,162.564692 C186.833776,162.067185 187.102777,161.537264 187.312927,160.983808 C187.773711,159.923149 188.316129,158.898867 188.935425,157.919945 C189.027026,157.764954 189.137792,157.621798 189.265177,157.493769 C189.402331,157.369947 189.556994,157.28356 189.711656,157.174136 C190.295288,156.739321 190.537496,156.022308 190.741767,155.319693 C190.797105,155.106134 190.874349,154.898694 190.972302,154.700586 C191.341722,154.697378 191.689377,154.87267 191.903195,155.169956 C192.154279,155.550196 192.253092,156.008986 192.180421,156.457123 L192.180421,156.457123 Z" id="Path" fill="#464353" fill-rule="nonzero"></path>
                        <path d="M130.07996,65.9863109 C130.822016,66.5439465 131.432693,67.2584271 131.868716,68.0791213 C132.286093,68.8983071 134.69197,75.2544711 134.551851,76.1782974 C135.335922,75.3860192 138.42749,75.2574608 139.220505,74.4651826 C139.551425,74.1333227 141.3372,72.4770128 141.605514,72.0913377 C141.873827,71.7056627 143.865309,70.8954461 144.082941,70.4888429 C144.896825,69.0268654 138.311221,63.4868974 139.154917,62.0428582 C139.201596,61.9765091 139.225647,61.8968103 139.223486,61.8156388 C139.204275,61.7474809 139.165996,61.6862684 139.11318,61.6392448 C138.573572,61.0861449 137.858069,60.7423261 137.208154,60.3327332 C136.558239,59.9231403 135.932175,59.352102 135.75628,58.5986903 C135.136505,58.8847948 134.567532,59.2705735 134.071868,59.7407668 C132.863464,60.7791994 131.675928,61.8385601 130.509261,62.9188489 C130.053129,63.3433904 129.170675,63.9084492 128.959006,64.5153642 C128.70858,65.1671251 129.644696,65.6305331 130.07996,65.9863109 Z" id="Path" fill="#A1616A" fill-rule="nonzero"></path>
                        <path d="M140.567659,62.1146117 C139.577043,62.7913575 138.651276,63.5613806 137.802604,64.4144953 C137.001732,65.2197517 136.24178,66.1527793 136.048869,67.2789497 C135.967029,67.7216922 135.97872,68.1703774 135.911494,68.6190627 C135.619204,70.5653466 133.964848,71.991631 133.234125,73.813115 C133.02246,74.3752983 132.866768,74.9576383 132.769386,75.551399 C132.564066,76.6769605 132.45163,77.8179966 132.433253,78.9625958 C132.415716,80.0709376 133.485494,80.8345941 133.877161,81.8686502 C134.268829,82.9027064 134.374053,83.9664768 134.572809,85.0272758 C134.94694,87.0300168 135.633819,88.9614435 136.326544,90.8809846 C137.767529,94.9280665 142.438309,106.115484 143.879295,110.165538 C148.295783,109.039367 160.051651,106.451256 163.96248,104.077086 C165.266089,103.286687 154.916132,94.3694384 156.310351,93.7543533 C156.471934,93.7287878 156.612291,93.6274781 156.689306,93.4808247 C156.76632,93.3341712 156.771028,93.1592409 156.702018,93.0085254 C155.307799,86.8101313 150.946845,81.7171075 148.968048,75.6821418 C148.281169,73.5872866 147.047709,71.7984883 146.112384,69.807633 C145.264745,68.0039776 144.811697,66.0101509 143.797454,64.2956382 C143.606212,63.9424051 143.355985,63.6256842 143.057962,63.3596391 C142.805004,63.162453 142.531541,62.9940565 142.242476,62.8574682 C141.663743,62.5722113 141.125931,62.40284 140.567659,62.1146117 Z" id="Path" fill="#514E7F" fill-rule="nonzero"></path>
                        <circle id="Oval" fill="#A1616A" fill-rule="nonzero" cx="130.089092" cy="58.5986903" r="7.03184284"></circle>
                        <path d="M135.948962,61.559835 C136.665458,60.9060859 137.715043,60.7565888 138.588872,61.1838209 C139.063997,61.4276425 139.479731,61.921161 139.372828,62.4381803 L142.856084,62.4910572 C143.410495,62.4760528 143.964742,62.5263455 144.507142,62.6408753 C145.053025,62.7584474 145.540324,63.0607749 145.885003,63.4957197 C145.926576,63.5515343 145.974089,63.6190993 146.045357,63.6279122 C146.103327,63.6288037 146.159877,63.6101561 146.205712,63.5750352 C146.741551,63.3091834 147.345192,63.2069313 147.939916,63.2812742 C149.822597,63.4017162 151.562741,64.3329385 153.038596,65.4962319 C153.304737,65.6772213 153.511258,65.9315761 153.632502,66.2276967 C153.754253,66.6183988 153.608746,67.1089796 153.929455,67.3880525 C153.929455,70.6194231 155.051937,73.6392858 155.800258,76.7884034 C155.933886,77.3494868 156.47731,77.8459428 156.85444,78.2865843 C157.320391,78.7750871 157.700756,79.3370191 157.979891,79.9492713 C158.61537,81.5825823 157.73936,83.503779 158.357022,85.1429652 C158.61834,85.836241 159.12316,86.4061373 159.544833,87.0083473 C160.100691,87.703715 160.452081,88.537174 160.560411,89.4171872 C160.587137,89.8108269 160.536655,90.2074042 160.560411,90.592231 C160.600248,91.1215205 160.699852,91.6447353 160.857364,92.1521018 C161.110764,93.0999705 161.376042,94.04686 161.653198,94.9927703 C162.104566,96.5203273 162.692533,98.1683263 164.076333,98.9820442 C160.735614,99.5431276 157.213753,100.092461 154.030419,98.9438553 C153.586393,98.7940167 153.164867,98.585519 152.777278,98.3240196 C151.628071,97.5132394 151.072769,96.1266876 150.576858,94.8165137 C150.024525,93.3477089 149.463284,91.8524656 149.350442,90.2896573 C149.351534,89.7926004 149.280532,89.2979595 149.139606,88.8208524 C148.815927,87.9689456 147.951795,87.454864 147.167839,86.9819088 C146.282552,86.5020379 145.480548,85.8851825 144.792217,85.1547156 C144.10184,84.4110653 143.753544,83.4178202 143.830089,82.4109882 C143.88948,81.9262826 144.082499,81.4592027 144.100317,80.9715595 C144.118134,80.4839163 143.898389,79.9257704 143.426234,79.7965156 C140.99419,79.0679884 139.833104,76.2185071 139.29265,73.7626654 C139.059436,72.493381 138.954984,71.2042239 138.98085,69.9143968 L138.948185,67.4086158 C138.269929,66.7981804 137.874849,65.9389831 137.855399,65.0320896 C137.887652,64.7702655 137.882654,64.5052619 137.840551,64.2448102 C137.723072,63.9264547 137.531879,63.6397303 137.28228,63.4075914 C136.745314,62.8624364 136.295688,62.2393296 135.948962,61.559835 Z" id="Path" fill="#464353" fill-rule="nonzero"></path>
                        <path d="M129.378522,68.8286864 C129.30287,69.5896299 129.470986,70.3707499 129.305672,71.1172816 C129.241228,71.4055178 129.129151,71.6937539 129.047895,71.9618136 C128.799481,73.0363123 128.906968,74.1653758 129.353305,75.1698821 C129.799042,76.1645153 130.332721,77.1148897 130.947604,78.0090083 C131.155574,78.3142334 131.326807,78.6442696 131.457555,78.9918936 C131.563536,79.3569068 131.629326,79.7330107 131.65369,80.1131323 C131.815957,81.6395021 132.07617,83.1531623 132.432627,84.6442048 C132.746443,85.9355028 136.310499,96.9749479 137.139871,97.9981863 C137.290348,98.2247382 137.51857,98.3843424 137.778711,98.4449523 C137.966293,98.4522192 138.152797,98.412661 138.322286,98.3296579 L140.003444,97.6667147 C140.146406,97.621723 140.278935,97.5471812 140.392912,97.4476552 C140.550461,97.2582893 140.636056,97.01666 140.633878,96.7674178 C140.754361,95.3608254 137.1819,84.2435565 136.727987,82.9147878 C135.355041,78.9025404 133.528182,75.0344111 132.634366,70.8809279 C132.384994,69.7279833 132.253303,67.9524485 131.432338,67.0329751 C131.093304,66.6525034 131.208183,66.8139157 130.801903,67.0127986 C130.596599,67.1044419 130.398069,67.2113732 130.207894,67.3327408 C129.72625,67.6771794 129.42149,68.2268768 129.378522,68.8286864 L129.378522,68.8286864 Z" id="Path" fill="#464353" fill-rule="nonzero"></path>
                        <g id="Group" stroke-width="1" fill="none" fill-rule="evenodd" transform="translate(0.000000, 0.000000)"></g>
                        <path d="M135.222659,76.7323567 C135.728578,79.2842749 136.250208,81.8301958 136.768697,84.382114 L144.146942,82.5378958 C144.206647,81.8002085 143.794998,81.1164983 143.518471,80.4387856 C142.846008,78.8284682 142.830296,77.0352283 142.286669,75.3799299 C141.875021,74.1204638 141.158564,72.9629545 140.772055,71.6944921 C140.548947,70.9568048 140.435823,70.1951277 140.215858,69.4484442 C139.979943,68.7151778 139.690128,67.998703 139.348569,67.3043531 C138.934406,66.2973495 138.394192,65.3418195 137.739684,64.4585593 C136.796978,64.794417 135.791425,65.1842517 135.254082,65.9969073 C134.978474,66.4548037 134.821201,66.9687937 134.795299,67.4962717 C134.666462,69.0766018 135.266652,70.6659281 135.068684,72.2372621 C134.864789,73.7337068 134.916791,75.2518137 135.222659,76.7323567 Z" id="Path" fill="#FFD15E" fill-rule="nonzero"></path>
                        <path d="M144.453933,109.779802 C144.840114,111.242511 144.281321,112.781281 143.824926,114.229363 C143.137789,116.410543 142.669335,118.65466 142.426482,120.92857 C142.396697,121.507253 142.28033,122.078202 142.081259,122.622387 C141.864764,123.110932 141.496136,123.523416 141.244533,123.988557 C140.554088,125.211382 140.571642,126.703345 140.720848,128.101695 C140.820319,129.023202 140.969526,129.941783 141.153839,130.848663 C141.379112,131.957396 141.657045,133.115862 141.332302,134.198267 C141.876466,134.078324 142.245094,134.78335 142.209986,135.336254 C142.174879,135.889158 141.996416,136.506421 142.262647,136.983265 C142.935539,137.229 142.94139,138.153432 142.920911,138.870159 C142.932069,140.112924 143.089178,141.350076 143.389009,142.556186 C144.407123,147.451386 145.48765,152.332933 146.63059,157.200829 C149.102734,157.967289 151.990316,158.765928 154.348361,157.704001 C154.787203,157.507998 155.226046,157.194978 155.325517,156.72106 C155.351219,156.465639 155.319225,156.207706 155.231897,155.966303 L154.114312,151.899971 C153.84223,150.917031 153.570148,149.901911 153.713503,148.892642 C153.821751,148.140809 154.14942,147.330468 153.780792,146.666399 C153.654991,146.438216 153.456049,146.259765 153.309768,146.043284 C152.724645,145.186137 153.031835,144.039373 153.078645,143.00085 C153.096896,142.767725 153.081128,142.533185 153.031835,142.3046 C152.951684,142.037636 152.839706,141.781283 152.698315,141.541066 C151.774699,139.74808 151.331211,137.746471 151.411044,135.731186 C151.445996,135.474012 151.41061,135.212175 151.308648,134.973502 C151.237667,134.874989 151.174104,134.771339 151.118483,134.663408 C151.074866,134.475587 151.096535,134.278512 151.179921,134.104653 C150.844623,133.850259 150.541976,133.555493 150.278831,133.227028 C150.607622,133.022662 150.824305,132.678599 150.866556,132.293801 C150.908807,131.909004 150.771941,131.526126 150.495327,131.255296 C150.738635,131.206305 150.933702,131.024637 150.999842,130.785437 C151.065982,130.546236 150.991949,130.290171 150.808368,130.123159 C150.665013,130.023695 150.474848,129.979814 150.372451,129.830617 C150.214468,129.614136 150.343195,129.312818 150.471922,129.08171 L151.15359,127.850109 C151.662647,126.934454 151.776746,125.802317 152.323836,124.924691 C153.107901,123.646284 153.619883,122.221605 154.126015,120.811553 L156.094953,115.379052 L157.420257,116.528741 C157.861686,116.865962 158.231637,117.287599 158.508585,117.769119 C158.697026,118.245021 158.81624,118.745486 158.862585,119.255231 C159.348237,122.204052 161.203076,124.760868 161.890596,127.665808 C162.042728,128.312325 162.145124,128.991022 162.516677,129.543926 C162.649637,129.713678 162.768983,129.893663 162.873602,130.082203 C162.970441,130.369802 163.020808,130.671 163.022809,130.974456 C163.146965,132.17675 163.787582,133.265724 164.778177,133.958382 C165.430589,134.405971 166.240985,134.71314 166.594984,135.421091 C166.665786,135.640321 166.76409,135.849694 166.887546,136.044205 C167.203512,136.42451 167.88518,136.468391 168.019758,136.945234 C168.095824,137.211447 167.955395,137.530318 168.104601,137.764351 C168.18939,137.872662 168.301472,137.956465 168.429344,138.007161 L170.33392,138.957922 C172.463767,140.022774 173.552096,142.468424 175.123151,144.250003 C175.665696,144.830268 176.146153,145.465604 176.556702,146.145674 C177.235444,147.359723 177.548485,148.883865 178.695326,149.656176 C179.003615,149.816014 179.284162,150.024435 179.526201,150.273439 C179.886051,150.747357 179.754399,151.411427 179.78658,152.008212 C179.818762,152.604997 180.275158,153.315874 180.842727,153.134498 C180.643841,153.857298 180.643841,154.620388 180.842727,155.343189 C183.334462,155.215203 185.710709,154.252815 187.589195,152.610848 C188.145061,152.125229 188.680449,151.50504 188.6863,150.767835 C188.694836,150.640593 188.666387,150.513599 188.604383,150.402157 C188.491903,150.258163 188.343612,150.146195 188.174317,150.077436 C186.392618,149.112048 185.857231,146.874103 184.956141,145.057419 C184.169151,143.454289 183.004756,142.073492 182.030527,140.584454 C179.912382,137.381121 178.467128,133.504943 175.26358,131.389865 C174.558507,130.924724 173.739335,130.51224 173.385336,129.742855 C173.189319,129.312818 173.165915,128.821348 173.010857,128.376685 C172.855799,127.932021 172.484246,127.499059 172.010297,127.499059 C172.273602,126.855467 172.220941,126.071455 172.238495,125.375206 C172.25648,125.066197 172.220847,124.756407 172.133173,124.45955 C172.011468,124.140193 171.853421,123.835899 171.662149,123.55267 C170.826312,122.137601 170.408399,120.514745 170.456795,118.872001 C170.4802,118.026555 170.629407,117.154781 170.374878,116.347365 C170.246151,115.940732 170.020879,115.569204 169.865821,115.177198 C169.63217,114.466899 169.508836,113.72497 169.500119,112.977284 L169.324583,110.165957 C169.298076,109.229682 169.176527,108.29852 168.961806,107.38681 C168.376683,105.204448 167.79156,96.0625164 165.787514,95.0327693 C163.783468,94.0030221 160.34002,101.038653 158.084371,101.176147 C157.086496,101.217678 156.100418,101.407979 155.158757,101.740753 C153.657916,102.302433 152.399902,103.349733 151.174069,104.373629 L147.025548,107.857802 C146.147864,108.58038 145.422311,109.270779 144.453933,109.779802 Z" id="Path" fill="#464353" fill-rule="nonzero"></path>
                        <path d="M124.775598,49.9886046 C125.666924,48.7611309 127.198178,48.1099359 128.706577,48.0551894 C130.214976,48.0004429 131.700521,48.4787543 133.051795,49.1558818 C133.450645,49.3846441 133.876929,49.5608854 134.320221,49.6802954 C135.034425,49.8272465 135.82862,49.6313117 136.474261,49.9684348 C137.331306,50.4265764 137.497001,51.5935408 137.422724,52.5616891 C137.348447,53.5298374 137.168467,54.6045972 137.679837,55.4430828 C137.861242,55.682211 138.026363,55.9334683 138.174067,56.1951265 C138.394042,56.6936076 138.265485,57.2698864 138.134071,57.7971814 C137.799824,57.5090421 137.611274,57.0739516 137.314165,56.7397099 C137.017056,56.4054683 136.499972,56.1807196 136.131443,56.4314008 C135.762914,56.6820821 135.768627,57.1373423 135.74863,57.5465002 C135.728632,57.9556581 135.625786,58.445495 135.242973,58.5780391 C134.915811,58.6531196 134.576309,58.5195745 134.385928,58.2409161 C133.731717,57.4341258 133.994544,56.1461428 133.346047,55.3335898 C132.977518,54.8725668 132.363302,54.6478181 132.023341,54.163744 C131.7548,53.7834 131.686237,53.2993259 131.451978,52.890168 C131.217719,52.4810101 130.672067,52.1813451 130.309251,52.4637217 C130.185429,52.5830388 130.082128,52.7222823 130.003572,52.875761 C129.537796,53.5486103 128.674924,53.8108911 127.918096,53.5096676 C127.637182,53.3357233 127.333241,53.2028177 127.015342,53.1149167 C126.590868,53.0934812 126.191111,53.316859 125.984031,53.6911954 C125.778996,54.0578206 125.680021,54.4750969 125.698349,54.895618 C125.698349,55.4718967 125.801195,56.0856336 125.475518,56.5466566 C125.351668,56.7202086 125.19662,56.8687714 125.018427,56.9846284 C124.541339,57.2929375 123.875701,57.5003979 123.435751,57.1488678 C123.132481,56.8639943 122.998246,56.4403536 123.081506,56.0308871 C123.167163,55.629837 123.279791,55.235134 123.41861,54.8495157 C123.67001,53.9562837 123.341476,52.9506773 123.61573,52.1093103 C123.902991,51.3515857 124.293353,50.6378448 124.775598,49.9886046 L124.775598,49.9886046 Z" id="Path" fill="#464353" fill-rule="nonzero"></path>
                        <path d="M127.768376,71.1282592 C127.721804,71.3425428 127.745611,71.5652133 127.836591,71.7662734 C127.928738,71.9032 128.054216,72.0171406 128.202469,72.0985113 C129.245175,72.7144568 130.431105,73.0788716 131.656615,73.1599081 C131.823368,73.1626344 131.987044,73.2029468 132.134118,73.2775145 C132.425581,73.4598042 132.444185,73.865546 132.335662,74.1889633 C132.19097,74.4940492 132.115947,74.8246986 132.115514,75.1592153 C132.205433,75.7737083 132.974399,76.0412626 133.622439,76.1324075 C134.530935,76.2411933 135.52625,76.1853303 136.245606,75.6472815 C136.7329,75.2258475 137.104359,74.6980073 137.327739,74.1095791 C139.107523,70.2315112 139.730758,65.9447614 141.532247,62.0784541 C141.668764,61.8260044 141.759933,61.5537366 141.802005,61.272851 C141.84076,60.9865124 141.712528,60.702795 141.467133,60.5319312 C141.13226,60.3349407 140.611348,60.4466667 140.384999,60.1379501 C140.273375,59.9821218 140.285778,59.7704304 140.186556,59.6057816 C139.978811,59.2559028 139.433093,59.3117658 139.061013,59.108895 C138.76955,58.9618871 138.568007,58.6590508 138.242436,58.6002477 C137.918373,58.5828856 137.604654,58.711466 137.395954,58.9471863 C136.338626,59.8821564 135.783606,61.2081675 135.194479,62.4606746 C134.294902,64.380574 133.241735,66.2323971 132.044199,67.9999316 C132.183729,67.7941205 131.374454,66.235837 131.058186,66.1682134 C130.503166,66.0623677 129.793113,66.9855772 129.492348,67.3295756 C128.548525,68.4146422 127.950495,69.7323693 127.768376,71.1282592 L127.768376,71.1282592 Z" id="Path" fill="#FFD15E" fill-rule="nonzero"></path>
                        <path d="M138.292909,58.5986903 C137.98704,58.6062133 137.700076,58.818401 137.512995,59.1753758 C137.28806,59.6063397 137.243914,60.1768244 137.187154,60.7256057 C136.995808,62.4642449 136.575139,64.1306652 135.948962,65.6305331" id="Path" fill="#000000" fill-rule="nonzero" opacity="0.1"></path>
                        <path d="M139.464883,60.9426379 C139.031882,60.9541859 138.636119,61.23851 138.423844,61.6905423 C138.281752,62.094798 138.193392,62.5231976 138.161974,62.9601806 C137.977939,63.928991 137.622988,64.8394704 137.120935,65.6305331" id="Path" fill="#000000" fill-rule="nonzero" opacity="0.1"></path>
                        <path d="M209.783311,117.501967 L209.783311,113.696168 C209.781692,107.862179 205.254715,103.133695 199.670965,103.133695 L55.8193244,103.133695 C50.2355751,103.133695 45.7085979,107.862179 45.7069784,113.696168 L45.7069784,120.713302 L209.783311,117.501967 Z" id="Path" fill="#33323D" fill-rule="nonzero"></path>
                        <path d="M96.1115923,99.7382817 C96.1115923,99.7382817 95.7000709,125.136028 100.226806,133.492782 C104.753541,141.849535 106.69357,178.203459 106.69357,178.203459 C106.69357,178.203459 154.147864,183.086517 187.216546,172.355486 C220.285228,161.624456 290.649504,157.235552 290.649504,157.235552 L278.791809,77.7352834 C278.791809,77.7352834 220.211742,73.9984287 186.887329,89.8084236 C153.562916,105.618419 96.1115923,99.7382817 96.1115923,99.7382817 Z" id="Path" fill="#8DD070" fill-rule="nonzero"></path>
                        <path d="M96.1115923,99.7382817 C96.1115923,99.7382817 95.7000709,125.136028 100.226806,133.492782 C104.753541,141.849535 106.69357,178.203459 106.69357,178.203459 C106.69357,178.203459 154.147864,183.086517 187.216546,172.355486 C220.285228,161.624456 290.649504,157.235552 290.649504,157.235552 L278.791809,77.7352834 C278.791809,77.7352834 220.211742,73.9984287 186.887329,89.8084236 C153.562916,105.618419 96.1115923,99.7382817 96.1115923,99.7382817 Z" id="Path" fill="#FFCC4B" fill-rule="nonzero"></path>
                        <path d="M105.7712,108.370079 C105.7712,108.370079 104.279175,129.551119 108.022532,136.318885 C111.765889,143.086651 111.940205,173.299259 111.940205,173.299259 C111.940205,173.299259 154.866202,175.291169 185.401006,164.894226 C215.93581,154.497282 280.10174,147.753159 280.10174,147.753159 L272.810023,82.0408091 C272.810023,82.0408091 219.717576,81.4940681 188.730733,96.128993 C157.743889,110.763918 105.7712,108.370079 105.7712,108.370079 Z" id="Path" fill="#FFFFFF" fill-rule="nonzero"></path>
                        <ellipse id="Oval" fill="#000000" fill-rule="nonzero" opacity="0.1" transform="translate(185.062019, 129.572109) rotate(-7.100000) translate(-185.062019, -129.572109) " cx="185.062019" cy="129.572109" rx="11.1000797" ry="23.7632643"></ellipse>
                        <path d="M247.62926,38.6751356 C247.62926,38.6751356 190.427762,53.0683645 163.453449,78.4033847 C136.479136,103.738405 79.6942188,115.73472 79.6942188,115.73472 C79.6942188,115.73472 87.1749374,140.141524 94.0943066,146.744785 C101.013676,153.348046 114.137432,187.515809 114.137432,187.515809 C114.137432,187.515809 161.045556,177.628542 189.34938,157.219531 C217.653205,136.81052 283.617661,111.034891 283.617661,111.034891 L247.62926,38.6751356 Z" id="Path" fill="#000000" fill-rule="nonzero" opacity="0.2"></path>
                        <path d="M77.3502712,111.045409 C77.3502712,111.045409 84.8281436,135.455632 91.7417041,142.059023 C98.6552645,148.662414 111.78512,182.827914 111.78512,182.827914 C111.78512,182.827914 158.699832,172.943389 187.007021,152.533975 C215.314211,132.124561 281.273713,106.357236 281.273713,106.357236 L245.284791,33.9872404 C245.284791,33.9872404 188.085419,48.3807533 161.110715,73.7162735 C134.136011,99.0517937 77.3502712,111.045409 77.3502712,111.045409 Z" id="Path" fill="#8DD070" fill-rule="nonzero"></path>
                        <path d="M77.3502712,111.045409 C77.3502712,111.045409 84.8281436,135.455632 91.7417041,142.059023 C98.6552645,148.662414 111.78512,182.827914 111.78512,182.827914 C111.78512,182.827914 158.699832,172.943389 187.007021,152.533975 C215.314211,132.124561 281.273713,106.357236 281.273713,106.357236 L245.284791,33.9872404 C245.284791,33.9872404 188.085419,48.3807533 161.110715,73.7162735 C134.136011,99.0517937 77.3502712,111.045409 77.3502712,111.045409 Z" id="Path" fill="#F9D783" fill-rule="nonzero"></path>
                        <path d="M91.4139569,117.712015 C91.4139569,117.712015 96.4632211,138.111152 102.070577,143.344699 C107.677934,148.578246 117.050942,176.968045 117.050942,176.968045 C117.050942,176.968045 158.273382,165.805094 183.99555,146.742119 C209.717718,127.679144 268.382002,101.871033 268.382002,101.871033 L241.443781,42.191057 C241.443781,42.191057 191.042196,57.7952131 166.183602,80.9865502 C141.325008,104.177887 91.4139569,117.712015 91.4139569,117.712015 Z" id="Path" fill="#FFFFFF" fill-rule="nonzero"></path>
                        <ellipse id="Oval" fill="#000000" fill-rule="nonzero" opacity="0.1" transform="translate(172.550908, 113.038255) rotate(-24.970000) translate(-172.550908, -113.038255) " cx="172.550908" cy="113.038255" rx="11.0966725" ry="23.7705996"></ellipse>
                        <path d="M213.299233,120.415309 L213.299233,222.087848 C213.299233,224.419875 212.379074,226.656345 210.741263,228.30506 C209.103452,229.953775 206.882211,230.879621 204.566385,230.878839 L54.4339736,230.878839 C49.6137139,230.877212 45.7069782,226.941828 45.7069784,222.087848 L45.7069784,110.165538 C50.0090183,111.774616 50.0090183,111.774616 54.4339736,111.639053 L204.566385,111.639053 C209.382554,111.639043 213.289549,115.565458 213.299233,120.415309 Z" id="Path" fill="#000000" fill-rule="nonzero" opacity="0.1"></path>
                        <path d="M175.946597,105.316207 C175.878344,105.252815 175.790984,105.221175 175.684795,105.221175 L173.737337,105.221175 C173.608172,104.636736 173.365198,104.129419 173.008377,103.699778 L175.661898,103.699778 C175.768366,103.699778 175.855487,103.6681 175.923979,103.604857 C175.991952,103.541502 176.026099,103.460422 176.026099,103.361837 L176.026099,102.283922 C176.026099,102.185263 175.991992,102.104331 175.923979,102.040902 C175.855407,101.977622 175.768286,101.945834 175.661818,101.945834 L166.186211,101.945834 C166.079863,101.945834 165.992622,101.977622 165.92425,102.040865 C165.856077,102.104294 165.821811,102.185226 165.821811,102.283885 L165.821811,103.689083 C165.821811,103.780636 165.857872,103.859866 165.929994,103.926773 C166.002116,103.99368 166.087522,104.027134 166.186211,104.027134 L167.837641,104.027134 C169.439606,104.027134 170.457055,104.424987 170.889788,105.22099 L166.186211,105.22099 C166.079863,105.22099 165.992502,105.25263 165.92425,105.316022 C165.856077,105.379487 165.821811,105.460383 165.821811,105.559041 L165.821811,106.636808 C165.821811,106.735393 165.855917,106.816436 165.92425,106.87968 C165.992622,106.943145 166.080022,106.974712 166.186211,106.974712 L171.04947,106.974712 C170.882409,107.552452 170.493236,107.992603 169.881953,108.295498 C169.27063,108.598431 168.464082,108.749897 167.461792,108.749897 L166.186211,108.749897 C166.087522,108.749897 166.002116,108.783388 165.929994,108.850258 C165.857832,108.917202 165.821811,108.996469 165.821811,109.087948 L165.821811,110.429903 C165.821811,110.521604 165.855917,110.599058 165.92425,110.662375 C167.381971,112.099251 169.272625,114.110054 171.595971,116.695305 C171.664384,116.779901 171.759243,116.822088 171.88075,116.822088 L174.101538,116.822088 C174.26114,116.822088 174.371318,116.758881 174.431872,116.631839 C174.507784,116.505056 174.492905,116.385304 174.386277,116.272583 C172.169478,113.750873 170.426818,111.863188 169.158817,110.609457 C170.449596,110.468611 171.497402,110.08112 172.302274,109.447315 C173.107026,108.813437 173.596683,107.989161 173.771444,106.974897 L175.684795,106.974897 C175.790984,106.974897 175.878384,106.943293 175.946597,106.879865 C176.015009,106.816621 176.049235,106.735578 176.049235,106.636993 L176.049235,105.559337 C176.049235,105.460568 176.015009,105.379635 175.946597,105.316207 Z" id="Path" fill="#464353" fill-rule="nonzero" transform="translate(170.935523, 109.383961) rotate(-31.000000) translate(-170.935523, -109.383961) "></path>
                        <path d="M213.299233,121.589979 L213.299233,223.260037 C213.297617,228.115526 209.388261,232.050814 204.566385,232.050814 L54.4339736,232.050814 C49.6137139,232.049186 45.7069782,228.113898 45.7069784,223.260037 L45.7069784,111.337512 C50.0090183,112.943604 50.0090183,112.943604 54.4339736,112.810991 L204.566385,112.810991 C209.383695,112.810984 213.291161,116.739095 213.299233,121.589979 Z" id="Path" fill="#504F60" fill-rule="nonzero"></path>
                        <path d="M213.299233,159.388438 L213.299233,191.03173 L181.449288,191.03173 C172.466666,190.915199 165.248307,183.865852 165.248307,175.210084 C165.248307,166.554316 172.466666,159.504969 181.449288,159.388438 L213.299233,159.388438 Z" id="Path" fill="#000000" fill-rule="nonzero" opacity="0.1"></path>
                        <path d="M214.471207,159.388438 L214.471207,191.03173 L182.621262,191.03173 C173.63864,190.91522 166.42028,183.867151 166.42028,175.212952 C166.42028,166.558753 173.63864,159.510683 182.621262,159.394173 L214.471207,159.388438 Z" id="Path" fill="#DEB449" fill-rule="nonzero"></path>
                        <circle id="Oval" fill="#000000" fill-rule="nonzero" opacity="0.1" cx="182.827914" cy="176.968045" r="5.85986903"></circle>
                        <circle id="Oval" fill="#FFFFFF" fill-rule="nonzero" cx="182.827914" cy="175.796071" r="5.85986903"></circle>
                        <path d="M163.727543,94.3692319 C163.233289,94.9070881 162.776339,95.4941603 162.361388,96.1244144 C161.94369,96.7634218 161.721378,97.5607554 161.732805,98.3788627 C161.735017,98.6161204 161.796973,98.8467724 161.910228,99.0393819 C162.028876,99.2283582 162.232496,99.3043407 162.41715,99.2285447 C162.519,99.1650179 162.606159,99.0711773 162.670611,98.9556541 C162.938509,98.5618106 163.22276,98.1850564 163.52224,97.8268795 C163.631228,97.6935352 163.775701,97.5539889 163.922708,97.6036054 C163.988608,97.6322122 164.047781,97.6801221 164.095062,97.7431517 C164.265587,97.9235122 164.389723,98.1604835 164.452442,98.4253781 C164.541154,98.8998356 164.315573,99.3742931 164.059577,99.7464166 C163.803582,100.11854 163.501963,100.475158 163.398044,100.943414 C163.358722,101.067075 163.358722,101.20428 163.398044,101.327942 C163.447036,101.417406 163.51552,101.488304 163.595744,101.532609 C164.330549,102.027575 165.20701,102.098003 165.988416,101.724873 C166.495338,101.47369 166.946499,101.042647 167.468629,100.819373 C167.694711,100.743681 167.913839,100.639768 168.122559,100.50927 C168.424241,100.263622 168.633203,99.88069 168.702984,99.4456168 C168.768868,99.015203 168.781684,98.5751426 168.741004,98.1400835 C168.677792,96.4554717 168.383031,94.7959319 167.869097,93.2311542 C167.839336,93.1302296 167.788684,93.0404775 167.72209,92.9706677 C167.645843,92.9137999 167.557909,92.8847519 167.468629,92.8869399 C166.819769,92.8032121 165.755232,92.3969773 165.129183,92.6915751 C164.910216,92.8384558 164.721303,93.0441404 164.576638,93.2931747 C164.460046,93.4513272 163.727543,94.1614629 163.727543,94.3692319 Z" id="Path" fill="#A1616A" fill-rule="nonzero"></path>
                        <path d="M164.872356,93.9587413 C164.872356,93.2497349 163.924538,91.53824 165.431569,91.4249152 C165.431569,90.6665109 164.265753,90.1957771 164.483751,89.3908805 C164.553258,89.1235503 164.79969,88.905618 164.828125,88.6324762 C164.922906,87.8566372 163.400079,87.4353015 163.652831,86.6914259 C163.747613,86.4008496 164.082508,86.2323153 164.155174,85.9446446 C164.325781,85.2734132 163.020952,84.9741195 162.995677,84.2854535 C162.995677,84.0529924 163.13785,83.8350601 163.125212,83.602599 C163.125212,83.3120226 162.850345,83.0911845 162.698694,82.8383831 C162.30377,82.1903978 162.496493,81.1879092 161.776152,80.8537464 C162.25322,80.8915213 162.40803,80.2406302 162.212148,79.8425406 C162.016266,79.4444509 161.615023,79.098665 161.611863,78.6569889 C161.635527,78.4969398 161.635527,78.3346813 161.611863,78.1746321 C161.479169,77.7503906 160.724074,77.7155214 160.597698,77.302903 C160.58134,77.1445297 160.576063,76.9853534 160.581902,76.8263577 C160.531351,76.4980064 160.164862,76.2887914 159.820488,76.195807 C159.462759,76.1399331 159.118443,76.0268349 158.803164,75.8616441 C158.582006,75.7076386 158.326095,75.4519314 158.089141,75.5710677 C158.000678,75.6204657 157.956447,75.7134502 157.890099,75.7831885 C157.605754,76.0882937 157.062339,75.9546286 156.705327,75.7308847 C155.65009,75.0712764 155.125631,73.8886305 154.901314,72.7350422 C154.676998,71.581454 154.683316,70.3900908 154.40213,69.2481256 C154.316371,68.8922261 154.202326,68.5425953 154.060916,68.2020506 C153.940859,67.9114743 153.555413,67.4552693 153.530138,67.1617872 C153.473269,66.4934615 154.97714,66.9496664 155.54899,67.016499 C156.104182,67.0663677 156.653123,67.1636459 157.188714,67.3070754 C157.760374,67.5057105 158.320351,67.7317 158.866352,67.9841184 C161.147433,68.911057 163.902423,69.0243818 165.73487,70.5818712 C166.338314,71.0932857 166.846976,71.7645171 167.630506,71.9969782 C167.989858,72.0603356 168.344434,72.1447753 168.692061,72.2497797 C169.560894,72.6246232 169.696748,73.685227 170.170657,74.4523487 C170.319643,74.6549315 170.449645,74.8687899 170.559262,75.0916167 C170.650614,75.3544021 170.693333,75.6294315 170.685638,75.9052306 L170.751985,77.9189249 C170.859404,81.2925167 170.966824,84.6748258 170.575059,88.0280773 C170.448683,89.1351733 170.25912,90.2742328 170.616131,91.3377423 C170.710913,91.6283187 170.843607,91.9014605 170.93207,92.1949426 C171.010208,92.5390379 171.05043,92.8895014 171.052127,93.2410176 L171.102678,94.5457056 C171.120233,94.6471617 171.095401,94.7509696 171.033171,94.836282 C170.926194,94.9161688 170.785613,94.9471569 170.650884,94.9205491 C168.676264,94.7578264 166.679528,93.7349975 164.815487,94.3539252" id="Path" fill="#464353" fill-rule="nonzero"></path>
                        <g id="Group-11" stroke-width="1" fill="none" fill-rule="evenodd" transform="translate(227.362918, 188.687783)">
                            <ellipse id="Oval" fill="#504F60" fill-rule="nonzero" cx="21.6815154" cy="3.51592142" rx="21.6815154" ry="3.51592142"></ellipse>
                            <polygon id="Path-2" fill="#504F60" points="3.62793655e-15 3.51592142 3.62793655e-15 43.3630308 43.3630308 43.3630308 43.3630308 3.51592142"></polygon>
                        </g>
                        <path d="M267.195382,192.735133 C266.811318,191.105343 266.572017,189.674522 266.572017,189.674522 C266.572017,189.674522 266.660647,187.901357 265.857067,186.570021 L265.857067,186.125266 L265.857067,186.125266 L265.857067,182.84813 C266.085828,182.253054 266.365539,181.678438 266.693145,181.130559 C267.284013,180.100602 266.693145,176.326043 266.693145,176.326043 C266.693145,176.326043 264.486254,171.003622 265.020989,167.627001 C265.555724,164.25038 260.489034,152.634102 260.489034,152.634102 C260.520248,151.513802 260.67982,150.400636 260.964682,149.316001 C261.01878,149.087968 261.040654,148.853601 261.029678,148.61961 C261.029678,148.59035 261.029678,148.564016 261.029678,148.534756 C261.029678,148.505495 261.029678,148.552312 261.029678,148.56109 C260.952865,146.334392 259.174353,142.161896 259.174353,142.161896 L259.413654,134.208988 C259.413654,134.208988 260.54812,129.527364 258.698704,123.221802 C258.051704,121.024365 257.638097,119.265831 257.375161,117.90816 C257.345617,117.756007 257.316074,117.615558 257.292439,117.466332 C261.100582,116.881129 264.010605,116.412966 264.010605,116.412966 C264.010605,116.412966 261.80076,107.257466 260.308819,105.65401 C258.816878,104.050554 257.623325,99.0148828 257.623325,99.0148828 C257.623325,99.0148828 256.846334,92.5513164 258.101928,90.6611109 C259.357522,88.7709054 259.534782,85.511325 259.534782,85.511325 C259.534782,85.511325 262.397536,83.4631147 262.757966,82.5355681 C263.118395,81.6080214 263.712217,79.5598111 263.712217,78.4742597 C263.712217,77.3887082 263.354742,76.4260494 263.472916,75.8408465 C263.591089,75.2556435 262.636838,73.0933187 263.115441,72.0633615 C263.239256,71.7469767 263.303345,71.4107591 263.304518,71.0714425 C263.305641,71.0617208 263.305641,71.0519041 263.304518,71.0421824 C263.304518,71.0421824 263.304518,71.0421824 263.304518,71.0421824 C263.30893,70.1408763 263.224828,69.2412815 263.0534,68.3561009 C262.225281,67.6635356 261.258797,67.1520226 260.217235,66.8550553 L260.155193,66.6092701 L259.992705,65.9655469 C259.902065,65.9061731 259.808386,65.8514811 259.712043,65.8016901 L259.712043,65.5676089 L259.685454,64.6371362 L260.134513,62.5479617 C261.020815,58.9138515 256.119567,58.3725388 256.119567,58.3725388 C255.822352,57.8150981 255.327939,57.3858522 254.731028,57.1670207 C253.747233,56.824677 254.568539,62.6328161 255.026462,63.0190501 C255.372119,63.3116516 256.44159,65.1199286 256.958599,66.0152891 L256.958599,66.0152891 L257.04132,66.1615899 C256.960375,66.2336438 256.885298,66.311914 256.816791,66.395671 L257.002914,67.6567834 L257.032457,67.8499003 C256.707618,68.2494112 256.443833,68.6940405 256.249558,69.169533 C256.249558,69.169533 257.135859,70.1409698 256.967462,71.2177433 C256.799065,72.2945167 257.242216,73.6609655 257.262896,73.7341159 C257.209718,73.6726696 256.580444,72.9996862 255.95117,73.163543 C255.321895,73.3273999 253.564064,73.8511565 253.564064,73.8511565 C253.564064,73.8511565 252.252338,74.0793856 252.382328,74.3661351 C252.512319,74.6528845 251.496027,75.9110708 251.496027,75.9110708 L247.968547,72.5988222 C247.933094,72.4993377 247.894688,72.3998532 247.865145,72.3062207 C247.721181,71.8286536 247.622279,71.3388843 247.569711,70.8432134 C247.954143,70.7527269 248.331343,70.6343925 248.698268,70.4891656 C249.068921,70.3631289 249.403373,70.1503288 249.6732,69.8688505 C250.030675,69.4504304 250.098625,68.8827835 250.243387,68.3619529 C250.521095,67.3436998 251.129689,66.4395613 251.552159,65.4710504 C252.267621,63.8344853 252.498172,62.0300872 252.216885,60.2685963 C252.162735,59.7257618 251.977284,59.2038494 251.676242,58.7470686 C251.100145,57.9628967 250.05431,57.6439611 249.295045,57.0177939 C248.53578,56.3916268 248.045359,55.43482 247.159058,54.9695837 C246.358432,54.5453115 245.386455,54.5950538 244.482427,54.7413545 C242.71675,55.0297117 241.020657,55.6409209 239.480732,56.5437796 C238.966677,56.836381 238.399444,57.1962808 237.808576,57.0880183 C237.30043,56.9973118 236.922274,56.5964478 236.603206,56.2102139 C236.606798,56.1942265 236.611739,56.1785661 236.617977,56.1633977 C236.603581,56.1491444 236.590711,56.1334556 236.579571,56.1165814 C236.205719,56.9383259 236.018154,57.8312044 236.030064,58.7324386 C236.030064,58.8728873 236.030064,59.02504 236.04779,59.1508587 L236.04779,59.2971594 C236.04779,59.3381236 236.04779,59.3790878 236.04779,59.417126 L236.04779,59.417126 C236.047672,59.4795012 236.038722,59.5415519 236.021201,59.6014649 C235.946794,59.7804504 235.833876,59.941214 235.690315,60.0725533 C235.58187,60.194548 235.483098,60.3246548 235.394881,60.4617132 C235.394881,60.414897 235.424425,60.3680808 235.442151,60.3183385 C235.216797,60.6441493 235.089733,61.0267589 235.075813,61.4214461 C235.059304,61.7087569 235.154441,61.9914315 235.341703,62.21147 C235.518501,62.3815798 235.711423,62.5344377 235.917799,62.6679283 C235.847579,63.0541954 235.811988,63.4458565 235.811443,63.8383342 C235.82497,66.2048063 237.086621,68.3920835 239.138028,69.6055092 C239.179389,69.7020676 239.217795,69.8015521 239.256202,69.8981106 C239.708216,71.0685165 240.047965,72.4437434 239.897293,73.7019297 C239.897293,73.7926362 239.870704,73.8862687 239.855933,73.9769751 C239.841161,74.0676816 239.767302,74.0735336 239.728896,74.1232758 L239.728896,74.1232758 C239.728896,74.1232758 233.899986,74.1817961 232.529173,72.95287 C231.15836,71.7239438 229.066688,75.9578871 229.066688,75.9578871 C229.066688,75.9578871 226.97797,76.3587511 226.558454,75.9578871 C226.138938,75.557023 223.6957,75.9022928 223.6957,75.9022928 C222.694685,75.0206121 221.392108,74.5497766 220.053001,74.5855862 C219.241626,73.9749085 218.346266,73.4822553 217.394096,73.1225788 L217.394096,73.1225788 L217.3291,73.0991707 L217.3291,73.0991707 C216.908859,72.9474597 216.45951,72.8914545 216.01442,72.9353139 C216.01442,72.9353139 213.148711,70.5945021 212.312633,69.3304638 C211.476556,68.0664254 207.497061,63.399432 207.479335,63.3789499 L207.479335,63.1536468 L207.43502,62.4748114 C207.316742,62.4931845 207.197265,62.502964 207.077545,62.5040715 C207.056865,62.4367732 207.027322,62.3577708 206.997778,62.2670643 C206.768491,61.6049193 206.485938,60.9620599 206.152837,60.3446727 C206.152837,60.3446727 206.152837,59.4873503 206.403956,59.2708253 C206.655075,59.0543002 206.300554,55.9088344 206.300554,55.9088344 C206.300554,55.9088344 203.718462,49.9309864 201.405215,54.3931588 C201.405215,54.3931588 197.032794,57.2811353 200.702083,60.6460522 C200.702083,60.6460522 202.179252,61.3482957 202.374238,61.9042385 C202.510138,62.2641383 203.006467,63.2736134 203.340307,63.9524488 L203.490978,64.2450502 L203.449618,64.2801624 L203.502796,64.8419572 L203.52643,65.0584823 C202.835115,65.4476423 202.365375,65.8338762 202.480594,66.1235517 C202.684124,66.6192545 202.82407,67.1382844 202.897156,67.6684874 C202.897156,67.6684874 207.97271,73.9652711 208.628573,76.6542786 C208.628573,76.6542786 222.239211,84.6657068 226.715034,85.2362797 L225.923272,89.2302897 C225.807914,90.3140758 225.748749,91.4030079 225.746011,92.4927961 C225.805098,93.3501184 225.208322,97.2417179 225.208322,97.2417179 C225.208322,97.2417179 224.431331,102.965003 223.775467,103.766731 C223.119604,104.568459 223.237778,108.000674 223.237778,108.000674 C223.082942,109.643757 222.786427,111.270705 222.351476,112.86371 C221.695613,115.037739 222.171262,117.729673 222.171262,117.729673 C222.171262,117.729673 219.905284,122.879459 225.335358,119.388723 C225.335358,119.388723 227.994263,119.224866 231.072684,119.11953 C231.072684,119.219014 231.072684,119.321425 231.072684,119.412131 C231.072684,119.804217 231.072684,120.228489 231.052003,120.673244 C231.010643,123.622666 230.992917,127.695679 231.128816,130.762142 C231.368118,136.198678 233.040273,146.957634 233.040273,146.957634 L233.040273,152.373687 C232.932313,152.881664 232.878838,153.399517 232.880739,153.918623 C232.845393,155.824241 233.357691,157.700554 234.357908,159.328824 L234.777424,162.933674 C234.777424,162.933674 235.758265,165.309598 235.775991,166.737493 C235.772202,166.852576 235.758364,166.967118 235.73463,167.079837 C235.69642,167.261614 235.680549,167.447301 235.687361,167.632853 C235.631228,169.271422 236.62684,173.192281 236.62684,173.192281 C236.62684,173.192281 236.685927,177.139475 237.282704,177.37063 C237.793804,177.566673 236.600251,179.644144 236.245731,180.241051 C236.236251,180.204506 236.229341,180.167354 236.22505,180.129862 L236.151192,180.246903 C236.02803,180.566429 235.96495,180.905582 235.965069,181.2476 C235.896402,181.797741 236.154088,182.337797 236.62684,182.634531 C237.761307,183.322144 238.3699,183.892717 237.406786,184.120946 C237.052495,184.175421 236.701409,184.248676 236.355041,184.340397 C236.355041,184.296507 236.319589,184.249691 236.304818,184.208727 C236.02469,184.317059 235.860377,184.605827 235.911891,184.899266 C235.921016,185.363422 236.041524,185.818766 236.263457,186.227677 C237.217708,188.346111 237.87948,189.153692 237.87948,189.153692 L238.337403,189.103949 C238.26984,189.277242 238.180507,189.441416 238.071512,189.592594 C237.897223,189.83799 237.66629,190.038621 237.397923,190.177797 C237.147753,190.326082 236.868973,190.420776 236.579571,190.455768 C235.925178,190.476831 235.310727,190.7726 234.889689,191.2692 C234.298822,192.03289 233.920666,193.071625 235.096493,193.984542 L239.365512,195.447549 C239.365512,195.447549 246.709998,196.392652 246.320026,194.759936 C245.930053,193.127219 245.693706,191.699324 245.693706,191.699324 C245.725234,190.702449 245.522984,189.711907 245.102838,188.805496 C245.02582,188.657554 244.938969,188.514841 244.842856,188.378298 L245.102838,188.351963 C245.102838,188.351963 245.640528,184.744187 246.355478,184.0595 C246.520921,183.901495 246.559327,183.766898 246.520921,183.68497 C246.594779,183.488927 246.405701,183.374812 246.1664,183.307514 L246.113222,183.450889 C245.879263,183.400386 245.640669,183.373912 245.401226,183.371886 C245.401226,183.371886 245.161925,181.484607 245.938916,180.796994 C246.065656,180.63854 246.12023,180.435057 246.089587,180.235199 C246.095453,179.976233 246.067651,179.717595 246.006866,179.465657 C245.999136,179.481868 245.990251,179.497513 245.980277,179.512473 C245.590304,177.797828 244.26676,175.073709 244.26676,175.073709 C244.26676,175.073709 244.207673,173.359064 244.686276,172.671451 C245.164879,171.983837 244.624235,163.343316 244.624235,163.343316 C244.624235,163.343316 244.80445,159.167893 244.26676,157.222093 C243.729071,155.276293 244.922623,152.985224 244.922623,152.985224 C244.922623,152.985224 244.922623,152.941334 244.922623,152.862331 L244.922623,152.833071 L244.854674,152.174718 C244.853004,152.188322 244.853004,152.202077 244.854674,152.215682 C244.733546,151.109648 244.506062,149.105328 244.337664,148.180708 C244.098363,146.864001 244.399705,140.57307 244.399705,140.57307 L245.47213,137.881136 L247.383587,142.518869 L249.413218,148.698612 C249.413218,148.698612 250.417693,150.003615 250.441328,151.332026 C250.441328,151.396398 250.441328,151.46077 250.441328,151.525143 C250.424953,151.662058 250.41706,151.799839 250.417693,151.937711 C250.381719,152.718484 250.598011,153.490283 251.03515,154.141 C251.03515,154.141 251.57284,157.067014 252.408917,157.801444 C253.244995,158.535874 253.244995,159.975473 253.244995,159.975473 C253.244995,159.975473 254.258333,164.212342 254.722165,164.949698 C255.123955,165.575865 255.144635,167.29051 255.141681,167.82597 L255.141681,167.82597 C255.141681,167.922529 255.141681,167.978123 255.141681,167.978123 C255.141681,167.978123 255.283489,169.493799 255.27758,170.763689 C255.27758,170.921694 255.27758,171.073847 255.27758,171.217221 C255.278972,171.206537 255.278972,171.19572 255.27758,171.185035 C255.277304,171.531995 255.235655,171.877709 255.153498,172.214992 L255.135772,172.273513 C255.135772,172.200362 255.135772,172.130138 255.156452,172.059914 C254.948739,172.922299 254.849508,173.806817 254.861019,174.693327 C254.83443,176.214855 255.067822,178.01728 255.998439,179.082349 C257.611508,180.914034 258.624846,180.685805 258.624846,180.685805 C258.624846,180.685805 257.850809,182.973948 256.893604,183.433333 C256.857372,183.450257 256.82359,183.471906 256.793156,183.497705 C256.793156,183.450889 256.77543,183.406999 256.769521,183.363108 C256.553763,183.593881 256.446467,183.904182 256.474087,184.217505 C256.406138,185.224054 257.047229,186.850918 257.655823,187.608756 C257.881848,187.82794 258.158825,187.988714 258.462357,188.076918 C258.4143,188.11055 258.363957,188.140857 258.311686,188.167625 C258.205422,188.225412 258.095935,188.277188 257.983755,188.322703 C257.82837,188.388077 257.664125,188.43047 257.496289,188.448522 C256.840968,188.465843 256.225047,188.762319 255.806407,189.261954 C255.215539,190.022718 254.837384,191.061453 256.013211,191.97437 L260.28223,193.437377 C260.28223,193.437377 267.579446,194.364924 267.195382,192.735133 Z" id="Path" fill="url(#linearGradient-3)" fill-rule="nonzero"></path>
                        <path d="M238.820294,195.487655 L235.070654,194.247707 C234.036825,193.47398 234.366257,192.593617 234.888528,191.946365 C235.252181,191.528702 235.793319,191.277273 236.372315,191.256954 C236.626217,191.226988 236.870142,191.146628 237.087425,191.021364 C237.325109,190.901793 237.528857,190.731835 237.68201,190.525385 C237.955589,190.123398 238.103034,189.658883 238.107862,189.183762 C238.107862,189.183762 242.221753,188.067809 243.346645,189.183762 C243.54741,189.385774 243.715236,189.613851 243.844811,189.860773 C244.218519,190.631139 244.401535,191.469106 244.380474,192.313389 C244.380474,192.313389 244.589383,193.523578 244.929529,194.907359 C245.269675,196.291141 238.820294,195.487655 238.820294,195.487655 Z" id="Path" fill="#2D293D" fill-rule="nonzero"></path>
                        <path d="M259.927474,191.975515 L256.167962,190.735782 C255.131411,189.962189 255.461711,189.081979 255.985357,188.437318 C256.347288,188.018003 256.889977,187.766105 257.470364,187.748026 C257.618843,187.733959 257.76391,187.697962 257.900023,187.641409 C257.99931,187.602705 258.096139,187.558831 258.190042,187.509998 C259.24002,186.976912 259.213167,185.667755 259.213167,185.667755 C259.213167,185.667755 263.335203,184.551995 264.465742,185.667755 C264.617025,185.818879 264.749439,185.98522 264.860491,186.163648 C265.566742,187.291805 265.488867,188.79684 265.488867,188.79684 C265.488867,188.79684 265.698325,190.009299 266.02594,191.390361 C266.353554,192.771424 259.927474,191.975515 259.927474,191.975515 Z" id="Path" fill="#2D293D" fill-rule="nonzero"></path>
                        <path d="M243.20189,188.149908 C243.431065,188.407842 243.62264,188.699056 243.770552,189.014332 L243.770552,189.014332 L236.738709,189.859757 C237.051002,189.346491 237.219311,188.753387 237.224823,188.146742 C237.224823,188.146742 241.917814,186.725034 243.20189,188.149908 Z" id="Path" fill="#000000" fill-rule="nonzero" opacity="0.1"></path>
                        <path d="M263.694106,185.924853 L263.694106,186.736202 C262.722887,187.844983 258.026853,187.602143 256.662264,187.046812 C256.762569,187.017426 256.860391,186.984116 256.955257,186.94704 C258.016002,186.542307 257.988873,185.548357 257.988873,185.548357 C257.988873,185.548357 262.153178,184.701241 263.29531,185.548357 C263.448144,185.663095 263.581916,185.789386 263.694106,185.924853 L263.694106,185.924853 Z" id="Path" fill="#000000" fill-rule="nonzero" opacity="0.1"></path>
                        <path d="M265.788135,180.655471 C265.479245,181.20562 265.215716,181.780759 265.000244,182.375007 L265.000244,186.900872 C263.868914,188.79031 258.001579,188.160498 257.207916,187.129362 C256.414253,186.098226 255.585958,183.414931 256.477746,182.949162 C257.369535,182.483393 258.114135,180.198491 258.114135,180.198491 C258.114135,180.198491 257.153081,180.426981 255.629248,178.5932 C254.105415,176.759419 254.558525,172.693464 254.841358,171.720916 C255.12419,170.748368 254.841358,167.482129 254.841358,167.482129 C254.841358,167.482129 254.899078,165.188438 254.448855,164.44438 C253.998632,163.700322 253.037578,159.464464 253.037578,159.464464 C253.037578,159.464464 253.037578,158.032006 252.246801,157.287948 C251.456024,156.543889 250.94808,153.620386 250.94808,153.620386 C250.485746,152.889828 250.286889,152.01932 250.3853,151.156792 C250.552691,149.724334 249.424247,148.177631 249.424247,148.177631 L247.505025,141.987888 L245.69836,137.347778 L244.682471,140.039862 C244.682471,140.039862 244.393866,146.34092 244.627636,147.656204 C244.861406,148.971488 245.204846,152.469146 245.204846,152.469146 C245.204846,152.469146 244.076401,154.759908 244.584345,156.707934 C245.09229,158.65596 244.907583,162.842019 244.907583,162.842019 C244.907583,162.842019 245.415527,171.489496 244.962418,172.177896 C244.509308,172.866297 244.567029,174.585832 244.567029,174.585832 C244.567029,174.585832 246.875867,179.624336 246.148583,180.312736 C245.421299,181.001136 245.640639,182.890575 245.640639,182.890575 C245.640639,182.890575 247.219307,182.890575 246.543972,183.578975 C245.868636,184.267375 245.357806,187.876349 245.357806,187.876349 L238.532304,188.687783 C238.532304,188.687783 237.908918,187.888067 237.005585,185.75842 C236.102252,183.628774 237.172976,183.868982 238.082081,183.637562 C238.991186,183.406142 238.416862,182.837846 237.343253,182.149446 C236.269643,181.461046 236.893029,179.914342 236.893029,179.914342 C236.893029,179.914342 238.529418,177.108013 237.963753,176.879523 C237.398088,176.651033 237.343253,172.696394 237.343253,172.696394 C237.343253,172.696394 236.214808,168.009414 236.497641,166.738071 C236.780473,165.466727 235.594308,162.443625 235.594308,162.443625 L235.19892,158.834651 C233.991291,156.7867 233.550742,154.36579 233.957919,152.015095 L233.957919,146.449307 C233.957919,146.449307 232.376365,135.680971 232.151254,130.238215 C232.006951,126.752274 232.047356,121.99499 232.093533,119.027546 C232.122393,117.363668 232.151254,116.259298 232.151254,116.259298 L256.532581,113.681459 C256.532581,113.681459 256.509493,114.823911 256.974147,117.357809 C257.225233,118.717033 257.614849,120.47758 258.226691,122.677531 C259.975636,128.97859 258.904912,133.674357 258.904912,133.674357 L258.676914,141.639294 C258.676914,141.639294 260.821248,146.964875 260.371024,148.798655 C260.098901,149.887507 259.945977,151.003512 259.915029,152.126411 C259.915029,152.126411 264.711639,163.75598 264.203695,167.136464 C263.695751,170.516948 265.782363,175.845458 265.782363,175.845458 C265.782363,175.845458 266.3538,179.624336 265.788135,180.655471 Z" id="Path" fill="#464353" fill-rule="nonzero"></path>
                        <path d="M249.630421,151.049273 L256.662264,150.012647 C256.662264,150.012647 252.678828,154.506705 249.630421,151.049273 Z" id="Path" fill="#000000" fill-rule="nonzero" opacity="0.05"></path>
                        <path d="M258.426129,142.980804 C258.426129,142.980804 258.757089,144.684472 256.662264,145.324752 C256.662264,145.324752 260.411888,145.032695 258.426129,142.980804 Z" id="Path" fill="#000000" fill-rule="nonzero" opacity="0.1"></path>
                        <path d="M256.662264,133.605014 C256.662264,133.605014 250.031753,138.690326 247.620097,138.267987 C245.208442,137.845647 256.662264,133.605014 256.662264,133.605014 Z" id="Path" fill="#000000" fill-rule="nonzero" opacity="0.1"></path>
                        <path d="M241.426604,154.700542 C241.426604,154.700542 236.878038,155.438266 236.741553,156.742704 C236.605068,158.047142 241.426604,154.700542 241.426604,154.700542 Z" id="Path" fill="#000000" fill-rule="nonzero" opacity="0.1"></path>
                        <path d="M242.506009,176.968045 C242.506009,176.968045 234.98504,177.773637 237.120383,178.322563 C239.255725,178.87149 242.763554,179.311755 242.763554,179.311755 C242.763554,179.311755 245.192303,179.38482 242.506009,176.968045 Z" id="Path" fill="#000000" fill-rule="nonzero" opacity="0.05"></path>
                        <path d="M258.88122,61.6652759 L258.352944,63.7624564 L258.385287,64.6964948 L258.40685,65.383806 L255.474379,65.6305331 L255.147351,65.1341417 L255.147351,65.1341417 C254.540014,64.23535 253.27862,62.4083945 252.87253,62.1264206 C252.32988,61.75633 251.363171,55.922996 252.513159,56.2695888 C253.221087,56.4930535 253.802433,56.9231986 254.144705,57.4767894 C254.144705,57.4767894 259.919803,58.0172392 258.88122,61.6652759 Z" id="Path" fill="#FFCDD3" fill-rule="nonzero"></path>
                        <path d="M256.662264,65.1544127 L254.553486,65.6305331 L254.318316,64.6726242 L254.318316,64.6726242 C254.903181,63.2122257 255.876883,62.8610357 256.644174,63.8337454 L256.662264,65.1544127 Z" id="Path" fill="#000000" fill-rule="nonzero" opacity="0.1"></path>
                        <path d="M259.006211,67.319754 L256.831998,67.9744808 L256.785523,67.5537728 L256.662264,66.4204906 C256.662264,66.4204906 257.523058,64.9269773 258.767775,66.0471123 L258.87689,66.6229563 L259.006211,67.319754 Z" id="Path" fill="#6C63FF" fill-rule="nonzero"></path>
                        <path d="M207.439364,61.5033186 L204.322965,63.2865855 L204.051738,62.6612842 C203.756101,61.9983489 203.314001,60.9996036 203.191948,60.6348445 C203.007514,60.0848109 201.708336,59.3900316 201.708336,59.3900316 C198.453612,56.0637757 202.332159,53.2036008 202.332159,53.2036008 C204.38806,48.7888573 206.671791,54.7031662 206.671791,54.7031662 C206.671791,54.7031662 206.991839,57.8209883 206.766721,58.0294221 C206.541602,58.2378559 206.541602,59.0918555 206.541602,59.0918555 C206.838628,59.7037065 207.089845,60.339676 207.292901,60.9938138 C207.387831,61.3093594 207.439364,61.5033186 207.439364,61.5033186 Z" id="Path" fill="#FFCDD3" fill-rule="nonzero"></path>
                        <path d="M207.439364,61.4762399 L205.283082,63.2865855 L205.095416,62.651789 C205.399435,62.2521023 206.478514,60.8884654 206.833203,60.9443039 C207.002509,60.9774006 207.173485,60.9842913 207.343654,60.964876 C207.403707,61.2793354 207.439364,61.4762399 207.439364,61.4762399 Z" id="Path" fill="#000000" fill-rule="nonzero" opacity="0.1"></path>
                        <path d="M208.611338,63.0854975 L204.07795,64.4585593 L203.98665,63.8605434 L203.923442,63.4460342 C203.923442,63.4460342 206.550068,62.0621779 207.326117,62.1161504 C207.71853,62.151109 208.11709,62.151109 208.509503,62.1161504 L208.562176,62.6170157 L208.611338,63.0854975 Z" id="Path" fill="#6C63FF" fill-rule="nonzero"></path>
                        <path d="M249.630421,75.0129097 C249.630421,75.0129097 232.815069,76.8904664 235.958237,75.8792469 C238.145308,75.1725759 239.014759,73.8094993 239.197015,72.2719725 C239.346405,70.9916857 239.011771,69.6108684 238.572564,68.4281555 C238.177358,67.3789344 237.67689,66.3715513 237.078663,65.4211079 C237.078663,65.4211079 249.926213,58.425361 247.359691,64.7853997 C246.963889,65.7473845 246.718076,66.7632976 246.630667,67.7983609 C246.553498,68.8269779 246.665873,69.8609107 246.962313,70.8497602 C247.447005,72.454288 248.370363,73.8950389 249.630421,75.0129097 L249.630421,75.0129097 Z" id="Path" fill="#FFCDD3" fill-rule="nonzero"></path>
                        <path d="M248.119946,66.0885121 C247.726564,67.0977314 247.482254,68.1635269 247.395379,69.2494128 C246.192718,70.3071824 244.874244,70.2358372 243.178639,70.2358372 C241.877982,70.2358372 240.434788,70.5646453 239.39545,69.9101311 C239.002661,68.8093921 238.505253,67.7525454 237.910683,66.7554342 C237.910683,66.7554342 250.676716,59.4161886 248.119946,66.0885121 Z" id="Path" fill="#000000" fill-rule="nonzero" opacity="0.1"></path>
                        <circle id="Oval" fill="#FFCDD3" fill-rule="nonzero" cx="241.426604" cy="63.2865855" r="7.03184284"></circle>
                        <path d="M249.630421,75.996963 C249.630421,75.996963 232.815069,78.1772785 235.958237,77.0029984 C238.145308,76.1823757 239.014759,74.5995009 239.197015,72.8140457 C240.033599,71.7839754 241.715732,71.0182897 242.782378,70.6199959 C243.768545,70.2389014 244.833266,70.2185086 245.829936,70.5616252 C246.221849,70.6973183 246.595051,70.8961531 246.938411,71.1521989 C247.428292,73.0223083 248.360215,74.6994735 249.630421,75.996963 Z" id="Path" fill="#000000" fill-rule="nonzero" opacity="0.1"></path>
                        <path d="M259.006211,65.7447601 L256.711318,66.802507 L256.662264,66.1228303 C257.165621,64.7455894 258.048319,64.1442674 258.869712,64.6190456 L259.006211,65.7447601 Z" id="Path" fill="#000000" fill-rule="nonzero" opacity="0.1"></path>
                        <path d="M207.439364,62.7129496 L205.14169,64.4585593 L205.095416,63.6982859 C205.839654,63.0811942 206.61309,62.5517929 207.409108,62.1146117 L207.439364,62.7129496 Z" id="Path" fill="#000000" fill-rule="nonzero" opacity="0.1"></path>
                        <path d="M256.662264,118.26115 C250.435889,119.531056 241.585931,121.151281 240.181356,120.603908 C239.013733,120.151413 235.29104,120.198852 232.050814,120.341169 C232.079362,118.268448 232.10791,116.892716 232.10791,116.892716 L256.225475,113.681459 C256.225475,113.681459 256.202637,115.10463 256.662264,118.26115 Z" id="Path" fill="#000000" fill-rule="nonzero" opacity="0.1"></path>
                        <path d="M262.522133,115.332307 C262.522133,115.332307 241.66666,118.949044 239.429136,118.26797 C237.191611,117.586896 225.698872,118.323747 225.698872,118.323747 C220.526412,121.825993 222.685478,116.659227 222.685478,116.659227 C222.685478,116.659227 222.232162,113.961353 222.856925,111.780155 C223.276533,110.178733 223.56327,108.544762 223.714158,106.895212 C223.714158,106.895212 223.600829,103.448744 224.225593,102.644372 C224.850356,101.840001 225.591354,96.10078 225.591354,96.10078 C225.591354,96.10078 226.158,92.1963485 226.102789,91.3361993 C226.047577,90.4760501 226.271329,88.0629353 226.271329,88.0629353 L227.012328,84.0440129 C222.749408,83.4715586 209.792106,75.4337139 209.792106,75.4337139 C209.167343,72.7358398 204.337777,66.4212291 204.337777,66.4212291 C204.267426,65.8902259 204.133753,65.3697692 203.939672,64.8711991 C203.599685,63.9523366 208.714026,62.1146117 208.714026,62.1146117 C208.714026,62.1146117 212.520724,66.8116722 213.316934,68.0857499 C214.113144,69.3598275 216.838856,71.7024865 216.838856,71.7024865 C217.262351,71.6584821 217.69017,71.7147692 218.088382,71.8668836 L218.155218,71.8874332 L218.155218,71.8874332 C219.068666,72.249708 219.925161,72.7441507 220.697859,73.3552646 C221.979317,73.324559 223.222416,73.7982627 224.164569,74.6763129 C224.164569,74.6763129 226.48927,74.3299047 226.893187,74.7320905 C227.297104,75.1342763 229.278911,74.7320905 229.278911,74.7320905 C229.278911,74.7320905 231.26653,70.4841864 232.574174,71.7171648 C233.881819,72.9501431 239.429136,72.8914299 239.429136,72.8914299 C240.167228,71.8991759 241.965966,71.1887455 243.09054,70.8364659 C244.049894,70.5119752 245.085008,70.4945465 246.054533,70.7865597 C246.472777,70.9126359 246.8661,71.1113132 247.216884,71.3736922 L250.590606,74.7027338 C250.590606,74.7027338 251.555357,73.4374632 251.442027,73.1527039 C251.328698,72.8679446 252.578225,72.6360272 252.578225,72.6360272 C252.578225,72.6360272 254.225857,72.1193506 254.85062,71.9461465 C255.475383,71.7729424 256.047841,72.4569518 256.100147,72.5186007 C256.079805,72.4452091 255.652642,71.0507693 255.809559,69.9939307 C255.966476,68.9370921 255.126678,67.9389667 255.126678,67.9389667 C257.114297,63.0011819 261.603876,67.1345951 261.603876,67.1345951 C261.603876,67.1345951 262.11531,69.8324692 261.661993,70.8658226 C261.208677,71.8991759 262.11531,74.0803733 262.001981,74.6557632 C261.888652,75.2311531 262.231545,76.2057932 262.231545,77.2978598 C262.231545,78.3899263 261.65037,80.4536973 261.322006,81.3725597 C260.993642,82.2914222 258.253401,84.3581288 258.253401,84.3581288 C258.253401,84.3581288 258.081954,87.6313928 256.887639,89.5248953 C255.693324,91.4183978 256.44304,97.89447 256.44304,97.89447 C256.44304,97.89447 257.579237,102.946746 259.000211,104.555489 C260.421184,106.164232 262.522133,115.332307 262.522133,115.332307 Z" id="Path" fill="#3F3D56" fill-rule="nonzero"></path>
                        <path d="M230.759545,77.3502712 C230.759545,77.3502712 230.270485,76.0851279 229.824645,75.9772475 C229.381995,75.8368591 228.951062,75.6703961 228.534892,75.479036 L228.821504,75.0063236 C228.821504,75.0063236 230.491131,75.3986161 230.759545,75.8242534 C231.027959,76.2498908 230.759545,77.3502712 230.759545,77.3502712 Z" id="Path" fill="#000000" fill-rule="nonzero" opacity="0.1"></path>
                        <path d="M220.331076,72.8484036 C220.228363,73.379911 215.64318,73.8343498 215.64318,73.8343498 L217.960791,71.4904022 L217.960791,71.4904022 L218.018732,71.5116625 L218.018732,71.5116625 C218.84984,71.8413892 219.628825,72.2917125 220.331076,72.8484036 L220.331076,72.8484036 Z" id="Path" fill="#000000" fill-rule="nonzero" opacity="0.1"></path>
                        <circle id="Oval" fill="#575988" fill-rule="nonzero" cx="206.26739" cy="65.6305331" r="1.17197381"></circle>
                        <circle id="Oval" fill="#575988" fill-rule="nonzero" cx="206.26739" cy="66.802507" r="1.17197381"></circle>
                        <circle id="Oval" fill="#575988" fill-rule="nonzero" cx="206.26739" cy="66.802507" r="1.17197381"></circle>
                        <circle id="Oval" fill="#575988" fill-rule="nonzero" cx="207.439364" cy="69.1464546" r="1.17197381"></circle>
                        <circle id="Oval" fill="#575988" fill-rule="nonzero" cx="260.764172" cy="68.5604677" r="1"></circle>
                        <circle id="Oval" fill="#575988" fill-rule="nonzero" cx="260.764172" cy="69.7324415" r="1"></circle>
                        <circle id="Oval" fill="#575988" fill-rule="nonzero" cx="260.764172" cy="69.7324415" r="1"></circle>
                        <path d="M230.879023,92.586131 C230.822015,92.5213385 244.050872,108.203932 254.318312,99.1414383 C254.327313,99.1442553 238.104037,101.209163 230.879023,92.586131 Z" id="Path" fill="#000000" fill-rule="nonzero" opacity="0.1"></path>
                        <path d="M223.846997,101.961721 C223.846997,101.961721 232.334758,102.162089 233.222787,104.274298 L233.222787,106.472776 C232.731472,106.708563 232.134311,106.708563 231.642996,106.472776 C230.787141,106.072041 225.655231,103.817905 223.846997,104.903229 L223.846997,101.961721 Z" id="Path" fill="#000000" fill-rule="nonzero" opacity="0.1"></path>
                        <path d="M225.018971,101.961721 C225.018971,101.961721 231.384719,102.163146 232.050814,104.276653 L232.050814,106.471897 C231.682059,106.708856 231.233718,106.708856 230.864963,106.471897 C230.224099,106.074884 226.376391,103.818337 225.018971,104.904282 L225.018971,101.961721 Z" id="Path" fill="#3F3D56" fill-rule="nonzero"></path>
                        <path d="M228.534892,85.5540879 C229.25742,87.3254443 230.178179,88.998488 231.277391,90.5372836 C232.472834,92.238138 233.921533,93.721709 235.566735,94.9298783 C235.566735,94.9298783 228.652849,86.5819607 228.534892,85.5540879 Z" id="Path" fill="#000000" fill-rule="nonzero" opacity="0.1"></path>
                        <path d="M225.018971,77.3502712 C225.018971,77.3502712 226.329437,82.5999771 229.706866,84.382114 L225.018971,77.3502712 Z" id="Path" fill="#000000" fill-rule="nonzero" opacity="0.1"></path>
                        <path d="M223.969658,77.352029 C223.93531,77.2474591 222.748723,81.8335962 228.534892,84.382114 C228.534892,84.382114 226.07741,83.5843951 223.969658,77.352029 Z" id="Path" fill="#000000" fill-rule="nonzero" opacity="0.1"></path>
                        <path d="M259.007521,72.6657473 C258.949505,72.6657473 260.836019,74.2615948 261.350159,75.0063236 C261.350159,75.0063236 260.121824,72.5593575 259.007521,72.6657473 Z" id="Path" fill="#000000" fill-rule="nonzero" opacity="0.1"></path>
                        <path d="M240.431538,69.097898 C240.433729,69.4175701 240.569885,69.7217191 240.806969,69.9365526 C241.044054,70.1513861 241.360402,70.2572715 241.679262,70.228519 C243.890854,70.3655639 246.196025,70.4621183 248.229816,69.6055873 C248.611279,69.4696325 248.953866,69.2430067 249.227995,68.9452798 C249.589835,68.4998836 249.661579,67.8956399 249.808187,67.3412307 C250.095164,66.2573297 250.706549,65.2949003 251.146372,64.2639484 C251.890497,62.5221592 252.1398,60.6093739 251.866932,58.7354299 C251.809362,58.1610091 251.619316,57.6077117 251.311695,57.1189223 C250.725265,56.2810792 249.655341,55.9415815 248.878632,55.2750446 C248.101924,54.6085077 247.602834,53.5900145 246.695114,53.0947838 C245.877855,52.6400437 244.876556,52.6961075 243.956359,52.8518404 C242.14635,53.1587399 240.411961,53.8089585 238.846927,54.7673553 C238.319764,55.0788211 237.742691,55.4619241 237.137545,55.3466817 C236.607262,55.2470127 236.220467,54.8016165 235.88982,54.3842523 C235.464462,55.3809891 235.285782,56.4653586 235.368895,57.5456305 C235.391884,57.7041534 235.386603,57.8654871 235.353299,58.0221732 C235.277041,58.2116063 235.161116,58.3825781 235.013294,58.5236332 C234.467415,59.1465648 234.12741,60.1588288 234.66705,60.8004484 C234.900999,61.077653 235.262839,61.2302712 235.490549,61.5137051 C235.899178,62.0213944 235.761929,62.7595684 235.752571,63.4074173 C235.730066,63.6336326 235.787441,63.8605888 235.914775,64.0490369 C236.154812,64.2724481 236.494507,64.353995 236.810017,64.2639484 C237.119054,64.1710038 237.443506,64.140301 237.764526,64.1736233 C238.102748,64.2834295 238.394697,64.5026124 238.594263,64.7965549 C239.601801,66.1078261 240.001073,67.5343396 240.431538,69.097898 Z" id="Path" fill="#2D293D" fill-rule="nonzero"></path>
                        <g id="Group" opacity="0.1" stroke-width="1" fill="none" fill-rule="evenodd" transform="translate(234.394761, 55.082769)">
                            <path d="M14.0062829,13.2696734 C13.7540515,13.5497428 13.4388298,13.7629279 13.0878381,13.8908195 C11.2050263,14.6906917 9.08686303,14.5998637 7.06054424,14.4768064 C6.84298756,14.4790207 6.62787196,14.4298871 6.43198359,14.3332397 C6.12200848,14.1486538 6.00433274,13.7619024 5.90961812,13.4103103 C5.51353881,11.945343 5.14903104,10.6005031 4.20762514,9.37872038 C4.02619565,9.09689382 3.75735356,8.88538703 3.44416792,8.77808381 C3.14878426,8.7496411 2.85079589,8.77847018 2.5659051,8.86305191 C2.2760974,8.94852569 1.96360623,8.87294348 1.74217494,8.66381636 C1.62501248,8.48654465 1.57222015,8.27304873 1.59292766,8.06024985 C1.59292766,7.4449636 1.72782424,6.75642899 1.35183591,6.27884967 C1.14231569,6.01222563 0.809379461,5.86865883 0.594118966,5.60496473 C0.30802357,5.20886521 0.258400039,4.68428016 0.464962669,4.23961524 C0.106195178,4.82560215 -0.0459222389,5.56101571 0.370248051,6.06496445 C0.585508546,6.32572862 0.918444779,6.46929541 1.12796499,6.73591945 C1.50395333,7.21642871 1.37766717,7.90789326 1.36905675,8.51731964 C1.34701768,8.72980545 1.39882841,8.94344005 1.51543388,9.12088615 C1.73691121,9.3320858 2.05084923,9.40886709 2.34203419,9.32305163 C2.62638466,9.23561945 2.9249195,9.2067375 3.22029701,9.23808353 C3.53150144,9.34137739 3.80012919,9.54756096 3.98375423,9.82407043 C4.92228999,11.0458531 5.2896679,12.3877631 5.68574721,13.8585903 C5.73212983,14.220523 5.90920103,14.5517425 6.18228142,14.7873795 C6.37903568,14.8841779 6.59534194,14.9323553 6.8137122,14.9280164 C8.84864142,15.0569335 10.9696748,15.1506914 12.8410061,14.3420295 C13.1924168,14.2149941 13.5078284,14.0016806 13.7594508,13.7208833 C13.8859684,13.5558394 13.9831147,13.3693993 14.0464648,13.1700556 C14.049335,13.2081448 14.029244,13.2403741 14.0062829,13.2696734 Z" id="Path" fill="#000000" fill-rule="nonzero"></path>
                            <path d="M1.01602954,3.33426548 C1.10621783,3.23431894 1.17554984,3.11669051 1.21980947,2.98853321 C1.24569339,2.84027465 1.24569339,2.68851178 1.21980947,2.54025323 C1.16387215,1.70490934 1.27019038,0.866515269 1.53265472,0.0732483629 L1.49534291,0.0292993452 C1.10266551,0.965505085 0.938196449,1.98494244 1.01602954,3.00025294 C1.02464145,3.11141691 1.02464145,3.22310151 1.01602954,3.33426548 Z" id="Path" fill="#000000" fill-rule="nonzero"></path>
                        </g>
                        <path d="M239.082656,72.9492011 C239.082656,72.9492011 247.68601,75.1200732 248.458447,72.662376" id="Path" fill="#000000" fill-rule="nonzero" opacity="0.1"></path>
                        <path d="M256.662264,69.1464546 C256.662264,69.1464546 262.42759,69.1464546 263.694106,71.4904022" id="Path" fill="#000000" fill-rule="nonzero" opacity="0.1"></path>
                    </g>
                </g>
            </g>
        </g>
    </g>
</svg>