<?xml version="1.0" encoding="UTF-8"?>
<svg width="352px" height="250px" viewBox="0 0 352 250" version="1.1" xmlns="http://www.w3.org/2000/svg" xmlns:xlink="http://www.w3.org/1999/xlink">
    <!-- Generator: Sketch 53.2 (72643) - https://sketchapp.com -->
    <title>step-2</title>
    <desc>Created with Sketch.</desc>
    <defs>
        <rect id="path-1" x="0" y="0" width="352" height="250"></rect>
    </defs>
    <g id="UI_2" stroke="none" stroke-width="1" fill="none" fill-rule="evenodd">
        <g id="Home" transform="translate(-505.000000, -1184.000000)">
            <g id="step-2" transform="translate(505.000000, 1184.000000)">
                <mask id="mask-2" fill="white">
                    <use xlink:href="#path-1"></use>
                </mask>
                <use id="Mask" fill="#FFFFFF" xlink:href="#path-1"></use>
                <g mask="url(#mask-2)" id="2">
                    <g transform="translate(5.000000, 8.000000)">
                        <g>
                            <path d="M0.890000739,122.113347 C-3.83942176,175.094254 8.38288321,240.490226 84.014587,233.481056 C159.646291,226.471886 148.111373,184.08218 240.032537,218.191295 C331.953702,252.300409 363.954916,118.16059 329.465703,70.16778 C294.976491,22.1749696 263.522175,70.16778 231.732788,66.655501 C199.943402,63.1432221 117.074933,-22.2247755 74.181984,5.54646395 C31.2890351,33.3177034 5.61942324,69.1324392 0.890000739,122.113347 Z" id="Path-6-Copy" fill="#FFD15E" opacity="0.360258557"></path>
                            <g id="Group-6" transform="translate(0.000000, 10.000000)" fill-rule="nonzero">
                                <g id="Group-5">
                                    <path d="M244.405165,198.721654 C242.42832,206.311769 235.501249,211.055046 235.501249,211.055046 C235.501249,211.055046 231.779279,203.492314 233.756125,195.902199 C235.73297,188.312084 242.660041,183.568807 242.660041,183.568807 C242.660041,183.568807 246.382011,191.131539 244.405165,198.721654 Z" id="Path" fill="#3F3D56"></path>
                                    <path d="M242.17073,197.357266 C236.736964,202.778774 236.129032,211.055046 236.129032,211.055046 C236.129032,211.055046 244.33098,210.541313 249.764757,205.119801 C255.198534,199.69829 255.806452,191.422018 255.806452,191.422018 C255.806452,191.422018 247.604487,191.935754 242.17073,197.357266 Z" id="Path" fill="#FFCC4B"></path>
                                    <path d="M40.7500117,169.893818 L51.1280853,169.893818 L76.7026251,159.977588 C76.7026251,159.977588 94.8642539,152.632235 93.3816712,166.588408 C91.8990884,180.544581 89.30457,199.275229 89.30457,199.275229 C89.30457,199.275229 81.1503705,195.602553 76.7026195,196.704355 C72.2548684,197.806158 75.2200367,174.301024 75.2200367,174.301024 C75.2200367,174.301024 38.8967791,191.562607 35.5609693,189.359002 C32.2251595,187.155398 31.483871,171.73015 31.483871,171.73015 L40.7500117,169.893818 Z" id="Path" fill="#2F2E41"></path>
                                    <path d="M40.7500117,169.893818 L51.1280853,169.893818 L76.7026251,159.977588 C76.7026251,159.977588 94.8642539,152.632235 93.3816712,166.588408 C91.8990884,180.544581 89.30457,199.275229 89.30457,199.275229 C89.30457,199.275229 81.1503705,195.602553 76.7026195,196.704355 C72.2548684,197.806158 75.2200367,174.301024 75.2200367,174.301024 C75.2200367,174.301024 38.8967791,191.562607 35.5609693,189.359002 C32.2251595,187.155398 31.483871,171.73015 31.483871,171.73015 L40.7500117,169.893818 Z" id="Path" fill="#000000" opacity="0.1"></path>
                                    <path d="M57.5088889,137.431193 L70.0560463,155.632216 L99.3079627,180.306024 C99.3079627,180.306024 126.338219,186.661401 122.635442,191.147549 C118.932666,195.633696 96.3457443,186.661401 96.3457443,186.661401 C96.3457443,186.661401 62.6504961,161.98759 61.5396645,160.11836 C60.428833,158.249129 48.2096774,140.678391 48.2096774,140.678391 L57.5088889,137.431193 Z" id="Path" fill="#A0616A"></path>
                                    <path d="M57.5088889,137.431193 L70.0560463,155.632216 L99.3079627,180.306024 C99.3079627,180.306024 126.338219,186.661401 122.635442,191.147549 C118.932666,195.633696 96.3457443,186.661401 96.3457443,186.661401 C96.3457443,186.661401 62.6504961,161.98759 61.5396645,160.11836 C60.428833,158.249129 48.2096774,140.678391 48.2096774,140.678391 L57.5088889,137.431193 Z" id="Path" fill="#000000" opacity="0.1"></path>
                                    <path d="M49.7838715,123.688073 L58.0483871,139.652357 C58.0483871,139.652357 56.1700882,147.448867 53.1648078,148.191393 C50.1595273,148.933918 37.3870968,138.53857 37.3870968,138.53857 L49.7838715,123.688073 Z" id="Path" fill="#D0CDE1"></path>
                                    <path d="M49.7838715,123.688073 L58.0483871,139.652357 C58.0483871,139.652357 56.1700882,147.448867 53.1648078,148.191393 C50.1595273,148.933918 37.3870968,138.53857 37.3870968,138.53857 L49.7838715,123.688073 Z" id="Path" fill="#E0AF31"></path>
                                    <path d="M150.056955,162.445114 L152.482409,172.344618 C152.509449,172.454983 152.505249,172.570585 152.470271,172.678744 L141.467938,206.698543 C141.378155,206.97616 141.104613,207.154033 140.811444,207.125433 C140.518275,207.096833 140.285107,206.86953 140.251845,206.579909 L138.729803,193.327127 C138.719694,193.239111 138.728817,193.149973 138.756554,193.065749 L148.855475,162.399242 C148.942049,162.136347 149.194497,161.96228 149.473734,161.972941 C149.752971,161.983602 149.991112,162.1764 150.056955,162.445114 Z" id="Path" fill="#2F2E41"></path>
                                    <polygon id="Path" fill="#F2F2F2" points="149.30256 162.954128 151.516129 171.605611 141.923247 203.201835 139.709677 193.421997"></polygon>
                                    <path d="M100.415457,209.662052 C100.794009,210.787598 139.784669,209.286868 140.163218,208.911687 C140.493266,208.441846 140.772407,207.938822 140.996011,207.410958 C141.351871,206.660593 141.677419,205.910228 141.677419,205.910228 L140.163224,193.761827 L101.551101,192.40367 C101.551101,192.40367 100.585777,202.698672 100.388925,207.410958 C100.339765,208.600282 100.339765,209.436928 100.415457,209.662052 Z" id="Path" fill="#2F2E41"></path>
                                    <polygon id="Path" fill="#000000" opacity="0.1" points="134.047098 195.348624 134.790323 205.165138 118.064516 205.165138 118.064516 195.348624"></polygon>
                                    <polygon id="Path" fill="#000000" opacity="0.1" points="113.044676 198.315241 113.145161 198.293578 112.670063 203.201835 103.306452 203.201835 103.306452 198.315241"></polygon>
                                    <path d="M100.415004,209.770067 C100.790739,210.600054 139.491222,209.493404 139.866954,209.216742 C140.194545,208.870277 140.471609,208.499343 140.693548,208.110092 L100.388678,208.110092 C100.339876,208.987109 100.339876,209.604059 100.415004,209.770067 Z" id="Path" fill="#000000" opacity="0.1"></path>
                                    <ellipse id="Oval" fill="#A0616A" cx="55.0967742" cy="101.110092" rx="16.7258065" ry="16.6880734"></ellipse>
                                    <path d="M54.1129032,116.543787 C54.1129032,116.543787 48.5113003,126.237804 47.3909808,131.457659 C46.2706613,136.677514 30.5861775,121.017949 30.5861775,121.017949 L28.5322581,115.611671 C28.5322581,115.611671 43.283139,108.714004 42.1628195,103.121301 C41.0425001,97.5285971 54.1129032,116.543787 54.1129032,116.543787 Z" id="Path" fill="#A0616A"></path>
                                    <path d="M57.3291803,145.284404 L72.6822638,165.308664 L109.379875,192.378497 C109.379875,192.378497 135.966919,197.940793 129.975463,202.019807 C123.984008,206.098821 106.758609,198.311611 106.758609,198.311611 C106.758609,198.311611 69.6865388,178.65817 61.8227621,170.500139 C53.9589853,162.342108 39.3548387,148.621781 39.3548387,148.621781 L57.3291803,145.284404 Z" id="Path" fill="#A0616A"></path>
                                    <path d="M37.0762062,176.054698 L41.5446254,183.074174 L68.2125515,174.750092 C74.0639084,172.923663 80.4802027,173.59572 85.6702111,176.839772 C90.3248107,179.749159 93.3037522,184.367234 86.6011304,191.201988 C73.1958898,204.871495 64.2590626,197.482574 64.2590626,197.482574 C64.2590626,197.482574 19.2025491,218.541002 11.7551942,208.19651 C4.30783917,197.852019 3.93548387,192.679773 3.93548387,192.679773 C3.93548387,192.679773 32.6077926,174.946358 37.0762062,176.054698 Z" id="Path" fill="#2F2E41"></path>
                                    <path d="M92.6601578,200.756628 C92.6601578,200.756628 104.707737,208.794256 90.4012351,212.621697 C76.0947333,216.449138 65.5530999,211.09072 65.5530999,211.09072 C65.5530999,211.09072 53.1290323,211.09072 53.1290323,204.584066 C53.1290323,198.077413 57.2703891,197.311927 57.2703891,197.311927 L70.0709481,199.225647 C70.0709481,199.225647 85.5069069,195.015466 92.6601578,200.756628 Z" id="Path" fill="#C9C9C9"></path>
                                    <path d="M69.5754523,96.5696093 C70.7226522,97.0705117 71.8602333,97.6633817 73.1074473,97.8087817 C74.3546614,97.9541818 75.7749148,97.5276817 76.3650851,96.4417441 C76.6838586,95.8551893 76.7202844,95.1652493 76.7351496,94.5009325 C76.7802661,92.4864353 76.6315144,90.3086715 75.328153,88.7496714 C74.4986677,87.7574915 73.2878253,87.132025 72.4291989,86.1639265 C71.8140378,85.4703396 71.4046213,84.6296434 70.9637834,83.8186859 C69.2939386,80.7468939 66.8215435,77.7946892 63.3854464,76.9091231 C61.9506182,76.5393315 60.4454265,76.5573765 58.9619092,76.577889 L50.3088765,76.6974567 C48.9085924,76.7168066 47.4867079,76.7392932 46.1462205,77.1362666 C43.3610583,77.9610702 41.3331647,80.2550838 39.4759051,82.448913 C38.0864012,84.090217 36.6932194,85.7484981 35.6504005,87.6200823 C34.1552764,90.3512999 33.3992648,93.4120697 33.4544294,96.5106369 C33.4428411,97.3053208 33.5475962,98.0975297 33.7654999,98.8631016 C34.0204151,99.5652394 34.3362439,100.244709 34.7095258,100.894066 C36.3322557,104.0159 37.2957727,107.915278 35.4682804,110.926606 C38.6428273,109.656479 41.7838321,107.991127 43.8779444,105.331398 C44.814757,104.141554 45.5494431,102.748675 46.7979183,101.875545 C48.0463934,101.002414 50.0806748,100.926673 50.8816993,102.208117 C51.1570299,102.726501 51.2988088,103.302948 51.2946913,103.887268 C51.3531928,104.849137 51.3515958,105.848067 51.7679696,106.721087 C52.1843434,107.594106 53.1761674,108.298514 54.1231083,108.037271 C55.7538658,107.587378 55.5976986,105.135906 56.85376,104.022312 C57.8076553,103.176612 59.2793163,103.338281 60.5047991,102.954372 C61.9326274,102.507073 63.0039783,101.295528 63.6144196,99.9544761 C64.0784235,98.9351394 64.0717196,96.2676844 64.9497375,95.715675 C66.0508159,95.0234097 68.5548174,96.1239657 69.5754523,96.5696093 Z" id="Path" fill="#2F2E41"></path>
                                    <path d="M27.4965615,113.039503 C28.2495207,112.838074 29.0422442,112.840097 29.7941709,113.045367 C32.1817229,113.688046 37.5339627,115.389408 38.6815463,117.978307 C40.1692992,121.334616 45.3764318,126.555541 45.3764318,126.555541 C45.3764318,126.555541 52.4432542,133.641082 50.9555013,138.489085 C49.4677483,143.337087 43.8886789,148.930934 43.8886789,148.930934 C43.8886789,148.930934 45.3764318,172.052172 37.9376698,178.018943 C30.4989077,183.985715 27.5234046,179.883559 27.5234046,185.477406 C27.5234046,191.071253 4.46325893,208.598646 0,197.783874 C0,197.783874 2.23162946,177.646019 1.48775298,170.560478 C0.75460413,163.577124 1.82789415,120.007075 27.4965615,113.039503 Z" id="Path" fill="#FFCC4B"></path>
                                    <path d="M38.9841295,121.729407 C38.9841295,121.729407 61.6411884,138.62467 57.5554884,145.758224 C57.5554884,145.758224 43.8126815,152.516326 40.8412651,152.14088 C37.8698487,151.765434 26.3556035,138.624673 23.3841871,137.49832 C20.4127707,136.371967 18.9270611,116.097655 38.9841295,121.729407 Z" id="Path" fill="#FFCC4B"></path>
                                    <ellipse id="Oval" fill="#F2F2F2" cx="140.693548" cy="67.733945" rx="18.6935484" ry="18.6513761"></ellipse>
                                    <path d="M293.193548,43.1926606 L189.887097,43.1926606 L189.887097,21.5963303 L293.193548,21.5963303 L293.193548,43.1926606 Z M190.342191,42.7379896 L292.738454,42.7379896 L292.738454,22.0509786 L190.342191,22.0509786 L190.342191,42.7379896 Z" id="Shape" fill="#3F3D56"></path>
                                    <rect id="Rectangle" fill="#FFCC4B" x="183" y="25.5229358" width="102.322581" height="21.5963303"></rect>
                                    <ellipse id="Oval" fill="#FFCC4B" cx="118.556452" cy="4.41743119" rx="1.47580645" ry="1.47247706"></ellipse>
                                    <ellipse id="Oval" fill="#FFCC4B" cx="123.475806" cy="4.41743119" rx="1.47580645" ry="1.47247706"></ellipse>
                                    <ellipse id="Oval" fill="#FFCC4B" cx="129.379032" cy="4.41743119" rx="1.47580645" ry="1.47247706"></ellipse>
                                    <path d="M305,124.669725 L113.145161,124.669725 L113.145161,0 L305,0 L305,124.669725 Z M113.600874,124.214726 L304.544288,124.214726 L304.544288,0.454999058 L113.600874,0.454999058 L113.600874,124.214726 Z" id="Shape" fill="#3F3D56"></path>
                                    <rect id="Rectangle" fill="#3F3D56" x="113.145161" y="6.87155963" width="190.870968" height="1"></rect>
                                    <path d="M119.048387,5.88990826 C117.961633,5.88990826 117.080645,5.01090767 117.080645,3.9266055 C117.080645,2.84230334 117.961633,1.96330275 119.048387,1.96330275 C120.135141,1.96330275 121.016129,2.84230334 121.016129,3.9266055 C121.014872,5.01038779 120.13462,5.88865417 119.048387,5.88990826 L119.048387,5.88990826 Z M119.048387,2.45412844 C118.233322,2.45412844 117.572581,3.11337888 117.572581,3.9266055 C117.572581,4.73983213 118.233322,5.39908257 119.048387,5.39908257 C119.863452,5.39908257 120.524194,4.73983213 120.524194,3.9266055 C120.523249,3.11376949 119.863061,2.45507069 119.048387,2.45412844 L119.048387,2.45412844 Z" id="Shape" fill="#3F3D56"></path>
                                    <path d="M123.967742,5.88990826 C122.880988,5.88990826 122,5.01090767 122,3.9266055 C122,2.84230334 122.880988,1.96330275 123.967742,1.96330275 C125.054496,1.96330275 125.935484,2.84230334 125.935484,3.9266055 C125.934227,5.01038779 125.053975,5.88865417 123.967742,5.88990826 L123.967742,5.88990826 Z M123.967742,2.45412844 C123.152677,2.45412844 122.491935,3.11337888 122.491935,3.9266055 C122.491935,4.73983213 123.152677,5.39908257 123.967742,5.39908257 C124.782807,5.39908257 125.443548,4.73983213 125.443548,3.9266055 C125.442604,3.11376949 124.782416,2.45507069 123.967742,2.45412844 L123.967742,2.45412844 Z" id="Shape" fill="#3F3D56"></path>
                                    <path d="M129.870971,5.88990826 C128.784217,5.88990995 127.903227,5.01091073 127.903226,3.92660856 C127.903224,2.84230639 128.784211,1.96330444 129.870965,1.96330275 C130.957719,1.96330106 131.838708,2.84230028 131.83871,3.92660245 C131.837453,5.01038403 130.957203,5.8886508 129.870971,5.88990826 L129.870971,5.88990826 Z M129.870971,2.45412844 C129.274063,2.4541272 128.735929,2.81288394 128.507501,3.36311081 C128.279073,3.91333768 128.405336,4.54667682 128.827414,4.96780294 C129.249491,5.38892906 129.884262,5.51490851 130.435734,5.28699722 C130.987205,5.05908593 131.346774,4.52216716 131.346774,3.9266055 C131.345828,3.11377138 130.685643,2.45507406 129.870971,2.45412844 L129.870971,2.45412844 Z" id="Shape" fill="#3F3D56"></path>
                                    <rect id="Rectangle" fill="#3F3D56" x="173.16129" y="6.87155963" width="1" height="116.816514"></rect>
                                    <rect id="Rectangle" fill="#F2F2F2" x="194.806452" y="64.7889908" width="33.4516129" height="4.90825688"></rect>
                                    <rect id="Rectangle" fill="#F2F2F2" x="246.951613" y="64.7889908" width="33.4516129" height="4.90825688"></rect>
                                    <path d="M230.225806,66.7522936 L196.774194,66.7522936 L196.774194,61.8440367 L230.225806,61.8440367 L230.225806,66.7522936 Z M197.223209,66.3060884 L229.776791,66.3060884 L229.776791,62.2902419 L197.223209,62.2902419 L197.223209,66.3060884 Z" id="Shape" fill="#3F3D56"></path>
                                    <rect id="Rectangle" fill="#F2F2F2" x="194.806452" y="100.12844" width="33.4516129" height="4.90825688"></rect>
                                    <path d="M230.225806,102.091743 L196.774194,102.091743 L196.774194,97.1834862 L230.225806,97.1834862 L230.225806,102.091743 Z M197.223209,101.645538 L229.776791,101.645538 L229.776791,97.6296917 L197.223209,97.6296917 L197.223209,101.645538 Z" id="Shape" fill="#3F3D56"></path>
                                    <rect id="Rectangle" fill="#F2F2F2" x="195.790323" y="81.4770642" width="85.5967742" height="4.90825688"></rect>
                                    <path d="M283.354839,85.4036697 L196.774194,85.4036697 L196.774194,80.4954128 L283.354839,80.4954128 L283.354839,85.4036697 Z M197.229873,84.9574646 L282.899143,84.9574646 L282.899143,80.941618 L197.229873,80.941618 L197.229873,84.9574646 Z" id="Shape" fill="#3F3D56"></path>
                                    <path d="M282.370968,66.7522936 L248.919355,66.7522936 L248.919355,61.8440367 L282.370968,61.8440367 L282.370968,66.7522936 Z M249.368367,66.3060884 L281.921953,66.3060884 L281.921953,62.2902419 L249.368367,62.2902419 L249.368367,66.3060884 Z" id="Shape" fill="#3F3D56"></path>
                                    <path d="M143.645161,80.4954128 C133.321,80.4954128 124.951613,72.1449073 124.951613,61.8440367 C124.951613,51.5431661 133.321,43.1926606 143.645161,43.1926606 C153.969323,43.1926606 162.33871,51.5431661 162.33871,61.8440367 C162.327053,72.140086 153.964491,80.4837824 143.645161,80.4954128 Z M143.645161,43.7578538 C133.633853,43.7578538 125.518084,51.8553137 125.518084,61.8440367 C125.518084,71.8327597 133.633853,79.9302196 143.645161,79.9302196 C153.65647,79.9302196 161.772239,71.8327597 161.772239,61.8440367 C161.760891,51.8600071 153.651766,43.7691757 143.645161,43.7578538 Z" id="Shape" fill="#3F3D56"></path>
                                    <rect id="Rectangle" fill="#3F3D56" x="211.532258" y="211.055046" width="80.6774194" height="1"></rect>
                                </g>
                            </g>
                        </g>
                    </g>
                </g>
            </g>
        </g>
    </g>
</svg>