<?xml version="1.0" encoding="UTF-8"?>
<svg width="42px" height="42px" viewBox="0 0 42 42" version="1.1" xmlns="http://www.w3.org/2000/svg" xmlns:xlink="http://www.w3.org/1999/xlink">
    <!-- Generator: sketchtool 53.2 (72643) - https://sketchapp.com -->
    <title>D119380D-6063-4D79-849E-62CEA2DBF7AA</title>
    <desc>Created with sketchtool.</desc>
    <g id="UI_2" stroke="none" stroke-width="1" fill="none" fill-rule="evenodd">
        <g id="Homepage" transform="translate(-1242.000000, -7814.000000)">
            <g id="youtube-footer" transform="translate(1243.000000, 7815.000000)">
                <circle id="Oval" stroke="#3C3C3C" cx="20" cy="20" r="20"></circle>
                <path d="M28.3373839,15.0301147 C27.7237387,14.2984516 26.590771,14 24.4270548,14 L16.5727806,14 C14.3595452,14 13.2073839,14.317703 12.5960419,15.0966695 C12,15.8561646 12,16.9752207 12,18.524023 L12,21.476032 C12,24.4765546 12.7072,26 16.5727806,26 L24.4271097,26 C26.303471,26 27.3432129,25.7366409 28.0158645,25.0909491 C28.7056806,24.4288111 29,23.3477077 29,21.476032 L29,18.524023 C29,16.8906796 28.9538806,15.765023 28.3373839,15.0301147 Z M22.9140548,20.4075795 L19.3474548,22.2772201 C19.2677194,22.3190231 19.1805258,22.3397596 19.0934419,22.3397596 C18.9948419,22.3397596 18.8964613,22.3131377 18.8093226,22.2602239 C18.6452452,22.1605016 18.5450548,21.9821237 18.5450548,21.7897198 L18.5450548,18.0624295 C18.5450548,17.8703556 18.644971,17.6921427 18.8087194,17.5923654 C18.9725226,17.4925882 19.1762484,17.4857677 19.3461935,17.5743241 L22.9127935,19.4319188 C23.0942548,19.5264157 23.2082097,19.7143093 23.2084839,19.9193091 C23.2087032,20.124474 23.0952419,20.3126427 22.9140548,20.4075795 Z" id="XMLID_823_" fill="#3C3C3C" fill-rule="nonzero"></path>
            </g>
        </g>
    </g>
</svg>