<?xml version="1.0" encoding="utf-8"?>
<!-- Generator: Adobe Illustrator 19.2.1, SVG Export Plug-In . SVG Version: 6.00 Build 0)  -->
<svg version="1.1" id="Layer_1" xmlns="http://www.w3.org/2000/svg" xmlns:xlink="http://www.w3.org/1999/xlink" x="0px" y="0px"
	 viewBox="0 0 35 34.8" style="enable-background:new 0 0 35 34.8;" xml:space="preserve">
<style type="text/css">
	.st0{fill:#FFFFFF;}
</style>
<g>
	<g>
		<path class="st0" d="M15.6,32.3c-0.1,0-0.1,0-0.2,0l-5.5-1.7c-0.2-0.1-0.3-0.2-0.4-0.3c-0.1-0.2-0.1-0.3-0.1-0.5l0.7-2.2
			c-0.9-0.6-1.5-1.2-2.1-1.8l-1.4,0.9c-0.2,0.1-0.3,0.1-0.5,0.1c-0.2,0-0.3-0.2-0.4-0.3l-2.7-5c-0.1-0.2-0.1-0.4-0.1-0.5
			c0.1-0.2,0.2-0.3,0.3-0.4l1.6-0.8c-0.2-0.9-0.4-1.7-0.4-2.8l-2.2-0.7c-0.2-0.1-0.3-0.2-0.4-0.3c-0.1-0.2-0.1-0.3-0.1-0.5l1.7-5.5
			c0.1-0.2,0.2-0.3,0.3-0.4c0.2-0.1,0.3-0.1,0.5-0.1l2.2,0.7c0.6-1,1.2-1.8,2-2.5L7.6,5.7C7.5,5.4,7.6,5,7.9,4.9l5-2.7
			C13.1,2,13.3,2,13.4,2.1c0.2,0.1,0.3,0.2,0.4,0.3L14.6,4c0.9-0.2,1.7-0.4,2.8-0.4l0.4-1.4c0.1-0.2,0.2-0.3,0.3-0.4
			c0.2-0.1,0.3-0.1,0.5-0.1l5.5,1.7c0.4,0.1,0.6,0.5,0.5,0.8l-0.4,1.4c1,0.6,1.8,1.3,2.6,2l1.9-0.8c0.3-0.1,0.7,0,0.9,0.3l2.7,5.1
			c0.2,0.3,0.1,0.7-0.3,0.9l-1.7,1c0.2,1,0.3,2.1,0.3,3.2l1.3,0.4c0.4,0.1,0.6,0.5,0.5,0.8l-1.7,5.5c-0.1,0.4-0.5,0.6-0.8,0.5
			l-1.3-0.4c-0.6,0.9-1.2,1.5-1.9,2.1l0.9,1.4c0.1,0.2,0.1,0.4,0.1,0.5c0,0.2-0.2,0.3-0.3,0.4l-5.1,2.7c-0.3,0.2-0.7,0.1-0.9-0.3
			l-1-1.7c-1,0.2-2.1,0.3-3.3,0.3l-0.7,2.2C16.2,32.1,15.9,32.3,15.6,32.3z M11,29.5l4.2,1.3l0.6-2c0.1-0.3,0.4-0.5,0.7-0.5
			c1.4,0.1,2.7,0,3.8-0.3c0.3-0.1,0.6,0.1,0.8,0.3l0.9,1.6l3.9-2.1l-0.8-1.3c-0.2-0.3-0.1-0.6,0.1-0.9c1-0.9,1.6-1.5,2.3-2.6
			c0.2-0.3,0.5-0.4,0.8-0.3l1.2,0.4l1.3-4.2l-1.2-0.4c-0.3-0.1-0.5-0.4-0.5-0.7c0.1-1.3,0-2.6-0.3-3.8c-0.1-0.3,0.1-0.6,0.3-0.8
			l1.6-0.9l-2.1-4l-1.8,0.8c-0.3,0.1-0.6,0.1-0.8-0.2c-0.8-1-1.9-1.8-3-2.4c-0.3-0.2-0.4-0.5-0.3-0.8l0.4-1.3l-4.2-1.3l-0.4,1.3
			C18.4,4.8,18.1,5,17.8,5c-1.3-0.1-2.2,0.1-3.3,0.4c-0.3,0.1-0.7,0-0.9-0.3l-0.7-1.4L9.1,5.7l0.8,1.7c0.1,0.3,0.1,0.6-0.2,0.8
			c-0.9,0.8-1.7,1.8-2.3,3c-0.2,0.3-0.5,0.4-0.8,0.3L4.5,11l-1.3,4.2l2.1,0.6c0.3,0.1,0.5,0.4,0.5,0.7c-0.1,1.4,0.1,2.3,0.4,3.4
			c0.1,0.3-0.1,0.6-0.4,0.8l-1.5,0.7l2.1,3.8l1.3-0.8c0.3-0.2,0.6-0.1,0.9,0.1c0.8,0.9,1.4,1.5,2.6,2.2c0.3,0.2,0.4,0.5,0.3,0.8
			L11,29.5z"/>
	</g>
	<g>
		<path class="st0" d="M17.2,22.9c-3.3,0-6-2.7-6-6c0-3.3,2.7-6,6-6s6,2.7,6,6C23.2,20.2,20.5,22.9,17.2,22.9z M17.2,12.2
			c-2.6,0-4.7,2.1-4.7,4.7s2.1,4.7,4.7,4.7s4.7-2.1,4.7-4.7S19.8,12.2,17.2,12.2z"/>
	</g>
</g>
</svg>
