<?xml version="1.0" encoding="utf-8"?>
<!-- Generator: Adobe Illustrator 19.2.1, SVG Export Plug-In . SVG Version: 6.00 Build 0)  -->
<svg version="1.1" id="Layer_1" xmlns="http://www.w3.org/2000/svg"  x="0px" y="0px"
	 viewBox="0 0 50 50" style="enable-background:new 0 0 50 50;" xml:space="preserve">
<style type="text/css">
	.st0{fill:#3B5998;}
	.st1{fill:#FFFFFF;}
</style>
<g>
	<circle class="st0" cx="25" cy="25" r="25"/>
	<path class="st1" d="M32.5,10.1h-3.9c-4.4,0-7.2,2.9-7.2,7.4v3.4h-3.9c-0.3,0-0.6,0.3-0.6,0.6v4.9c0,0.3,0.3,0.6,0.6,0.6h3.9v12.4
		c0,0.3,0.3,0.6,0.6,0.6h5.1c0.3,0,0.6-0.3,0.6-0.6V27h4.6c0.3,0,0.6-0.3,0.6-0.6v-4.9c0-0.2-0.1-0.3-0.2-0.4
		c-0.1-0.1-0.3-0.2-0.4-0.2h-4.6V18c0-1.4,0.3-2.1,2.1-2.1h2.6c0.3,0,0.6-0.3,0.6-0.6v-4.6C33.1,10.4,32.8,10.1,32.5,10.1L32.5,10.1
		z"/>
</g>
</svg>
