<?xml version="1.0" encoding="utf-8"?>
<!-- Generator: Adobe Illustrator 19.2.1, SVG Export Plug-In . SVG Version: 6.00 Build 0)  -->
<svg version="1.1" id="Layer_1" xmlns="http://www.w3.org/2000/svg"  x="0px" y="0px"
	 viewBox="0 0 51 51" style="enable-background:new 0 0 51 51;" xml:space="preserve">
<style type="text/css">
	.st0{fill:#DC4A38;}
	.st1{fill:#FFFFFF;}
</style>
<circle class="st0" cx="25.5" cy="25.5" r="25"/>
<g>
	<g>
		<g>
			<path class="st1" d="M29.9,10.5h-7.2c-3.2,0-5.4,0.7-7.4,2.3c-1.6,1.3-2.5,3.3-2.5,5.2c0,3,2.3,6.1,6.5,6.1c0.4,0,0.9,0,1.2-0.1
				l-0.1,0.1c-0.2,0.4-0.3,0.8-0.3,1.4c0,1.2,0.6,1.9,1.1,2.6l0.1,0.1h-0.1c-1.7,0.1-5,0.3-7.3,1.8c-2.8,1.7-3,4.1-3,4.8
				c0,2.8,2.6,5.6,8.4,5.6c6.7,0,10.3-3.7,10.3-7.4c0-2.7-1.6-4.1-3.3-5.5l-1.4-1.1c-0.4-0.4-1-0.8-1-1.7c0-0.8,0.5-1.4,1-1.9
				l0.1-0.1c1.5-1.2,3.3-2.6,3.3-5.6s-1.9-4.5-2.8-5.3h2.4H28l2-1.3c0.1,0,0.1-0.1,0.1-0.2C30,10.5,30,10.5,29.9,10.5L29.9,10.5z
				 M21.2,38.9c-4.1,0-6.9-1.9-6.9-4.8c0-1.9,1.1-3.2,3.4-4c1.8-0.6,4.1-0.6,4.1-0.6c0.4,0,0.6,0,0.9,0c2.9,2,4.3,3.1,4.3,5.2
				C27,37.2,24.8,38.9,21.2,38.9L21.2,38.9z M21.2,23.1c-3.4,0-4.9-4.5-4.9-7c0-1.2,0.3-2.2,0.9-2.9c0.6-0.8,1.7-1.3,2.7-1.3
				c3.2,0,4.9,4.3,4.9,7.2c0,0.5,0,1.9-1,2.9C23.2,22.7,22.1,23.1,21.2,23.1L21.2,23.1z"/>
			<path class="st1" d="M39.9,24.5h-3.8v-3.8c0-0.1-0.1-0.2-0.2-0.2h-1.6c-0.1,0-0.2,0.1-0.2,0.2v3.8h-3.8c-0.1,0-0.2,0.1-0.2,0.2
				v1.6c0,0.1,0.1,0.2,0.2,0.2h3.8v3.8c0,0.1,0.1,0.2,0.2,0.2H36c0.1,0,0.2-0.1,0.2-0.2v-3.8H40c0.1,0,0.2-0.1,0.2-0.2v-1.6
				C40.1,24.6,40,24.5,39.9,24.5L39.9,24.5z"/>
		</g>
	</g>
</g>
</svg>
