<?xml version="1.0" encoding="utf-8"?>
<!-- Generator: Adobe Illustrator 19.2.1, SVG Export Plug-In . SVG Version: 6.00 Build 0)  -->
<svg version="1.1" id="Layer_1" xmlns="http://www.w3.org/2000/svg"  x="0px" y="0px"
	 viewBox="0 0 51 51" style="enable-background:new 0 0 51 51;" xml:space="preserve">
<style type="text/css">
	.st0{fill:#0077B5;}
	.st1{fill:#FFFFFF;}
</style>
<circle class="st0" cx="25.5" cy="25.5" r="25"/>
<g>
	<path class="st1" d="M41.2,28.9v11.6h-6.7V29.7c0-2.7-1-4.6-3.4-4.6c-1.9,0-3,1.3-3.5,2.5c-0.2,0.4-0.2,1-0.2,1.6v11.3h-6.7
		c0,0,0.1-18.3,0-20.2h6.7v2.9c0,0,0,0,0,0.1l0,0v-0.1c0.9-1.4,2.5-3.3,6.1-3.3C37.9,19.8,41.2,22.7,41.2,28.9L41.2,28.9z
		 M13.6,10.5c-2.3,0-3.8,1.5-3.8,3.5c0,1.9,1.5,3.5,3.7,3.5l0,0c2.3,0,3.8-1.6,3.8-3.5C17.3,12,15.9,10.5,13.6,10.5L13.6,10.5z
		 M10.2,40.5h6.7V20.3h-6.7V40.5z"/>
</g>
</svg>
