<?xml version="1.0" encoding="utf-8"?>
<!-- Generator: Adobe Illustrator 19.2.1, SVG Export Plug-In . SVG Version: 6.00 Build 0)  -->
<svg version="1.1" id="Layer_1" xmlns="http://www.w3.org/2000/svg"  x="0px" y="0px"
	 viewBox="0 0 20 20" style="enable-background:new 0 0 20 20;" xml:space="preserve">
<style type="text/css">
	.st0{fill:#FFFFFF;}
	.st1{fill:none;stroke:#FFFFFF;stroke-width:0.5;stroke-miterlimit:10;}
</style>
<g>
	<path class="st0" d="M10.1,17.7H4.6c-0.4,0-0.7-0.3-0.7-0.7v-2.2h6c0.1-0.2,0.2-0.4,0.3-0.6H3.9V2.9h8.9v9.6c0.1,0,0.3,0,0.4,0
		c0.1,0,0.1,0,0.1,0V1.8c0-0.7-0.6-1.3-1.3-1.3H4.6c-0.7,0-1.3,0.6-1.3,1.3V17c0,0.7,0.6,1.3,1.3,1.3h5.9
		C10.4,18.1,10.2,17.9,10.1,17.7z M3.9,1.8c0-0.4,0.3-0.7,0.7-0.7H12c0.4,0,0.7,0.3,0.7,0.7v0.5H3.9V1.8z"/>
	<circle class="st1" cx="13.2" cy="15.9" r="3.6"/>
	<circle class="st1" cx="8.3" cy="16.1" r="0.6"/>
	<polyline class="st1" points="15.1,14.8 12.7,17.1 11.5,15.9 	"/>
</g>
</svg>
