<?xml version="1.0" encoding="utf-8"?>
<!-- Generator: Adobe Illustrator 19.2.1, SVG Export Plug-In . SVG Version: 6.00 Build 0)  -->
<svg version="1.1" id="Layer_1" xmlns="http://www.w3.org/2000/svg"  x="0px" y="0px"
	 viewBox="0 0 20 20" style="enable-background:new 0 0 20 20;" xml:space="preserve">
<style type="text/css">
	.st0{fill:#333333;}
	.st1{fill:none;stroke:#333333;stroke-width:0.5;stroke-miterlimit:10;}
</style>
<g>
	<g>
		<g>
			<path class="st0" d="M14,12c-0.1,0-0.1,0-0.2-0.1l-3.2-3c-0.1-0.1-0.1-0.3,0-0.4c0.1-0.1,0.3-0.1,0.4,0l3.2,3
				c0.1,0.1,0.1,0.3,0,0.4C14.2,12,14.1,12,14,12z"/>
			<path class="st0" d="M3.4,12c-0.1,0-0.1,0-0.2-0.1c-0.1-0.1-0.1-0.3,0-0.4l3.2-3c0.1-0.1,0.3-0.1,0.4,0s0.1,0.3,0,0.4l-3.2,3
				C3.6,12,3.5,12,3.4,12z"/>
		</g>
		<path class="st0" d="M8.7,10.1c-0.4,0-0.7-0.1-1-0.4l-7-6.1c-0.1-0.1-0.1-0.3,0-0.4c0.1-0.1,0.3-0.1,0.4,0l7.1,6.2
			c0.4,0.3,0.9,0.3,1.3,0l7.1-6.1c0.1-0.1,0.3-0.1,0.4,0s0.1,0.3,0,0.4L9.7,9.8C9.5,10,9.1,10.1,8.7,10.1z"/>
		<path class="st0" d="M13.5,14.3H1.6c-0.5,0-0.8-0.4-0.8-0.8V4.1c0-0.5,0.4-0.8,0.8-0.8h14.3c0.5,0,0.8,0.4,0.8,0.8v7.2
			c0.2,0,0.4,0,0.5,0.1V4.1c0-0.8-0.6-1.4-1.4-1.4H1.6c-0.8,0-1.4,0.6-1.4,1.4v9.4c0,0.8,0.6,1.4,1.4,1.4h12
			C13.5,14.6,13.5,14.4,13.5,14.3z"/>
	</g>
	<polyline class="st1" points="18.4,13.2 16.3,15.2 15.3,14.1 	"/>
	<circle class="st1" cx="16.8" cy="14.3" r="3"/>
</g>
</svg>
