<?xml version="1.0" encoding="utf-8"?>
<!-- Generator: Adobe Illustrator 19.2.1, SVG Export Plug-In . SVG Version: 6.00 Build 0)  -->
<svg version="1.1" id="Layer_1" xmlns="http://www.w3.org/2000/svg"  x="0px" y="0px"
	 viewBox="0 0 20 20" style="enable-background:new 0 0 20 20;" xml:space="preserve">
<style type="text/css">
	.st0{fill:#333333;}
</style>
<g>
	<g>
		<path class="st0" d="M16.2,13.9c-0.1,0-0.2,0-0.2-0.1l-3.7-3.5c-0.1-0.1-0.1-0.3,0-0.5c0.1-0.1,0.3-0.1,0.5,0l3.7,3.5
			c0.1,0.1,0.1,0.3,0,0.5C16.4,13.8,16.3,13.9,16.2,13.9z"/>
		<path class="st0" d="M3.8,13.9c-0.1,0-0.2,0-0.2-0.1c-0.1-0.1-0.1-0.3,0-0.5l3.7-3.5c0.1-0.1,0.3-0.1,0.5,0c0.1,0.1,0.1,0.3,0,0.5
			L4,13.8C4,13.8,3.9,13.9,3.8,13.9z"/>
	</g>
	<path class="st0" d="M18.4,17.1H1.6c-0.9,0-1.6-0.7-1.6-1.6v-11c0-0.9,0.7-1.6,1.6-1.6h16.8c0.9,0,1.6,0.7,1.6,1.6v11
		C20,16.4,19.3,17.1,18.4,17.1z M1.6,3.5c-0.5,0-1,0.4-1,1v11c0,0.5,0.4,1,1,1h16.8c0.5,0,1-0.4,1-1v-11c0-0.5-0.4-1-1-1H1.6z"/>
	<path class="st0" d="M10,11.6c-0.4,0-0.9-0.1-1.2-0.4L0.5,4c-0.1-0.1-0.1-0.3,0-0.5c0.1-0.1,0.3-0.1,0.5,0l8.3,7.2
		c0.4,0.4,1.1,0.4,1.5,0L19,3.5c0.1-0.1,0.3-0.1,0.5,0c0.1,0.1,0.1,0.3,0,0.5l-8.3,7.2C10.9,11.5,10.4,11.6,10,11.6z"/>
</g>
</svg>
