<?xml version="1.0" encoding="utf-8"?>
<!-- Generator: Adobe Illustrator 19.2.1, SVG Export Plug-In . SVG Version: 6.00 Build 0)  -->
<svg version="1.1" id="Layer_1" xmlns="http://www.w3.org/2000/svg"  x="0px" y="0px"
	 viewBox="0 0 20 20" style="enable-background:new 0 0 20 20;" xml:space="preserve">
<style type="text/css">
	.st0{fill:#FFFFFF;}
</style>
<g>
	<g>
		<path class="st0" d="M13.5,12.3c1.9-1.2,3.2-3.2,3.2-5.7C16.7,3,13.7,0,10,0S3.3,3,3.3,6.7c0,2.4,1.2,4.5,3.2,5.7
			C3.2,13.6,0.7,16.5,0,20h1.7c0.8-3.8,4.3-6.7,8.3-6.7s7.5,2.8,8.3,6.7H20C19.3,16.4,16.8,13.5,13.5,12.3z M5,6.7c0-2.7,2.3-5,5-5
			s5,2.3,5,5s-2.3,5-5,5S5,9.4,5,6.7z"/>
	</g>
</g>
</svg>
