<?xml version="1.0" encoding="utf-8"?>
<!-- Generator: Adobe Illustrator 19.2.1, SVG Export Plug-In . SVG Version: 6.00 Build 0)  -->
<svg version="1.1" id="Layer_1" xmlns="http://www.w3.org/2000/svg"  x="0px" y="0px"
	 viewBox="0 0 20 20" style="enable-background:new 0 0 20 20;" xml:space="preserve">
<style type="text/css">
	.st0{fill:#333333;}
</style>
<g>
	<path class="st0" d="M14.2,0H5.8C5,0,4.3,0.7,4.3,1.5v17.1C4.3,19.3,5,20,5.8,20h8.4c0.8,0,1.5-0.7,1.5-1.5V1.5
		C15.7,0.7,15,0,14.2,0z M5,2.7h10v12.7H5V2.7z M5.8,0.7h8.4C14.6,0.7,15,1,15,1.5V2H5V1.5C5,1,5.4,0.7,5.8,0.7z M14.2,19.3H5.8
		C5.4,19.3,5,19,5,18.5V16h10v2.5C15,19,14.6,19.3,14.2,19.3z"/>
	<path class="st0" d="M10,16.3c-0.7,0-1.3,0.6-1.3,1.3c0,0.7,0.6,1.3,1.3,1.3s1.3-0.6,1.3-1.3C11.3,16.9,10.7,16.3,10,16.3z
		 M10,18.3c-0.4,0-0.7-0.3-0.7-0.7c0-0.4,0.3-0.7,0.7-0.7s0.7,0.3,0.7,0.7C10.7,18,10.4,18.3,10,18.3z"/>
	<path class="st0" d="M8.7,1.7H10c0.2,0,0.3-0.1,0.3-0.3S10.2,1,10,1H8.7C8.5,1,8.3,1.1,8.3,1.3S8.5,1.7,8.7,1.7z"/>
	<path class="st0" d="M11,1.7h0.3c0.2,0,0.3-0.1,0.3-0.3S11.5,1,11.3,1H11c-0.2,0-0.3,0.1-0.3,0.3S10.8,1.7,11,1.7z"/>
</g>
</svg>
