<?xml version="1.0" encoding="utf-8"?>
<!-- Generator: Adobe Illustrator 19.2.1, SVG Export Plug-In . SVG Version: 6.00 Build 0)  -->
<svg version="1.1" id="Layer_1" xmlns="http://www.w3.org/2000/svg"  x="0px" y="0px"
	 viewBox="0 0 20 20" style="enable-background:new 0 0 20 20;" xml:space="preserve">
<style type="text/css">
	.st0{fill:#FFFFFF;}
</style>
<g>
	<g>
		<path class="st0" d="M14.9,7.5V4.9C14.9,2.2,12.7,0,10,0S5.1,2.2,5.1,4.9v2.6C3.9,7.7,2.9,8.7,2.9,10v7.5C2.9,18.9,4,20,5.4,20
			h9.3c1.4,0,2.5-1.1,2.5-2.5V10C17.1,8.7,16.1,7.7,14.9,7.5z M6.8,4.9c0-1.8,1.5-3.2,3.2-3.2s3.2,1.5,3.2,3.2v2.6H6.8L6.8,4.9
			L6.8,4.9z M15.5,17.5c0,0.4-0.4,0.8-0.8,0.8H5.4c-0.4,0-0.8-0.4-0.8-0.8V10c0-0.4,0.4-0.8,0.8-0.8h9.3c0.4,0,0.8,0.4,0.8,0.8V17.5
			z"/>
		<path class="st0" d="M10,13.8c-0.5,0-0.8,0.4-0.8,0.8v1.6c0,0.5,0.4,0.8,0.8,0.8c0.5,0,0.8-0.4,0.8-0.8v-1.6
			C10.8,14.2,10.5,13.8,10,13.8z"/>
	</g>
</g>
</svg>
